<?xml version="1.0" encoding="UTF-8" standalone="no"?>
<!-- Created with Inkscape (http://www.inkscape.org/) -->

<svg
   xmlns:dc="http://purl.org/dc/elements/1.1/"
   xmlns:cc="http://creativecommons.org/ns#"
   xmlns:rdf="http://www.w3.org/1999/02/22-rdf-syntax-ns#"
   xmlns:svg="http://www.w3.org/2000/svg"
   xmlns="http://www.w3.org/2000/svg"
   xmlns:sodipodi="http://sodipodi.sourceforge.net/DTD/sodipodi-0.dtd"
   xmlns:inkscape="http://www.inkscape.org/namespaces/inkscape"
   version="1.1"
   id="svg3713"
   width="256"
   height="256"
   viewBox="0 0 256 256"
   sodipodi:docname="albums.svg"
   inkscape:version="0.92.4 (5da689c313, 2019-01-14)">
  <metadata
     id="metadata3719">
    <rdf:RDF>
      <cc:Work
         rdf:about="">
        <dc:format>image/svg+xml</dc:format>
        <dc:type
           rdf:resource="http://purl.org/dc/dcmitype/StillImage" />
        <dc:title></dc:title>
      </cc:Work>
    </rdf:RDF>
  </metadata>
  <defs
     id="defs3717" />
  <sodipodi:namedview
     pagecolor="#ffffff"
     bordercolor="#666666"
     borderopacity="1"
     objecttolerance="10"
     gridtolerance="10"
     guidetolerance="10"
     inkscape:pageopacity="0"
     inkscape:pageshadow="2"
     inkscape:window-width="640"
     inkscape:window-height="480"
     id="namedview3715"
     showgrid="false"
     inkscape:zoom="0.66981795"
     inkscape:cx="79.411353"
     inkscape:cy="169.47455"
     inkscape:window-x="353"
     inkscape:window-y="388"
     inkscape:window-maximized="0"
     inkscape:current-layer="svg3713" />
  <g
     id="g3772"
     transform="matrix(0.97066775,0,0,0.97066775,14.180838,6.6802158)">
    <path
       style="fill:#d0d0d0;fill-opacity:1;stroke-width:1.13420665"
       d="m 51.882306,227.35926 c -12.157356,-0.56097 -12.32599,-0.60716 -15.595341,-4.27118 -1.817804,-2.03723 -3.305089,-4.71679 -3.305089,-5.95458 0,-1.94163 -0.771023,-2.25052 -5.617666,-2.25052 -6.658483,0 -10.720006,-1.63575 -13.106985,-5.27874 -1.421706,-2.1698 -2.732549,-2.66103 -7.1046966,-2.66246 -6.44190117,-0.002 -12.7471361,-2.9231 -14.6860407,-6.80348 -1.081728,-2.1649 -1.4207708,-17.86481 -1.4335363,-66.38227 -0.018346,-69.723563 -0.3191816,-66.614101 6.8010454,-70.296113 1.80259462,-0.932158 5.7587719,-1.694833 8.7915055,-1.694833 4.7913507,0 5.8384307,-0.438734 7.9889097,-3.347413 2.750255,-3.71992 8.111856,-5.673307 13.429665,-4.892819 3.203858,0.470227 3.706277,0.08379 5.969484,-4.591374 4.429021,-9.149115 0.27669,-8.71832 84.033809,-8.71832 82.46516,0 79.4378,-0.279733 83.50131,7.715644 2.78208,5.474004 3.41723,5.85691 9.74938,5.877468 4.59007,0.0149 5.91334,0.581029 9.31939,3.987091 3.38192,3.381913 4.73942,3.969723 9.1678,3.969723 2.85892,0 6.67291,0.762675 8.4755,1.694833 7.12022,3.682012 6.81938,0.57255 6.80104,70.296113 -0.0128,48.51746 -0.3518,64.21737 -1.43353,66.38227 -1.93752,3.8776 -8.24285,6.80136 -14.67229,6.80348 -4.17638,0.001 -5.61208,0.496 -6.55531,2.25843 -1.83824,3.43479 -7.20247,5.68277 -13.56043,5.68277 -5.06214,0 -5.72736,0.27665 -5.72736,2.38184 0,1.31001 -1.73534,4.11717 -3.8563,6.23813 l -3.85631,3.85631 -15.14166,0.0925 c -68.56155,0.41937 -118.055717,0.38366 -128.376294,-0.0925 z M 192.67817,216.92455 c 1.9693,-1.9693 1.9693,-163.171186 0,-165.140484 -1.96739,-1.96738 -147.29421,-1.96738 -149.261593,0 -1.799714,1.799715 -1.98079,160.955844 -0.18694,164.307684 1.142259,2.13433 3.167136,2.19385 74.630793,2.19385 55.62071,0 73.78716,-0.33047 74.81774,-1.36105 z M 51.848949,205.49411 c -2.760908,-2.01882 -2.231109,-14.16912 0.697991,-16.00758 3.691434,-2.31693 5.914059,0.46986 6.302253,7.90198 0.276633,5.29609 -0.05739,6.95234 -1.634539,8.1056 -1.090211,0.79719 -2.297495,1.44943 -2.682853,1.44943 -0.385358,0 -1.592641,-0.65224 -2.682852,-1.44943 z m 127.031141,0 c -1.57717,-1.15326 -1.91117,-2.80951 -1.63454,-8.1056 0.38819,-7.43212 2.61082,-10.21891 6.30225,-7.90198 2.9291,1.83846 3.4589,13.98876 0.69799,16.00758 -1.09021,0.79719 -2.29749,1.44943 -2.68285,1.44943 -0.38536,0 -1.59264,-0.65224 -2.68285,-1.44943 z M 83.45407,189.23191 C 69.726552,185.94843 63.137129,174.34449 69.319553,164.3411 74.113788,156.58386 88.01493,152.61707 97.10098,156.41346 l 3.93329,1.64344 v -24.67789 c 0,-18.00155 0.38356,-25.17736 1.41776,-26.52407 1.84841,-2.40697 55.103,-28.076756 58.24809,-28.076756 1.32529,0 3.75442,1.057831 5.39807,2.350734 l 2.98848,2.350734 v 46.642738 46.64274 l -2.93191,4.23075 c -1.61255,2.32691 -4.80251,5.12974 -7.08879,6.2285 -4.9954,2.40074 -17.5751,2.69835 -21.73709,0.51427 -11.53031,-6.05078 -14.56028,-18.10336 -6.50989,-25.89485 6.9503,-6.72674 16.99171,-8.88536 25.26073,-5.43034 l 3.9333,1.64344 v -23.09191 -23.0919 l -13.32693,5.70094 c -7.32981,3.13551 -16.13409,6.85943 -19.56507,8.27536 -3.43097,1.41594 -8.6625,3.67748 -11.62561,5.02565 l -5.38748,2.45121 v 20.28881 c 0,11.61879 -0.51698,21.65324 -1.20976,23.48171 -1.48509,3.91955 -5.18931,8.00585 -9.104288,10.04332 -3.276077,1.70497 -12.838913,2.92921 -16.339812,2.09182 z M 97.775311,176.3508 c 2.977109,-2.97712 3.210739,-3.67411 1.995898,-5.95459 -2.225416,-4.17755 -4.610255,-5.344 -11.00422,-5.38225 -6.707891,-0.0402 -9.766313,1.16593 -11.587894,4.56959 -2.876405,5.37462 2.527795,10.01712 11.7497,10.09361 4.592278,0.0381 6.018225,-0.49807 8.846516,-3.32636 z m 57.676819,1.68291 c 3.83701,-1.98419 5.17585,-5.25064 3.46352,-8.45016 -1.80303,-3.36898 -5.2851,-4.82668 -11.41622,-4.77919 -6.18416,0.0479 -9.45547,1.67168 -11.23465,5.57653 -1.05647,2.31871 -0.76673,3.14851 2.10046,6.0157 2.71999,2.71999 4.28206,3.32599 8.57348,3.32599 2.88613,0 6.71716,-0.75999 8.51341,-1.68887 z m -21.86145,-65.26872 c 11.72513,-5.01217 22.46679,-9.59477 23.87037,-10.18354 2.20911,-0.92668 2.55197,-1.91188 2.55197,-7.332953 0,-3.44435 -0.23512,-6.262453 -0.52249,-6.262453 -0.28737,0 -11.51602,5.331899 -24.95254,11.848666 l -24.43006,11.84866 v 4.59733 c 0,2.52853 0.48698,4.59734 1.08216,4.59734 0.5952,0 10.67546,-4.10087 22.40059,-9.11305 z m -83.049823,66.74419 c -0.314992,-0.82089 -0.439085,-21.652 -0.275748,-46.29137 l 0.296969,-44.798869 h 3.969723 3.969724 v 45.935369 45.93537 l -3.693975,0.35599 c -2.285506,0.22027 -3.912333,-0.21307 -4.266693,-1.13649 z m 127.031143,0 c -0.31499,-0.82089 -0.43909,-21.652 -0.27575,-46.29137 l 0.29697,-44.798869 h 3.96972 3.96973 v 45.935369 45.93537 l -3.69398,0.35599 c -2.28551,0.22027 -3.91233,-0.21307 -4.26669,-1.13649 z M 51.848949,78.462966 c -1.577171,-1.153258 -1.911172,-2.809512 -1.634539,-8.105597 0.388193,-7.432129 2.610819,-10.218924 6.302253,-7.901979 2.9291,1.838459 3.458899,13.988753 0.697991,16.007576 -1.090211,0.797183 -2.297495,1.449425 -2.682853,1.449425 -0.385358,0 -1.592641,-0.652242 -2.682852,-1.449425 z m 127.031141,0 c -2.76091,-2.018823 -2.23111,-14.169117 0.69799,-16.007576 3.69143,-2.316945 5.91406,0.46985 6.30225,7.901979 0.27664,5.296085 -0.0574,6.952339 -1.63454,8.105597 -1.09021,0.797183 -2.29749,1.449425 -2.68285,1.449425 -0.38536,0 -1.59264,-0.652242 -2.68285,-1.449425 z M 32.981876,134.29217 V 62.775002 l -5.387482,0.345696 -5.387481,0.345696 -0.294107,69.753706 c -0.161758,38.36454 -0.05018,70.3917 0.247955,71.17147 0.323409,0.84587 2.615204,1.41776 5.681588,1.41776 h 5.139527 z m 180.905954,0.0621 V 63.466394 l -5.38748,-0.345696 -5.38748,-0.345696 v 71.579308 71.57931 l 5.38748,-0.3457 5.38748,-0.34569 z M 10.014192,196.75116 c 1.11699,-0.0122 1.417758,-13.36958 1.417758,-62.96395 V 70.838738 H 7.1219649 c -2.3704918,0 -4.9224567,0.612471 -5.6710331,1.361048 -1.0248305,1.02483 -1.36104791,16.42087 -1.36104791,62.325004 0,56.85266 0.13385567,61.044 1.98486161,62.1508 1.0916738,0.65274 3.0056475,0.94028 4.2532748,0.63894 1.2476273,-0.30134 2.9064044,-0.55485 3.6861717,-0.56337 z m 225.031828,-0.69097 c 1.60404,-0.99136 1.21028,-122.24791 -0.40221,-123.860404 -0.74857,-0.748577 -3.30054,-1.361048 -5.67103,-1.361048 h -4.30999 v 63.660532 63.66054 l 4.7122,-0.75351 c 2.59171,-0.41444 5.14367,-1.02019 5.67103,-1.34611 z"
       id="path3788"
       inkscape:connector-curvature="0" />
    <path
       style="fill:#b9b9b9;fill-opacity:1;stroke-width:1.13420665"
       d="m 37.689105,224.49308 c -1.873437,-1.5764 -3.739524,-4.38356 -4.146863,-6.23814 -0.71024,-3.23374 -0.992488,-3.37196 -6.885353,-3.37196 -5.369663,0 -6.681664,-0.4799 -10.401293,-3.80457 -3.432977,-3.06845 -5.498815,-3.92837 -10.6771423,-4.44444 -7.2475349,-0.72229 -11.3349149,-2.92186 -13.2532054,-7.13205 -0.9385299,-2.05985 -1.3090173,-20.52943 -1.3090173,-65.2573 0,-69.257419 -0.1625557,-67.70304 7.4112451,-70.867576 2.12187943,-0.886578 6.1531662,-1.61196 8.9584164,-1.61196 3.9307985,0 5.3774155,-0.517509 6.3081885,-2.256674 1.830261,-3.419873 7.194185,-5.682772 13.470319,-5.682772 5.329994,0 5.677605,-0.18378 6.377842,-3.37196 0.407339,-1.854578 2.273426,-4.661739 4.146863,-6.238137 3.305952,-2.781766 3.913093,-2.86823 20.615896,-2.935927 19.440017,-0.07879 106.031759,-0.06836 124.789119,0.01504 l 12.30614,0.05471 3.85631,3.856302 c 2.12096,2.120967 3.8563,4.928128 3.8563,6.238137 0,2.099046 0.66697,2.381834 5.61767,2.381834 6.65848,0 10.72,1.635747 13.10698,5.278741 1.44633,2.207369 2.71475,2.660705 7.44457,2.660705 3.13567,0 7.19841,0.774229 9.02831,1.720509 6.88682,3.561312 6.76811,2.320289 6.76811,70.759028 0,44.72787 -0.37049,63.19745 -1.30902,65.2573 -1.91828,4.21019 -6.00567,6.40976 -13.2532,7.13205 -5.17833,0.51607 -7.24417,1.37599 -10.67714,4.44444 -3.71963,3.32467 -5.03164,3.80457 -10.4013,3.80457 -5.89286,0 -6.17511,0.13822 -6.88535,3.37196 -0.40734,1.85458 -2.27342,4.66174 -4.14686,6.23814 l -3.40626,2.86618 H 118.04737 41.095366 Z m 154.989065,-7.56853 c 1.03311,-1.03311 1.36105,-20.82358 1.36105,-82.13721 0,-44.426897 -0.3098,-81.583507 -0.68846,-82.570249 -0.61812,-1.610802 -8.31061,-1.794073 -75.30339,-1.794073 -66.992774,0 -74.685269,0.183271 -75.303389,1.794073 -0.378655,0.986742 -0.688452,38.143352 -0.688452,82.570249 0,61.31363 0.327933,81.1041 1.361048,82.13721 1.967383,1.96739 147.294203,1.96739 149.261593,0 z M 51.848949,205.49411 c -2.760908,-2.01882 -2.231109,-14.16912 0.697991,-16.00758 3.691434,-2.31693 5.914059,0.46986 6.302253,7.90198 0.276633,5.29609 -0.05739,6.95234 -1.634539,8.1056 -1.090211,0.79719 -2.297495,1.44943 -2.682853,1.44943 -0.385358,0 -1.592641,-0.65224 -2.682852,-1.44943 z m 127.031141,0 c -1.57717,-1.15326 -1.91117,-2.80951 -1.63454,-8.1056 0.38819,-7.43212 2.61082,-10.21891 6.30225,-7.90198 2.9291,1.83846 3.4589,13.98876 0.69799,16.00758 -1.09021,0.79719 -2.29749,1.44943 -2.68285,1.44943 -0.38536,0 -1.59264,-0.65224 -2.68285,-1.44943 z M 81.349504,188.29752 c -8.149217,-2.18975 -13.361226,-7.84649 -14.075118,-15.2761 -0.538726,-5.60657 -0.403267,-5.93664 4.413073,-10.75298 7.174186,-7.17419 15.388167,-9.12131 24.667383,-5.84741 l 4.679428,1.65099 v -24.72644 c 0,-22.39171 0.19323,-24.90131 2.04637,-26.57839 1.90786,-1.72659 43.42489,-22.703374 52.14758,-26.347941 5.27854,-2.205517 7.33456,-2.071285 10.86997,0.709669 l 2.98848,2.350734 v 46.947788 46.94779 l -3.57098,4.06713 c -6.26046,7.13026 -13.68177,9.38467 -23.77592,7.22251 -7.5435,-1.61581 -14.03052,-7.4889 -15.20875,-13.76939 -2.3634,-12.59803 14.5144,-23.58968 28.66162,-18.66585 l 4.82038,1.67769 v -23.0905 -23.0905 l -2.55197,1.01144 c -2.70971,1.07395 -12.28158,5.15409 -28.07161,11.96586 -5.30242,2.28744 -11.80993,4.99433 -14.46114,6.01529 l -4.82037,1.85628 v 20.77461 c 0,22.96045 -0.67689,26.14599 -6.61791,31.14503 -1.93805,1.63076 -6.115719,3.52091 -9.283705,4.20031 -6.752477,1.44815 -5.888223,1.47489 -12.856811,-0.39762 z m 13.620574,-9.62953 c 5.520272,-2.50654 7.032252,-5.80558 4.459973,-9.73138 -2.097001,-3.20044 -9.571944,-5.55871 -14.316319,-4.51668 -4.646164,1.02047 -9.032005,4.82596 -9.032005,7.83683 0,3.07056 3.064694,6.09449 7.534024,7.43382 4.822669,1.44523 6.19067,1.32202 11.354327,-1.02259 z m 61.640322,-1.10138 c 4.03977,-2.90368 4.25816,-7.21428 0.51468,-10.15891 -6.15644,-4.84265 -16.82639,-4.01728 -20.49753,1.5856 -2.52754,3.8575 -0.99097,7.17637 4.49712,9.71344 5.38516,2.48948 11.0124,2.07519 15.48573,-1.14013 z m -22.68414,-64.78279 c 4.05479,-1.75413 11.45549,-4.94284 16.446,-7.08603 l 9.07365,-3.8967 0.34015,-6.407522 c 0.18709,-3.524138 -0.006,-6.407524 -0.42983,-6.407524 -1.06545,0 -46.07846,21.644936 -47.83055,22.999776 -0.77976,0.60298 -1.41775,3.30164 -1.41775,5.99705 v 4.90072 l 8.22299,-3.45522 c 4.52265,-1.90037 11.54056,-4.89042 15.59534,-6.64455 z m -82.570237,66.71191 c -1.011111,-1.01111 -1.361048,-12.50606 -1.361048,-44.70839 0,-23.84105 0.309797,-44.154688 0.688452,-45.141429 0.907887,-2.365912 6.788862,-2.365912 7.696749,0 0.378655,0.986741 0.688452,21.300379 0.688452,45.141429 0,44.71399 -0.133485,46.06944 -4.536827,46.06944 -0.998101,0 -2.427202,-0.61247 -3.175778,-1.36105 z m 127.031137,0 c -1.01111,-1.01111 -1.36104,-12.50606 -1.36104,-44.70839 0,-23.84105 0.30979,-44.154688 0.68845,-45.141429 0.90788,-2.365912 6.78886,-2.365912 7.69675,0 0.37865,0.986741 0.68845,21.300379 0.68845,45.141429 0,44.71399 -0.13349,46.06944 -4.53683,46.06944 -0.9981,0 -2.4272,-0.61247 -3.17578,-1.36105 z M 51.848949,78.462966 c -1.577171,-1.153258 -1.911172,-2.809512 -1.634539,-8.105597 0.388193,-7.432129 2.610819,-10.218924 6.302253,-7.901979 2.9291,1.838459 3.458899,13.988753 0.697991,16.007576 -1.090211,0.797183 -2.297495,1.449425 -2.682853,1.449425 -0.385358,0 -1.592641,-0.652242 -2.682852,-1.449425 z m 127.031141,0 c -2.76091,-2.018823 -2.23111,-14.169117 0.69799,-16.007576 3.69143,-2.316945 5.91406,0.46985 6.30225,7.901979 0.27664,5.296085 -0.0574,6.952339 -1.63454,8.105597 -1.09021,0.797183 -2.29749,1.449425 -2.68285,1.449425 -0.38536,0 -1.59264,-0.652242 -2.68285,-1.449425 z M 32.981876,134.35431 V 62.899291 h -4.877089 c -2.682398,0 -5.48956,0.612472 -6.238136,1.361048 -1.796396,1.796396 -1.976437,136.011431 -0.186935,139.355141 0.891672,1.6661 2.392294,2.19385 6.238136,2.19385 h 5.064024 z m 181.433154,69.26117 c 1.7895,-3.34371 1.60946,-137.558745 -0.18694,-139.355141 -0.74857,-0.748576 -3.55573,-1.361048 -6.23813,-1.361048 h -4.87709 v 71.455019 71.45502 h 5.06403 c 3.84583,0 5.34645,-0.52775 6.23813,-2.19385 z M 11.43195,134.35431 V 70.838738 H 7.1219649 c -2.3704918,0 -4.9224567,0.612471 -5.6710331,1.361048 -1.96335018,1.96335 -1.96335018,122.345704 0,124.309044 0.7485764,0.74858 3.3005413,1.36105 5.6710331,1.36105 H 11.43195 Z m 222.37906,62.34146 c 2.12724,-1.13846 2.19385,-3.02579 2.19385,-62.15452 0,-45.916938 -0.33621,-61.316625 -1.36105,-62.341464 -0.74857,-0.748577 -3.30054,-1.361048 -5.67103,-1.361048 h -4.30999 v 63.515572 63.51557 h 3.47719 c 1.91245,0 4.46441,-0.52834 5.67103,-1.17411 z"
       id="path3786"
       inkscape:connector-curvature="0" />
    <path
       style="fill:#a3a3a3;fill-opacity:1;stroke-width:1.13420665"
       d="m 39.787115,225.92478 c -1.559534,-0.77057 -3.856302,-3.5078 -5.103929,-6.08272 -2.220301,-4.58237 -2.410303,-4.69241 -8.958701,-5.18849 -5.763993,-0.43666 -7.135839,-1.00549 -9.908321,-4.10843 -2.59798,-2.90765 -4.090845,-3.6016 -7.7478931,-3.6016 -6.3603675,0 -12.858117,-2.89102 -15.1257613,-6.72983 -1.7495239,-2.96171 -1.9262786,-9.00013 -1.9262786,-65.80717 0,-69.436472 -0.1640369,-67.86434 7.4112451,-71.029496 2.12187943,-0.886578 5.9816662,-1.61196 8.5773037,-1.61196 3.8004392,0 5.5748952,-0.772942 9.1133492,-3.969723 3.882531,-3.507634 5.10928,-3.969723 10.53876,-3.969723 5.892865,0 6.175113,-0.13822 6.885353,-3.37196 0.407339,-1.854578 2.273426,-4.661739 4.146863,-6.238137 l 3.406261,-2.866176 h 76.952004 76.95201 l 3.40626,2.866176 c 1.87344,1.576398 3.73952,4.383559 4.14686,6.238137 0.71024,3.23374 0.99249,3.37196 6.88535,3.37196 5.42948,0 6.65623,0.462089 10.53876,3.969723 3.53846,3.196781 5.31291,3.969723 9.11336,3.969723 2.59563,0 6.45542,0.725382 8.5773,1.61196 7.57528,3.165156 7.41124,1.593024 7.41124,71.029496 0,56.31935 -0.18804,62.86456 -1.88876,65.74367 -2.35053,3.97912 -6.0084,5.69499 -13.88037,6.51117 -4.94755,0.51296 -6.71803,1.29532 -9.18861,4.06038 -2.61425,2.92586 -4.04739,3.49638 -9.83412,3.91496 -6.67591,0.48289 -6.80552,0.55795 -8.95871,5.1885 -1.20164,2.58419 -3.46078,5.32899 -5.02031,6.09956 -2.16441,1.06944 -20.687,1.40104 -78.26026,1.40104 -57.573256,0 -76.095848,-0.3316 -78.260255,-1.40104 z M 193.47954,215.73364 c 0.33976,-1.40358 0.47709,-39.04507 0.30516,-83.64774 L 193.47211,50.990121 H 118.04737 42.622632 L 42.310045,132.0859 c -0.171935,44.60267 -0.03459,82.24416 0.305158,83.64774 l 0.617746,2.55196 H 118.04737 192.8618 Z M 50.751116,205.05319 c -0.415879,-0.41587 -0.756141,-3.71547 -0.756141,-7.33243 0,-5.4155 0.400409,-6.7906 2.268413,-7.79032 4.171385,-2.23246 6.80524,0.38094 6.80524,6.75238 0,3.0461 -0.309797,6.3457 -0.688452,7.33243 -0.683927,1.78228 -6.142137,2.52487 -7.62906,1.03794 z M 177.738,204.07632 c -0.39154,-1.02032 -0.71188,-4.3474 -0.71188,-7.3935 0,-6.40328 2.63311,-8.98524 6.85759,-6.72436 2.01825,1.08013 2.27699,2.15724 1.98486,8.2629 -0.33249,6.94943 -0.37194,7.02437 -3.87729,7.36548 -2.45716,0.23911 -3.75936,-0.22336 -4.25328,-1.51052 z M 82.888679,188.62261 c -5.932762,-1.0913 -9.758135,-3.64234 -13.32864,-8.8885 -6.285161,-9.23482 0.376534,-20.90394 13.626494,-23.86915 5.744201,-1.28549 9.461858,-0.87796 15.862878,1.73893 1.853399,0.75771 1.984859,-0.7791 1.984859,-23.20279 0,-15.32246 0.4524,-24.85957 1.24991,-26.34973 0.78319,-1.46342 11.6393,-7.38585 29.07412,-15.861095 29.70031,-14.437622 32.21225,-15.111688 36.02565,-9.667293 2.50731,3.579692 2.54576,91.145158 0.0422,95.986608 -5.25212,10.15647 -20.21016,13.80583 -31.80121,7.75864 -14.90938,-7.77841 -10.69456,-26.54625 6.84309,-30.47101 4.75669,-1.06451 6.91657,-0.98864 11.68989,0.41062 l 5.8551,1.71638 v -23.12701 c 0,-12.71987 -0.18964,-23.12703 -0.42143,-23.12703 -0.23179,0 -5.71851,2.31656 -12.19272,5.14792 -6.47421,2.83137 -17.47126,7.5525 -24.43788,10.49141 l -12.66658,5.34349 -0.37679,22.32067 c -0.34654,20.52824 -0.56703,22.57755 -2.74568,25.51965 -4.91233,6.63369 -14.664882,9.89855 -24.283261,8.12929 z m 14.373404,-10.62845 c 5.694597,-3.72669 3.783037,-10.5796 -3.633907,-13.02741 -10.530553,-3.4754 -22.414827,5.46159 -15.538268,11.6848 4.818302,4.36051 13.618884,4.9768 19.172175,1.34261 z m 59.321717,-0.34923 c 4.29044,-3.20329 3.87237,-7.92615 -0.99178,-11.20411 -2.11966,-1.42843 -5.326,-2.59714 -7.12523,-2.59714 -4.99038,0 -10.98337,2.95672 -12.43046,6.13275 -3.77015,8.27455 11.90176,14.12345 20.54747,7.6685 z m -28.89567,-62.03105 c 6.86195,-2.96535 16.81461,-7.2605 22.11703,-9.54477 l 9.64075,-4.15322 0.34015,-6.464924 c 0.18709,-3.555707 -0.0614,-6.464922 -0.55211,-6.464922 -0.49075,0 -11.74039,5.231528 -24.99918,11.625616 l -24.10691,11.62562 -0.0102,5.35941 c -0.0116,6.22571 -1.924,6.44152 17.57023,-1.98281 z m -76.433528,63.69271 c -0.922042,-1.111 -1.202395,-14.01002 -0.989538,-45.52854 0.273253,-40.4606 0.455781,-44.078461 2.281876,-45.230026 1.44744,-0.912778 2.522283,-0.912778 3.969723,0 1.826095,1.151565 2.008623,4.769426 2.281876,45.230026 0.306939,45.44869 0.159209,47.07873 -4.266738,47.07873 -1.094861,0 -2.569601,-0.69758 -3.277199,-1.55019 z m 127.031138,0 c -0.92204,-1.111 -1.20239,-14.01002 -0.98954,-45.52854 0.27326,-40.4606 0.45579,-44.078461 2.28188,-45.230026 1.44744,-0.912778 2.52228,-0.912778 3.96972,0 1.8261,1.151565 2.00863,4.769426 2.28188,45.230026 0.30694,45.44869 0.15921,47.07873 -4.26674,47.07873 -1.09486,0 -2.5696,-0.69758 -3.2772,-1.55019 z M 50.683427,76.984111 c -0.378655,-0.986742 -0.688452,-4.286338 -0.688452,-7.332439 0,-4.377553 0.475448,-5.792815 2.268413,-6.752381 4.171385,-2.232454 6.80524,0.380947 6.80524,6.752381 0,7.5274 -0.79492,9.126512 -4.536827,9.126512 -1.835146,0 -3.448555,-0.752156 -3.848374,-1.794073 z m 127.098833,1.037935 c -0.41588,-0.415875 -0.75614,-3.715473 -0.75614,-7.332437 0,-5.41549 0.4004,-6.790592 2.26841,-7.790318 4.17138,-2.232454 6.80524,0.380947 6.80524,6.752381 0,3.046101 -0.3098,6.345697 -0.68845,7.332439 -0.68393,1.782275 -6.14214,2.524866 -7.62906,1.037935 z M 32.981876,134.35431 V 62.899291 H 27.43219 c -4.014293,0 -5.740155,0.496354 -6.238136,1.794073 -0.378648,0.986742 -0.688451,32.529029 -0.688451,70.093976 0,51.60986 0.332591,68.63249 1.361048,69.66094 0.748576,0.74858 3.555738,1.36105 6.238136,1.36105 h 4.877089 z m 181.246214,70.09397 c 1.02846,-1.02845 1.36105,-18.05108 1.36105,-69.66094 0,-37.564947 -0.3098,-69.107234 -0.68845,-70.093976 -0.49799,-1.297719 -2.22384,-1.794073 -6.23814,-1.794073 h -5.54968 v 71.455019 71.45502 h 4.87709 c 2.6824,0 5.48956,-0.61247 6.23813,-1.36105 z M 11.43195,134.35431 V 70.838738 H 7.5549902 c -8.08699293,0 -7.46510631,-5.235184 -7.46510631,62.842972 0,46.29468 0.3359418,61.80202 1.36104791,62.82712 0.7485764,0.74858 3.3005413,1.36105 5.6710331,1.36105 H 11.43195 Z m 223.21186,62.15452 c 1.02511,-1.0251 1.36105,-16.53244 1.36105,-62.82712 0,-68.078156 0.62189,-62.842972 -7.46511,-62.842972 h -3.87696 v 63.515572 63.51557 h 4.30999 c 2.37049,0 4.92246,-0.61247 5.67103,-1.36105 z"
       id="path3784"
       inkscape:connector-curvature="0" />
    <path
       style="fill:#8c8c8c;fill-opacity:1;stroke-width:1.13420665"
       d="m 39.053386,225.17439 c -2.159439,-1.31676 -4.098161,-3.77905 -4.908336,-6.23391 -1.281461,-3.88286 -1.567179,-4.05768 -6.638616,-4.06174 -5.799358,-0.005 -11.719167,-2.90158 -13.773589,-6.74031 -1.046976,-1.95629 -2.347561,-2.3291 -8.1252546,-2.3291 -6.31062128,0 -7.1972555,-0.3185 -10.7350569,-3.8563 l -3.8563025,-3.85631 v -63.11821 c 0,-69.766053 -0.1940446,-67.84561 7.2102399,-71.359173 2.14915026,-1.019839 6.2037382,-1.854253 9.0101952,-1.854253 4.3193239,0 5.7120549,-0.609405 9.0723719,-3.969723 3.578382,-3.578381 4.587199,-3.969723 10.233321,-3.969723 6.147356,0 6.287805,-0.07334 7.567871,-3.951988 0.717351,-2.173593 2.612134,-4.980755 4.21064,-6.238136 2.848911,-2.240951 4.42513,-2.286149 79.7265,-2.286149 75.30137,0 76.87759,0.0452 79.7265,2.286149 1.59851,1.257381 3.49329,4.064543 4.21064,6.238136 1.28007,3.878647 1.42052,3.951988 7.56787,3.951988 5.64613,0 6.65495,0.391342 10.23333,3.969723 3.36031,3.360318 4.75305,3.969723 9.07237,3.969723 2.80645,0 6.86104,0.834414 9.01019,1.854253 7.40428,3.513563 7.21024,1.59312 7.21024,71.359173 v 63.11821 l -3.8563,3.85631 c -3.53781,3.5378 -4.42444,3.8563 -10.73506,3.8563 -5.7777,0 -7.07828,0.37281 -8.12525,2.3291 -2.05443,3.83873 -7.97424,6.73567 -13.77359,6.74031 -5.07144,0.005 -5.35716,0.17888 -6.63862,4.06174 -0.81017,2.45486 -2.74889,4.91715 -4.90833,6.23391 -3.42448,2.08812 -6.62845,2.17638 -78.99399,2.17638 -72.365533,0 -75.569508,-0.0882 -78.993984,-2.17638 z M 193.7666,134.92141 c 0.27326,-76.832569 0.15551,-82.899214 -1.63454,-84.21484 -2.51394,-1.847649 -144.448632,-2.081496 -147.882681,-0.243646 -2.138149,1.144303 -2.19385,3.270362 -2.19385,83.742256 0,45.41248 0.34388,82.91202 0.764171,83.33231 0.420292,0.4203 34.489023,0.63297 75.70829,0.47259 l 74.94412,-0.29158 z M 51.356023,204.44828 c -2.012548,-2.01255 -1.717359,-11.7311 0.421278,-13.86972 3.797437,-3.79745 7.291327,-0.37344 7.291327,7.1455 0,5.55935 -1.41735,8.08527 -4.536827,8.08527 -0.998101,0 -2.427202,-0.61247 -3.175778,-1.36105 z m 127.031137,0 c -2.01254,-2.01255 -1.71736,-11.7311 0.42128,-13.86972 3.79744,-3.79745 7.29133,-0.37344 7.29133,7.1455 0,5.55935 -1.41735,8.08527 -4.53683,8.08527 -0.9981,0 -2.4272,-0.61247 -3.17578,-1.36105 z M 77.181862,186.24426 c -23.022205,-11.63046 -2.387119,-38.6644 21.867549,-28.64856 1.854469,0.7658 1.984859,-0.79369 1.984859,-23.73871 0,-23.96966 0.0611,-24.61837 2.55197,-27.06293 1.40358,-1.37753 14.66837,-8.308806 29.47731,-15.402835 25.65605,-12.290193 27.08836,-12.830712 30.38337,-11.465875 1.90191,0.787799 3.94892,2.349592 4.54889,3.470653 0.64608,1.207218 1.09086,20.498337 1.09086,47.313397 0,45.2478 -0.001,45.27741 -2.5855,49.11173 -5.53071,8.20701 -18.67278,11.49691 -28.88365,7.23053 -5.75997,-2.40666 -7.84001,-4.53579 -10.0278,-10.26442 -1.83164,-4.79609 -1.81028,-5.06902 0.8099,-10.35252 5.05708,-10.1974 17.40833,-13.88193 29.62854,-8.83854 1.85263,0.76459 1.98486,-0.73788 1.98486,-22.55342 0,-12.85493 -0.24699,-23.37258 -0.54885,-23.37258 -0.30187,0 -5.2782,2.06015 -11.05851,4.57812 -5.78033,2.51796 -16.72421,7.21028 -24.31974,10.42736 l -13.81008,5.84924 -0.3675,21.61398 c -0.32695,19.22776 -0.62082,22.05223 -2.66188,25.5837 -3.1583,5.46452 -10.591801,9.07365 -18.68846,9.07365 -4.305936,0 -7.936917,-0.81452 -11.376138,-2.55197 z m 17.648164,-7.02985 c 7.554354,-3.15641 7.708144,-9.95912 0.311635,-13.78399 -9.961589,-5.15134 -24.541396,4.4431 -17.051753,11.22113 4.643102,4.20196 10.62527,5.1178 16.740118,2.56286 z m 61.682174,-1.5058 c 6.49064,-4.82332 2.52808,-12.4798 -7.01557,-13.5555 -8.84686,-0.99718 -16.10335,4.77006 -13.41786,10.66409 2.69432,5.9134 14.17976,7.53864 20.43343,2.89141 z m -20.53148,-65.47133 23.98002,-10.20786 0.0261,-6.521688 c 0.0144,-3.586928 -0.35666,-6.532904 -0.82453,-6.546613 -0.46786,-0.01371 -11.6965,5.176604 -24.95254,11.534031 l -24.10183,11.55895 v 5.57359 c 0,3.06548 0.42587,5.40346 0.94638,5.19552 0.52052,-0.20794 11.7374,-4.97161 24.92641,-10.58593 z m -84.726118,67.06931 c -0.922042,-1.111 -1.202395,-14.01002 -0.989538,-45.52854 0.273253,-40.4606 0.455781,-44.078461 2.281876,-45.230026 1.44744,-0.912778 2.522283,-0.912778 3.969723,0 1.826095,1.151565 2.008623,4.769426 2.281876,45.230026 0.306939,45.44869 0.159209,47.07873 -4.266738,47.07873 -1.094861,0 -2.569601,-0.69758 -3.277199,-1.55019 z m 127.031138,0 c -0.92204,-1.111 -1.20239,-14.01002 -0.98954,-45.52854 0.27326,-40.4606 0.45579,-44.078461 2.28188,-45.230026 1.44744,-0.912778 2.52228,-0.912778 3.96972,0 1.8261,1.151565 2.00863,4.769426 2.28188,45.230026 0.30694,45.44869 0.15921,47.07873 -4.26674,47.07873 -1.09486,0 -2.5696,-0.69758 -3.2772,-1.55019 z M 51.356023,77.417136 C 49.343475,75.404592 49.638664,65.68604 51.777301,63.54741 c 3.797437,-3.797444 7.291327,-0.373438 7.291327,7.145502 0,5.559344 -1.41735,8.085272 -4.536827,8.085272 -0.998101,0 -2.427202,-0.612471 -3.175778,-1.361048 z m 127.031137,0 c -2.01254,-2.012544 -1.71736,-11.731096 0.42128,-13.869726 3.79744,-3.797444 7.29133,-0.373438 7.29133,7.145502 0,5.559344 -1.41735,8.085272 -4.53683,8.085272 -0.9981,0 -2.4272,-0.612471 -3.17578,-1.361048 z M 32.981876,133.78721 V 61.765084 h -4.455811 c -8.520361,0 -8.020462,-4.515247 -8.020462,72.443406 0,52.06008 0.332337,69.21108 1.361048,70.23979 0.748576,0.74858 3.555738,1.36105 6.238136,1.36105 h 4.877089 z m 181.246214,70.66107 c 1.02872,-1.02871 1.36105,-18.17971 1.36105,-70.23979 0,-76.958653 0.4999,-72.443406 -8.02046,-72.443406 h -4.45581 v 72.022126 72.02212 h 4.87709 c 2.6824,0 5.48956,-0.61247 6.23813,-1.36105 z M 11.82855,191.9153 c 0.361886,-3.27502 0.625964,-31.88197 0.586842,-63.571 L 12.344259,70.727887 6.5006227,71.066864 0.6569872,71.405841 0.36359177,133.09203 c -0.21218964,44.61275 0.0616895,62.11404 0.98953293,63.23202 0.7056103,0.85021 3.2031957,1.54583 5.550189,1.54583 h 4.2672623 z m 222.91306,4.40875 c 0.92785,-1.11798 1.20173,-18.61927 0.98954,-63.23202 l -0.29339,-61.686189 -5.2493,-0.340052 -5.24931,-0.340053 -0.67027,7.145293 c -0.78291,8.346005 -0.78439,117.875711 -0.001,119.142281 0.91116,1.4743 9.12746,0.93363 10.47434,-0.68926 z"
       id="path3782"
       inkscape:connector-curvature="0" />
    <path
       style="fill:#767676;fill-opacity:1;stroke-width:1.13420665"
       d="m 40.354219,225.78705 c -3.149046,-1.37285 -5.081121,-3.95769 -6.666799,-8.91921 -0.487153,-1.52427 -1.892775,-1.98584 -6.057429,-1.9891 -5.926412,-0.005 -11.822878,-2.8645 -13.897146,-6.74031 -1.042883,-1.94864 -2.348702,-2.3291 -7.9939396,-2.3291 -5.85221122,0 -7.2388843,-0.43903 -10.4515052,-3.30904 l -3.7040659,-3.30905 -0.2819626,-63.32559 c -0.2175817,-48.866271 0.041398,-63.94808 1.1342066,-66.051783 2.4101493,-4.639631 7.0771328,-7.247188 13.9982067,-7.821136 5.424051,-0.449805 6.934498,-1.089595 9.590686,-4.062384 2.73426,-3.060168 4.097589,-3.604373 10.271616,-4.100155 6.928498,-0.556368 7.144621,-0.671404 8.080182,-4.301029 0.611678,-2.373081 2.285982,-4.537092 4.603813,-5.950345 3.520203,-2.146378 6.175823,-2.220974 79.067288,-2.220974 72.89147,0 75.54709,0.0746 79.06729,2.220974 2.31783,1.413253 3.99214,3.577264 4.60381,5.950345 0.93557,3.629625 1.15169,3.744661 8.08018,4.301029 6.16397,0.494974 7.53944,1.042305 10.25387,4.080281 2.69455,3.015734 4.13873,3.599642 10.28031,4.156542 6.02126,0.545989 7.69858,1.201144 10.66197,4.164529 l 3.51661,3.516611 v 64.721005 64.72101 l -3.70407,3.30958 c -3.21283,2.87066 -4.5989,3.30958 -10.4515,3.30958 -5.64524,0 -6.95106,0.38046 -7.99394,2.3291 -2.07427,3.87581 -7.97073,6.73568 -13.89714,6.74031 -4.16466,0.003 -5.57028,0.46483 -6.05744,1.9891 -1.61519,5.05384 -3.54579,7.55731 -6.91392,8.96549 -5.27517,2.20551 -150.073168,2.16231 -155.139181,-0.0463 z m 151.133031,-7.61993 2.55197,-0.95958 v -82.59832 c 0,-62.730856 -0.32738,-82.925687 -1.36105,-83.959361 -1.96739,-1.96738 -147.29421,-1.96738 -149.261593,0 -1.033682,1.033677 -1.361048,21.230389 -1.361048,83.967841 v 82.6068 l 2.551965,0.97598 c 3.303002,1.26322 143.516256,1.23139 146.879756,-0.0334 z M 51.356023,204.44828 c -2.012548,-2.01255 -1.717359,-11.7311 0.421278,-13.86972 3.797437,-3.79745 7.291327,-0.37344 7.291327,7.1455 0,5.55935 -1.41735,8.08527 -4.536827,8.08527 -0.998101,0 -2.427202,-0.61247 -3.175778,-1.36105 z m 127.031137,0 c -2.01254,-2.01255 -1.71736,-11.7311 0.42128,-13.86972 3.79744,-3.79745 7.29133,-0.37344 7.29133,7.1455 0,5.55935 -1.41735,8.08527 -4.53683,8.08527 -0.9981,0 -2.4272,-0.61247 -3.17578,-1.36105 z M 77.239106,186.24426 c -6.686545,-3.41666 -9.663929,-7.6973 -9.663929,-13.89403 0,-5.91469 2.836379,-10.22088 9.180292,-13.93755 3.743619,-2.19326 5.660598,-2.52896 12.369634,-2.16621 4.366696,0.23611 8.832634,0.8207 9.924308,1.29909 1.855769,0.81321 1.984859,-0.71601 1.984859,-23.51136 0,-21.5854 0.2276,-24.64559 1.98486,-26.68743 1.09168,-1.26846 14.2555,-8.22585 29.25294,-15.46086 25.18485,-12.149583 27.53367,-13.061979 30.74452,-11.942673 1.91204,0.66654 4.07748,2.335856 4.8121,3.709592 0.97713,1.827227 1.24912,14.730337 1.01327,48.067811 -0.36574,51.69779 0.0566,49.39195 -9.98632,54.52362 -13.84773,7.07584 -31.71755,-0.62097 -31.73037,-13.6668 -0.006,-6.13175 2.63964,-10.46191 8.48511,-13.88759 4.42245,-2.59173 6.06033,-2.91779 12.75351,-2.53888 4.22367,0.23911 8.57259,0.84641 9.66427,1.34955 1.85572,0.85528 1.98486,-0.60581 1.98486,-22.45778 0,-12.85493 -0.3828,-23.34329 -0.85066,-23.30748 -0.46786,0.0358 -11.81622,4.782 -25.21857,10.54709 l -24.36792,10.48198 -0.37162,22.06135 c -0.42487,25.22157 -0.93518,26.95708 -9.213731,31.33489 -6.708923,3.54777 -15.905841,3.58159 -22.751413,0.0837 z m 20.238567,-8.494 c 9.732277,-7.23287 -4.239267,-17.84865 -16.089753,-12.22523 -10.414263,4.9419 -4.303135,16.13409 8.150307,14.92684 2.72247,-0.26392 6.295221,-1.47964 7.939446,-2.70161 z m 57.555847,1.27015 c 6.74501,-3.20072 6.57509,-10.22027 -0.3267,-13.49538 -10.70035,-5.07765 -25.33943,4.15698 -17.63817,11.12652 4.78245,4.32807 11.86741,5.26229 17.96487,2.36886 z m -18.94042,-66.76562 23.91992,-10.19034 v -7.052255 -7.052253 l -22.40058,10.832232 c -12.32032,5.957726 -23.54897,11.374456 -24.95255,12.037176 -2.13771,1.00934 -2.55196,2.1113 -2.55196,6.78844 0,3.07092 0.46468,5.41336 1.03262,5.20542 0.56795,-0.20794 11.79659,-4.96372 24.95255,-10.56842 z m -84.924017,66.40814 c -1.603836,-2.9968 -1.603836,-85.620436 0,-88.617243 1.51057,-2.822523 5.214866,-2.822523 6.725437,0 0.748871,1.399288 1.174108,17.446833 1.174108,44.308623 0,26.86179 -0.425237,42.90934 -1.174108,44.30862 -0.645761,1.20662 -2.158985,2.19385 -3.362719,2.19385 -1.203733,0 -2.716958,-0.98723 -3.362718,-2.19385 z m 127.031137,0 c -0.74887,-1.39928 -1.1741,-17.44683 -1.1741,-44.30862 0,-26.86179 0.42523,-42.909335 1.1741,-44.308623 1.51057,-2.822523 5.21487,-2.822523 6.72544,0 0.74887,1.399288 1.17411,17.446833 1.17411,44.308623 0,26.86179 -0.42524,42.90934 -1.17411,44.30862 -0.64576,1.20662 -2.15898,2.19385 -3.36272,2.19385 -1.20373,0 -2.71696,-0.98723 -3.36272,-2.19385 z M 51.356023,77.417136 C 49.343475,75.404592 49.638664,65.68604 51.777301,63.54741 c 3.797437,-3.797444 7.291327,-0.373438 7.291327,7.145502 0,5.559344 -1.41735,8.085272 -4.536827,8.085272 -0.998101,0 -2.427202,-0.612471 -3.175778,-1.361048 z m 127.031137,0 c -2.01254,-2.012544 -1.71736,-11.731096 0.42128,-13.869726 3.79744,-3.797444 7.29133,-0.373438 7.29133,7.145502 0,5.559344 -1.41735,8.085272 -4.53683,8.085272 -0.9981,0 -2.4272,-0.612471 -3.17578,-1.361048 z M 32.981876,133.78721 V 61.765084 h -4.044287 c -2.224359,0 -5.03152,0.528351 -6.238137,1.174113 -2.132346,1.141196 -2.193849,3.122162 -2.193849,70.661073 0,52.53314 0.332076,69.81904 1.361048,70.84801 0.748576,0.74858 3.555738,1.36105 6.238136,1.36105 h 4.877089 z m 181.246214,70.66107 c 1.02898,-1.02897 1.36105,-18.31487 1.36105,-70.84801 0,-67.538911 -0.0615,-69.519877 -2.19385,-70.661073 -1.20661,-0.645762 -4.01378,-1.174113 -6.23814,-1.174113 h -4.04428 v 72.022126 72.02212 h 4.87709 c 2.6824,0 5.48956,-0.61247 6.23813,-1.36105 z M 12.292128,134.07076 12.585202,70.838738 H 6.8765736 c -5.1222018,0 -5.8252432,0.30672 -6.84382536,2.985794 -0.71998869,1.893714 -1.02085514,24.725571 -0.82258222,62.423198 0.3478124,66.12967 -0.22061342,61.90363 8.25206088,61.35098 l 4.5368261,-0.29593 z m 222.578522,62.68938 c 1.47033,-0.92905 1.74376,-9.14468 2.01392,-60.51241 0.19829,-37.697627 -0.10253,-60.529484 -0.82258,-62.423198 -1.01823,-2.678162 -1.72238,-2.985794 -6.8343,-2.985794 h -5.6991 v 63.515572 63.51557 l 4.82038,-0.0173 c 2.6512,-0.009 5.58596,-0.50113 6.52168,-1.09238 z"
       id="path3780"
       inkscape:connector-curvature="0" />
    <path
       style="fill:#606060;fill-opacity:1;stroke-width:1.13420665"
       d="m 41.36153,226.25998 c -3.109711,-1.27246 -7.245448,-6.55901 -7.245448,-9.26154 0,-1.75329 -0.880031,-2.11546 -5.140359,-2.11546 -6.539765,0 -12.296013,-2.3974 -14.750482,-6.14339 -1.690368,-2.57984 -2.688021,-2.93026 -8.3424014,-2.93026 -7.1892741,0 -10.5441506,-1.73649 -13.1717762,-6.81776 -1.4432257,-2.7909 -1.6923496,-12.42038 -1.678112,-64.86449 0.012658,-46.622403 0.3571492,-62.249449 1.4177583,-64.313213 2.3321602,-4.537986 6.75732628,-6.98805 13.9440371,-7.720337 4.7039122,-0.479303 7.1873742,-1.319418 8.2251222,-2.782423 2.348788,-3.311294 7.595436,-5.485469 13.237349,-5.485469 3.950629,0 5.347881,-0.475684 5.830202,-1.984862 1.514711,-4.739455 3.388386,-7.388029 6.286817,-8.886865 4.618217,-2.388171 151.528053,-2.388171 156.146273,0 2.89843,1.498836 4.7721,4.14741 6.28681,8.886865 0.48232,1.509178 1.87958,1.984862 5.83021,1.984862 5.64191,0 10.88855,2.174175 13.23735,5.485469 1.03774,1.463005 3.5212,2.30312 8.22512,2.782423 7.18671,0.732287 11.61187,3.182351 13.94404,7.720337 1.0606,2.063764 1.4051,17.69081 1.41775,64.313213 0.0143,52.44411 -0.23489,62.07359 -1.67811,64.86449 -2.62763,5.08127 -5.9825,6.81776 -13.17178,6.81776 -5.65437,0 -6.65203,0.35042 -8.3424,2.93026 -2.45446,3.74599 -8.21071,6.14339 -14.75048,6.14339 -4.3706,0 -5.14036,0.33701 -5.14036,2.25052 0,1.23779 -1.48913,3.91735 -3.30918,5.95458 l -3.30919,3.70407 -75.80172,0.224 c -41.690955,0.12318 -76.879625,-0.21708 -78.19704,-0.75617 z m 150.48383,-8.01428 c 2.13814,-1.1443 2.19386,-3.26994 2.19386,-83.70445 0,-62.677993 -0.32741,-82.857737 -1.36105,-83.891391 -1.96739,-1.96738 -147.29421,-1.96738 -149.261593,0 -1.033648,1.033648 -1.361048,21.209743 -1.361048,83.874931 0,77.3881 0.123299,82.58571 1.984861,83.66996 2.760194,1.60767 144.80474,1.65662 147.80497,0.0509 z M 51.169083,203.61548 c -2.745098,-5.12926 -0.642755,-13.68504 3.362718,-13.68504 2.693355,0 4.536827,3.22607 4.536827,7.93944 0,4.71338 -1.843472,7.93945 -4.536827,7.93945 -1.203733,0 -2.716958,-0.98724 -3.362718,-2.19385 z m 127.031137,0 c -2.74509,-5.12926 -0.64275,-13.68504 3.36272,-13.68504 2.69336,0 4.53683,3.22607 4.53683,7.93944 0,4.71338 -1.84347,7.93945 -4.53683,7.93945 -1.20373,0 -2.71696,-0.98724 -3.36272,-2.19385 z M 77.488416,186.40292 c -6.407848,-3.17183 -9.909235,-8.20694 -9.91148,-14.25307 -0.0023,-5.90889 2.986547,-10.12902 9.728441,-13.7367 4.192935,-2.2437 6.222326,-2.60466 12.386829,-2.20321 4.054789,0.26407 8.265531,0.8683 9.357205,1.34276 1.855849,0.80657 1.984859,-0.73594 1.984859,-23.72997 0,-24.07395 0.0538,-24.64054 2.55197,-26.86521 4.36917,-3.89086 53.26023,-26.984654 57.19511,-27.016219 2.56384,-0.02056 4.28223,0.833516 5.95459,2.959564 2.28682,2.907223 2.35073,4.190015 2.35073,47.181715 0,49.7268 0.017,49.61322 -8.24893,55.08336 -6.3768,4.21997 -16.50781,4.80023 -23.81771,1.36417 -12.30133,-5.78231 -13.42613,-19.5919 -2.22156,-27.2751 3.36973,-2.31068 5.42313,-2.78367 12.08505,-2.78367 4.41406,0 9.42915,0.43812 11.14464,0.97361 l 3.11906,0.97362 v -23.3742 c 0,-17.9501 -0.329,-23.3712 -1.41776,-23.36129 -0.77976,0.007 -12.3912,4.74797 -25.8032,10.53528 l -24.38544,10.52236 -0.5671,22.64027 c -0.64549,25.7698 -1.02239,26.97662 -9.698636,31.05493 -6.6467,3.12432 -15.435009,3.11101 -21.786668,-0.033 z m 20.747349,-8.98353 c 5.829535,-5.47656 1.469115,-12.35731 -8.434006,-13.30887 -12.79554,-1.22949 -19.594916,10.28964 -8.918947,15.10999 5.299388,2.39275 13.831435,1.50719 17.352953,-1.80112 z m 56.727665,1.78648 c 6.99775,-2.92385 7.41344,-9.1794 0.87839,-13.21829 -10.61058,-6.5577 -26.80336,3.32397 -18.22938,11.12452 4.52301,4.115 10.72291,4.86315 17.35099,2.09377 z m -18.76875,-66.82104 24.38544,-10.52031 0.34844,-6.034084 c 0.19165,-3.318749 -0.08,-6.462446 -0.60347,-6.985994 -0.52355,-0.523548 -12.29178,4.634784 -26.15164,11.462958 l -25.19973,12.41487 v 5.14499 c 0,3.38842 0.48404,5.1267 1.41776,5.09143 0.77976,-0.0295 12.3912,-4.78769 25.8032,-10.57386 z m -83.931292,67.36253 c -1.454121,-0.91855 -1.748175,-7.34309 -2.023867,-44.21837 -0.334307,-44.714323 -0.06756,-47.677153 4.29228,-47.677153 4.359845,0 4.626588,2.96283 4.292281,47.677153 -0.275692,36.87528 -0.569746,43.29982 -2.023867,44.21837 -0.935721,0.59108 -1.956507,1.07468 -2.268414,1.07468 -0.311906,0 -1.332692,-0.4836 -2.268413,-1.07468 z m 127.031142,0 c -1.45412,-0.91855 -1.74818,-7.34309 -2.02387,-44.21837 -0.33431,-44.714323 -0.0676,-47.677153 4.29228,-47.677153 4.35985,0 4.62659,2.96283 4.29228,47.677153 -0.27569,36.87528 -0.56974,43.29982 -2.02386,44.21837 -0.93572,0.59108 -1.95651,1.07468 -2.26842,1.07468 -0.3119,0 -1.33269,-0.4836 -2.26841,-1.07468 z M 51.169083,76.584335 c -2.745098,-5.129263 -0.642755,-13.685044 3.362718,-13.685044 2.693355,0 4.536827,3.226074 4.536827,7.939447 0,7.069172 -5.176281,10.834054 -7.899545,5.745597 z m 127.031137,0 c -2.74509,-5.129263 -0.64275,-13.685044 3.36272,-13.685044 2.69336,0 4.53683,3.226074 4.53683,7.939447 0,4.713372 -1.84347,7.939446 -4.53683,7.939446 -1.20373,0 -2.71696,-0.987231 -3.36272,-2.193849 z M 33.840992,134.07076 33.548979,62.332188 29.343722,61.983032 c -2.312891,-0.192035 -5.247651,0.208717 -6.521688,0.89056 -2.293497,1.227443 -2.316431,1.923382 -2.316431,70.293658 0,37.97966 0.309803,69.86127 0.688451,70.848 0.510177,1.32951 2.274568,1.79408 6.813697,1.79408 h 6.125242 z m 181.059698,69.94449 c 0.37865,-0.98673 0.68845,-32.86834 0.68845,-70.848 0,-68.370276 -0.0229,-69.066215 -2.31643,-70.293658 -1.27404,-0.681843 -4.2088,-1.082595 -6.52169,-0.89056 l -4.20526,0.349156 -0.29201,71.738572 -0.292,71.73857 h 6.12524 c 4.53913,0 6.30352,-0.46457 6.8137,-1.79408 z M 12.566157,134.35431 V 70.838738 H 6.9350295 c -4.4065209,0 -5.8864631,0.477098 -6.80523968,2.193849 -0.76627566,1.431798 -1.17411252,22.732378 -1.17411252,61.321723 0,38.58934 0.40783686,59.88992 1.17411252,61.32172 0.91877658,1.71675 2.39871878,2.19385 6.80523968,2.19385 h 5.6311275 z m 222.790583,61.73325 c 1.57503,-1.57503 1.78233,-8.70727 1.78233,-61.32173 0,-38.873015 -0.40755,-60.300888 -1.17411,-61.733243 -0.91879,-1.716751 -2.39872,-2.193849 -6.80524,-2.193849 h -5.63113 v 63.515572 63.51557 h 5.02291 c 3.05401,0 5.72156,-0.69865 6.80524,-1.78232 z"
       id="path3778"
       inkscape:connector-curvature="0" />
    <path
       style="fill:#494949;fill-opacity:1;stroke-width:1.13420665"
       d="m 41.350392,225.74219 c -3.935129,-1.72678 -7.23431,-5.75967 -7.23431,-8.84317 0,-1.63966 -0.973784,-2.01604 -5.21607,-2.01604 -6.216665,0 -12.120454,-2.56337 -14.592272,-6.33585 -1.502588,-2.29324 -2.719637,-2.7378 -7.495088,-2.7378 -6.93428176,0 -11.7811391,-2.33051 -14.0759124,-6.76812 -2.5618438,-4.95405 -2.5855544,-124.373895 -0.025676,-129.324153 2.6379718,-5.101275 5.976991,-6.817766 13.2623154,-6.817766 5.408728,0 6.724304,-0.394888 7.759466,-2.329106 2.154954,-4.026567 7.954259,-6.735698 14.428653,-6.740307 4.449175,-0.0032 5.954584,-0.420865 5.954584,-1.652182 0,-3.451576 2.722584,-7.382761 6.283153,-9.072362 3.222883,-1.529362 13.243382,-1.755969 77.648135,-1.755969 64.40476,0 74.42526,0.226607 77.64814,1.755969 3.56057,1.689601 6.28315,5.620786 6.28315,9.072362 0,1.231317 1.50541,1.649014 5.95459,1.652182 6.47439,0.0046 12.2737,2.71374 14.42865,6.740307 1.03516,1.934218 2.35074,2.329106 7.75947,2.329106 7.28532,0 10.62434,1.716491 13.26231,6.817766 2.55988,4.950258 2.53616,124.370103 -0.0256,129.324153 -2.29478,4.43761 -7.14163,6.76812 -14.07592,6.76812 -4.77545,0 -5.9925,0.44456 -7.49508,2.7378 -2.44138,3.72602 -8.35553,6.33585 -14.35772,6.33585 -4.60946,0 -5.06258,0.26842 -6.06672,3.59383 -0.59687,1.9766 -2.52594,4.65616 -4.28682,5.95458 -3.15822,2.32877 -4.21106,2.36418 -77.69315,2.61262 -61.00733,0.20627 -75.132467,-0.0294 -78.032202,-1.30182 z m 151.327778,-7.68343 c 1.03379,-1.03379 1.36105,-21.32133 1.36105,-84.37705 0,-74.653437 -0.18073,-83.085348 -1.79408,-83.704448 -2.34406,-0.8995 -146.051481,-0.8995 -148.395535,0 -1.613352,0.6191 -1.794076,9.051011 -1.794076,83.704448 0,63.05572 0.327252,83.34326 1.361048,84.37705 1.967383,1.96738 147.294203,1.96738 149.261593,0 z M 51.626792,204.33593 c -0.344549,-0.89789 -0.469856,-4.37883 -0.278482,-7.73545 0.322773,-5.66087 0.553368,-6.10294 3.183491,-6.10294 2.733733,0 2.835517,0.26464 2.835517,7.37234 0,6.78622 -0.203295,7.40121 -2.557035,7.73545 -1.453486,0.20639 -2.827395,-0.34145 -3.183491,-1.2694 z m 127.031138,0 c -0.34455,-0.89789 -0.46985,-4.37883 -0.27848,-7.73545 0.32277,-5.66087 0.55337,-6.10294 3.18349,-6.10294 2.73374,0 2.83552,0.26464 2.83552,7.37234 0,6.78622 -0.2033,7.40121 -2.55704,7.73545 -1.45348,0.20639 -2.82739,-0.34145 -3.18349,-1.2694 z M 80.05145,187.29218 c -8.744892,-3.42193 -12.218581,-7.92923 -12.111126,-15.71482 0.07781,-5.63426 3.473905,-10.32162 9.641618,-13.30736 5.772545,-2.79445 15.688131,-3.14786 20.333262,-0.72473 l 3.119066,1.62706 v -23.69771 c 0,-14.85894 0.46664,-24.72186 1.25111,-26.44358 0.94181,-2.06706 7.90975,-6.00575 28.18581,-15.932265 16.12242,-7.893033 28.29801,-13.186384 30.33088,-13.186384 2.01255,0 4.27647,0.97287 5.55684,2.387925 2.0492,2.264743 2.16066,4.736721 2.16066,47.920234 0,43.4898 -0.10174,45.70542 -2.26842,49.39141 -9.00698,15.32297 -39.13013,9.70488 -39.13013,-7.29793 0,-4.20896 0.68105,-5.81502 4.04455,-9.53802 2.2245,-2.46225 5.85134,-5.07313 8.05964,-5.80192 3.93326,-1.2981 14.26785,-0.94602 19.37005,0.6599 l 2.55196,0.80322 V 135.0537 c 0,-19.08351 -0.28676,-23.38352 -1.55941,-23.38352 -1.49076,0 -46.25399,18.90884 -49.19633,20.78148 -1.05434,0.67102 -1.41776,6.53231 -1.41776,22.86539 v 21.96307 l -3.07215,3.65103 c -5.80262,6.89604 -17.271015,9.7181 -25.85012,6.36103 z m 15.874957,-8.06196 c 4.056626,-1.69497 5.902313,-5.42566 4.644633,-9.38824 -1.688539,-5.32011 -13.198887,-7.78941 -19.975193,-4.28525 -13.300422,6.87792 1.021795,19.65206 15.33056,13.67349 z m 59.572493,-0.0864 c 6.7134,-3.47164 7.03432,-9.25953 0.72667,-13.10566 -4.47974,-2.73155 -12.3366,-2.84781 -16.73828,-0.24767 -3.76449,2.22373 -4.94201,4.91986 -3.92261,8.98147 1.34109,5.3433 13.07797,7.91736 19.93422,4.37186 z m -19.30422,-66.63822 24.38544,-10.50363 0.34013,-7.169441 c 0.32423,-6.834646 0.22886,-7.134124 -2.04239,-6.413258 -1.31037,0.415898 -12.94727,5.945096 -25.85977,12.287109 l -23.47727,11.53093 -0.34569,5.38748 c -0.24716,3.85169 0.0762,5.38705 1.1342,5.38596 0.81394,-8.2e-4 12.45335,-4.72815 25.86535,-10.50515 z m -83.660942,67.4081 c -1.120971,-0.7116 -1.366674,-10.71995 -1.134207,-46.20156 l 0.296754,-45.293169 h 2.835516 2.835517 l 0.296754,45.293169 c 0.292818,44.69378 0.132169,47.10993 -3.132271,47.10993 -0.311906,0 -1.211037,-0.40877 -1.998063,-0.90837 z m 127.031142,0 c -1.12097,-0.7116 -1.36668,-10.71995 -1.13421,-46.20156 l 0.29676,-45.293169 h 2.83551 2.83552 l 0.29675,45.293169 c 0.29282,44.69378 0.13217,47.10993 -3.13227,47.10993 -0.3119,0 -1.21104,-0.40877 -1.99806,-0.90837 z M 51.626792,77.304779 c -0.344549,-0.897877 -0.469856,-4.378828 -0.278482,-7.735444 0.322773,-5.660873 0.553368,-6.102941 3.183491,-6.102941 2.733733,0 2.835517,0.264648 2.835517,7.372344 0,6.786214 -0.203295,7.401211 -2.557035,7.735444 -1.453486,0.206397 -2.827395,-0.341445 -3.183491,-1.269403 z m 127.031138,0 c -0.34455,-0.897877 -0.46985,-4.378828 -0.27848,-7.735444 0.32277,-5.660873 0.55337,-6.102941 3.18349,-6.102941 2.73374,0 2.83552,0.264648 2.83552,7.372344 0,6.786214 -0.2033,7.401211 -2.55704,7.735444 -1.45348,0.206397 -2.82739,-0.341445 -3.18349,-1.269403 z M 33.548979,134.35431 V 62.332188 l -4.904202,-0.352862 c -2.697311,-0.194074 -5.63207,0.251215 -6.521688,0.989533 -1.368595,1.135833 -1.617486,12.132975 -1.617486,71.467961 0,78.75559 -0.703584,72.78241 8.50655,72.21775 l 4.536826,-0.27814 z m 179.846311,71.41512 c 2.13269,-1.14139 2.19385,-3.12958 2.19385,-71.31615 0,-59.349239 -0.24888,-70.348582 -1.61749,-71.484421 -0.88962,-0.738318 -3.82438,-1.183607 -6.52169,-0.989533 l -4.9042,0.352862 -0.29403,70.887912 c -0.16172,38.98836 -0.0501,71.52591 0.24795,72.30568 0.65561,1.71494 7.84602,1.87574 10.89561,0.24365 z M 12.566157,134.35431 V 70.838738 H 6.9350295 c -4.4065209,0 -5.8864631,0.477098 -6.80523968,2.193849 -0.76627566,1.431798 -1.17411252,22.732378 -1.17411252,61.321723 0,38.58934 0.40783686,59.88992 1.17411252,61.32172 0.91877658,1.71675 2.39871878,2.19385 6.80523968,2.19385 h 5.6311275 z m 223.398803,61.32172 c 0.76627,-1.4318 1.17411,-22.73238 1.17411,-61.32172 0,-38.589345 -0.40784,-59.889925 -1.17411,-61.321723 -0.91879,-1.716751 -2.39872,-2.193849 -6.80524,-2.193849 h -5.63113 v 63.515572 63.51557 h 5.63113 c 4.40652,0 5.88645,-0.4771 6.80524,-2.19385 z"
       id="path3776"
       inkscape:connector-curvature="0" />
    <path
       style="fill:#333333;fill-opacity:1;stroke-width:1.13420665"
       d="m 42.410433,226.12492 c -3.943965,-1.15865 -8.294351,-5.86287 -8.294351,-8.96895 0,-1.57665 -1.377981,-2.08288 -7.076197,-2.59958 -6.284043,-0.56982 -7.491969,-1.09533 -10.790227,-4.69435 -3.316888,-3.61935 -4.324824,-4.05271 -9.4261233,-4.05271 -7.24391221,0 -11.5996581,-2.25083 -13.9530517,-7.21024 -1.6439021,-3.46427 -1.854252,-10.74375 -1.854252,-64.16907 0,-64.718078 0.079436,-65.671832 5.8035912,-69.681186 1.6985708,-1.189726 4.968975,-1.849543 9.1673157,-1.849543 5.7451321,0 6.7537621,-0.346502 8.4226111,-2.893488 2.697222,-4.116482 7.365089,-6.180165 13.978976,-6.180165 4.95604,0 5.727357,-0.303083 5.727357,-2.250519 0,-1.237786 1.489316,-3.917349 3.309581,-5.954585 l 3.309581,-3.704066 h 77.312126 77.31213 l 3.30958,3.704066 c 1.82027,2.037236 3.30958,4.716799 3.30958,5.954585 0,1.947436 0.77132,2.250519 5.72736,2.250519 6.61389,0 11.28175,2.063683 13.97897,6.180165 1.66885,2.546986 2.67749,2.893488 8.42262,2.893488 4.19833,0 7.46874,0.659817 9.16731,1.849543 5.72415,4.009354 5.80359,4.963108 5.80359,69.681186 0,53.42532 -0.21035,60.7048 -1.85424,64.16907 -2.3534,4.95941 -6.70915,7.21024 -13.95306,7.21024 -5.1013,0 -6.10923,0.43336 -9.42613,4.05271 -3.27473,3.57334 -4.52792,4.12651 -10.59501,4.67665 -6.47242,0.5869 -6.9431,0.82904 -7.92686,4.07794 -0.57522,1.89971 -2.48651,4.51634 -4.2473,5.81476 -3.15929,2.32967 -4.17505,2.36336 -77.12605,2.55813 -43.243571,0.11545 -75.424869,-0.24338 -77.539427,-0.8646 z M 193.3911,217.63748 c 1.58706,-1.58705 1.78232,-10.66635 1.78232,-82.87165 0,-53.727924 -0.39617,-81.829576 -1.17411,-83.283169 -1.14258,-2.134939 -3.1821,-2.19385 -75.95194,-2.19385 -72.769833,0 -74.809352,0.05891 -75.95194,2.19385 -0.777941,1.453593 -1.174108,29.555245 -1.174108,83.283169 0,72.2053 0.195265,81.2846 1.782326,82.87165 1.583648,1.58366 9.981994,1.78233 75.343722,1.78233 65.36173,0 73.76008,-0.19867 75.34373,-1.78233 z M 51.626792,204.33593 c -0.344549,-0.89789 -0.469856,-4.37883 -0.278482,-7.73545 0.322773,-5.66087 0.553368,-6.10294 3.183491,-6.10294 2.733733,0 2.835517,0.26464 2.835517,7.37234 0,6.78622 -0.203295,7.40121 -2.557035,7.73545 -1.453486,0.20639 -2.827395,-0.34145 -3.183491,-1.2694 z m 127.031138,0 c -0.34455,-0.89789 -0.46985,-4.37883 -0.27848,-7.73545 0.32277,-5.66087 0.55337,-6.10294 3.18349,-6.10294 2.73374,0 2.83552,0.26464 2.83552,7.37234 0,6.78622 -0.2033,7.40121 -2.55704,7.73545 -1.45348,0.20639 -2.82739,-0.34145 -3.18349,-1.2694 z M 77.407195,185.84359 c -6.743187,-3.36026 -9.264914,-7.17103 -9.264914,-14.00087 0,-11.52083 16.31876,-19.57635 28.958699,-14.29505 l 3.93329,1.64344 v -24.0752 c 0,-20.53778 0.27499,-24.46781 1.87155,-26.74721 2.3237,-3.31755 53.72344,-28.456309 58.18293,-28.456309 6.92552,0 6.86371,-0.453712 6.86371,50.386509 0,52.70741 0.33399,50.76136 -9.55798,55.69074 -7.19351,3.58468 -14.33727,3.67089 -21.09967,0.25462 -13.29712,-6.71749 -13.27499,-20.9834 0.0432,-27.87082 4.2242,-2.18451 6.25762,-2.53451 11.90001,-2.04829 3.74288,0.32254 7.95363,0.92969 9.35721,1.34924 l 2.55196,0.76282 V 135.0537 c 1e-5,-19.76312 -0.25682,-23.38352 -1.65882,-23.38352 -0.91237,0 -12.65141,4.69109 -26.08675,10.42464 l -24.42792,10.42464 v 21.73252 c 0,20.66649 -0.12563,21.92156 -2.56112,25.58642 -5.78382,8.70334 -18.364188,11.30794 -29.005405,6.00519 z m 19.009133,-6.64616 c 5.965662,-3.08498 6.439092,-9.73989 0.931773,-13.09776 -7.151241,-4.3602 -19.841005,-1.72848 -21.826264,4.52653 -0.924752,2.91361 1.924681,7.66694 5.446392,9.08549 3.90589,1.5733 11.927578,1.30626 15.448099,-0.51426 z m 58.359602,0.57577 c 3.81748,-1.4514 6.76389,-6.10053 5.79698,-9.147 -2.96937,-9.35566 -25.51244,-8.53965 -25.51244,0.92348 0,5.78239 4.48911,9.21717 12.11889,9.27261 2.6106,0.0189 6.02905,-0.45311 7.59657,-1.04909 z m 3.81933,-77.0216 c 2.20824,-1.18469 2.55196,-2.28032 2.55196,-8.134429 0,-4.696782 -0.43349,-6.742028 -1.41776,-6.689109 -0.77976,0.04192 -12.3912,5.528647 -25.8032,12.192718 l -24.38544,12.1165 -0.35912,4.37255 c -0.19752,2.4049 -0.10707,5.02954 0.2011,5.83251 0.40067,1.04413 7.1254,-1.35715 23.61036,-8.43085 12.67758,-5.43994 24.19852,-10.50689 25.6021,-11.25989 z M 51.933164,179.01429 c -0.442193,-0.4422 -0.803982,-20.82484 -0.803982,-45.29477 0,-38.501066 0.229041,-44.578674 1.701309,-45.143635 0.935721,-0.35907 2.472707,-0.356841 3.415528,0.005 1.496563,0.574287 1.676572,6.36595 1.417758,45.616215 -0.292013,44.28457 -0.331154,44.96339 -2.611545,45.28982 -1.273294,0.18226 -2.676875,-0.0304 -3.119068,-0.47258 z m 127.031136,0 c -0.44219,-0.4422 -0.80398,-20.82484 -0.80398,-45.29477 0,-38.501066 0.22904,-44.578674 1.70131,-45.143635 0.93572,-0.35907 2.47271,-0.356841 3.41553,0.005 1.49656,0.574287 1.67657,6.36595 1.41776,45.616215 -0.29202,44.28457 -0.33116,44.96339 -2.61155,45.28982 -1.27329,0.18226 -2.67687,-0.0304 -3.11907,-0.47258 z M 51.626792,77.304779 c -0.344549,-0.897877 -0.469856,-4.378828 -0.278482,-7.735444 0.322773,-5.660873 0.553368,-6.102941 3.183491,-6.102941 2.733733,0 2.835517,0.264648 2.835517,7.372344 0,6.786214 -0.203295,7.401211 -2.557035,7.735444 -1.453486,0.206397 -2.827395,-0.341445 -3.183491,-1.269403 z m 127.031138,0 c -0.34455,-0.897877 -0.46985,-4.378828 -0.27848,-7.735444 0.32277,-5.660873 0.55337,-6.102941 3.18349,-6.102941 2.73374,0 2.83552,0.264648 2.83552,7.372344 0,6.786214 -0.2033,7.401211 -2.55704,7.735444 -1.45348,0.206397 -2.82739,-0.341445 -3.18349,-1.269403 z M 33.840924,134.07076 34.132869,61.765084 h -5.452583 c -2.998923,0 -6.065059,0.612472 -6.813635,1.361048 -1.029205,1.029206 -1.361048,18.437237 -1.361048,71.398658 0,78.65678 -0.703166,72.6944 8.50655,72.12978 l 4.536826,-0.27814 z m 179.554366,71.69867 c 2.13265,-1.14137 2.19385,-3.1286 2.19385,-71.22818 0,-52.974224 -0.33183,-70.385906 -1.36105,-71.415118 -0.74857,-0.748576 -3.81093,-1.361048 -6.80524,-1.361048 h -5.44419 v 71.833086 c 0,39.5082 0.34026,72.17336 0.75614,72.58922 1.1692,1.16921 8.21069,0.89312 10.66049,-0.41796 z M 12.566157,134.35431 V 70.838738 H 7.1219649 c -2.9943055,0 -6.0566633,0.612471 -6.80523968,1.361048 -1.96335022,1.96335 -1.96335022,122.345704 0,124.309044 0.74857638,0.74858 3.81093418,1.36105 6.80523968,1.36105 h 5.4441921 z m 223.211863,62.15452 c 1.96334,-1.96334 1.96334,-122.345694 0,-124.309044 -0.74858,-0.748577 -3.81094,-1.361048 -6.80524,-1.361048 h -5.44419 v 63.515572 63.51557 h 5.44419 c 2.9943,0 6.05666,-0.61247 6.80524,-1.36105 z"
       id="path3774"
       inkscape:connector-curvature="0" />
  </g>
</svg>
