<?xml version="1.0" encoding="UTF-8" standalone="no"?>
<!-- Created with Inkscape (http://www.inkscape.org/) -->

<svg
   xmlns:dc="http://purl.org/dc/elements/1.1/"
   xmlns:cc="http://creativecommons.org/ns#"
   xmlns:rdf="http://www.w3.org/1999/02/22-rdf-syntax-ns#"
   xmlns:svg="http://www.w3.org/2000/svg"
   xmlns="http://www.w3.org/2000/svg"
   xmlns:sodipodi="http://sodipodi.sourceforge.net/DTD/sodipodi-0.dtd"
   xmlns:inkscape="http://www.inkscape.org/namespaces/inkscape"
   version="1.1"
   id="svg3713"
   width="256"
   height="256"
   viewBox="0 0 256 256"
   sodipodi:docname="alloydb.svg"
   inkscape:version="0.92.4 (5da689c313, 2019-01-14)">
  <metadata
     id="metadata3719">
    <rdf:RDF>
      <cc:Work
         rdf:about="">
        <dc:format>image/svg+xml</dc:format>
        <dc:type
           rdf:resource="http://purl.org/dc/dcmitype/StillImage" />
        <dc:title></dc:title>
      </cc:Work>
    </rdf:RDF>
  </metadata>
  <defs
     id="defs3717" />
  <sodipodi:namedview
     pagecolor="#ffffff"
     bordercolor="#666666"
     borderopacity="1"
     objecttolerance="10"
     gridtolerance="10"
     guidetolerance="10"
     inkscape:pageopacity="0"
     inkscape:pageshadow="2"
     inkscape:window-width="640"
     inkscape:window-height="480"
     id="namedview3715"
     showgrid="false"
     inkscape:zoom="0.66981795"
     inkscape:cx="39.499033"
     inkscape:cy="84.587864"
     inkscape:window-x="353"
     inkscape:window-y="388"
     inkscape:window-maximized="0"
     inkscape:current-layer="g3801" />
  <g
     id="g3801"
     transform="translate(5.9717719,10.450601)">
    <g
       id="g3830"
       transform="translate(0.507057,2.985886)">
      <path
         style="fill:#d0d0d0;fill-opacity:1"
         d="M 11.382926,225.18764 8.928381,222.7331 v -24.48969 c 0,-24.44633 0.0043,-24.49466 2.413416,-27.29546 l 2.413417,-2.80576 H 38.31907 62.882926 l 2.772728,2.77073 c 2.599228,2.59736 2.794234,3.39517 3.116434,12.75 l 0.343708,9.97927 h 18.406295 18.406289 v -18.9005 -18.9005 l -8.981829,-0.3495 c -8.59698,-0.33452 -9.12103,-0.48874 -12.23056,-3.59929 -2.98568,-2.98666 -3.27939,-3.85706 -3.62747,-10.75 -0.43137,-8.54246 -1.30756,-9.19894 -6.00629,-4.50021 -3.91491,3.91491 -9.694088,4.1597 -13.848086,0.58658 -2.401756,-2.0659 -2.805764,-3.15831 -2.805764,-7.58658 0,-4.42827 0.404008,-5.52068 2.805764,-7.58658 4.153998,-3.57312 9.933176,-3.32833 13.848086,0.58658 4.724,4.724 5.84615,4.05579 5.84615,-3.48123 v -6.48122 l -22.75,-0.26878 -22.75,-0.26877 -0.267573,-24.159483 -0.267573,-24.15948 -10.570841,-0.34052 C 14.169348,63.155645 13.656239,63.031294 11.339967,60.336423 8.933214,57.536283 8.928381,57.481579 8.928381,33.040969 V 8.551278 l 2.454545,-2.454546 2.454546,-2.454545 h 24.489691 c 24.44061,0 24.495314,0.0048 27.295454,2.411586 2.697445,2.318485 2.818998,2.822759 3.148575,13.062142 0.399256,12.404182 -0.09679,15.154718 -2.893123,16.04224 -4.104719,1.302788 -4.949688,-0.94009 -4.949688,-13.138413 V 10.642187 h -22.5 -22.5 V 33.161319 55.68045 l 22.25,-0.269131 22.25,-0.269132 0.297425,-5.666914 c 0.323959,-6.172486 1.877505,-8.388422 5.152263,-7.349054 4.346381,1.379487 4.119999,13.899286 -0.331894,18.355003 -2.485216,2.487351 -3.343724,2.683253 -13.158247,3.002565 l -10.499566,0.3416 0.270009,20.6584 0.27001,20.658403 19.16305,0.28647 19.16305,0.28648 0.33695,-11.519883 c 0.33623,-11.4952 0.34395,-11.52689 3.60512,-14.786478 3.13162,-3.130109 3.64344,-3.281195 12.25,-3.61609 l 8.981829,-0.349498 v -5.612937 c 0,-4.924957 -0.33707,-5.881707 -2.75,-7.805711 -2.33962,-1.865546 -2.75,-2.937403 -2.75,-7.182577 0,-5.75356 2.06827,-8.758367 6.91867,-10.051504 9.99002,-2.663387 16.931,9.655906 9.58133,17.005571 -2.59574,2.595745 -3,3.730769 -3,8.423077 v 5.423077 h 8.48123 8.48122 l 0.26878,-22.75 0.26877,-22.75 20.65955,-0.270013 20.65955,-0.270013 0.34045,-10.568401 c 0.32698,-10.150403 0.45142,-10.663783 3.14621,-12.979987 2.80014,-2.406753 2.85485,-2.411586 27.29546,-2.411586 h 24.48969 l 2.45454,2.454545 2.45455,2.454546 v 24.489691 c 0,24.446333 -0.004,24.494658 -2.41342,27.295454 l -2.41341,2.805764 h -24.56386 -24.56386 l -2.77272,-2.770444 c -2.62181,-2.61965 -2.79133,-3.342101 -3.11442,-13.27322 l -0.3417,-10.502777 -17.1583,0.273221 -17.15831,0.27322 -0.13567,19.149307 -0.13568,19.149307 7.8733,0.357545 c 7.32841,0.332801 8.09773,0.581978 11.11623,3.60048 2.97917,2.979171 3.27374,3.852971 3.62168,10.743151 l 0.37874,7.50021 h 6.5195 c 6.04627,0 6.80071,-0.25405 10.39358,-3.5 4.97269,-4.49253 8.54726,-4.5988 13.33352,-0.39641 2.99575,2.6303 3.52995,3.73592 3.503,7.250003 -0.0341,4.4415 -1.03258,6.24873 -4.94071,8.9423 -3.72616,2.56816 -7.48722,2.11737 -11.46367,-1.37399 -3.03857,-2.66791 -4.44248,-3.13715 -10.53479,-3.52115 l -7.02903,-0.44304 v 5.50237 5.50237 l 22.75,0.26878 22.75,0.26877 0.2667,25.65946 0.2667,25.65945 10.57171,0.34055 c 10.154,0.32708 10.66701,0.4514 12.9833,3.1463 2.40676,2.80014 2.41159,2.85485 2.41159,27.29546 v 24.48969 l -2.45455,2.45454 -2.45454,2.45455 H 203.5296 c -24.44061,0 -24.49532,-0.005 -27.29546,-2.41159 -2.69744,-2.31848 -2.81899,-2.82275 -3.14857,-13.06214 -0.39926,-12.40418 0.0968,-15.15472 2.89312,-16.04224 4.10472,-1.30279 4.94969,0.94009 4.94969,13.13841 v 11.37756 h 22.5 22.5 v -22.51913 -22.51913 l -22.25,0.26913 -22.25,0.26913 -0.29742,5.66691 c -0.32396,6.17249 -1.87751,8.38843 -5.15227,7.34906 -4.34638,-1.37949 -4.12,-13.89929 0.3319,-18.35501 2.48453,-2.48667 3.34509,-2.6833 13.13823,-3.00198 l 10.47956,-0.34103 v -22.40897 -22.40898 h -19.42053 -19.42053 l -0.32947,12.98361 -0.32947,12.98361 -3.26238,3.25954 c -3.04832,3.04567 -3.78647,3.28334 -11.25,3.62227 l -7.98762,0.36274 v 6.02291 c 0,5.47875 0.31623,6.37294 3.5,9.897 4.49253,4.97269 4.5988,8.54726 0.39641,13.33352 -2.62966,2.99502 -3.74638,3.5348 -7.31291,3.5348 -5.13656,0 -9.35192,-3.79806 -10.23156,-9.21869 -0.49562,-3.05413 -0.0855,-4.07048 3.03754,-7.52729 3.31991,-3.67475 3.61052,-4.48973 3.61052,-10.12522 v -6.1288 h -8.5 -8.5 v 20.56574 c 0,12.26414 -0.41786,21.34653 -1.03518,22.5 -0.9739,1.81974 -2.30082,1.93426 -22.411529,1.93426 H 69.105333 l -0.338476,11.08862 c -0.327331,10.72351 -0.43086,11.16802 -3.14424,13.5 -2.800066,2.40648 -2.855489,2.41138 -27.295454,2.41138 H 13.837472 Z m 49.045455,-27.04545 v -22 l -22.25,-0.26913 -22.25,-0.26913 v 22.53826 22.53826 l 22.25,-0.26913 22.25,-0.26913 z M 23.49981,213.07076 c -1.270291,-1.27029 -1.571429,-4.10816 -1.571429,-14.80887 0,-17.92119 -0.767034,-17.1197 16.383674,-17.1197 17.853544,0 17.116326,-0.73722 17.116326,17.11633 0,17.1507 0.801492,16.38367 -17.119701,16.38367 -10.700705,0 -13.53858,-0.30114 -14.80887,-1.57143 z m 24.428571,-14.92857 v -9.5 h -9.5 -9.5 v 9.5 9.5 h 9.5 9.5 z m 88.999999,-19.52366 c 0,-0.99532 -0.5625,-2.00588 -1.25,-2.2457 -2.02486,-0.70631 -3.75,0.34856 -3.75,2.29302 0,0.99532 0.5625,2.00588 1.25,2.2457 2.02486,0.70631 3.75,-0.34856 3.75,-2.29302 z m 15.76486,-61.85598 c 0.18972,-21.762133 -0.0611,-30.772393 -0.88428,-31.764253 -0.94211,-1.13517 -6.66483,-1.33702 -31.76486,-1.12037 l -30.615719,0.26426 -0.26486,30.379643 c -0.18972,21.76213 0.0611,30.77239 0.88428,31.76425 0.94211,1.13517 6.66483,1.33702 31.764859,1.12037 l 30.61572,-0.26426 z m -39.41257,25.19371 c -11.27753,-0.25326 -16.459309,-0.73809 -17.180869,-1.60752 -1.62752,-1.96105 -1.99942,-46.999553 -0.40397,-48.924393 1.74966,-2.11091 9.800879,-3.00266 19.791079,-2.19206 7.04219,0.5714 8.49041,0.98873 8.99972,2.59343 1.2325,3.88328 -1.12751,4.81647 -12.18069,4.81647 h -10.37756 v 19.000003 19 h 19 19 v -19 -19.000003 h -3.37756 c -3.93791,0 -6.06015,-2.04554 -5.13767,-4.95201 0.56461,-1.77894 1.47898,-2.04799 6.96017,-2.04799 3.87538,0 6.71615,0.48917 7.36233,1.26778 0.64777,0.78051 1.17526,10.182833 1.37245,24.463293 0.27311,19.77928 0.095,23.42098 -1.20958,24.72637 -1.87569,1.87691 -10.31758,2.35743 -32.61785,1.85663 z M 70.428381,129.65589 c 0,-1.78023 -3.298481,-2.61522 -4.719087,-1.19461 -0.553657,0.55365 -0.688396,1.52159 -0.299421,2.15096 0.994046,1.6084 5.018508,0.84148 5.018508,-0.95635 z M 187.37261,102.73243 c 0.95592,-1.54672 -0.56402,-4.090243 -2.44423,-4.090243 -1.88021,0 -3.40015,2.543523 -2.44423,4.090243 0.30925,0.50037 1.40915,0.90976 2.44423,0.90976 1.03508,0 2.13498,-0.40939 2.44423,-0.90976 z M 112.42838,54.155882 c 0,-2.206158 -3.1089,-3.304797 -4.739,-1.674693 -1.68076,1.680755 -0.0229,4.337197 2.48453,3.981135 1.47517,-0.209476 2.25447,-1.006737 2.25447,-2.306442 z m 113.26913,-21.263695 0.26913,-22.25 H 203.44751 180.92838 V 32.47552 c 0,12.008334 0.30854,22.141877 0.68565,22.518985 0.37711,0.377109 10.38961,0.564609 22.25,0.416667 l 21.56435,-0.268985 z M 190.16384,49.64618 c -3.53588,-1.483815 -4.41331,-5.446725 -4.05989,-18.336628 0.41584,-15.166439 -0.17772,-14.667365 17.44413,-14.667365 10.70071,0 13.53858,0.301138 14.80887,1.571429 1.27029,1.27029 1.57143,4.108165 1.57143,14.80887 0,17.716852 0.57706,17.056863 -15.1673,17.346851 -6.78299,0.124932 -13.35175,-0.200488 -14.59724,-0.723157 z m 22.76454,-16.503993 v -9.5 h -9.5 -9.5 v 9.5 9.5 h 9.5 9.5 z M 187.85046,212.56427 c -1.92736,-1.92736 -2.05416,-3.01187 -1.75,-14.96714 0.43054,-16.92278 -0.13992,-16.35232 16.78286,-16.78286 17.44087,-0.44372 17.04506,-0.84444 17.04506,17.25649 0,10.87446 -0.29889,13.72746 -1.57143,15 -1.27254,1.27254 -4.12554,1.57143 -15,1.57143 -12.26309,0 -13.60891,-0.18034 -15.50649,-2.07792 z m 25.07792,-14.42208 v -9.5 h -9.5 -9.5 v 9.5 9.5 h 9.5 9.5 z M 24.006302,48.720108 c -1.897576,-1.897576 -2.077921,-3.243399 -2.077921,-15.506492 0,-10.874459 0.298886,-13.727457 1.571429,-15 1.272543,-1.272543 4.125541,-1.571429 15,-1.571429 18.100932,0 17.700214,-0.395808 17.256492,17.04506 -0.430541,16.922784 0.139923,16.35232 -16.782861,16.782861 -11.955274,0.30416 -13.039783,0.177356 -14.967139,-1.75 z M 47.928381,33.142187 v -9.5 h -9.5 -9.5 v 9.5 9.5 h 9.5 9.5 z"
         id="path3846"
         inkscape:connector-curvature="0" />
      <path
         style="fill:#b9b9b9;fill-opacity:1"
         d="M 11.382926,225.18764 8.928381,222.7331 v -24.43467 c 0,-29.3819 -0.23434,-28.72713 10.635472,-29.71622 3.775491,-0.34355 15.111114,-0.40263 25.190275,-0.13128 23.329597,0.62806 22.485613,0.10547 23.174253,14.34927 l 0.5,10.34199 h 19 18.999999 l 0.0823,-18.75 0.0823,-18.75 -7.082259,-0.0564 c -13.60624,-0.10844 -17.51516,-3.27334 -18.34361,-14.85211 -0.57837,-8.08336 -1.48397,-8.69229 -6.08481,-4.09145 -5.599719,5.59972 -14.819129,3.16613 -16.721591,-4.41388 -2.499089,-9.95692 9.482164,-16.82551 16.721521,-9.58616 4.72698,4.72699 5.84615,4.05696 5.84615,-3.5 v -6.5 h -21.8 c -15.622222,0 -22.140061,-0.34006 -23,-1.2 -0.866496,-0.8665 -1.2,-7.85305 -1.2,-25.138713 V 62.364776 l -8.864348,0.505422 C 16.386291,63.421998 11.872503,62.274812 10.007118,58.789309 9.321027,57.507336 8.928381,47.997514 8.928381,32.662474 V 8.551278 L 11.382926,6.096732 13.837472,3.642187 H 38.428381 63.01929 l 2.454546,2.454545 c 2.834542,2.834543 2.813958,2.697703 2.488798,16.545455 -0.291226,12.402558 -1.64877,15.242626 -5.462824,11.428571 -1.236851,-1.23685 -1.571429,-3.898268 -1.571429,-12.5 V 10.642187 h -22.5 -22.5 v 22.5 22.5 h 22.5 22.5 v -5.964816 c 0,-5.108034 0.313564,-6.132631 2.182996,-7.133121 4.829858,-2.584861 7.62544,6.833977 4.352993,14.666045 -2.072606,4.960446 -6.533277,6.607852 -16.869573,6.230236 l -8.166416,-0.298344 -0.269888,21.25 -0.269887,21.250003 h 19.519887 19.519888 l 0.0564,-9.250003 c 0.10201,-16.71716 2.71046,-19.88385 16.93894,-20.564122 l 9.004659,-0.430517 V 70.26662 c 0,-4.382739 -0.42903,-5.535863 -2.9422,-7.907894 -3.57797,-3.377031 -4.445199,-5.837995 -3.6156,-10.260147 1.39959,-7.460428 11.07174,-10.096296 16.63472,-4.533315 1.98422,1.984221 2.92308,3.927296 2.92308,6.04966 0,3.707315 -2.30357,8.546042 -4.46301,9.374697 -1.14757,0.440363 -1.53699,2.117936 -1.53699,6.621181 v 6.031385 h 8.5 8.5 v -21.8 c 0,-15.622222 0.34006,-22.140061 1.2,-23 0.85213,-0.852131 6.91195,-1.2 20.90377,-1.2 h 19.70377 l 0.72774,-10.676968 C 174.56457,2.813473 172.94399,3.642187 203.42838,3.642187 h 24.59091 l 2.45454,2.454545 2.45455,2.454546 v 24.43467 c 0,22.387367 -0.15684,24.628362 -1.87191,26.746381 -2.51023,3.100001 -9.41789,3.741678 -33.45199,3.107476 -24.00493,-0.633433 -22.99087,0.0028 -23.6761,-14.855626 l -0.5,-10.841992 -17.75,-0.273074 -17.75,-0.273075 v 19.523075 19.523074 l 5.75,0.05644 c 12.19476,0.119704 16.20794,3.623495 17.01134,14.852108 l 0.50739,7.09145 h 6.87973 c 6.48948,0 7.0433,-0.18307 9.7633,-3.22727 2.38338,-2.66747 3.61291,-3.22728 7.08824,-3.22728 3.47955,0 4.70439,0.55929 7.10234,3.24305 3.91431,4.38089 3.91431,9.042105 0,13.422995 -2.39795,2.68376 -3.62279,3.24305 -7.10234,3.24305 -3.47533,0 -4.70486,-0.55981 -7.08824,-3.22728 -2.73013,-3.05554 -3.25679,-3.22726 -9.89766,-3.22726 h -7.0141 v 5.5 5.5 h 21.41821 c 11.78002,0 22.13002,0.27314 23,0.60699 1.38625,0.53195 1.58179,3.82029 1.58179,26.60032 v 25.99334 l 8.75,-0.22621 c 11.94703,-0.30886 12.01846,-0.29689 14.79545,2.48011 l 2.45455,2.45454 v 24.59091 24.59091 l -2.45455,2.45454 -2.45454,2.45455 h -24.59091 -24.59091 l -2.45454,-2.45455 c -2.83194,-2.83193 -2.80945,-2.68331 -2.50396,-16.54545 0.25611,-11.62165 1.24372,-14.03674 4.93275,-12.06244 1.9666,1.0525 2.11666,1.94563 2.11666,12.59762 v 11.46482 h 22.5 22.5 v -22.5 -22.5 h -22.5 -22.5 v 5.96482 c 0,5.10803 -0.31356,6.13263 -2.183,7.13312 -6.84012,3.66072 -7.85378,-14.41052 -1.05775,-18.8574 2.0579,-1.34655 4.81958,-1.74054 12.20039,-1.74054 h 9.54036 l 0.26877,-22.75 0.26878,-22.75 h -19.51878 -19.51877 l -0.0564,10.75 c -0.0932,17.75708 -2.49736,21.20086 -15.37752,22.02746 l -7.56608,0.48555 v 6.07089 c 0,5.48594 0.31095,6.39171 3.22727,9.40059 4.5722,4.71731 4.5661,10.27394 -0.0158,14.36785 -4.38089,3.91431 -9.04211,3.91431 -13.423,0 -2.68376,-2.39795 -3.24305,-3.62279 -3.24305,-7.10234 0,-3.47533 0.55981,-4.70486 3.22728,-7.08824 3.01099,-2.6903 3.2273,-3.32017 3.2273,-9.39766 v -6.5141 h -8.5 -8.5 v 19.9349 c 0,10.9642 -0.43886,21.0892 -0.97525,22.5 l -0.97525,2.5651 H 89.885741 c -21.707899,0 -22.080988,0.0351 -21.451194,2.01943 0.352517,1.11068 0.318137,6.14584 -0.0764,11.18924 -1.125499,14.3873 0.167871,13.79133 -29.929766,13.79133 H 13.837472 Z m 49.545455,-27.04545 v -22.5 h -22.5 -22.5 v 22.5 22.5 h 22.5 22.5 z M 23.49981,213.07076 c -2.306232,-2.30623 -2.306232,-27.55091 0,-29.85714 1.275952,-1.27595 4.152813,-1.57143 15.3,-1.57143 9.344444,0 14.111783,0.38321 14.928571,1.2 0.816788,0.81679 1.2,5.58413 1.2,14.92857 0,11.14719 -0.295476,14.02405 -1.571429,15.3 -2.306232,2.30623 -27.55091,2.30623 -29.857142,0 z m 24.428571,-14.92857 v -9.5 h -9.5 -9.5 v 9.5 9.5 h 9.5 9.5 z m 88.499999,-19.5 c 0,-2.85063 -3.15628,-4.05931 -4.11001,-1.57391 -0.9098,2.37089 0.3775,4.76534 2.35699,4.38412 1.10702,-0.21319 1.75302,-1.24877 1.75302,-2.81021 z m 16,-63 V 84.142187 h -31.5 -31.499999 l -0.26502,30.489673 c -0.14576,16.76931 -0.0449,31.06324 0.2241,31.76428 0.38493,1.00312 7.15099,1.21832 31.765019,1.01033 l 31.2759,-0.26428 z m -56.299999,24.8 c -1.70442,-1.70442 -1.70442,-47.895583 0,-49.600003 1.66263,-1.66263 25.937369,-1.66263 27.599999,0 1.58146,1.58146 1.5146,2.34254 -0.37143,4.22857 -1.21754,1.21754 -3.80736,1.57143 -11.5,1.57143 h -9.92857 v 19.000003 19 h 19 19 v -19 -19.000003 h -2.92857 c -2.70088,0 -6.07143,-2.14922 -6.07143,-3.87143 0,-2.98798 12.15649,-4.57208 14.8,-1.92857 1.70442,1.70442 1.70442,47.895583 0,49.600003 -1.70442,1.70442 -47.895579,1.70442 -49.599999,0 z M 69.346594,132.0352 c 2.091027,-0.8024 2.027377,-4.00804 -0.09575,-4.82277 -0.938094,-0.35998 -2.332805,0.0115 -3.164098,0.84283 -1.221396,1.22139 -1.257073,1.76306 -0.200014,3.03674 1.47373,1.77574 1.366494,1.7465 3.459866,0.9432 z M 187.42838,101.15589 c 0,-2.206163 -3.1089,-3.304803 -4.739,-1.674703 -1.68076,1.680763 -0.0229,4.337203 2.48453,3.981143 1.47517,-0.20948 2.25447,-1.00674 2.25447,-2.30644 z M 112.59651,53.219728 c -0.33295,-0.867647 -1.53361,-1.577541 -2.66813,-1.577541 -2.86185,0 -3.78647,2.951748 -1.45797,4.654388 1.58422,1.158411 2.0839,1.148253 3.29922,-0.06707 0.78773,-0.787732 1.15983,-2.142133 0.82688,-3.009781 z M 225.92838,33.142187 v -22.5 h -22.5 -22.5 v 22.5 22.5 h 22.5 22.5 z m -37.8,15.3 c -0.81679,-0.816788 -1.2,-5.584127 -1.2,-14.928571 0,-11.147187 0.29548,-14.024048 1.57143,-15.3 2.30623,-2.306232 27.55091,-2.306232 29.85714,0 1.27171,1.271708 1.57143,4.119047 1.57143,14.928571 0,10.809524 -0.29972,13.656863 -1.57143,14.928571 -1.27595,1.275953 -4.15281,1.571429 -15.3,1.571429 -9.34444,0 -14.11178,-0.383212 -14.92857,-1.2 z m 24.8,-15.3 v -9.5 h -9.5 -9.5 v 9.5 9.5 h 9.5 9.5 z M 188.49981,213.07076 c -1.27595,-1.27595 -1.57143,-4.15281 -1.57143,-15.3 0,-9.34444 0.38321,-14.11178 1.2,-14.92857 0.81679,-0.81679 5.58413,-1.2 14.92857,-1.2 11.14719,0 14.02405,0.29548 15.3,1.57143 1.27171,1.27171 1.57143,4.11905 1.57143,14.92857 0,10.80952 -0.29972,13.65686 -1.57143,14.92857 -2.30623,2.30623 -27.55091,2.30623 -29.85714,0 z m 24.42857,-14.92857 v -9.5 h -9.5 -9.5 v 9.5 9.5 h 9.5 9.5 z M 23.49981,48.070758 c -2.306232,-2.306232 -2.306232,-27.55091 0,-29.857142 2.306232,-2.306232 27.55091,-2.306232 29.857142,0 1.275953,1.275952 1.571429,4.152813 1.571429,15.3 0,9.344444 -0.383212,14.111783 -1.2,14.928571 -0.816788,0.816788 -5.584127,1.2 -14.928571,1.2 -11.147187,0 -14.024048,-0.295476 -15.3,-1.571429 z M 47.928381,33.142187 v -9.5 h -9.5 -9.5 v 9.5 9.5 h 9.5 9.5 z"
         id="path3844"
         inkscape:connector-curvature="0" />
      <path
         style="fill:#a3a3a3;fill-opacity:1"
         d="M 11.382926,225.18764 8.928381,222.7331 v -24.59091 -24.59091 l 2.454545,-2.45454 2.454546,-2.45455 H 38.428381 63.01929 l 2.454546,2.45455 c 2.280268,2.28026 2.454545,3.16778 2.454545,12.5 v 10.04545 h 19.52159 19.521599 l -0.2716,-19.25 -0.27159,-19.25 -9.840349,-0.5 c -9.25568,-0.47029 -9.98353,-0.66671 -12.25,-3.30576 -2.07913,-2.42092 -2.40965,-3.82684 -2.40965,-10.25 0,-6.93484 -0.14612,-7.44424 -2.13533,-7.44424 -1.17443,0 -3.16108,1.1068 -4.41477,2.45956 -5.462839,5.8945 -15.126235,3.66252 -17.032872,-3.93412 -2.51575,-10.02355 9.967551,-16.60861 17.032872,-8.985 1.25369,1.35276 3.26181,2.45956 4.46249,2.45956 2.04296,0 2.16394,-0.40106 1.88533,-6.25 l -0.29772,-6.25 -21.921612,-0.26998 c -14.115199,-0.17384 -22.394658,-0.66257 -23.25,-1.37245 -1.036647,-0.86034 -1.328388,-6.34645 -1.328388,-24.980013 V 62.642187 H 24.382926 c -9.863075,0 -10.704284,-0.15883 -13,-2.454545 L 8.928381,57.733096 V 33.142187 8.551278 L 11.382926,6.096732 13.837472,3.642187 H 38.428381 63.01929 l 2.484538,2.484538 c 2.420731,2.420731 2.477347,2.812375 2.204545,15.25 -0.276415,12.602375 -0.310486,12.769774 -2.666902,13.102954 -1.3128,0.185621 -2.76841,-0.264379 -3.234687,-1 -0.466278,-0.735621 -0.854668,-6.174992 -0.86309,-12.087492 l -0.01531,-10.75 h -22.5 -22.5 v 22.5 22.5 h 22.5 22.5 l 0.01531,-5.25 c 0.01845,-6.326752 0.940442,-8.033917 4.097777,-7.587492 2.232961,0.315725 2.405862,0.805199 2.680752,7.589104 0.267564,6.603106 0.07041,7.475042 -2.204545,9.75 -2.348626,2.348629 -3.130503,2.498388 -13.043839,2.498388 H 41.928381 v 21.52114 21.521143 l 19.75,-0.27114 19.75,-0.27114 0.5,-11.726673 c 0.6623,-15.533188 1.1372,-16.072381 14.77319,-16.77333 l 9.726809,-0.5 0.30463,-5.318331 c 0.27987,-4.886013 0.0157,-5.638164 -3.25,-9.252881 -3.904219,-4.3215 -4.422369,-7.35009 -2.04428,-11.948804 4.39143,-8.492088 16.87393,-5.989397 18.1658,3.642169 0.49691,3.704737 0.18345,4.527489 -3.11647,8.180106 -3.3897,3.751998 -3.64575,4.465847 -3.36431,9.37941 l 0.30463,5.318331 8.75,0.288933 8.75,0.288933 V 54.38112 c 0,-16.041392 0.33829,-22.677223 1.2,-23.538933 0.85452,-0.854516 7.04444,-1.2 21.5,-1.2 h 20.3 V 19.096732 c 0,-9.863075 0.15883,-10.704284 2.45455,-13 l 2.45454,-2.454545 h 24.59091 24.59091 l 2.45454,2.454545 2.45455,2.454546 v 24.590909 24.590909 l -2.45455,2.454546 -2.45454,2.454545 h -24.59091 -24.59091 l -2.45454,-2.454545 c -2.29572,-2.295716 -2.45455,-3.136925 -2.45455,-13 V 36.642187 H 155.90724 137.8861 l 0.27114,19.75 0.27114,19.75 8.33974,0.5 c 7.59856,0.455564 8.55394,0.749354 10.75,3.30576 2.07989,2.42119 2.41026,3.82612 2.41026,10.25 v 7.44424 h 7.75945 c 6.76853,0 7.92485,-0.26484 9.05459,-2.07383 0.71232,-1.14061 2.84556,-2.72165 4.74054,-3.51342 2.97278,-1.24211 3.90762,-1.24647 6.81473,-0.0318 6.80853,2.84478 8.70639,9.998773 4.10366,15.468813 -1.38987,1.65176 -3.83203,3.28983 -5.42701,3.64015 -3.33012,0.73141 -8.15335,-1.37745 -10.36184,-4.5305 -1.26553,-1.80681 -2.31836,-2.01661 -8.8107,-1.75571 l -7.37342,0.2963 -0.30226,5.25 -0.30226,5.25 h 22.35226 c 16.05176,0 22.69051,0.33825 23.55226,1.2 0.87009,0.87009 1.2,8.15556 1.2,26.5 v 25.3 h 10.54545 c 9.86308,0 10.70429,0.15883 13,2.45455 l 2.45455,2.45454 v 24.59091 24.59091 l -2.45455,2.45454 -2.45454,2.45455 h -24.59091 -24.59091 l -2.45454,-2.45455 c -2.34446,-2.34445 -2.45455,-3.01564 -2.45455,-14.96481 0,-11.33681 0.18109,-12.60719 1.93055,-13.54347 1.45727,-0.77991 2.31532,-0.64844 3.5,0.53624 1.23445,1.23445 1.56945,3.90214 1.56945,12.49802 v 10.92857 h 22.5 22.5 v -22.5 -22.5 h -22.5 -22.5 l -0.0153,5.25 c -0.0185,6.32675 -0.94045,8.03392 -4.09778,7.58749 -2.23296,-0.31572 -2.40586,-0.8052 -2.68075,-7.5891 -0.26757,-6.60311 -0.0704,-7.47504 2.20454,-9.75 2.34862,-2.34863 3.1305,-2.49839 13.04384,-2.49839 h 10.54545 v -23 -23 h -20 -20 v 12.94424 c 0,12.23594 -0.13189,13.09776 -2.41026,15.75 -2.19606,2.55641 -3.15144,2.8502 -10.75,3.30576 l -8.33974,0.5 -0.29627,6.77562 c -0.28198,6.44862 -0.15281,6.89635 2.67648,9.27704 3.76055,3.16429 4.75009,7.32779 2.68893,11.31365 -4.36365,8.43835 -14.57131,8.15943 -18.18819,-0.497 -1.21467,-2.90711 -1.21031,-3.84195 0.0318,-6.81473 0.79177,-1.89498 2.37281,-4.02822 3.51342,-4.74054 1.79071,-1.11832 2.07383,-2.29153 2.07383,-8.59352 v -7.29839 l -8.75,0.28894 -8.75,0.28893 -0.27007,21.95339 c -0.19722,16.03165 -0.60183,22.16413 -1.5,22.73468 -0.67646,0.42972 -10.79243,0.7882 -22.479929,0.79662 l -21.25,0.0153 v 11.04545 c 0,10.39394 -0.144781,11.19024 -2.454545,13.5 l -2.454546,2.45455 H 38.428381 13.837472 Z m 49.545455,-27.04545 v -22.5 h -22.5 -22.5 v 22.5 22.5 h 22.5 22.5 z m -37.345012,14.67126 c -2.378512,-2.62823 -2.447977,-27.23541 -0.08356,-29.59983 2.306232,-2.30623 27.55091,-2.30623 29.857142,0 2.306232,2.30623 2.306232,27.55091 0,29.85714 -1.27072,1.27072 -4.11145,1.57143 -14.845011,1.57143 -11.589241,0 -13.483593,-0.23206 -14.928571,-1.82874 z m 24.345012,-14.67126 v -9.5 h -9.5 -9.5 v 9.5 9.5 h 9.5 9.5 z m 88.499999,-19.5 c 0,-2.85063 -3.15628,-4.05931 -4.11001,-1.57391 -0.9098,2.37089 0.3775,4.76534 2.35699,4.38412 1.10702,-0.21319 1.75302,-1.24877 1.75302,-2.81021 z m 16,-63 V 84.142187 h -31.5 -31.499999 l -0.26502,30.489673 c -0.14576,16.76931 -0.0449,31.06324 0.2241,31.76428 0.38493,1.00312 7.15099,1.21832 31.765019,1.01033 l 31.2759,-0.26428 z m -56.299999,24.8 c -0.86445,-0.86445 -1.2,-7.69524 -1.2,-24.42857 0,-19.962883 0.22502,-23.453593 1.60055,-24.829133 1.33113,-1.33112 3.729899,-1.55357 14.249999,-1.32143 12.48036,0.2754 12.65396,0.31104 12.98694,2.66604 0.18562,1.3128 -0.26438,2.76841 -1,3.23469 -0.73562,0.46627 -5.72499,0.85467 -11.08749,0.86309 l -9.75,0.01531 v 19.000003 19 h 19 19 v -19 -19.000003 l -2.75,-0.0153 c -3.8653,-0.0215 -5.47996,-1.32207 -5.08749,-4.09778 0.30577,-2.16254 0.88591,-2.41534 6.17186,-2.68933 3.4411,-0.17837 6.41507,0.17951 7.25,0.87244 2.21324,1.83683 2.07027,47.132493 -0.1558,49.358553 -1.33837,1.33837 -5.01645,1.57143 -24.8,1.57143 -16.73333,0 -23.564119,-0.33555 -24.428569,-1.2 z m -25.7,-10.8 c 0,-1.83273 -0.601738,-2.58545 -2.254471,-2.82014 -2.457106,-0.34891 -3.852657,1.79561 -2.856989,4.39028 0.361403,0.9418 1.50471,1.44202 2.856989,1.25 1.652733,-0.23469 2.254471,-0.98741 2.254471,-2.82014 z M 186.91781,103.15492 c 1.6616,-2.00209 0.55479,-4.512733 -1.98943,-4.512733 -1.13452,0 -2.32399,0.68073 -2.64326,1.512733 -0.57462,1.49745 1.18656,4.48727 2.64326,4.48727 0.41531,0 1.31055,-0.66927 1.98943,-1.48727 z m -75,-46.999998 c 1.6616,-2.002099 0.55479,-4.512735 -1.98943,-4.512735 -1.13452,0 -2.32399,0.680731 -2.64326,1.512735 -0.57462,1.497441 1.18656,4.487265 2.64326,4.487265 0.41531,0 1.31055,-0.669269 1.98943,-1.487265 z M 225.92838,33.142187 v -22.5 h -22.5 -22.5 v 22.5 22.5 h 22.5 22.5 z m -37.42857,14.928571 c -2.30623,-2.306232 -2.30623,-27.55091 0,-29.857142 1.27072,-1.270722 4.11145,-1.571429 14.84501,-1.571429 17.25584,0 16.58356,-0.679321 16.58356,16.757312 0,10.575604 -0.3028,13.402632 -1.57143,14.671259 -2.30623,2.306232 -27.55091,2.306232 -29.85714,0 z m 24.42857,-14.928571 v -9.5 h -9.5 -9.5 v 9.5 9.5 h 9.5 9.5 z M 188.49981,213.07076 c -2.30623,-2.30623 -2.30623,-27.55091 0,-29.85714 2.30623,-2.30623 27.55091,-2.30623 29.85714,0 1.27072,1.27072 1.57143,4.11145 1.57143,14.84501 0,17.25584 0.67932,16.58356 -16.75731,16.58356 -10.57561,0 -13.40263,-0.3028 -14.67126,-1.57143 z m 24.42857,-14.92857 v -9.5 h -9.5 -9.5 v 9.5 9.5 h 9.5 9.5 z M 23.49981,48.070758 c -1.270722,-1.270721 -1.571429,-4.111451 -1.571429,-14.845012 0,-17.255836 -0.679321,-16.583559 16.757312,-16.583559 10.575604,0 13.402632,0.302801 14.671259,1.571429 2.306232,2.306232 2.306232,27.55091 0,29.857142 -2.306232,2.306232 -27.55091,2.306232 -29.857142,0 z M 47.928381,33.142187 v -9.5 h -9.5 -9.5 v 9.5 9.5 h 9.5 9.5 z"
         id="path3842"
         inkscape:connector-curvature="0" />
      <path
         style="fill:#8c8c8c;fill-opacity:1"
         d="m 13.292463,226.4726 c -3.903647,-1.89018 -4.364082,-4.8894 -4.364082,-28.42712 0,-23.45367 0.602504,-27.26931 4.544802,-28.78211 0.890325,-0.34165 12.402423,-0.62118 25.58244,-0.62118 H 63.01929 l 2.454546,2.45455 c 2.280268,2.28026 2.454545,3.16778 2.454545,12.5 v 10.04545 h 19.52159 19.521599 l -0.2716,-19.25 -0.27159,-19.25 -9.840349,-0.5 c -9.25568,-0.47029 -9.98353,-0.66671 -12.25,-3.30576 -2.0811,-2.4232 -2.40965,-3.82507 -2.40965,-10.28139 0,-6.04256 -0.3182,-7.59772 -1.6599,-8.11258 -1.08554,-0.41656 -2.38312,0.24193 -3.75,1.90303 -4.5639,5.54626 -9.946709,6.23688 -14.801596,1.89904 -2.683766,-2.39795 -3.243049,-3.62279 -3.243049,-7.10234 0,-3.47955 0.559283,-4.70439 3.243049,-7.10234 4.854887,-4.33784 10.237696,-3.64722 14.801596,1.89904 3.526,4.28497 5.4099,2.45142 5.4099,-5.26532 v -6.53138 h -22.3 c -16.011111,0 -22.638416,-0.33842 -23.5,-1.2 -0.866106,-0.86611 -1.2,-7.82222 -1.2,-25.000003 v -23.8 l -10.25,-0.0318 c -15.926307,-0.04942 -15.75,0.279191 -15.75,-29.355403 0,-23.911174 0.435946,-26.579133 4.657325,-28.502522 3.423872,-1.560021 46.716594,-1.513753 49.658416,0.05307 4.166471,2.219075 4.619358,3.836736 4.652456,16.618042 0.0271,10.466645 -0.209927,12.374145 -1.60412,12.909147 -0.899757,0.345269 -2.362257,0.170653 -3.25,-0.388037 C 61.74492,33.128091 61.37293,30.74354 61.14563,21.785533 L 60.862879,10.642187 H 38.39563 15.928381 v 22.5 22.5 h 22.450096 22.450096 l 0.299904,-5.64649 c 0.315692,-5.943741 2.009679,-8.254461 5.163981,-7.044042 1.301316,0.499362 1.635923,2.07524 1.635923,7.704602 0,6.180348 -0.310941,7.38778 -2.454545,9.531385 -2.295716,2.295715 -3.136925,2.454545 -13,2.454545 H 41.928381 v 21.5 21.500003 h 20 20 V 94.197947 c 0,-10.64983 0.16727,-11.639 2.40965,-14.25 2.26647,-2.639052 2.99432,-2.835468 12.25,-3.30576 l 9.840349,-0.5 0.30056,-5.772016 c 0.27838,-5.3461 0.0809,-5.956861 -2.67648,-8.277032 -7.387059,-6.215799 -3.2718,-17.450952 6.392,-17.450952 3.72747,0 6.22278,1.59434 8.06207,5.151126 2.18875,4.232568 1.13924,9.067447 -2.66272,12.266577 -2.802,2.357729 -2.99517,2.948805 -2.71599,8.310281 l 0.30056,5.772016 8.75,0.288933 8.75,0.288933 V 54.38112 c 0,-16.041392 0.33829,-22.677223 1.2,-23.538933 0.85452,-0.854516 7.04444,-1.2 21.5,-1.2 h 20.3 v -9.918213 c 0,-11.580252 0.30359,-12.670301 4.07152,-14.618772 3.57003,-1.846136 46.33493,-2.146209 50.27116,-0.352743 4.22097,1.923207 4.65732,4.592104 4.65732,28.486441 0,23.453663 -0.6025,27.269304 -4.5448,28.782106 -0.89033,0.341649 -12.40243,0.621181 -25.58244,0.621181 h -23.96367 l -2.45454,-2.454545 c -2.29572,-2.295716 -2.45455,-3.136925 -2.45455,-13 V 36.642187 h -18 -18 v 20 20 h 8.07692 c 7.5938,0 8.25177,0.174847 11,2.923077 2.71639,2.716383 2.92308,3.458843 2.92308,10.500003 v 7.57692 h 7.59879 c 7.15367,0 7.76295,-0.17573 10.40121,-3 5.59305,-5.98738 15.36384,-2.91997 16.66146,5.23063 0.74532,4.681483 -1.4792,8.377443 -6.23924,10.366323 -2.96651,1.23948 -3.87757,1.23963 -6.84173,10e-4 -1.88073,-0.78582 -3.92156,-2.36686 -4.53518,-3.51342 -0.98742,-1.84488 -2.03132,-2.08453 -9.08049,-2.08453 h -7.96482 v 5.5 5.5 h 22.3 c 16.01111,0 22.63842,0.33842 23.5,1.2 0.87009,0.87009 1.2,8.15556 1.2,26.5 v 25.3 l 10.25,0.0318 c 15.92631,0.0494 15.75,-0.27919 15.75,29.35541 0,23.91117 -0.43595,26.57913 -4.65732,28.50252 -3.42388,1.56002 -46.7166,1.51375 -49.65842,-0.0531 -4.16647,-2.21908 -4.61936,-3.83674 -4.65246,-16.61804 -0.0271,-10.46665 0.20993,-12.37415 1.60412,-12.90915 0.89976,-0.34527 2.36226,-0.17065 3.25,0.38804 1.29754,0.81658 1.66953,3.20114 1.89683,12.15914 l 0.28275,11.14338 h 22.46725 22.46725 v -22.5 -22.5 h -22.4501 -22.45009 l -0.29991,5.64649 c -0.31569,5.94374 -2.00967,8.25446 -5.16398,7.04404 -1.30131,-0.49936 -1.63592,-2.07524 -1.63592,-7.7046 0,-6.18035 0.31094,-7.38778 2.45455,-9.53138 2.29571,-2.29572 3.13692,-2.45455 13,-2.45455 h 10.54545 v -23 -23 h -20 -20 v 13.07692 13.07693 l -2.92308,2.92307 c -2.74823,2.74823 -3.4062,2.92308 -11,2.92308 h -8.07692 v 7.25945 c 0,6.2626 0.28478,7.4373 2.07383,8.55459 1.14061,0.71232 2.72165,2.84556 3.51342,4.74054 2.87428,6.87912 -2.97526,14.28204 -10.35662,13.10688 -8.16909,-1.30057 -11.15295,-10.89299 -5.23063,-16.81531 2.75879,-2.75878 3,-3.55977 3,-9.96201 v -6.96201 l -8.75,0.28894 -8.75,0.28893 -0.27007,21.95339 c -0.19722,16.03165 -0.60183,22.16413 -1.5,22.73468 -0.67646,0.42972 -10.79243,0.7882 -22.479929,0.79662 l -21.25,0.0153 v 10.41821 c 0,5.73002 -0.279532,11.14666 -0.621181,12.03699 -1.522737,3.96819 -5.287016,4.54775 -29.079159,4.47712 -13.512191,-0.0401 -23.669729,-0.48898 -24.935578,-1.10191 z m 47.635918,-28.33041 v -22.5 h -22.5 -22.5 v 22.5 22.5 h 22.5 22.5 z m -37.345012,14.67126 c -1.361554,-1.5045 -1.654988,-4.13656 -1.654988,-14.84501 0,-16.95975 -0.650221,-16.32625 16.757312,-16.32625 10.575604,0 13.402632,0.3028 14.671259,1.57143 1.270722,1.27072 1.571429,4.11145 1.571429,14.84501 0,17.24686 0.666904,16.58356 -16.673753,16.58356 -11.339961,0 -13.229411,-0.23552 -14.671259,-1.82874 z m 24.345012,-14.67126 v -9.5 h -9.5 -9.5 v 9.5 9.5 h 9.5 9.5 z m 88.999999,-18 c 0.99319,-1.19672 0.99319,-1.80328 0,-3 -2.49896,-3.01106 -6.06097,-0.70723 -4.63837,3 0.31658,0.825 1.20962,1.5 1.98454,1.5 0.77492,0 1.96914,-0.675 2.65383,-1.5 z m 15.5,-64.5 V 84.142187 h -31.5 -31.499999 l -0.26502,30.489673 c -0.14576,16.76931 -0.0449,31.06324 0.2241,31.76428 0.38493,1.00312 7.15099,1.21832 31.765019,1.01033 l 31.2759,-0.26428 z m -55.928569,24.42857 c -2.35094,-2.35094 -2.35094,-46.506203 0,-48.857143 2.37048,-2.37048 26.206469,-2.31379 27.119099,0.0645 1.45515,3.79205 -0.91835,4.85046 -11.54685,5.14906 l -10.14368,0.28498 v 18.965013 18.96502 h 19 19 V 115.70555 96.768907 l -3.14915,-0.31336 c -3.48186,-0.34647 -5.50856,-2.65702 -4.54138,-5.17744 0.86581,-2.25627 10.8781,-2.30549 13.1191,-0.0645 2.35094,2.35094 2.35094,46.506203 0,48.857143 -1.3369,1.33692 -4.98268,1.57144 -24.42857,1.57144 -19.44589,0 -23.091669,-0.23452 -24.428569,-1.57143 z m -26.07143,-10.42857 c 0,-1.83273 -0.601738,-2.58545 -2.254471,-2.82014 -2.457106,-0.34891 -3.852657,1.79561 -2.856989,4.39028 0.361403,0.9418 1.50471,1.44202 2.856989,1.25 1.652733,-0.23469 2.254471,-0.98741 2.254471,-2.82014 z m 116.870569,-27.2257 c 1.52209,-2.41302 -0.95756,-5.065703 -3.47558,-3.718103 -2.17322,1.16307 -2.43706,3.001733 -0.68249,4.756303 1.45861,1.45861 2.79334,1.12535 4.15807,-1.0382 z M 111.77677,56.757047 c 2.2285,-1.412263 0.94576,-4.61486 -1.84839,-4.61486 -1.62503,0 -2.59673,0.644502 -2.8347,1.880173 -0.3116,1.618028 1.2452,3.589201 2.8347,3.589201 0.275,0 1.10678,-0.384531 1.84839,-0.854514 z m 114.15161,-23.61486 v -22.5 h -22.5 -22.5 v 22.5 22.5 h 22.5 22.5 z m -37.42857,14.928571 c -1.27072,-1.270721 -1.57143,-4.111451 -1.57143,-14.845012 0,-17.246855 -0.6669,-16.583559 16.67375,-16.583559 16.95081,0 16.32625,-0.637852 16.32625,16.673753 0,16.959742 0.65022,16.326247 -16.75731,16.326247 -10.57561,0 -13.40263,-0.302801 -14.67126,-1.571429 z m 24.42857,-14.928571 v -9.5 h -9.5 -9.5 v 9.5 9.5 h 9.5 9.5 z M 188.58337,212.81345 c -1.36156,-1.5045 -1.65499,-4.13656 -1.65499,-14.84501 0,-16.95081 -0.63785,-16.32625 16.67375,-16.32625 16.95081,0 16.32625,-0.63785 16.32625,16.67375 0,16.95081 0.63785,16.32625 -16.67375,16.32625 -11.33996,0 -13.22941,-0.23552 -14.67126,-1.82874 z m 24.34501,-14.67126 v -9.5 h -9.5 -9.5 v 9.5 9.5 h 9.5 9.5 z M 23.583369,47.813446 c -1.361554,-1.5045 -1.654988,-4.136559 -1.654988,-14.845012 0,-16.950805 -0.637852,-16.326247 16.673753,-16.326247 16.950805,0 16.326247,-0.637852 16.326247,16.673753 0,16.950805 0.637852,16.326247 -16.673753,16.326247 -11.339961,0 -13.229411,-0.235516 -14.671259,-1.828741 z M 47.928381,33.142187 v -9.5 h -9.5 -9.5 v 9.5 9.5 h 9.5 9.5 z"
         id="path3840"
         inkscape:connector-curvature="0" />
      <path
         style="fill:#767676;fill-opacity:1"
         d="m 11.851458,224.71911 -2.923077,-2.92307 v -23.65385 -23.65385 l 2.923077,-2.92307 2.923077,-2.92308 h 23.940559 23.94056 l 2.636363,2.63636 c 2.49211,2.49211 2.636364,3.17607 2.636364,12.5 v 9.86364 h 19.5 19.499999 v -19.5 -19.5 h -8.549659 c -9.00267,0 -13.52462,-1.41907 -15.01832,-4.71301 -0.44568,-0.98285 -1.06271,-5.15771 -1.37118,-9.27749 -0.67584,-9.02646 -2.03508,-9.83526 -7.44204,-4.4283 -3.26748,3.26748 -4.076031,3.60629 -7.341585,3.07636 -11.672603,-1.8942 -11.672603,-17.42092 0,-19.31512 3.265554,-0.52993 4.074105,-0.19112 7.341585,3.07636 5.32437,5.32437 6.81541,4.56001 7.17689,-3.67914 l 0.29569,-6.73966 H 60.408329 c -12.984961,0 -22.383514,-0.41321 -23.545689,-1.03518 -1.82974,-0.97925 -1.934259,-2.33015 -1.934259,-25.000003 V 62.642187 H 24.517275 c -10.397961,0 -10.414376,-0.0039 -13,-3.076725 L 8.928381,56.488736 V 32.988539 9.488341 L 11.851458,6.565264 14.774535,3.642187 H 38.274733 61.77493 l 3.105757,2.613321 3.105756,2.613322 -0.279031,12.636678 C 67.436834,33.759384 67.360086,34.151885 65.17391,34.462324 62.208939,34.883352 61.965062,34.005499 61.612341,21.642187 l -0.299561,-10.5 -22.711022,-0.268823 -22.711022,-0.268822 0.268822,22.768822 0.268823,22.768823 21,0.277428 c 12.55483,0.16586 21.596927,-0.117192 22.484336,-0.703844 0.906457,-0.599246 1.685092,-3.237819 2,-6.777428 0.478497,-5.378389 0.695855,-5.796156 3.015664,-5.796156 2.403686,0 2.511182,0.272506 2.790245,7.073391 0.267846,6.527515 0.08368,7.279955 -2.386364,9.75 -2.557785,2.557786 -3.136682,2.676609 -13.040245,2.676609 H 41.928381 v 21.5 21.500003 h 20 20 V 95.189237 c 0,-16.326596 1.96944,-18.54705 16.45034,-18.54705 h 8.549659 v -6.464816 c 0,-5.43015 -0.31843,-6.635238 -1.98965,-7.529645 -2.98206,-1.595948 -5.246529,-6.653735 -4.50026,-10.051496 0.78704,-3.583345 5.79638,-7.954043 9.1163,-7.954043 9.44013,0 13.72051,11.72632 6.2866,17.222449 -2.68218,1.983023 -2.91299,2.653792 -2.91299,8.465609 v 6.311942 h 9 9 V 55.076446 c 0,-12.953467 0.4134,-22.338188 1.03518,-23.5 0.97169,-1.815612 2.2905,-1.934259 21.5,-1.934259 h 20.46482 V 19.565264 c 0,-9.804319 0.0791,-10.155999 2.92308,-13 l 2.92307,-2.923077 h 23.65385 23.65385 l 2.92307,2.923077 2.92308,2.923077 v 23.653846 23.653846 l -2.92308,2.923077 -2.92307,2.923077 h -23.94056 -23.94056 l -2.63637,-2.636364 c -2.5093,-2.509303 -2.63636,-3.135841 -2.63636,-13 V 36.642187 h -18 -18 v 20 20 h 7.04966 c 11.85561,0 14.95034,3.01125 14.95034,14.54705 v 6.45295 h 7.59879 c 7.15367,0 7.76295,-0.17573 10.40121,-3 4.69854,-5.02981 12.41581,-3.96416 15.57815,2.15113 5.13061,9.921503 -7.94082,19.024663 -15.57815,10.848873 -2.63826,-2.82427 -3.24754,-3 -10.40121,-3 h -7.59879 v 5.5 5.5 h 22.3 c 16.01111,0 22.63842,0.33842 23.5,1.2 0.87009,0.87009 1.2,8.15556 1.2,26.5 v 25.3 h 10.41111 c 10.39796,0 10.41437,0.004 13,3.07673 l 2.58889,3.07672 v 23.5002 23.5002 l -2.92308,2.92307 -2.92307,2.92308 h -23.5002 -23.5002 l -3.10576,-2.61332 -3.10575,-2.61332 0.27903,-12.63668 c 0.27058,-12.25388 0.34732,-12.64638 2.5335,-12.95682 2.93516,-0.41679 3.15567,0.3746 3.57217,12.82014 l 0.3514,10.5 22.6798,0.26882 22.67981,0.26883 -0.26883,-22.76883 -0.26882,-22.76882 -21,-0.28252 c -12.63857,-0.17004 -21.59101,0.11021 -22.48434,0.70384 -0.90548,0.60171 -1.68543,3.24671 -2,6.78252 -0.47849,5.37839 -0.69585,5.79616 -3.01566,5.79616 -2.40369,0 -2.51118,-0.27251 -2.79024,-7.07339 -0.26785,-6.52752 -0.0837,-7.27996 2.38636,-9.75 2.5584,-2.5584 3.13513,-2.67661 13.05867,-2.67661 h 10.38207 l -0.26843,-23.19915 -0.26843,-23.19915 -19.5,-0.0508 -19.5,-0.0508 -0.52739,13 c -0.29006,7.15 -0.90709,13.80414 -1.37118,14.78699 -1.46462,3.10176 -6.09759,4.71301 -13.55177,4.71301 h -7.04966 v 7.09879 c 0,6.59812 0.21159,7.29644 3,9.90121 7.75604,7.24523 -0.28928,20.02231 -10.05924,15.97546 -4.05805,-1.6809 -5.94076,-4.62717 -5.94076,-9.29676 0,-3.01755 0.6646,-4.49711 3,-6.6787 2.78841,-2.60477 3,-3.30309 3,-9.90121 v -7.09879 h -9 -9 v 21.8 c 0,15.62222 -0.34006,22.14006 -1.2,23 -0.85822,0.85822 -7.26667,1.2 -22.499999,1.2 h -21.3 v 10.57692 c 0,10.35695 -0.06079,10.63772 -2.923077,13.5 l -2.923077,2.92308 H 38.428381 14.774535 Z m 49.304633,-5.32692 c 0.809595,-2.2912 0.285598,-42.56236 -0.564875,-43.41283 -0.850473,-0.85048 -41.121639,-1.37447 -43.412835,-0.56488 -0.949636,0.33555 -1.25,5.82252 -1.25,22.8347 v 22.39301 h 22.393011 c 17.012176,0 22.499145,-0.30036 22.834699,-1.25 z m -37.572722,-6.57874 c -1.361554,-1.5045 -1.654988,-4.13656 -1.654988,-14.84501 0,-16.95081 -0.637852,-16.32625 16.673753,-16.32625 16.950805,0 16.326247,-0.63785 16.326247,16.67375 0,16.95081 0.637852,16.32625 -16.673753,16.32625 -11.339961,0 -13.229411,-0.23552 -14.671259,-1.82874 z m 24.345012,-14.67126 v -9.5 h -9.5 -9.5 v 9.5 9.5 h 9.5 9.5 z m 89.361629,-18 c 0.92735,-2.41664 -0.3975,-4.5 -2.86163,-4.5 -2.66831,0 -4.03819,2.6466 -2.39481,4.62675 1.51294,1.82298 4.53623,1.75007 5.25644,-0.12675 z m 14.63837,-33.5 c 1.90805,-1.90805 2,-3.33333 2,-31 0,-27.666673 -0.0919,-29.091953 -2,-31.000003 -1.90805,-1.90805 -3.33333,-2 -31,-2 -27.666669,0 -29.091949,0.0919 -30.999999,2 -1.90805,1.90805 -2,3.33333 -2,31.000003 0,27.66667 0.0919,29.09195 2,31 1.90805,1.90805 3.33333,2 30.999999,2 27.66667,0 29.09195,-0.0919 31,-2 z m -55.345009,-6.82874 c -1.43684,-1.58769 -1.65499,-4.79671 -1.65499,-24.34501 0,-27.629313 -1.02956,-25.826253 14.746949,-25.826253 12.4047,0 14.25305,0.39835 14.25305,3.07181 0,2.95183 -3.21485,3.92819 -12.93426,3.92819 h -9.06574 v 19.000003 19 h 19 19 v -19 c 0,-18.534893 -0.0506,-19.000003 -2.06574,-19.000003 -3.13688,0 -5.93426,-1.85173 -5.93426,-3.92819 0,-2.28776 1.89561,-3.07181 7.4268,-3.07181 7.46417,0 7.5732,0.37682 7.5732,26.173753 0,20.54341 -0.16023,22.66128 -1.82874,24.17126 -1.58769,1.43684 -4.79671,1.65499 -24.34501,1.65499 -20.54341,0 -22.661279,-0.16023 -24.171259,-1.82874 z m -26.15499,-10.17126 c 0,-1.83273 -0.601738,-2.58545 -2.254471,-2.82014 -2.457106,-0.34891 -3.852657,1.79561 -2.856989,4.39028 0.361403,0.9418 1.50471,1.44202 2.856989,1.25 1.652733,-0.23469 2.254471,-0.98741 2.254471,-2.82014 z m 117.304099,-28.1308 c 0.34785,-2.989813 -2.22494,-4.594753 -4.43085,-2.764013 -1.71542,1.423683 -1.78906,4.556533 -0.12325,5.244043 2.5011,1.03224 4.25669,0.0762 4.5541,-2.48003 z m -75.3041,-46.869203 c 0,-1.832728 -0.60174,-2.585447 -2.25447,-2.820137 -2.45711,-0.348911 -3.85266,1.795603 -2.85699,4.390274 0.3614,0.941801 1.50471,1.442025 2.85699,1.25 1.65273,-0.23469 2.25447,-0.987409 2.25447,-2.820137 z m 112.25,1.192898 c 0.95067,-0.309444 1.25,-5.769145 1.25,-22.799887 V 10.642187 h -22.39301 c -17.03521,0 -22.48836,0.299078 -22.79151,1.25 -0.73169,2.295187 -1.04146,37.44463 -0.35744,40.558955 0.37084,1.688431 1.43199,3.293356 2.35811,3.5665 1.9735,0.582054 40.09468,0.416095 41.93385,-0.182557 z m -36.09501,-8.021639 c -1.36156,-1.5045 -1.65499,-4.136559 -1.65499,-14.845012 0,-16.950805 -0.63785,-16.326247 16.67375,-16.326247 16.95081,0 16.32625,-0.637852 16.32625,16.673753 0,16.950805 0.63785,16.326247 -16.67375,16.326247 -11.33996,0 -13.22941,-0.235516 -14.67126,-1.828741 z m 24.34501,-14.671259 v -9.5 h -9.5 -9.5 v 9.5 9.5 h 9.5 9.5 z M 188.58337,212.81345 c -1.36156,-1.5045 -1.65499,-4.13656 -1.65499,-14.84501 0,-16.95081 -0.63785,-16.32625 16.67375,-16.32625 16.95081,0 16.32625,-0.63785 16.32625,16.67375 0,16.95081 0.63785,16.32625 -16.67375,16.32625 -11.33996,0 -13.22941,-0.23552 -14.67126,-1.82874 z m 24.34501,-14.67126 v -9.5 h -9.5 -9.5 v 9.5 9.5 h 9.5 9.5 z M 23.583369,47.813446 c -1.361554,-1.5045 -1.654988,-4.136559 -1.654988,-14.845012 0,-16.950805 -0.637852,-16.326247 16.673753,-16.326247 16.950805,0 16.326247,-0.637852 16.326247,16.673753 0,16.950805 0.637852,16.326247 -16.673753,16.326247 -11.339961,0 -13.229411,-0.235516 -14.671259,-1.828741 z M 47.928381,33.142187 v -9.5 h -9.5 -9.5 v 9.5 9.5 h 9.5 9.5 z"
         id="path3838"
         inkscape:connector-curvature="0" />
      <path
         style="fill:#606060;fill-opacity:1"
         d="m 11.851458,224.71911 -2.923077,-2.92307 v -23.65385 -23.65385 l 2.923077,-2.92307 2.923077,-2.92308 h 23.02987 c 14.748285,0 23.906141,0.39926 25.466651,1.11027 3.614523,1.64689 4.657325,4.99132 4.657325,14.93678 v 8.95295 h 19.5 19.499999 v -19.5 -19.5 h -8.549659 c -13.6516,0 -16.45034,-2.56 -16.45034,-15.04705 0,-6.3025 -0.18842,-6.95295 -2.0141,-6.95295 -1.10775,0 -3.3117,1.45227 -4.89766,3.22727 -2.3336,2.61175 -3.6419,3.22728 -6.859594,3.22728 -4.615588,0 -6.997901,-1.66138 -8.89697,-6.20455 -1.144688,-2.73846 -1.144688,-3.76154 0,-6.5 1.899069,-4.54317 4.281382,-6.20455 8.89697,-6.20455 3.217694,0 4.525994,0.61553 6.859594,3.22728 1.58596,1.775 3.78991,3.22727 4.89766,3.22727 1.82551,0 2.0141,-0.65046 2.0141,-6.94682 v -6.94683 l -22.537868,-0.30317 c -18.715193,-0.25176 -22.69846,-0.5576 -23.484688,-1.80318 -0.524389,-0.83077 -0.95365,-11.873143 -0.962131,-24.750003 l -0.01531,-23.25 H 24.851458 c -9.804319,0 -10.155999,-0.07908 -13,-2.923077 L 8.928381,56.796033 V 33.142187 9.488341 l 2.923077,-2.923077 2.923077,-2.923077 h 23.653846 23.653846 l 2.923077,2.923077 c 2.888948,2.888948 2.922898,3.055327 2.907764,14.25 -0.01626,12.030479 -0.598975,14.239334 -3.604514,13.663461 C 62.626556,34.156448 62.398261,32.966554 62.142616,23.1897 61.985445,17.178873 61.367844,11.671708 60.770171,10.951555 59.275001,9.149986 17.921894,9.048674 16.128381,10.842187 c -1.698766,1.698766 -1.698766,42.901234 0,44.6 1.769183,1.769183 43.144542,1.694705 44.617677,-0.08031 0.584411,-0.704173 1.202011,-3.737458 1.372445,-6.740634 0.250267,-4.409928 0.671564,-5.529142 2.190051,-5.818079 1.034095,-0.196768 2.264704,0.249018 2.734687,0.990634 1.229695,1.940415 1.080818,11.32482 -0.225132,14.191068 -1.662854,3.649565 -5.00308,4.657321 -15.436781,4.657321 h -9.452947 v 21.5 21.500003 h 20 20 V 95.189237 c 0,-16.326596 1.96944,-18.54705 16.45034,-18.54705 h 8.549659 v -6.464816 c 0,-5.528873 -0.30181,-6.626338 -2.08466,-7.580492 -2.70996,-1.450327 -5.120959,-7.287236 -4.32313,-10.466061 0.86101,-3.43054 5.95909,-7.488631 9.40779,-7.488631 3.64929,0 8.66653,4.205241 9.48991,7.954043 0.74627,3.397761 -1.5182,8.455548 -4.50026,10.051496 -1.67122,0.894407 -1.98965,2.099495 -1.98965,7.529645 v 6.464816 h 8.94682 8.94683 l 0.30317,-22.537868 c 0.25176,-18.715193 0.5576,-22.69846 1.80318,-23.484688 0.825,-0.52075 10.3875,-0.953709 21.25,-0.962131 l 19.75,-0.01531 V 19.565264 c 0,-9.804319 0.0791,-10.155999 2.92308,-13 l 2.92307,-2.923077 h 23.65385 23.65385 l 2.92307,2.923077 2.92308,2.923077 v 23.653846 23.653846 l -2.92308,2.923077 -2.92307,2.923077 h -23.02987 c -14.74829,0 -23.90615,-0.399256 -25.46666,-1.110272 -3.64956,-1.662854 -4.65732,-5.00308 -4.65732,-15.436781 v -9.452947 h -18 -18 v 20 20 h 7.04966 c 11.85561,0 14.95034,3.01125 14.95034,14.54705 v 6.45295 h 8.03138 c 6.30242,0 8.15836,-0.33088 8.62119,-1.53699 0.78218,-2.03833 5.59758,-4.46301 8.86351,-4.46301 6.30232,0 10.5322,6.29365 8.45664,12.582653 -1.44063,4.36517 -4.41273,6.41735 -9.29402,6.41735 -3.01755,0 -4.49711,-0.6646 -6.6787,-3 -2.63826,-2.82427 -3.24754,-3 -10.40121,-3 h -7.59879 v 5.5 5.5 h 22.3 c 16.01111,0 22.63842,0.33842 23.5,1.2 0.87009,0.87009 1.2,8.15556 1.2,26.5 v 25.3 h 10.07692 c 9.80432,0 10.156,0.0791 13,2.92308 l 2.92308,2.92307 v 23.65385 23.65385 l -2.92308,2.92307 -2.92307,2.92308 h -23.65385 -23.65385 l -2.95422,-2.95422 -2.95422,-2.95423 0.28114,-12.29577 0.28115,-12.29578 h 2.5 c 2.49692,0 2.50035,0.0135 2.78577,10.94063 0.15717,6.01735 0.77477,11.52985 1.37244,12.25 1.49517,1.80157 42.84828,1.90288 44.64179,0.10937 1.69877,-1.69877 1.69877,-42.90123 0,-44.6 -1.76918,-1.76918 -43.14454,-1.69471 -44.61768,0.0803 -0.58441,0.70418 -1.20201,3.73746 -1.37244,6.74064 -0.25027,4.40993 -0.67157,5.52914 -2.19005,5.81808 -1.0341,0.19676 -2.26471,-0.24902 -2.73469,-0.99064 -1.2297,-1.94041 -1.08082,-11.32482 0.22513,-14.19107 1.66286,-3.64955 5.00308,-4.65731 15.43678,-4.65731 h 9.45295 v -23.52114 -23.52114 l -19.75,0.27114 -19.75,0.27114 -0.52739,13 c -0.29006,7.15 -0.90709,13.80414 -1.37118,14.78699 -1.46462,3.10176 -6.09759,4.71301 -13.55177,4.71301 h -7.04966 v 7.09879 c 0,6.59812 0.21159,7.29644 3,9.90121 5.24127,4.89608 3.72933,13.21262 -2.90136,15.95914 -5.99651,2.48384 -13.09864,-2.37385 -13.09864,-8.95914 0,-2.82424 2.56324,-7.61842 4.46301,-8.34743 1.19439,-0.45833 1.53699,-2.26856 1.53699,-8.12119 v -7.53138 h -9 -9 v 21.8 c 0,15.62222 -0.34006,22.14006 -1.2,23 -0.85822,0.85822 -7.26667,1.2 -22.499999,1.2 h -21.3 v 10.57692 c 0,10.35695 -0.06079,10.63772 -2.923077,13.5 l -2.923077,2.92308 H 38.428381 14.774535 Z m 48.876923,-4.27692 c 1.698766,-1.69877 1.698766,-42.90123 0,-44.6 -1.698766,-1.69877 -42.901234,-1.69877 -44.6,0 -1.698766,1.69877 -1.698766,42.90123 0,44.6 1.698766,1.69877 42.901234,1.69877 44.6,0 z m -36.8,-7.8 c -1.786667,-1.78667 -2,-3.33333 -2,-14.5 0,-11.16667 0.213333,-12.71333 2,-14.5 1.786667,-1.78667 3.333333,-2 14.5,-2 16.79088,0 16.5,-0.29088 16.5,16.5 0,11.16667 -0.213333,12.71333 -2,14.5 -1.786667,1.78667 -3.333333,2 -14.5,2 -11.166667,0 -12.713333,-0.21333 -14.5,-2 z m 24,-14 v -10 h -10 -10 v 6.375 c 0,3.50625 0.276261,7.75631 0.613914,9.44457 0.694901,3.47451 1.675531,3.7873 12.636086,4.0306 l 6.75,0.14983 z m 89.499999,-20 c 0,-1.95377 -0.57294,-2.56644 -2.62225,-2.8041 -2.81428,-0.32636 -4.26332,1.63573 -3.21862,4.3582 0.37777,0.98445 1.55753,1.44263 3.21862,1.25 2.04931,-0.23766 2.62225,-0.85033 2.62225,-2.8041 z m 14.92857,-31.57143 c 1.3584,-1.35839 1.57143,-5.61905 1.57143,-31.42857 0,-25.809523 -0.21303,-30.070183 -1.57143,-31.428573 -1.35839,-1.3584 -5.61905,-1.57143 -31.42857,-1.57143 -25.809519,0 -30.070179,0.21303 -31.428569,1.57143 -1.3584,1.35839 -1.57143,5.61905 -1.57143,31.428573 0,25.80952 0.21303,30.07018 1.57143,31.42857 1.35839,1.3584 5.61905,1.57143 31.428569,1.57143 25.80952,0 30.07018,-0.21303 31.42857,-1.57143 z m -55.871869,-7.65108 c -1.29324,-1.84636 -1.5567,-5.90813 -1.5567,-24 0,-27.286753 -0.88947,-25.784153 15.249999,-25.762183 11.95445,0.0163 14.16127,0.6017 13.58757,3.60452 -0.31844,1.66674 -1.60669,1.93693 -11.34839,2.38017 l -10.98918,0.5 v 19.500003 19.5 h 19.5 19.5 v -19.5 -19.500003 l -3.99032,-0.5 c -4.20095,-0.52639 -6.08066,-3.38948 -3.35807,-5.11486 2.2154,-1.40396 9.24215,-0.99807 11.62588,0.67156 2.18442,1.53003 2.22251,1.94136 2.22251,24.000003 0,21.10997 -0.11882,22.56212 -2,24.4433 -1.88118,1.88118 -3.33333,2 -24.4433,2 -22.058639,0 -22.469969,-0.0381 -23.999999,-2.22251 z m -26.0567,-9.77749 c 0,-1.83273 -0.601738,-2.58545 -2.254471,-2.82014 -2.457106,-0.34891 -3.852657,1.79561 -2.856989,4.39028 0.361403,0.9418 1.50471,1.44202 2.856989,1.25 1.652733,-0.23469 2.254471,-0.98741 2.254471,-2.82014 z M 187.73248,101.51994 c 0.32391,-2.793133 -1.63161,-4.264913 -4.3041,-3.239383 -1.53387,0.5886 -2.0678,4.460493 -0.79115,5.737153 1.62973,1.62973 4.79662,0.0773 5.09525,-2.49777 z M 112.72664,55.054682 c 0.41789,-2.924858 -2.29276,-5.076913 -4.29826,-3.412495 -1.57486,1.307019 -1.99628,4.170385 -0.79115,5.375516 1.41135,1.411354 4.79368,0.106765 5.08941,-1.963021 z m 113.00174,0.387505 c 1.69877,-1.698766 1.69877,-42.901234 0,-44.6 -1.69877,-1.698766 -42.90123,-1.698766 -44.6,0 -1.69877,1.698766 -1.69877,42.901234 0,44.6 1.69877,1.698766 42.90123,1.698766 44.6,0 z m -36.8,-7.8 c -1.78667,-1.786667 -2,-3.333333 -2,-14.5 0,-11.166667 0.21333,-12.713333 2,-14.5 1.78667,-1.786667 3.33333,-2 14.5,-2 11.16667,0 12.71333,0.213333 14.5,2 1.78667,1.786667 2,3.333333 2,14.5 0,11.166667 -0.21333,12.713333 -2,14.5 -1.78667,1.786667 -3.33333,2 -14.5,2 -11.16667,0 -12.71333,-0.213333 -14.5,-2 z m 24.76177,-14.043604 c -0.28361,-4.973982 -0.80801,-9.335966 -1.16534,-9.693297 -0.35733,-0.357331 -4.68771,-0.842753 -9.62306,-1.078715 l -8.97337,-0.429023 v 10.12232 10.122319 h 10.13871 10.1387 z M 188.92838,212.64219 c -1.78667,-1.78667 -2,-3.33333 -2,-14.5 0,-11.16667 0.21333,-12.71333 2,-14.5 1.78667,-1.78667 3.33333,-2 14.5,-2 11.16667,0 12.71333,0.21333 14.5,2 1.78667,1.78667 2,3.33333 2,14.5 0,11.16667 -0.21333,12.71333 -2,14.5 -1.78667,1.78667 -3.33333,2 -14.5,2 -11.16667,0 -12.71333,-0.21333 -14.5,-2 z m 23.8,-5.2 c 0.75152,-0.75152 1.2,-4.48889 1.2,-10 v -8.8 h -10 -10 v 10 10 h 8.8 c 5.51111,0 9.24848,-0.44848 10,-1.2 z M 23.928381,47.642187 c -1.786667,-1.786667 -2,-3.333333 -2,-14.5 0,-11.166667 0.213333,-12.713333 2,-14.5 1.786667,-1.786667 3.333333,-2 14.5,-2 16.79088,0 16.5,-0.29088 16.5,16.5 0,11.166667 -0.213333,12.713333 -2,14.5 -1.786667,1.786667 -3.333333,2 -14.5,2 -11.166667,0 -12.713333,-0.213333 -14.5,-2 z m 24,-15 v -10 h -8.8 c -5.511111,0 -9.248485,0.448485 -10,1.2 -0.751515,0.751515 -1.2,4.488889 -1.2,10 v 8.8 h 10 10 z"
         id="path3836"
         inkscape:connector-curvature="0" />
      <path
         style="fill:#494949;fill-opacity:1"
         d="m 11.851458,224.71911 -2.923077,-2.92307 v -23.65385 -23.65385 l 2.923077,-2.92307 2.923077,-2.92308 h 23.653846 23.653846 l 2.923077,2.92308 c 2.823808,2.8238 2.923077,3.24831 2.923077,12.5 v 9.57692 h 19.5 19.499999 v -19.40347 -19.40347 l -9.478869,-0.34653 c -8.7971,-0.32161 -9.67771,-0.54548 -12.24332,-3.11257 -2.47202,-2.47346 -2.80279,-3.61057 -3.12701,-10.75 -0.33861,-7.45631 -0.50837,-7.98396 -2.56863,-7.98396 -1.26957,0 -3.10709,1.21871 -4.3286,2.8709 -4.13849,5.59761 -13.037965,4.2827 -15.802979,-2.33491 -1.303241,-3.1191 -1.303241,-3.95288 0,-7.07198 2.765014,-6.61761 11.664489,-7.93252 15.802979,-2.33491 1.29241,1.74808 3.04389,2.8709 4.4783,2.8709 2.28473,0 2.34689,-0.21857 2.06194,-7.25 l -0.29381,-7.25 -22.453142,-0.26967 c -16.4317,-0.19736 -22.662735,-0.59962 -23.234687,-1.5 -0.42985,-0.67668 -0.788436,-11.692833 -0.796858,-24.480333 l -0.01531,-23.25 H 24.851458 c -9.804319,0 -10.155999,-0.07908 -13,-2.923077 L 8.928381,56.796033 V 33.142187 9.488341 l 2.923077,-2.923077 2.923077,-2.923077 h 23.653846 23.653846 l 2.923077,2.923077 c 2.890515,2.890515 2.923077,3.050676 2.923077,14.377555 0,11.913206 -0.938689,14.704345 -4.487265,13.342628 -1.221476,-0.468724 -1.512735,-2.665942 -1.512735,-11.411875 0,-7.091077 -0.414386,-11.245771 -1.2,-12.031385 -1.698766,-1.698766 -42.901234,-1.698766 -44.6,0 -1.698766,1.698766 -1.698766,42.901234 0,44.6 1.698766,1.698766 42.901234,1.698766 44.6,0 0.66,-0.66 1.2,-3.599123 1.2,-6.531385 0,-3.836465 0.424171,-5.494154 1.512735,-5.911875 2.908374,-1.116048 4.487265,1.596775 4.487265,7.709941 0,4.708718 -0.460692,6.358228 -2.409591,8.627555 -2.302335,2.680874 -2.892118,2.82802 -13.25,3.305764 l -10.840409,0.5 v 21 21.000003 l 20.163445,0.27043 20.163445,0.27043 0.33655,-11.500353 c 0.32271,-11.02705 0.45061,-11.61434 3.10769,-14.27043 2.57262,-2.571653 3.45012,-2.794903 12.25,-3.11661 l 9.478869,-0.346529 V 70.06871 c 0,-5.649801 -0.2777,-6.562376 -2.42518,-7.969454 -1.33384,-0.87397 -2.89883,-2.947766 -3.47774,-4.608435 -2.000859,-5.739675 3.00565,-12.848634 9.0487,-12.848634 3.49527,0 8.47005,4.209989 9.14462,7.738782 0.66986,3.504161 -1.4963,8.765864 -4.20574,10.21591 -1.78476,0.955173 -2.08466,2.051111 -2.08466,7.618018 v 6.502342 l 9.25,-0.287526 9.25,-0.287526 0.26967,-22.453142 c 0.19736,-16.4317 0.59962,-22.662735 1.5,-23.234687 0.67668,-0.42985 10.11783,-0.788436 20.98033,-0.796858 l 19.75,-0.01531 V 19.565264 c 0,-9.804319 0.0791,-10.155999 2.92308,-13 l 2.92307,-2.923077 h 23.65385 23.65385 l 2.92307,2.923077 2.92308,2.923077 v 23.653846 23.653846 l -2.92308,2.923077 -2.92307,2.923077 h -23.52116 c -23.41096,0 -23.53431,-0.01129 -26.32693,-2.409591 -2.68087,-2.302335 -2.82802,-2.892118 -3.30576,-13.25 l -0.5,-10.840409 h -17.5 -17.5 l -0.27037,20.14319 -0.27036,20.14319 8.00432,0.363496 c 7.12277,0.323462 8.30328,0.662451 10.71877,3.077944 2.35006,2.35005 2.7885,3.75869 3.26604,10.49331 l 0.5516,7.77887 7.10904,0.29096 c 6.96462,0.28506 7.18096,0.21904 10.65,-3.25 7.5745,-7.5745 18.41435,-1.34546 15.59062,8.959043 -2.04322,7.45623 -12.03024,8.86005 -16.65636,2.3413 -1.08167,-1.52419 -2.67469,-1.8413 -9.25,-1.8413 h -7.9433 v 5.5 5.5 h 22.46482 c 21.18685,0 22.5237,0.11004 23.5,1.93426 0.63299,1.18276 1.03518,11.47856 1.03518,26.5 v 24.56574 h 10.07692 c 9.80432,0 10.156,0.0791 13,2.92308 l 2.92308,2.92307 v 23.65385 23.65385 l -2.92308,2.92307 -2.92307,2.92308 h -23.65385 -23.65385 l -2.92307,-2.92308 c -2.89052,-2.89051 -2.92308,-3.05067 -2.92308,-14.37755 0,-11.91321 0.93869,-14.70435 4.48727,-13.34263 1.22147,0.46872 1.51273,2.66594 1.51273,11.41188 0,7.09107 0.41439,11.24577 1.2,12.03138 1.69877,1.69877 42.90123,1.69877 44.6,0 1.69877,-1.69877 1.69877,-42.90123 0,-44.6 -1.69877,-1.69877 -42.90123,-1.69877 -44.6,0 -0.66,0.66 -1.2,3.59912 -1.2,6.53138 0,3.83647 -0.42417,5.49416 -1.51273,5.91188 -2.90838,1.11605 -4.48727,-1.59677 -4.48727,-7.70994 0,-4.70872 0.46069,-6.35823 2.40959,-8.62756 2.30234,-2.68087 2.89212,-2.82802 13.25,-3.30576 l 10.84041,-0.5 v -23 -23 l -20.17214,-0.27046 -20.17214,-0.27045 -0.32786,13.50058 c -0.32103,13.21923 -0.38551,13.55817 -3.0939,16.26377 -2.47299,2.47043 -3.61193,2.8016 -10.75,3.12576 l -7.98396,0.36257 v 6.97104 c 0,6.41226 0.24047,7.21151 3,9.97104 7.38179,7.38178 0.53572,18.38951 -9.73742,15.65669 -7.29941,-1.94176 -8.29097,-12.94102 -1.56395,-17.34873 2.18486,-1.43158 2.36505,-2.14206 2.09587,-8.26402 l -0.2945,-6.69779 -9.25,-0.28753 -9.25,-0.28752 v 22.00234 c 0,20.72962 -0.11189,22.06222 -1.93426,23.03753 -1.15347,0.61732 -10.23586,1.03518 -22.499999,1.03518 h -20.56574 v 10.57692 c 0,10.35695 -0.06079,10.63772 -2.923077,13.5 l -2.923077,2.92308 H 38.428381 14.774535 Z m 48.876923,-4.27692 c 1.698766,-1.69877 1.698766,-42.90123 0,-44.6 -1.698766,-1.69877 -42.901234,-1.69877 -44.6,0 -1.698766,1.69877 -1.698766,42.90123 0,44.6 1.698766,1.69877 42.901234,1.69877 44.6,0 z m -36.8,-7.8 c -1.783354,-1.78335 -2,-3.33333 -2,-14.30887 0,-16.85576 -0.671944,-16.19113 16.369389,-16.19113 9.768706,0 13.892049,0.36144 14.830611,1.3 0.938562,0.93856 1.3,5.0619 1.3,14.83061 0,17.04133 0.664627,16.36939 -16.19113,16.36939 -10.975537,0 -12.525516,-0.21665 -14.30887,-2 z m 24.5,-14.5 v -10 h -10 -10 l -0.291425,8.92086 c -0.160283,4.90647 -0.05562,9.53536 0.232592,10.28642 0.404189,1.0533 2.757537,1.30007 10.291425,1.07914 l 9.767408,-0.28642 z m 89.499999,-19.5 c 0,-2.51538 -2.99486,-4.14201 -5.27582,-2.86552 -3.88638,2.17493 -0.43003,7.84883 3.5,5.74554 0.9767,-0.52271 1.77582,-1.81872 1.77582,-2.88002 z m 14.42857,-31.57143 c 1.3584,-1.35839 1.57143,-5.61905 1.57143,-31.42857 0,-25.809523 -0.21303,-30.070183 -1.57143,-31.428573 -1.35839,-1.3584 -5.61905,-1.57143 -31.42857,-1.57143 -25.809519,0 -30.070179,0.21303 -31.428569,1.57143 -1.3584,1.35839 -1.57143,5.61905 -1.57143,31.428573 0,25.80952 0.21303,30.07018 1.57143,31.42857 1.35839,1.3584 5.61905,1.57143 31.428569,1.57143 25.80952,0 30.07018,-0.21303 31.42857,-1.57143 z m -55.428569,-7.42857 c -1.87879,-1.87879 -2,-3.33333 -2,-24 0,-27.560273 -0.92281,-26.000003 15.377559,-26.000003 11.80324,0 14.62457,0.94612 13.27886,4.45298 -0.44223,1.15242 -2.94776,1.54114 -11.36188,1.76274 l -10.79454,0.28428 v 19.500003 19.5 h 19.5 19.5 v -19.5 -19.500003 l -3.80583,-0.31369 c -7.33514,-0.6046 -5.59532,-6.18631 1.92827,-6.18631 3.04423,0 4.98673,0.60917 6.37756,2 1.87879,1.87879 2,3.33333 2,24.000003 0,20.66667 -0.12121,22.12121 -2,24 -1.87879,1.87879 -3.33333,2 -24,2 -20.66667,0 -22.121209,-0.12121 -23.999999,-2 z M 70.726638,129.2297 c -0.211025,-1.47697 -1.025434,-2.08751 -2.784562,-2.08751 -3.086311,0 -4.01396,3.29542 -1.45448,5.16696 2.273994,1.66278 4.668105,-0.0764 4.239042,-3.07945 z M 187.7939,102.91801 c 1.27341,-2.27547 -0.34795,-5.275823 -2.85101,-5.275823 -2.52676,0 -4.13601,2.904453 -2.89453,5.224183 1.21198,2.26462 4.4906,2.29409 5.74554,0.0516 z M 112.73248,54.519934 c 0.34767,-2.998075 -2.2218,-4.6059 -4.43085,-2.772555 -1.46782,1.21818 -1.83152,4.103209 -0.6644,5.270324 1.62973,1.629734 4.79662,0.07728 5.09525,-2.497769 z m 112.9959,0.922253 c 1.69877,-1.698766 1.69877,-42.901234 0,-44.6 -1.69877,-1.698766 -42.90123,-1.698766 -44.6,0 -1.69877,1.698766 -1.69877,42.901234 0,44.6 1.69877,1.698766 42.90123,1.698766 44.6,0 z m -35.49481,-6.770211 c -2.89392,-1.218992 -3.57661,-5.233816 -3.14891,-18.518351 0.44263,-13.748105 0.15301,-13.511438 16.53485,-13.511438 16.54574,0 16.30887,-0.236874 16.30887,16.30887 0,16.655951 0.4859,16.129971 -15.1673,16.41828 -6.78299,0.124932 -13.32037,-0.18888 -14.52751,-0.697361 z m 23.19481,-15.529789 v -10 h -10 -10 l -0.29142,8.920857 c -0.16029,4.906471 -0.0556,9.535361 0.23259,10.286422 0.40419,1.0533 2.75753,1.300069 10.29142,1.079143 l 9.76741,-0.286422 z M 189.36951,213.2228 c -1.75593,-1.28397 -1.94113,-2.71032 -1.94113,-14.95 0,-9.76871 0.36144,-13.89205 1.3,-14.83061 0.93856,-0.93856 5.0619,-1.3 14.83061,-1.3 17.04133,0 16.36939,-0.66463 16.36939,16.19113 0,16.54574 0.23687,16.30887 -16.30887,16.30887 -9.05214,0 -12.82246,-0.37555 -14.25,-1.41939 z m 24.05887,-15.08061 v -10 h -10 -10 l -0.29142,8.92086 c -0.16029,4.90647 -0.0556,9.53536 0.23259,10.28642 0.40419,1.0533 2.75753,1.30007 10.29142,1.07914 l 9.76741,-0.28642 z M 25.928381,48.988304 c -3.42294,-1.314829 -4,-3.628442 -4,-16.037247 0,-16.545744 -0.236874,-16.30887 16.30887,-16.30887 16.855757,0 16.19113,-0.671944 16.19113,16.369389 0,9.752096 -0.362243,13.893645 -1.297167,14.830611 -1.347074,1.350016 -24.168825,2.311548 -27.202833,1.146117 z m 22.5,-15.846117 v -10 h -10 -10 l -0.291425,8.920857 c -0.160283,4.906471 -0.05562,9.535361 0.232592,10.286422 0.404189,1.0533 2.757537,1.300069 10.291425,1.079143 l 9.767408,-0.286422 z"
         id="path3834"
         inkscape:connector-curvature="0" />
      <path
         style="fill:#333333;fill-opacity:1"
         d="m 13.948089,226.38531 c -4.733727,-2.44777 -5.065211,-4.49018 -4.78254,-29.46727 0.2565,-22.66466 0.317705,-23.27897 2.54061,-25.5 2.245511,-2.24361 2.624052,-2.27585 26.722222,-2.27585 30.187266,0 28.589418,-0.79874 29.437678,14.71546 l 0.562322,10.28454 h 19 18.999999 l 0.27074,-19.62981 0.27074,-19.62982 -9.545309,-0.41748 c -8.69884,-0.38045 -9.77914,-0.65132 -12.1823,-3.05448 -2.30471,-2.3047 -2.69585,-3.6534 -3.10392,-10.70271 -0.41684,-7.20053 -0.67827,-8.0657 -2.43723,-8.0657 -1.08366,0 -3.23139,1.35 -4.77272,3 -3.71794,3.98007 -9.863375,4.22753 -13.545455,0.54545 -3.410987,-3.41098 -3.410987,-9.67992 0,-13.0909 3.68208,-3.68208 9.827515,-3.43462 13.545455,0.54545 1.54133,1.65 3.74688,3 4.90121,3 1.94516,0 2.09879,-0.54899 2.09879,-7.5 v -7.5 H 59.396996 c -17.925043,0 -22.636653,-0.27433 -23.046295,-1.34184 -0.283201,-0.738 -0.606578,-11.650503 -0.718615,-24.250003 L 35.428381,63.142187 24.655256,62.591284 C 8.556809,61.768061 9.428381,63.453699 9.428381,33.142187 c 0,-24.104788 0.03165,-24.476094 2.277778,-26.722222 2.246128,-2.246128 2.617434,-2.277778 26.722222,-2.277778 30.527255,0 28.824742,-0.915755 29.321055,15.771321 0.357996,12.03658 -0.643502,15.501515 -4.097436,14.176116 -1.490608,-0.572 -1.723619,-2.187141 -1.723619,-11.947437 0,-9.368886 -0.268695,-11.389131 -1.581787,-11.893011 -3.149405,-1.20854 -42.950434,-0.674768 -44.218213,0.593011 -1.388051,1.388051 -1.722812,42.428036 -0.363551,44.569609 0.62069,0.977924 5.958719,1.207668 23.234687,1 l 22.428864,-0.269609 0.295392,-6.16043 c 0.22352,-4.661509 0.703729,-6.317123 1.973619,-6.804426 2.948211,-1.131334 4.461958,2.305347 3.900321,8.854954 -0.776088,9.050447 -2.191992,9.993345 -15.700842,10.455723 l -11.006875,0.376741 0.269193,21.638718 0.269192,21.638723 h 20 20 l 0.5308,-11.758073 c 0.50095,-11.09699 0.6823,-11.90957 3.22543,-14.45271 2.47073,-2.470726 3.48608,-2.72925 12.2192,-3.111207 l 9.524569,-0.416572 v -6.88072 c 0,-3.784397 -0.43247,-6.880721 -0.96104,-6.880721 -0.52858,0 -1.87858,-0.984853 -3,-2.188561 -2.87894,-3.090179 -2.71331,-8.915936 0.35491,-12.482948 3.41171,-3.966351 9.80055,-3.966351 13.21226,0 3.5821,4.164435 3.31794,10.041112 -0.60613,13.484423 -2.73515,2.400055 -3,3.186632 -3,8.90977 v 6.277316 h 9.5 9.5 V 54.110802 c 0,-17.139728 0.29912,-22.629516 1.25,-22.941471 0.6875,-0.225547 10.025,-0.573773 20.75,-0.773835 l 19.5,-0.36375 0.5509,-10.717905 c 0.82417,-16.034356 -0.85038,-15.171654 29.4491,-15.171654 24.10479,0 24.47609,0.03165 26.72222,2.277778 2.24613,2.246128 2.27778,2.617434 2.27778,26.722222 0,24.104788 -0.0317,24.476094 -2.27778,26.722222 -2.24613,2.246128 -2.61743,2.277778 -26.72222,2.277778 -30.45813,0 -28.78388,0.886278 -29.34592,-15.534446 l -0.37684,-11.00981 -18.13862,0.272128 -18.13862,0.272128 v 20 20 l 8.34743,0.620157 c 7.17091,0.532749 8.70883,0.981558 10.91157,3.184293 2.22034,2.22034 2.62674,3.6456 3.03105,10.62985 l 0.46692,8.0657 h 7.43608 c 6.97228,0 7.58779,-0.1803 9.86856,-2.89085 2.96029,-3.5181 6.56549,-4.55234 10.89174,-3.12455 3.63484,1.19961 5.56307,4.45565 5.51485,9.312453 -0.0356,3.58306 -1.41209,5.81378 -4.65246,7.53961 -3.94014,2.09853 -7.30389,1.37519 -11.0567,-2.37762 -3.46904,-3.46904 -3.68538,-3.53506 -10.65,-3.25 l -7.10904,0.29096 -0.2999,5.75 -0.29991,5.75 21.79991,0.0153 c 11.98994,0.008 22.36844,0.37621 23.06332,0.81731 0.95323,0.6051 1.3215,7.04609 1.5,26.23469 l 0.23658,25.4327 10.77313,0.5509 c 16.09844,0.82323 15.22687,-0.86241 15.22687,29.4491 0,24.10479 -0.0317,24.47609 -2.27778,26.72222 -2.24613,2.24613 -2.61743,2.27778 -26.72222,2.27778 -30.52726,0 -28.82474,0.91575 -29.32105,-15.77132 -0.358,-12.03658 0.6435,-15.50152 4.09743,-14.17612 1.49061,0.572 1.72362,2.18714 1.72362,11.94744 0,9.36889 0.2687,11.38913 1.58179,11.89301 3.1494,1.20854 42.95043,0.67477 44.21821,-0.59301 1.38805,-1.38805 1.72281,-42.42804 0.36355,-44.56961 -0.62069,-0.97792 -5.95872,-1.20767 -23.23469,-1 l -22.42886,0.26961 -0.29539,6.16043 c -0.22352,4.66151 -0.70373,6.31712 -1.97362,6.80443 -2.94821,1.13133 -4.46196,-2.30535 -3.90032,-8.85496 0.77607,-9.0503 2.19211,-9.99335 15.69981,-10.45569 l 11.00583,-0.3767 -0.26815,-23.13876 -0.26816,-23.13875 -20.15139,-0.27039 -20.1514,-0.27039 -0.3486,13.49878 c -0.33721,13.05754 -0.43532,13.58545 -3.00118,16.15023 -2.30492,2.30396 -3.74659,2.73273 -11,3.27161 l -8.34743,0.62016 -0.29109,6.54809 c -0.27513,6.18912 -0.12558,6.69556 2.72796,9.23807 7.30391,6.50782 3.97528,16.71384 -5.45112,16.71384 -5.57176,0 -8.9403,-3.45083 -8.9403,-9.15871 0,-3.2965 0.59782,-4.58011 3.22728,-6.92953 3.05555,-2.73013 3.22727,-3.25679 3.22727,-9.89766 v -7.0141 h -9.48087 -9.48087 l -0.26913,22.25 -0.26913,22.25 -21.999999,0.5 -22,0.5 -0.540363,11.26259 c -0.794603,16.56161 0.77543,15.67192 -28.235489,16.00024 -17.371784,0.1966 -23.849169,-0.0604 -25.70444,-1.01971 z m 46.749901,-5.57957 c 0.977924,-0.62069 1.207668,-5.95872 1,-23.23469 l -0.269609,-22.42886 -22.428864,-0.26961 c -17.275968,-0.20767 -22.613997,0.0221 -23.234687,1 -1.359261,2.14157 -1.0245,43.18156 0.363551,44.56961 1.388051,1.38805 42.428036,1.72281 44.569609,0.36355 z m -35.076396,-6.86381 c -0.993732,-0.25754 -2.231232,-1.58464 -2.75,-2.9491 -1.439007,-3.78488 -1.193387,-24.62625 0.314529,-26.68844 1.106753,-1.51358 2.997496,-1.68658 15.75,-1.44113 l 14.492258,0.27893 0.278934,14.49226 c 0.245449,12.7525 0.07245,14.64325 -1.441129,15.75 -1.677333,1.22649 -22.390947,1.65988 -26.644592,0.55748 z m 22.806787,-15.79974 v -10 h -10 -10 l -0.291425,8.92086 c -0.160283,4.90647 -0.05562,9.53536 0.232592,10.28642 0.404189,1.0533 2.757537,1.30007 10.291425,1.07914 l 9.767408,-0.28642 z m 88.299999,-16.7 c 1.66988,-1.66988 1.49734,-4.30834 -0.38382,-5.86957 -3.11745,-2.58725 -7.02399,2.42735 -4.37631,5.61761 1.46542,1.76572 3.15684,1.85525 4.76013,0.25196 z m 16,-34 c 1.71532,-1.71532 1.71532,-61.884683 0,-63.600003 -1.71532,-1.71532 -61.884679,-1.71532 -63.599999,0 -1.71532,1.71532 -1.71532,61.884683 0,63.600003 1.71532,1.71532 61.884679,1.71532 63.599999,0 z m -54.494809,-6.78298 c -3.10591,-1.29022 -3.47557,-4.57693 -3.11765,-27.71931 0.23005,-14.874173 0.65461,-20.544553 1.60978,-21.500003 1.90092,-1.90148 23.083679,-2.3887 25.507109,-0.58669 1.12111,0.83364 1.55873,1.982 1.15562,3.03249 -0.543,1.41504 -2.38639,1.73687 -11.30442,1.97362 l -10.65563,0.28287 v 19.500003 19.5 h 19.5 19.5 v -19.5 -19.500003 l -3.66421,-0.30525 c -4.3054,-0.35867 -5.91221,-2.91548 -3.14022,-4.99686 2.08815,-1.5679 9.82565,-1.07667 11.64139,0.73907 1.75135,1.75135 1.62629,46.499053 -0.13488,48.263043 -1.56193,1.56443 -43.34532,2.29236 -46.896889,0.81702 z M 69.346594,133.0352 c 2.116177,-0.81205 2.081977,-5.98709 -0.04496,-6.80327 -3.36389,-1.29085 -5.836094,3.54742 -3.173252,6.21026 1.402337,1.40234 1.204259,1.36584 3.218212,0.59301 z M 187.99795,103.05837 c 0.95288,-1.14815 1.02584,-2.04215 0.26526,-3.250003 -1.49134,-2.36833 -4.48106,-2.68669 -5.97999,-0.63678 -2.77564,3.795923 2.69958,7.519813 5.71473,3.886783 z m -75.1435,-47.278043 c 1.44479,-2.699612 -0.8784,-5.605434 -3.75227,-4.693303 -2.10393,0.667763 -3.04623,4.349399 -1.50713,5.888496 1.30967,1.309676 4.2801,0.63465 5.2594,-1.195193 z M 226.32139,55.0604 c 1.20854,-3.149405 0.67477,-42.950434 -0.59301,-44.218213 -1.26778,-1.267779 -41.06881,-1.801551 -44.21821,-0.593011 -1.37673,0.528302 -1.58179,3.488305 -1.58179,22.833333 0,12.22449 0.3,22.526345 0.66667,22.893011 0.36666,0.366667 10.66852,0.666667 22.89301,0.666667 19.34503,0 22.30503,-0.205055 22.83333,-1.581787 z m -37.72634,-7.08488 c -0.36667,-0.366666 -0.66667,-7.100834 -0.66667,-14.964816 0,-13.46534 0.12135,-14.363092 2.08334,-15.413117 2.95867,-1.583437 26.39589,-0.881836 28.11949,0.841767 1.72361,1.723603 2.42521,25.160818 0.84177,28.119498 -1.05003,1.961989 -1.94778,2.083335 -15.41312,2.083335 -7.86398,0 -14.59815,-0.3 -14.96481,-0.666667 z m 24.83333,-14.833333 v -10 h -10 -10 l -0.29142,8.920857 c -0.16029,4.906471 -0.0556,9.535361 0.23259,10.286422 0.40419,1.0533 2.75753,1.300069 10.29142,1.079143 l 9.76741,-0.286422 z m -23.8378,180.242263 c -1.51358,-1.10675 -1.68658,-2.9975 -1.44113,-15.75 l 0.27893,-14.49226 14.49226,-0.27893 c 12.7525,-0.24545 14.64325,-0.0725 15.75,1.44113 0.84904,1.16113 1.25774,5.71981 1.25774,14.02893 0,16.54574 0.23687,16.30887 -16.30887,16.30887 -8.30912,0 -12.8678,-0.4087 -14.02893,-1.25774 z m 23.8378,-15.24226 v -10 h -10 -10 l -0.29142,8.92086 c -0.16029,4.90647 -0.0556,9.53536 0.23259,10.28642 0.40419,1.0533 2.75753,1.30007 10.29142,1.07914 l 9.76741,-0.28642 z M 22.977721,46.734379 c -0.577137,-1.07839 -1.04934,-7.390293 -1.04934,-14.026451 0,-16.266418 -0.203714,-16.065741 16.30887,-16.065741 8.309116,0 12.867804,0.408702 14.028935,1.257742 1.513575,1.106753 1.686578,2.997496 1.441129,15.75 l -0.278934,14.492258 -14.70066,0.27645 c -13.732071,0.258236 -14.769799,0.147265 -15.75,-1.684258 z m 25.45066,-13.592192 v -10 h -10 -10 l -0.291425,8.920857 c -0.160283,4.906471 -0.05562,9.535361 0.232592,10.286422 0.404189,1.0533 2.757537,1.300069 10.291425,1.079143 l 9.767408,-0.286422 z"
         id="path3832"
         inkscape:connector-curvature="0" />
    </g>
  </g>
</svg>
