<?xml version="1.0" ?><svg style="enable-background:new 0 0 512 512;" version="1.1" viewBox="0 0 512 512" xml:space="preserve" xmlns="http://www.w3.org/2000/svg" xmlns:xlink="http://www.w3.org/1999/xlink"><style type="text/css">
	.st0{fill:#1E1E1E;}
	.st1{fill:#464646;stroke:#21759B;stroke-width:2;stroke-miterlimit:10;}
	.st2{fill:#FFFFFF;}
</style><g id="Edges"/><g id="Background_Bottom"><g><path class="st0" d="M492.3,443.1c0,34.2-27.7,61.9-61.9,61.9H80.7c-34.2,0-61.9-27.7-61.9-61.9V93.4c0-34.2,27.7-61.9,61.9-61.9    h349.7c34.2,0,61.9,27.7,61.9,61.9V443.1z"/></g></g><g id="Background"><path class="st1" d="M492.3,418.4c0,34.2-27.7,61.9-61.9,61.9H80.7c-34.2,0-61.9-27.7-61.9-61.9V68.6c0-34.2,27.7-61.9,61.9-61.9   h349.7c34.2,0,61.9,27.7,61.9,61.9V418.4z"/></g><g id="Symbol"><g><path class="st2" d="M188.5,142.1l-124,222h261l124-222H188.5z M231.3,344.6c-7.7,14.3-20.8,19.8-36.7,19.4    c-8-0.2-15.9-1.4-23-5.9c-3.6-2.3-6.4-5.4-9.4-8.8c0,2.3,0,14.7,0,14.7h-20.6l0.1-136.3H163c0,16.3-0.1,32.6-0.1,48.9    c0.4-0.2,0.8-0.3,1.2-0.5c16-22,54.8-18.1,67.7,6.7C242.4,303.4,242.3,324.3,231.3,344.6z M340.4,331.5    c-5.2,19.4-17.9,30.2-37.9,32.2c-8.6,0.9-17,0.1-25.2-3c-12.5-4.8-20.9-13.7-25.3-26.3c-4.8-13.9-4.6-27.9,0-41.7    c6.4-19.3,22.4-30.4,43.6-30.8c10.1-0.2,19.8,1.4,28.6,6.6c8.4,4.9,13.8,12.2,16.4,21.6c0.2,0.9,0.9,5.7,0.9,7.2c0,0,0,0,0,0h-19    c-1.1-2.9-2.6-5.7-4.6-8.3c-11.5-15.3-35.6-13.7-44.7,3c-3.6,6.6-4.7,13.7-4.7,23.5c0,5.5,1.3,13.3,5.7,20.4    c5.3,8.5,13.2,12.8,23.7,12.6c10.8-0.2,18.5-5.2,23.1-14.4c1.5-3,2.6-6.1,3.3-9.2h17.3C341.5,326.1,340.7,330.5,340.4,331.5z"/><path class="st2" d="M214.6,288.8c-10.7-15.3-33.4-13.7-41.9,3c-3.4,6.6-4.4,13.7-4.4,23.5c0,5.5,1.2,13.3,5.3,20.4    c4.9,8.5,12.4,12.8,22.2,12.6c10.1-0.2,17.4-5.2,21.6-14.4c4.3-9.2,4.9-18.9,3.5-28.7C220,299.2,218,293.7,214.6,288.8z"/></g></g></svg>