<?xml version="1.0" encoding="UTF-8"?><svg xmlns="http://www.w3.org/2000/svg" xmlns:xlink="http://www.w3.org/1999/xlink" width="72px" height="72px" viewBox="0 0 72 72" version="1.1"><title>bbc</title><g id="providers-list" stroke="none" stroke-width="1" fill="none" fill-rule="evenodd"><g id="bbc"><rect id="Rectangle-9" fill="#000" x="0" y="0" width="72" height="72" rx="4"/><path d="M6 27h18.147v18H6V27zm20.927 18V27h18.147v18H26.927zm20.926 0V27H66v18H47.853zm-9.778-9.41s1.583-.71 1.57-2.593c0 0 .24-3.085-3.645-3.462H31.69v12.937h4.941s4.129.014 4.129-3.651c0 0 .096-2.492-2.684-3.23zm-4.198-4.041h1.762c1.83.101 1.762 1.535 1.762 1.535 0 1.782-2.023 1.811-2.023 1.811h-1.5V31.55zm4.625 7.083c0 1.956-2.312 1.84-2.312 1.84h-2.313v-3.534h2.313c2.38-.015 2.312 1.694 2.312 1.694zM17.155 35.59s1.583-.71 1.57-2.593c0 0 .24-3.085-3.644-3.462h-4.312v12.937h4.941s4.13.014 4.13-3.651c0 0 .095-2.492-2.685-3.23zm-4.197-4.041h1.761c1.83.101 1.762 1.535 1.762 1.535 0 1.782-2.023 1.811-2.023 1.811h-1.5V31.55zm4.624 7.083c0 1.956-2.312 1.84-2.312 1.84h-2.312v-3.534h2.312c2.38-.015 2.312 1.694 2.312 1.694zm44.716-8.17c-2.01-.883-3.4-1.028-3.4-1.028-2.325-.232-3.62.29-3.62.29C50.435 31.287 50.587 36 50.587 36c.137 4.581 3.77 5.979 3.77 5.979 4.322 1.796 8.052-.536 8.052-.536v-2.477c-2.78 1.869-4.83 1.608-4.83 1.608C52.69 40.328 52.855 36 52.855 36c.207-4.704 4.776-4.61 4.776-4.61 2.45.028 4.666 1.463 4.666 1.463v-2.39z" id="Carrés" fill="#FFF"/></g></g><metadata><rdf:RDF xmlns:rdf="http://www.w3.org/1999/02/22-rdf-syntax-ns#" xmlns:rdfs="http://www.w3.org/2000/01/rdf-schema#" xmlns:dc="http://purl.org/dc/elements/1.1/"><rdf:Description about="https://iconscout.com/legal#licenses" dc:title="bbc" dc:description="bbc" dc:publisher="Iconscout" dc:date="2017-09-26" dc:format="image/svg+xml" dc:language="en"><dc:creator><rdf:Bag><rdf:li>Luc Chaffard</rdf:li></rdf:Bag></dc:creator></rdf:Description></rdf:RDF></metadata></svg>