<?xml version="1.0" encoding="UTF-8" standalone="no"?>
<!-- Created with Inkscape (http://www.inkscape.org/) -->

<svg
   xmlns:dc="http://purl.org/dc/elements/1.1/"
   xmlns:cc="http://creativecommons.org/ns#"
   xmlns:rdf="http://www.w3.org/1999/02/22-rdf-syntax-ns#"
   xmlns:svg="http://www.w3.org/2000/svg"
   xmlns="http://www.w3.org/2000/svg"
   xmlns:sodipodi="http://sodipodi.sourceforge.net/DTD/sodipodi-0.dtd"
   xmlns:inkscape="http://www.inkscape.org/namespaces/inkscape"
   version="1.1"
   id="svg3713"
   width="256"
   height="256"
   viewBox="0 0 256 256"
   sodipodi:docname="charts.svg"
   inkscape:version="0.92.4 (5da689c313, 2019-01-14)">
  <metadata
     id="metadata3719">
    <rdf:RDF>
      <cc:Work
         rdf:about="">
        <dc:format>image/svg+xml</dc:format>
        <dc:type
           rdf:resource="http://purl.org/dc/dcmitype/StillImage" />
        <dc:title></dc:title>
      </cc:Work>
    </rdf:RDF>
  </metadata>
  <defs
     id="defs3717" />
  <sodipodi:namedview
     pagecolor="#ffffff"
     bordercolor="#666666"
     borderopacity="1"
     objecttolerance="10"
     gridtolerance="10"
     guidetolerance="10"
     inkscape:pageopacity="0"
     inkscape:pageshadow="2"
     inkscape:window-width="640"
     inkscape:window-height="480"
     id="namedview3715"
     showgrid="false"
     inkscape:zoom="0.66981795"
     inkscape:cx="39.499033"
     inkscape:cy="84.587864"
     inkscape:window-x="353"
     inkscape:window-y="388"
     inkscape:window-maximized="0"
     inkscape:current-layer="g3801" />
  <g
     id="g3801"
     transform="translate(5.9717719,10.450601)">
    <path
       style="fill:#d0d0d0;fill-opacity:1;stroke-width:1.02710938"
       d="M 5.9129424,233.41974 C 4.4118035,231.76101 4.2130886,227.9875 4.2130886,201.14035 v -30.40109 l 2.7062886,-2.12876 c 2.5077834,-1.97263 4.0480068,-2.12876 20.9984668,-2.12876 17.855861,0 18.360918,0.0592 21.174005,2.47884 l 2.881826,2.47883 v 29.76728 c 0,27.83101 -0.127273,29.9079 -1.956632,31.92931 -1.862957,2.05855 -2.924825,2.16206 -22.180439,2.16206 -18.2880764,0 -20.3865106,-0.17978 -21.9236616,-1.87832 z M 37.080589,201.917 V 181.88837 H 27.32305 17.56551 v 19.34389 c 0,10.63915 0.308133,19.65204 0.684741,20.02863 0.376606,0.37661 4.767498,0.68474 9.75754,0.68474 h 9.072798 z m 29.786171,31.32684 c -1.998239,-1.99824 -2.054219,-3.42369 -2.054219,-52.30803 V 130.682 l 2.706289,-2.12877 c 2.515297,-1.97852 4.040799,-2.12876 21.615981,-2.12876 18.707479,0 18.936659,0.027 21.430779,2.52109 l 2.52109,2.52108 v 48.90191 c 0,48.73387 -0.20745,51.95038 -3.49186,54.14346 -0.62157,0.41503 -10.027466,0.76168 -20.901982,0.77032 -18.413945,0.0147 -19.91294,-0.12535 -21.826078,-2.03849 z M 98.707148,181.37482 V 140.804 H 88.94961 79.192073 v 40.57082 40.57081 h 9.757537 9.757538 z m 29.212152,52.4658 c -1.92619,-1.40806 -2.0033,-3.39263 -2.27578,-58.56667 l -0.28203,-57.10922 2.54634,-2.54634 c 2.52597,-2.52597 2.69762,-2.54634 21.45603,-2.54634 17.57518,0 19.10069,0.15023 21.61599,2.12876 l 2.70629,2.12877 v 56.93003 c 0,55.56054 -0.0495,56.97943 -2.05422,58.98423 -1.91237,1.91236 -3.42369,2.05422 -21.88654,2.05422 -15.50397,0 -20.26746,-0.31808 -21.82608,-1.45744 z m 31.3873,-59.14201 v -47.24703 h -9.75754 -9.75753 v 47.24703 47.24702 h 9.75753 9.75754 z m 29.17504,58.43739 c -1.89041,-2.08887 -1.95663,-4.99478 -1.95663,-85.85255 V 63.59294 l 2.88182,-2.478843 c 2.81308,-2.419715 3.31815,-2.478842 21.17401,-2.478842 16.95046,0 18.49068,0.156143 20.99846,2.128766 l 2.70629,2.128766 v 84.502773 c 0,80.56052 -0.0877,84.58209 -1.87832,86.20264 -1.61273,1.4595 -4.71262,1.69986 -21.92366,1.69986 -19.07418,0 -20.14014,-0.10476 -22.00197,-2.16206 z m 32.20155,-85.39901 0.26358,-73.695096 h -9.76434 -9.76434 v 73.990416 73.99041 l 9.50076,-0.29531 9.50076,-0.29533 z M 19.106175,152.4526 C 7.6236804,146.40986 3.8267879,132.50724 10.879536,122.33013 c 5.50305,-7.94092 13.724377,-10.6422 23.627437,-7.76331 l 5.718963,1.66255 12.164268,-8.51165 12.164271,-8.511641 0.433142,-6.398314 C 66.206705,74.799673 85.637236,66.408258 98.960585,78.135942 l 4.378925,3.854485 13.09046,-2.626864 c 9.66043,-1.938555 13.09046,-3.023552 13.09046,-4.140801 0,-3.266493 5.32374,-10.446635 9.52806,-12.850544 5.90717,-3.377536 10.92967,-4.109819 16.06148,-2.341769 l 4.21416,1.451897 15.65466,-13.952727 15.65465,-13.952726 -0.34146,-5.789086 c -0.5648,-9.575207 3.56704,-16.895197 11.63966,-20.6209576 7.38596,-3.4088435 17.01778,-2.1519988 22.35638,2.9172586 5.05904,4.803795 7.19698,10.10028 6.71279,16.630074 -0.58743,7.922184 -4.46642,13.578772 -11.75789,17.146161 -5.51376,2.697634 -9.72849,2.926738 -16.40012,0.891479 -1.75655,-0.535852 -5.18254,2.023398 -17.97442,13.427064 -8.69234,7.749005 -15.65568,14.587273 -15.47409,15.19615 0.76664,2.570749 0.24025,11.685751 -0.83929,14.532839 -5.02275,13.246615 -25.87315,16.411245 -34.64593,5.25847 l -1.9682,-2.502171 -12.60648,2.91393 c -6.93355,1.602658 -12.7335,3.062381 -12.88878,3.243835 -0.15527,0.181455 -1.21173,2.459942 -2.34767,5.063311 -2.21036,5.06573 -6.828376,9.15371 -12.477047,11.04495 -4.701548,1.57414 -7.133425,1.47612 -13.372939,-0.53903 -5.096509,-1.64597 -5.389689,-1.63366 -8.078042,0.33983 -3.33403,2.44744 -12.548174,8.9208 -18.031372,12.66785 -3.701974,2.52981 -3.95482,3.03707 -4.12712,8.2797 -0.252384,7.67933 -3.16238,13.0717 -9.249467,17.13977 -4.194067,2.80293 -5.923079,3.33151 -10.784648,3.29698 -3.21077,-0.0228 -7.162361,-0.76345 -8.87113,-1.6627 z m 13.014769,-14.37556 c 4.14884,-3.75465 0.936226,-10.62546 -4.96819,-10.62546 -2.40289,0 -5.478806,3.45985 -5.478806,6.16265 0,5.18051 6.558227,7.9821 10.446996,4.46281 z M 89.639067,98.019774 c 2.304397,-2.085441 2.443597,-6.832115 0.264288,-9.011424 -2.395702,-2.395706 -7.213615,-2.042133 -9.11238,0.668724 -2.15197,3.072372 -2.012426,5.520589 0.455316,7.988339 2.497725,2.497717 5.867189,2.639987 8.392776,0.354361 z M 154.42783,83.08284 c 2.21224,-2.558478 2.2496,-3.829895 0.19854,-6.758185 -1.09341,-1.561056 -2.65208,-2.282761 -4.93011,-2.282761 -4.21398,0 -5.79629,1.582313 -5.79629,5.796287 0,6.130097 6.34265,8.084886 10.52786,3.244659 z m 61.11301,-54.020226 c 0.70614,-0.898294 1.28389,-2.490329 1.28389,-3.537856 0,-1.951755 -4.29803,-6.946768 -5.97746,-6.946768 -2.06147,0 -6.34688,4.394957 -6.33213,6.493982 0.0416,5.92105 7.41141,8.588465 11.0257,3.990642 z"
       id="path3817"
       inkscape:connector-curvature="0"
       sodipodi:nodetypes="csccsccscscccccscsccsscssccsccsccccccccccscssccscscccccccccccsccsscscsccccccccccccccccsscssssccccsssssccsccsscccccscccsssscsccccsssccsscc" />
    <path
       style="fill:#b9b9b9;fill-opacity:1;stroke-width:1.02710938"
       d="m 6.2673073,233.24384 c -1.9594092,-1.95941 -2.0542187,-3.42369 -2.0542187,-31.7266 0,-26.73435 0.1779748,-29.8908 1.7974423,-31.87822 1.7138782,-2.10328 2.7126248,-2.21509 21.4832371,-2.40508 18.009627,-0.18227 19.868032,-0.0343 21.826074,1.73769 2.077716,1.8803 2.140278,2.83126 2.140278,32.53277 0,30.45254 -0.01067,30.60333 -2.282756,32.19476 -1.869319,1.30932 -5.775815,1.5989 -21.569297,1.5989 -17.9170614,0 -19.4324041,-0.14586 -21.3407597,-2.05422 z M 37.080589,201.40345 v -20.54219 l -5.905879,0.0109 c -3.248233,0.006 -7.639126,0.29779 -9.757539,0.64794 l -3.851661,0.63665 v 19.89424 19.89425 h 9.75754 9.757539 z m 29.96521,31.51742 c -2.229209,-2.37289 -2.233258,-2.46699 -2.233258,-51.91572 v -49.53851 l 2.583186,-2.58317 2.583184,-2.5832 19.465449,0.31887 c 17.05047,0.27933 19.69271,0.54635 21.29712,2.15231 1.69866,1.70031 1.85233,5.43504 2.1166,51.43791 0.28177,49.05196 0.26093,49.63503 -1.87199,52.3466 l -2.15694,2.7421 H 89.054098 c -19.342595,0 -19.823877,-0.052 -22.008299,-2.37719 z M 98.707148,181.37482 V 140.804 H 88.94961 79.192073 v 40.57082 40.57081 h 9.757537 9.757538 z m 28.833612,51.21695 c -2.09437,-2.66256 -2.12876,-3.60917 -2.12876,-58.59192 v -55.88563 l 2.52109,-2.52108 c 2.4959,-2.49591 2.71186,-2.52109 21.61597,-2.52109 18.90412,0 19.12009,0.0252 21.61598,2.52109 l 2.5211,2.52108 v 56.49769 56.49769 l -2.2479,2.09423 c -2.1007,1.9571 -3.54177,2.09423 -22.0083,2.09423 h -19.76041 z m 31.76584,-57.89316 v -47.24703 h -9.75754 -9.75753 v 47.24703 47.24702 h 9.75753 9.75754 z m 30.01472,59.00055 -2.28276,-1.59891 v -84.5191 c 0,-79.258635 0.11216,-84.620539 1.80128,-86.14922 1.48524,-1.34412 5.28521,-1.687425 21.65753,-1.95663 19.80892,-0.325713 19.86094,-0.320709 21.82224,2.098292 1.9006,2.344149 1.96598,5.204703 1.96598,86.020398 0,82.22616 -0.0337,83.62929 -2.05422,85.64985 -1.90835,1.90836 -3.42369,2.05422 -21.34075,2.05422 -15.79348,0 -19.69998,-0.28958 -21.5693,-1.5989 z m 31.61184,-85.64478 c 0,-47.66545 -0.36096,-74.114346 -1.01703,-74.51982 -0.55937,-0.345713 -4.95027,-0.309429 -9.75754,0.08063 l -8.7405,0.709202 v 73.810628 73.81061 h 9.75754 9.75753 z m -202.326802,3.85765 c -2.660586,-1.37271 -5.916378,-4.25994 -7.703321,-6.83129 -2.6868203,-3.86625 -3.095065,-5.3565 -3.095065,-11.29821 0,-5.96303 0.3968296,-7.39926 3.081328,-11.15205 5.760374,-8.05275 14.215827,-10.93184 23.515009,-8.00689 l 5.615126,1.76618 12.690257,-8.74603 12.690257,-8.746022 -0.403649,-4.23267 c -0.296556,-3.109678 0.333635,-5.739641 2.375237,-9.912525 3.635683,-7.431058 8.783784,-10.94774 16.884287,-11.533677 6.624192,-0.479149 10.795524,1.102627 16.056356,6.088586 l 3.14571,2.981329 7.12539,-1.518982 c 3.91897,-0.83544 9.78305,-2.030461 13.03127,-2.65559 4.48111,-0.862403 5.90588,-1.566107 5.90588,-2.91692 0,-3.659836 5.83586,-11.085022 10.4789,-13.33267 4.93365,-2.388343 13.89122,-2.974325 17.33044,-1.133712 1.72589,0.923672 4.15561,-0.851606 17.92319,-13.095644 l 15.92661,-14.164167 -0.62216,-4.849311 c -1.63699,-12.758878 7.6514,-23.4386574 20.32845,-23.3736388 18.96716,0.097274 27.18556,22.9954408 12.78981,35.6350828 -5.16367,4.533757 -10.98298,5.978193 -17.8729,4.436302 l -5.38399,-1.204889 -15.75772,13.986065 -15.75771,13.986063 0.45482,5.484456 c 0.78815,9.503986 -2.72585,16.356906 -10.39311,20.268448 -8.21503,4.190996 -19.98635,1.966294 -24.96729,-4.718654 l -1.90956,-2.562854 -12.76223,2.839267 c -7.64753,1.701375 -13.08212,3.434287 -13.56041,4.323967 -0.43901,0.816581 -1.59569,3.28028 -2.5704,5.47488 -2.12482,4.78406 -8.989551,9.50083 -15.178088,10.42884 -2.987258,0.44798 -5.796783,0.0553 -9.400488,-1.31407 l -5.139865,-1.95298 -12.774369,8.95915 -12.774369,8.95917 0.303501,4.20346 c 0.449426,6.22456 -3.562825,14.2528 -9.006887,18.02217 -6.057918,4.19441 -14.149125,4.74774 -20.618247,1.41003 z m 13.514586,-13.83499 c 2.338742,-2.11654 2.423412,-6.2665 0.178464,-8.74715 -3.526964,-3.89725 -10.62546,-1.15425 -10.62546,4.10588 0,5.49402 6.375111,8.32628 10.446996,4.64127 z M 89.639067,98.019774 c 2.572189,-2.327797 2.506063,-8.163003 -0.108393,-9.562213 -6.877091,-3.68051 -13.116749,2.730208 -8.739712,8.979306 1.911255,2.728693 6.167217,3.009073 8.848092,0.582907 z M 153.84809,84.133958 c 4.42646,-4.158453 1.87921,-10.092064 -4.33244,-10.092064 -5.54549,0 -7.99709,5.191032 -4.53202,9.59615 2.60498,3.311696 5.68384,3.483936 8.86446,0.495914 z m 60.92242,-54.257766 c 3.3865,-3.386494 2.48206,-8.741655 -1.74799,-10.34992 -2.54894,-0.9691 -6.19106,0.228265 -7.73705,2.543585 -1.56198,2.339294 -0.77767,6.668615 1.4967,8.26165 3.07238,2.151974 5.52059,2.012433 7.98834,-0.455315 z"
       id="path3815"
       inkscape:connector-curvature="0"
       sodipodi:nodetypes="cscccsssccccscccccccscccscsscscccccccccccsccsccccsscccccccccccccscscscscscscccccscsscccccsssccsssccsccsscccccsccscccccccsccccscccccccsscsccss" />
    <path
       style="fill:#a3a3a3;fill-opacity:1;stroke-width:1.02710938"
       d="m 6.2673073,233.24384 c -1.9590406,-1.95903 -2.0542187,-3.42369 -2.0542187,-31.61185 0,-25.08963 0.2416948,-29.90271 1.5989057,-31.84039 1.5611186,-2.22881 2.0816151,-2.28275 22.0246097,-2.28275 19.942996,0 20.463491,0.054 22.024611,2.28275 1.357211,1.93768 1.598905,6.75076 1.598905,31.84039 0,28.18816 -0.09518,29.65282 -2.054219,31.61185 -1.910063,1.91006 -3.423697,2.05422 -21.569297,2.05422 -18.1455984,0 -19.6592328,-0.14416 -21.5692967,-2.05422 z M 37.594144,201.40345 V 181.37482 L 27.579828,181.08085 17.56551,180.78688 v 20.61657 20.61657 l 10.014318,-0.29397 10.014316,-0.29397 z m 29.347165,31.18832 c -2.086117,-2.65207 -2.128768,-3.68898 -2.128768,-51.75523 0,-46.74318 0.09221,-49.16293 1.961313,-51.47373 1.907702,-2.35851 2.458908,-2.43366 20.165756,-2.74938 19.95198,-0.35574 23.18006,0.26325 25.06157,4.8056 0.80097,1.9337 1.05887,17.30394 0.85844,51.16034 -0.27189,45.92865 -0.38625,48.5064 -2.24312,50.55745 -1.85997,2.05447 -2.93456,2.16124 -21.751531,2.16124 H 69.070074 Z M 98.707148,181.37482 V 140.804 H 88.94961 79.192073 v 40.57082 40.57081 h 9.757537 9.757538 z M 127.88219,233.136 c -1.87451,-2.0713 -1.95663,-4.54873 -1.95663,-59.02209 0,-53.21619 0.11748,-56.9776 1.83411,-58.69418 1.6357,-1.63569 4.00691,-1.83413 21.91683,-1.83413 19.86652,0 20.10383,0.0261 22.04617,2.42478 1.8793,2.32084 1.96347,4.81365 1.96347,58.14995 0,54.82039 -0.0346,55.7691 -2.12876,58.43144 l -2.12878,2.70629 h -19.79488 c -18.81958,0 -19.89131,-0.10657 -21.75153,-2.16206 z m 31.42441,-58.43739 v -47.24703 h -9.75754 -9.75753 v 47.24703 47.24702 h 9.75753 9.75754 z m 29.78617,58.54523 c -2.02051,-2.02052 -2.05421,-3.42369 -2.05421,-85.53509 0,-73.894364 0.1836,-83.743013 1.5989,-85.76363 1.56112,-2.228809 2.08163,-2.282756 22.02461,-2.282756 19.943,0 20.46349,0.05394 22.02462,2.282756 1.4153,2.020617 1.5989,11.869266 1.5989,85.76363 0,82.1114 -0.0337,83.51457 -2.05422,85.53509 -1.91006,1.91006 -3.42369,2.05422 -21.5693,2.05422 -18.1456,0 -19.65922,-0.14416 -21.5693,-2.05422 z m 31.84039,-85.80082 V 72.940398 l -10.01431,0.293971 -10.01432,0.293971 -0.21568,72.92476 c -0.11858,40.10863 -0.0176,73.50251 0.22455,74.20865 0.31082,0.90652 3.31769,1.28388 10.23,1.28388 h 9.78976 z M 21.444677,153.19704 C 14.775819,151.04532 8.6602504,143.56197 7.670699,136.3424 5.5347675,120.75909 22.93788,108.52716 37.081183,115.67099 c 2.402841,1.21369 3.389319,0.71972 15.306594,-7.66453 l 12.738225,-8.961794 0.180095,-5.568408 c 0.200187,-6.189567 1.977528,-10.313705 6.344064,-14.720732 7.749367,-7.821237 19.185868,-7.703956 28.290613,0.290106 l 3.651996,3.206502 12.59153,-2.564455 c 6.92533,-1.410448 12.72233,-2.564457 12.88222,-2.564457 0.15988,0 0.60666,-1.438549 0.99282,-3.196765 0.88616,-4.034629 7.16189,-11.065751 11.49664,-12.880445 3.89729,-1.631553 11.36917,-1.806498 15.18547,-0.355549 2.53069,0.962173 3.74936,0.09944 19.00444,-13.453719 15.1972,-13.50174 16.23516,-14.653268 15.33717,-17.015159 -1.53689,-4.042349 -1.1203,-7.668129 1.53675,-13.374922 6.56761,-14.1058511 25.88542,-15.6309043 34.83215,-2.749842 3.46547,4.989415 4.54466,11.807014 2.73632,17.286337 -1.61266,4.886397 -6.75938,10.738693 -11.00352,12.512005 -3.75399,1.568519 -12.32811,1.836134 -15.90237,0.496341 -2.09673,-0.785949 -4.24649,0.773852 -18.1834,13.193377 l -15.80553,14.084706 -0.11469,7.681877 c -0.0971,6.502517 -0.53791,8.321245 -2.87144,11.846368 -6.97168,10.531688 -22.95963,11.663698 -31.75485,2.248382 l -2.6969,-2.88705 -12.93685,2.782792 -12.93685,2.782791 -1.60037,4.187833 c -3.60599,9.43612 -14.135397,15.17392 -23.332583,12.71464 -2.433561,-0.65072 -4.980787,-1.63877 -5.660494,-2.1957 -1.180364,-0.96712 -6.982466,2.61206 -22.560024,13.9167 -4.598895,3.33741 -4.771311,3.65288 -4.93162,9.02323 -0.326405,10.93447 -7.781439,19.10986 -18.151763,19.90572 -3.026837,0.23229 -6.762011,0.0162 -8.300385,-0.48013 z m 10.940555,-15.03417 c 2.103608,-2.10361 2.061274,-6.46046 -0.08583,-8.83298 -3.624511,-4.00503 -10.625459,-1.12561 -10.625459,4.37017 0,3.66334 2.447576,6.07683 6.162657,6.07683 1.614029,0 3.660912,-0.72631 4.548627,-1.61402 z M 90.758044,96.499393 c 1.795182,-2.415566 1.86057,-3.023147 0.607956,-5.649096 -1.06215,-2.226704 -2.237155,-3.022456 -4.830598,-3.271443 -6.234185,-0.598524 -9.316005,4.75887 -5.704001,9.915738 2.229844,3.183538 7.190737,2.686188 9.926643,-0.995199 z M 154.23328,84.250765 c 2.77664,-2.776636 2.2472,-6.866615 -1.22269,-9.445351 -3.22046,-2.393373 -6.376,-1.729679 -8.70961,1.831863 -4.15815,6.346148 4.53557,13.010214 9.9323,7.613488 z m 60.30869,-53.919258 c 2.9051,-2.034804 3.01992,-6.907925 0.22854,-9.699298 -2.46775,-2.467746 -4.91596,-2.607289 -7.98834,-0.455314 -4.64109,3.250747 -1.83428,11.753516 3.8799,11.753516 0.87843,0 2.62439,-0.719507 3.8799,-1.598904 z"
       id="path3813"
       inkscape:connector-curvature="0"
       sodipodi:nodetypes="cscssscscccccccccccscscscsccccccccccccscscsscscccccccccccscscssscccccccscccssccssccsscscssssccssccscccccsccssccccssccscscscssccsssc" />
    <path
       style="fill:#8c8c8c;fill-opacity:1;stroke-width:1.02710938"
       d="m 6.2673073,233.24384 c -1.9597717,-1.95977 -2.0542187,-3.42369 -2.0542187,-31.84039 0,-28.41669 0.094449,-29.88061 2.0542187,-31.84038 1.9100639,-1.91008 3.4236983,-2.05422 21.5692967,-2.05422 18.1456,0 19.659234,0.14414 21.569297,2.05422 1.959773,1.95977 2.054219,3.42369 2.054219,31.84038 0,28.4167 -0.09444,29.88062 -2.054219,31.84039 -1.910063,1.91006 -3.423697,2.05422 -21.569297,2.05422 -18.1455984,0 -19.6592328,-0.14416 -21.5692967,-2.05422 z M 37.872634,201.66023 37.594144,181.37482 27.579828,181.08085 17.56551,180.78688 v 20.57938 20.57937 h 10.292808 10.292806 z m 29.878246,31.67498 -2.424783,-1.96284 -0.304714,-47.59518 c -0.167593,-26.17735 -0.02452,-49.13241 0.317945,-51.01126 0.974579,-5.34679 4.648691,-6.34146 23.424026,-6.34146 18.850086,0 21.810696,0.76131 23.340606,6.00203 0.72832,2.49483 0.99108,19.73252 0.78276,51.35069 l -0.31359,47.59518 -2.42478,1.96284 c -2.18947,1.77236 -4.24674,1.96285 -21.19874,1.96285 -16.952001,0 -19.009263,-0.19049 -21.19873,-1.96285 z M 98.707148,181.37482 V 140.804 H 88.94961 79.192073 v 40.57082 40.57081 h 9.757537 9.757538 z m 29.643182,51.96027 -2.42477,-1.96296 -0.3118,-54.27128 c -0.20706,-36.03891 0.0532,-55.52398 0.77478,-58.00015 1.64719,-5.65284 4.06395,-6.21639 25.04358,-5.83968 15.71191,0.28211 18.31717,0.56451 19.90898,2.15815 1.70569,1.70763 1.85086,5.71237 2.11372,58.30968 l 0.28224,56.47612 -2.54656,2.54654 c -2.52645,2.52647 -2.69581,2.54655 -21.48096,2.54655 -17.11044,0 -19.168,-0.18909 -21.35921,-1.96297 z m 30.95627,-58.63648 v -47.24703 h -9.75754 -9.75753 v 47.24703 47.24702 h 9.75753 9.75754 z m 29.78617,58.54523 c -2.02061,-2.02061 -2.05421,-3.42369 -2.05421,-85.76363 0,-82.33993 0.0336,-83.743016 2.05421,-85.763627 1.91008,-1.910063 3.4237,-2.054219 21.5693,-2.054219 18.14561,0 19.65924,0.144156 21.5693,2.054219 2.02061,2.020611 2.05422,3.423697 2.05422,85.763627 0,82.33994 -0.0336,83.74302 -2.05422,85.76363 -1.91006,1.91006 -3.42369,2.05422 -21.5693,2.05422 -18.1456,0 -19.65922,-0.14416 -21.5693,-2.05422 z m 31.84039,-85.80082 V 72.940398 l -10.01431,0.293971 -10.01432,0.293971 -0.26353,74.20865 -0.26353,74.20864 h 10.27785 10.27784 z M 22.53943,153.15531 C 11.82839,149.91951 5.4969889,138.96822 8.3060528,128.53615 c 1.4664934,-5.44614 7.2676152,-11.90508 12.1355332,-13.51163 4.954107,-1.63501 11.272172,-1.47872 15.743271,0.38942 l 3.605154,1.50633 12.735497,-8.8571 12.735499,-8.857091 0.172261,-5.730512 c 0.09474,-3.151787 0.876974,-7.080484 1.738289,-8.730428 3.517238,-6.737699 11.541431,-11.730354 18.853011,-11.730354 4.713507,0 11.982587,3.408093 14.736562,6.90919 l 2.06196,2.621367 11.55123,-2.256928 c 15.29247,-2.987912 14.91124,-2.8389 15.62948,-6.109019 0.8919,-4.06079 6.20273,-10.109888 11.04475,-12.58011 3.99452,-2.037851 7.22132,-2.177088 16.87382,-0.728107 1.62475,0.243899 6.43239,-3.419432 18.13977,-13.822139 l 15.92913,-14.153988 -1.00254,-3.630881 c -1.25134,-4.531986 -0.37918,-8.88844 2.93142,-14.64259 3.34582,-5.8153584 11.54024,-9.9021622 18.32205,-9.1377545 10.90214,1.2288287 18.47607,9.5534645 18.41629,20.2416265 -0.0599,10.698771 -7.36196,18.593207 -17.90339,19.355707 -3.35077,0.242372 -7.4521,-0.03334 -9.11404,-0.6127 -2.83691,-0.988951 -3.45272,-0.662186 -10.06889,5.342795 -3.87594,3.517896 -10.92406,9.836406 -15.66249,14.041137 l -8.61531,7.644963 -0.11506,7.768182 c -0.0949,6.407597 -0.54863,8.40065 -2.59025,11.379215 -7.18152,10.477189 -21.23053,12.274739 -30.33614,3.881485 l -4.38138,-4.038606 -12.91166,2.729189 -12.91168,2.729165 -1.62898,4.265416 c -4.29329,11.24183 -17.752873,16.45558 -28.135809,10.89881 -2.490619,-1.33295 -3.362084,-0.84 -22.162834,12.53625 l -6.070034,4.31868 -0.172671,5.64909 c -0.203667,6.6632 -2.162828,10.84411 -7.121797,15.19815 -5.282244,4.63788 -11.96584,6.23127 -18.216585,4.34293 z m 9.473135,-14.44167 c 2.501144,-1.33856 2.666684,-6.75404 0.286843,-9.38375 -2.085444,-2.30438 -6.832118,-2.44359 -9.011431,-0.26428 -2.075829,2.07583 -2.075829,7.02142 0,9.09726 1.851191,1.85118 5.825899,2.10211 8.724588,0.55077 z m 57.8235,-40.540758 c 3.736027,-3.736028 2.77377,-8.99645 -1.976007,-10.802314 -4.739765,-1.802057 -8.667985,1.119329 -8.667985,6.446315 0,4.98236 7.108511,7.891487 10.643992,4.355999 z M 154.17106,84.312988 c 2.07048,-2.070478 2.66293,-5.717455 1.26816,-7.806339 -0.91103,-1.364392 -4.79989,-3.491864 -6.38287,-3.491864 -1.92616,0 -6.18349,4.918005 -6.18349,7.143084 0,2.887625 3.57146,6.20934 6.6762,6.20934 1.41228,0 3.49219,-0.924405 4.622,-2.054221 z m 61.02606,-54.340719 c 2.6944,-2.977281 1.80017,-8.380394 -1.71049,-10.335128 -2.53632,-1.412223 -3.11278,-1.4122 -5.64911,2.28e-4 -3.89681,2.170052 -4.53202,8.258981 -1.11152,10.654784 3.12407,2.188192 6.31023,2.067877 8.47112,-0.319884 z"
       id="path3811"
       inkscape:connector-curvature="0" />
    <path
       style="fill:#767676;fill-opacity:1;stroke-width:1.02710938"
       d="m 6.4463479,232.92087 c -2.1857897,-2.32667 -2.2332593,-3.00346 -2.2332593,-31.84039 0,-28.09372 0.09548,-29.55868 2.0542187,-31.51741 1.9100639,-1.91008 3.4236983,-2.05422 21.5692967,-2.05422 18.1456,0 19.659234,0.14414 21.569297,2.05422 1.959202,1.95919 2.054219,3.42369 2.054219,31.66135 v 29.60713 l -2.377194,2.23326 c -2.263979,2.12689 -3.282716,2.23325 -21.390257,2.23325 -18.5461093,0 -19.0679105,-0.0584 -21.2463211,-2.37719 z M 38.107698,201.40345 V 180.86126 H 27.836604 17.56551 v 20.54219 20.54218 h 10.271094 10.271094 z m 29.804152,32.06149 -2.263813,-1.83313 0.0431,-48.75201 c 0.0237,-26.8136 0.06682,-49.52784 0.09581,-50.47608 0.02899,-0.94826 0.779018,-2.4504 1.666735,-3.33811 1.355644,-1.35564 4.783153,-1.61403 21.410099,-1.61403 17.873709,0 19.961159,0.1824 21.495929,1.87831 1.53318,1.69413 1.69986,6.82516 1.69986,52.32435 v 50.44601 l -2.28276,1.59891 c -1.86271,1.30469 -5.71626,1.5989 -20.941946,1.5989 -16.378675,0 -18.93588,-0.22405 -20.92301,-1.83312 z M 98.707148,181.37482 V 140.804 H 88.94961 79.192073 v 40.57082 40.57081 h 9.757537 9.757538 z m 30.014722,52.32434 -2.28276,-1.59891 0.0158,-57.2031 c 0.008,-31.46171 0.36471,-57.75194 0.79123,-58.42274 1.63573,-2.57247 7.05476,-3.40236 22.2166,-3.40236 16.15782,0 21.50805,0.92561 22.67809,3.92343 0.37043,0.94912 0.66,27.14663 0.64346,58.21668 l -0.0301,56.49101 -2.21557,1.79745 c -1.92854,1.56458 -4.63285,1.79744 -20.87476,1.79744 -15.22569,0 -19.07924,-0.29421 -20.94195,-1.5989 z m 30.58473,-59.00055 v -47.24703 h -9.75754 -9.75753 v 47.24703 47.24702 h 9.75753 9.75754 z m 29.96521,58.22226 -2.23325,-2.37719 v -83.38645 c 0,-82.01695 0.0337,-83.420166 2.05421,-85.440647 1.91008,-1.910063 3.4237,-2.054219 21.5693,-2.054219 18.14561,0 19.65924,0.144156 21.5693,2.054219 2.02054,2.020539 2.05422,3.423697 2.05422,85.584587 v 83.53038 l -2.37719,2.23326 c -2.26398,2.12689 -3.28272,2.23325 -21.39027,2.23325 -18.5461,0 -19.0679,-0.0583 -21.24632,-2.37719 z m 31.66135,-85.44066 V 73.014785 h -10.27109 -10.27109 v 74.465425 74.46542 h 10.27109 10.27109 z m -195.664329,6.19456 c -0.56491,-0.20117 -2.28968,-0.64398 -3.832823,-0.98401 -3.534934,-0.77893 -9.625301,-6.06856 -11.7921677,-10.24178 -2.1178769,-4.07889 -2.1422034,-13.54904 -0.045127,-17.56517 4.8014927,-9.19538 17.8698627,-13.68341 26.6392027,-9.14862 3.143643,1.62566 3.210245,1.60362 10.476864,-3.46558 4.02221,-2.80588 9.953131,-6.89306 13.179828,-9.08258 5.85651,-3.974028 5.866788,-3.990226 5.905878,-9.306421 0.04771,-6.487575 1.355685,-10.178576 4.983273,-14.062355 7.923985,-8.483585 20.639238,-8.883604 28.622376,-0.900456 l 3.741545,3.741524 11.90249,-2.397182 c 6.54638,-1.318459 12.42878,-2.593789 13.07205,-2.834072 0.64326,-0.240281 1.94431,-2.465531 2.89122,-4.944991 3.95049,-10.344207 14.86182,-14.947249 26.76294,-11.290189 1.62426,0.499114 5.49008,-2.444003 18.12362,-13.797803 l 16.05898,-14.432244 -0.8551,-3.791388 c -1.91481,-8.49 2.4056,-17.244716 10.50098,-21.2788159 6.702,-3.3397486 11.36146,-3.3702574 17.84276,-0.1168312 19.53878,9.8079351 11.58607,38.9727501 -10.16336,37.2719041 -2.91411,-0.22789 -6.00843,-0.741946 -6.87625,-1.142348 -1.12064,-0.517052 -6.22719,3.437797 -17.62286,13.6483 l -16.045,14.376303 0.49332,5.934733 c 0.4027,4.844567 0.0552,6.772825 -1.89221,10.497189 -6.48447,12.401833 -20.69291,15.207573 -31.01236,6.124035 l -4.72289,-4.157256 -13.04147,2.913154 c -12.42599,2.775674 -13.07776,3.048911 -13.81069,5.789376 -2.90696,10.869534 -16.42363,17.028264 -27.351335,12.462394 l -3.777797,-1.57846 -7.230642,5.04404 c -3.976852,2.77422 -9.892472,6.83548 -13.145824,9.025 -5.431691,3.65556 -5.871866,4.23662 -5.385234,7.10877 1.209199,7.13682 -4.292674,17.25155 -11.295988,20.76675 -2.338228,1.17362 -9.754038,2.36499 -11.298205,1.81508 z m 7.336311,-15.29199 c 3.895184,-3.8952 0.825089,-10.9312 -4.76972,-10.9312 -4.16367,0 -6.335202,2.56437 -5.959082,7.03713 0.47087,5.59949 6.745838,7.87704 10.728802,3.89407 z M 90.490276,97.665413 c 2.747848,-2.747849 2.589721,-5.720533 -0.466877,-8.777119 -2.914727,-2.914742 -5.331566,-3.175454 -8.548565,-0.922186 -2.769745,1.940009 -3.075556,7.120859 -0.582905,9.875207 2.242796,2.478265 7.031952,2.390495 9.598347,-0.175902 z M 154.17106,84.312988 c 1.12982,-1.129821 2.05422,-3.209717 2.05422,-4.621992 0,-1.412275 -0.9244,-3.492172 -2.05422,-4.621993 -5.94114,-5.941134 -14.56244,2.072327 -9.6993,9.015439 2.03481,2.905103 6.90793,3.019921 9.6993,0.228546 z m 60.77535,-54.082429 c 2.69849,-2.442105 2.47339,-8.037957 -0.40444,-10.053664 -2.96802,-2.07888 -5.2178,-2.021507 -7.78529,0.198537 -3.22171,2.785724 -3.61257,5.725155 -1.1736,8.825819 2.48185,3.155156 6.52336,3.59944 9.36333,1.029308 z"
       id="path3809"
       inkscape:connector-curvature="0" />
    <path
       style="fill:#606060;fill-opacity:1;stroke-width:1.02710938"
       d="m 6.734175,232.77696 -2.5210864,-2.52107 v -29.14027 c 0,-37.03074 -2.4321448,-33.60677 23.8719444,-33.60677 h 19.117555 l 2.128766,2.70628 c 2.038126,2.59106 2.128766,3.92689 2.128766,31.37352 v 28.66724 l -2.521086,2.52107 c -2.490902,2.49091 -2.74357,2.5211 -21.10243,2.5211 -18.358859,0 -18.6115276,-0.0302 -21.102429,-2.5211 z M 38.107698,201.40345 V 180.86126 H 27.836604 17.56551 v 20.54219 20.54218 h 10.271094 10.271094 z m 30.01471,32.29571 -2.282757,-1.59891 v -50.62449 c 0,-47.73975 0.107034,-50.72133 1.878317,-52.32433 1.609181,-1.45628 4.676937,-1.69985 21.410102,-1.69985 17.61767,0 19.69837,0.18408 21.23164,1.87831 1.53273,1.69365 1.69986,6.79351 1.69986,51.86902 0,48.62124 -0.0563,50.04699 -2.05422,52.04493 -1.90436,1.90436 -3.42369,2.05422 -20.827194,2.05422 -15.328681,0 -19.191811,-0.29335 -21.055748,-1.5989 z m 31.057194,-16.11874 c 0.870668,-6.35224 0.186352,-75.43431 -0.756578,-76.37646 -0.438736,-0.43837 -4.945175,-0.99532 -10.014322,-1.23769 l -9.216629,-0.44065 v 41.21001 41.21 h 9.694611 9.6946 z m 29.313718,15.66342 c -2.00473,-2.00473 -2.05421,-3.42369 -2.05421,-58.89959 0,-53.76647 0.10185,-56.93745 1.87831,-58.54523 1.60918,-1.45629 4.67695,-1.69986 21.4101,-1.69986 17.61768,0 19.69838,0.18407 21.23165,1.87832 1.53885,1.70039 1.69986,7.28907 1.69986,59.00055 v 57.12222 l -2.28276,1.59891 c -1.86394,1.30555 -5.72707,1.5989 -21.05574,1.5989 -17.40351,0 -18.92285,-0.14986 -20.82721,-2.05422 z m 30.81328,-59.09597 v -47.79778 l -10.01431,0.29397 -10.01432,0.29397 -0.2733,42.11148 c -0.15032,23.16131 -0.001,44.53803 0.33067,47.5038 l 0.60399,5.39232 h 9.68364 9.68363 z m 30.25305,58.62909 -2.52109,-2.52107 V 147.6654 c 0,-81.999301 0.0152,-82.609831 2.12877,-85.296747 l 2.12876,-2.706289 h 19.26149 c 18.8058,0 19.31432,0.05625 21.49476,2.377194 l 2.23325,2.377194 v 82.919568 82.91957 l -2.5211,2.52107 c -2.49088,2.49091 -2.74355,2.5211 -21.10242,2.5211 -18.35885,0 -18.61153,-0.0302 -21.10242,-2.5211 z m 31.37351,-85.29675 V 73.014785 h -10.27109 -10.27109 v 74.465425 74.46542 h 10.27109 10.27109 z m -198.54858,5.18521 c -5.801931,-1.53092 -11.447465,-6.53473 -13.1321727,-11.63944 -0.6391185,-1.93654 -0.96825,-6.20003 -0.7314037,-9.47438 0.5123222,-7.08279 3.8940374,-12.24667 10.0902014,-15.4077 4.877379,-2.48826 13.209408,-2.69298 17.581671,-0.432 l 3.118714,1.61275 11.466589,-7.82805 c 6.306624,-4.30543 12.214651,-8.38862 13.128947,-9.07375 1.147729,-0.860045 1.797986,-3.375687 2.100464,-8.126022 0.368083,-5.780622 0.940622,-7.502063 3.582086,-10.770193 4.639116,-5.739702 9.07247,-7.970501 15.756744,-7.928556 6.242876,0.03917 10.82861,1.991711 14.84124,6.319158 l 2.57338,2.775271 12.05168,-2.348753 c 6.62842,-1.291817 12.81933,-2.759596 13.75757,-3.26172 0.93824,-0.502132 2.00145,-2.390783 2.3627,-4.197005 0.88488,-4.424454 7.73961,-10.787971 13.20636,-12.260016 4.07553,-1.097426 8.7374,-0.892688 13.72456,0.602747 1.73186,0.519309 5.26843,-2.163032 18.10765,-13.733887 l 15.95545,-14.379239 -0.73617,-4.025813 c -2.75299,-15.054919 12.64878,-28.0278585 26.43721,-22.2681026 4.43981,1.8546115 9.03577,5.9573226 11.10014,9.9088236 2.13752,4.09154 1.84023,13.488646 -0.5766,18.226026 -4.59779,9.0124 -11.5594,11.439888 -26.08739,9.09656 -1.26022,-0.20327 -7.32707,4.462744 -17.62585,13.556016 l -15.70418,13.865976 0.54696,5.254331 c 1.3055,12.541217 -7.66772,22.99117 -19.74215,22.99117 -5.37748,0 -9.87144,-1.968125 -14.48773,-6.344894 l -3.19961,-3.033598 -12.6043,2.661244 c -6.93237,1.463688 -12.95207,2.876174 -13.37713,3.138875 -0.42506,0.2627 -1.09113,1.753049 -1.48015,3.31189 -2.61922,10.495521 -16.033797,16.447131 -27.095181,12.021241 l -3.992974,-1.59768 -12.888562,9.03363 -12.888561,9.03364 0.01798,5.14612 c 0.02208,6.31713 -1.163864,9.49207 -5.30917,14.2133 -4.704255,5.35786 -12.195433,7.38152 -19.849021,5.36203 z m 10.120705,-14.38251 c 2.801956,-2.80196 2.941515,-3.42913 1.56732,-7.04354 -1.137785,-2.99261 -5.811495,-4.88368 -9.080812,-3.67428 -4.65759,1.72296 -5.01142,9.50239 -0.550236,12.09767 2.972182,1.72904 5.364137,1.31974 8.063728,-1.37985 z M 90.945597,97.436867 c 2.349185,-3.353925 1.955613,-6.531537 -1.107386,-8.940896 -3.233983,-2.543855 -5.30104,-2.674811 -8.363377,-0.529863 -2.769745,1.940009 -3.075556,7.120859 -0.582905,9.875207 2.442106,2.698485 8.037954,2.473375 10.053668,-0.404448 z M 154.34696,84.667349 c 2.47826,-2.242794 2.3905,-7.031948 -0.1759,-9.598346 -5.94114,-5.941134 -14.56244,2.072327 -9.6993,9.015439 1.94001,2.769745 7.12086,3.07556 9.8752,0.582907 z m 60.68458,-54.020824 c 4.51785,-3.451065 1.67799,-12.068535 -3.97715,-12.068535 -2.5714,0 -7.58208,4.086408 -7.58208,6.183493 0,1.582981 2.12748,5.471838 3.49186,6.382869 1.77718,1.18665 6.22119,0.912414 8.06737,-0.497827 z"
       id="path3807"
       inkscape:connector-curvature="0" />
    <path
       style="fill:#494949;fill-opacity:1;stroke-width:1.02710938"
       d="m 6.734175,232.77696 -2.5210864,-2.52107 v -28.85244 -28.85243 l 2.5210864,-2.52109 c 2.4892828,-2.48928 2.7534757,-2.52108 20.941955,-2.52108 16.606717,0 18.65967,0.19337 20.845652,1.96347 l 2.424784,1.96347 v 29.96766 29.96767 l -2.424784,1.96347 c -2.185982,1.7701 -4.238935,1.96347 -20.845652,1.96347 -18.1884793,0 -18.4526722,-0.0319 -20.941955,-2.5211 z M 38.107698,201.40345 V 180.86126 H 27.836604 17.56551 v 20.54219 20.54218 h 10.271094 10.271094 z m 29.786172,31.84039 c -1.998145,-1.99815 -2.054219,-3.42369 -2.054219,-52.22339 0,-47.29865 0.107471,-50.26642 1.878317,-51.86902 1.609181,-1.45628 4.676937,-1.69985 21.410102,-1.69985 17.61767,0 19.69837,0.18408 21.23164,1.87831 1.53273,1.69365 1.69986,6.79351 1.69986,51.86902 0,48.62124 -0.0563,50.04699 -2.05422,52.04493 -1.90617,1.90617 -3.42369,2.05422 -21.05574,2.05422 -17.632042,0 -19.149573,-0.14805 -21.05574,-2.05422 z m 31.59539,-52.1258 -0.268557,-40.8276 H 88.94961 78.678519 l -0.268559,40.8276 -0.268569,40.82759 H 88.94961 99.757829 Z m 29.00406,52.1258 c -2.00473,-2.00473 -2.05421,-3.42369 -2.05421,-58.89959 0,-53.76647 0.10185,-56.93745 1.87831,-58.54523 1.60918,-1.45629 4.67695,-1.69986 21.4101,-1.69986 17.61768,0 19.69838,0.18407 21.23165,1.87832 1.53849,1.70001 1.69986,7.25744 1.69986,58.54523 0,55.29744 -0.0496,56.71656 -2.05422,58.72113 -1.90617,1.90617 -3.42369,2.05422 -21.05575,2.05422 -17.63204,0 -19.14957,-0.14805 -21.05574,-2.05422 z m 31.59388,-58.802 -0.26704,-47.50381 h -10.2711 -10.27109 l -0.26704,47.50381 -0.26702,47.50379 h 10.80515 10.80517 z m 29.88969,58.89275 -2.42477,-1.96347 V 147.48021 63.589305 l 2.42477,-1.963471 c 2.18599,-1.770101 4.23895,-1.96347 20.84566,-1.96347 18.18847,0 18.45267,0.0318 20.94194,2.521087 l 2.5211,2.521086 v 82.775673 82.77568 l -2.5211,2.52107 c -2.48927,2.48929 -2.75347,2.5211 -20.94194,2.5211 -16.60671,0 -18.65967,-0.19337 -20.84566,-1.96347 z m 30.95627,-85.85438 V 73.014785 h -10.27109 -10.27109 v 74.465425 74.46542 h 10.27109 10.27109 z m -201.826985,4.19332 c -3.827741,-1.70854 -8.248773,-6.34573 -9.6921961,-10.16606 -1.7674185,-4.67786 -1.309632,-12.6849 0.9820571,-17.17699 4.294361,-8.41764 15.630466,-12.37847 25.089224,-8.76613 l 4.530244,1.73012 12.912074,-9.01641 12.912073,-9.016403 0.02255,-5.163342 c 0.04435,-10.152286 5.964849,-17.9404 15.132905,-19.9066 7.689705,-1.649145 13.728832,0.187593 19.068314,5.799423 l 2.89693,3.044701 11.48261,-2.414036 c 6.31542,-1.327713 12.46356,-2.652058 13.66254,-2.942976 1.43015,-0.347029 2.39876,-1.62309 2.81615,-3.710048 2.03845,-10.192201 13.83187,-16.073812 25.98671,-12.960081 3.11601,0.798233 3.90184,0.249653 18.94293,-13.223884 l 15.69204,-14.056665 0.0587,-7.91053 c 0.0525,-7.077048 0.36874,-8.317282 3.00213,-11.770966 7.69364,-10.0902232 20.18426,-11.385078 29.41134,-3.048963 4.83219,4.36559 6.54684,9.085156 5.94359,16.359621 -1.02678,12.381485 -12.73447,20.401258 -24.88512,17.046302 -2.18684,-0.603814 -4.54726,-0.768555 -5.2454,-0.366088 -0.69818,0.402465 -7.9972,6.740343 -16.22011,14.084174 l -14.95072,13.352422 0.5852,5.254331 c 2.18722,19.638505 -19.9882,30.455148 -34.21315,16.688372 l -3.22111,-3.117377 -11.15843,2.208104 c -6.13713,1.21447 -11.9443,2.433474 -12.90483,2.708905 -0.96053,0.275431 -2.8839,2.985331 -4.27412,6.021994 -1.77342,3.87367 -3.799306,6.36274 -6.789049,8.34126 -5.489296,3.63264 -13.565913,4.47609 -18.850175,1.96855 -2.033724,-0.96507 -4.077447,-1.59477 -4.541606,-1.39932 -0.46416,0.19543 -6.490261,4.25105 -13.391338,9.01248 l -12.54741,8.65716 v 5.5166 c 0,11.85404 -7.977568,19.84089 -19.730937,19.75393 -2.988284,-0.0221 -6.81984,-0.65913 -8.51457,-1.41558 z m 13.39911,-13.39062 c 3.007451,-3.00744 3.19583,-5.66204 0.626923,-8.8345 -3.814065,-4.71018 -12.48537,-1.70549 -12.48537,4.3263 0,2.63811 4.491429,7.02929 7.189766,7.02929 1.181176,0 3.282083,-1.13449 4.668681,-2.52109 z M 90.747047,97.462365 c 2.416427,-2.794601 2.263974,-5.844178 -0.435801,-8.717964 -5.184741,-5.518896 -14.112262,0.401065 -10.97812,7.279738 2.204351,4.838031 7.858208,5.550451 11.413921,1.438226 z M 154.34696,84.667349 c 2.34041,-2.118031 2.43468,-7.281156 0.17846,-9.774247 -2.4421,-2.698494 -8.03795,-2.473384 -10.05366,0.404444 -3.48926,4.981604 -0.795,11.069663 4.89884,11.069663 1.70393,0 3.94329,-0.764932 4.97636,-1.69986 z m 61.90597,-55.019694 c 2.14495,-3.062341 2.014,-5.129395 -0.52986,-8.363377 -2.8604,-3.636417 -7.26159,-3.636417 -10.122,0 -1.17082,1.488459 -2.12876,3.568355 -2.12876,4.621993 0,5.475571 9.59797,8.285267 12.78062,3.741384 z"
       id="path3805"
       inkscape:connector-curvature="0" />
    <path
       style="fill:#333333;fill-opacity:1;stroke-width:1.02710938"
       d="m 6.734175,232.77696 -2.5210864,-2.52107 v -28.69196 c 0,-26.71957 0.1349766,-28.85865 1.9634709,-31.11675 1.9383817,-2.3938 2.2119748,-2.42478 21.4114355,-2.42478 14.973947,0 19.838712,0.32428 21.14649,1.40964 1.510475,1.25359 1.698525,4.80075 1.698525,32.03893 0,30.48708 -0.01055,30.6367 -2.282756,32.22819 -1.858781,1.30194 -5.682752,1.5989 -20.588875,1.5989 -18.0666452,0 -18.3390961,-0.033 -20.827204,-2.5211 z M 38.107698,201.40345 V 180.86126 H 27.836604 17.56551 v 20.54219 20.54218 h 10.271094 10.271094 z m 31.84039,33.18181 c -4.055806,-1.4495 -4.108437,-2.13073 -4.108437,-53.17821 0,-43.03943 0.205587,-49.68348 1.598905,-51.67271 1.558293,-2.22478 2.102123,-2.28276 21.410106,-2.28276 17.888348,0 19.976188,0.18231 21.511048,1.87831 1.53265,1.69357 1.69986,6.78833 1.69986,51.79448 v 49.91615 l -2.70628,2.12878 c -2.50892,1.97351 -3.98838,2.12284 -20.285418,2.04767 -9.668519,-0.0446 -18.272418,-0.32886 -19.119784,-0.63171 z M 99.48926,181.11804 99.220703,140.29044 H 88.94961 78.678519 l -0.268559,40.8276 -0.268569,40.82759 H 88.94961 99.757829 Z m 29.73397,52.11247 -2.78412,-2.18999 v -56.77083 c 0,-53.69422 0.10185,-56.86295 1.87831,-58.47067 1.6099,-1.45694 4.68397,-1.69986 21.51106,-1.69986 19.12357,0 19.6742,0.0592 21.23165,2.28276 1.39972,1.99838 1.5989,9.267 1.5989,58.34892 0,46.76429 -0.24156,56.39694 -1.45595,58.05991 -1.33391,1.82664 -3.03758,2.0204 -20.32584,2.31175 -17.95831,0.30264 -19.00439,0.21222 -21.65401,-1.87199 z m 30.86397,-58.78867 -0.26704,-47.50381 h -10.2711 -10.27109 l -0.26704,47.50381 -0.26702,47.50379 h 10.80515 10.80517 z m 30.26123,59.25732 -2.28277,-1.59891 v -84.55251 c 0,-77.397364 0.14374,-84.67181 1.69853,-85.96217 1.30779,-1.08536 6.17254,-1.409652 21.14649,-1.409652 19.19947,0 19.47306,0.03099 21.41144,2.424783 1.89685,2.342511 1.96347,5.22792 1.96347,85.039979 v 82.61521 l -2.5211,2.52107 c -2.48809,2.48812 -2.76054,2.5211 -20.82719,2.5211 -14.90612,0 -18.7301,-0.29696 -20.58887,-1.5989 z m 30.58473,-86.21895 V 73.014785 h -10.27109 -10.27109 v 74.465425 74.46542 h 10.27109 10.27109 z m -201.826985,3.71738 c -4.886798,-2.24402 -7.0767,-4.53456 -9.2048126,-9.62786 -6.7981226,-16.2702 9.0189746,-32.33157 25.6027626,-25.99817 l 4.549109,1.73731 10.068658,-6.92125 C 66.983613,98.796782 65.988809,99.881617 66.182962,92.873043 66.492351,81.704674 74.249876,74.041894 85.246944,74.041894 c 6.582089,0 10.042577,1.352477 14.487315,5.662166 l 3.594891,3.485651 11.81176,-2.545178 c 15.6991,-3.382805 15.10294,-3.121097 15.82032,-6.945086 0.38388,-2.046243 2.33833,-5.031155 5.0132,-7.656338 5.19944,-5.102873 11.09168,-6.677653 19.07735,-5.09869 l 5.06812,1.002093 15.88462,-14.055697 15.8846,-14.055695 -0.42191,-6.858234 c -0.35595,-5.785744 -0.0501,-7.495957 1.95557,-10.936297 4.45933,-7.6490018 13.73339,-11.826956 21.6045,-9.7328235 9.03845,2.4046953 15.07962,10.0468985 15.12732,19.1363475 0.0424,8.07395 -4.07251,14.318749 -11.7892,17.891462 -4.76134,2.204428 -8.47598,2.413684 -13.91568,0.783907 l -3.88293,-1.16335 -16.01496,14.2144 -16.01497,14.214401 0.60719,6.207247 c 0.51917,5.307393 0.24817,6.877298 -1.86943,10.82925 -3.2774,6.116445 -9.47287,10.421146 -15.88521,11.037298 -5.91765,0.568612 -10.68126,-1.176568 -16.02975,-5.87261 l -3.76892,-3.30915 -11.56302,2.236076 c -15.10038,2.920137 -15.15791,2.939196 -15.15791,5.020491 0,3.663005 -5.833883,11.087665 -10.478893,13.336275 -5.470758,2.64836 -9.996268,2.78857 -16.362487,0.507 l -4.758519,-1.7054 -12.959114,9.02677 -12.959115,9.02677 v 5.82489 c 0,14.6455 -14.734903,23.85185 -28.245507,17.64775 z m 13.791429,-13.09988 c 1.170822,-1.48846 2.128766,-3.58937 2.128766,-4.66868 0,-2.61765 -4.502901,-7.00456 -7.189766,-7.00456 -2.83407,0 -7.189766,4.44286 -7.189766,7.33366 0,1.26032 1.004967,3.36122 2.23326,4.66867 3.048203,3.24466 7.316692,3.10444 10.017506,-0.32909 z M 89.838211,98.61797 c 3.338018,-2.625695 3.604356,-7.244249 0.591503,-10.257102 -4.77774,-4.777744 -13.894023,0.663778 -11.676361,6.969655 0.919735,2.615256 4.603998,5.366317 7.233192,5.401077 0.629957,0.008 2.363208,-0.942808 3.851666,-2.11363 z M 153.51898,85.265545 c 5.17342,-4.069403 2.6414,-12.25076 -3.79146,-12.25076 -6.77933,0 -9.50178,8.03977 -4.14838,12.25076 1.48846,1.170822 3.27493,2.128774 3.96992,2.128774 0.69501,0 2.48147,-0.957952 3.96992,-2.128774 z m 62.73395,-55.61789 c 5.06428,-7.230265 -3.95688,-14.892614 -10.40343,-8.836406 -4.75379,4.465956 -1.87416,11.119162 4.81257,11.119162 2.96083,0 4.40496,-0.589641 5.59086,-2.282756 z"
       id="path3803"
       inkscape:connector-curvature="0" />
  </g>
</svg>
