<?xml version="1.0" encoding="UTF-8" standalone="no"?>
<!-- Created with Inkscape (http://www.inkscape.org/) -->

<svg
   xmlns:dc="http://purl.org/dc/elements/1.1/"
   xmlns:cc="http://creativecommons.org/ns#"
   xmlns:rdf="http://www.w3.org/1999/02/22-rdf-syntax-ns#"
   xmlns:svg="http://www.w3.org/2000/svg"
   xmlns="http://www.w3.org/2000/svg"
   xmlns:sodipodi="http://sodipodi.sourceforge.net/DTD/sodipodi-0.dtd"
   xmlns:inkscape="http://www.inkscape.org/namespaces/inkscape"
   width="200mm"
   height="200mm"
   viewBox="0 0 200 200"
   version="1.1"
   id="svg8"
   inkscape:version="0.92.4 (5da689c313, 2019-01-14)"
   sodipodi:docname="download.svg">
  <defs
     id="defs2" />
  <sodipodi:namedview
     id="base"
     pagecolor="#ffffff"
     bordercolor="#666666"
     borderopacity="1.0"
     inkscape:pageopacity="0.0"
     inkscape:pageshadow="2"
     inkscape:zoom="0.35"
     inkscape:cx="400"
     inkscape:cy="560"
     inkscape:document-units="mm"
     inkscape:current-layer="layer1"
     showgrid="false"
     inkscape:window-width="1920"
     inkscape:window-height="1027"
     inkscape:window-x="-8"
     inkscape:window-y="-8"
     inkscape:window-maximized="1" />
  <metadata
     id="metadata5">
    <rdf:RDF>
      <cc:Work
         rdf:about="">
        <dc:format>image/svg+xml</dc:format>
        <dc:type
           rdf:resource="http://purl.org/dc/dcmitype/StillImage" />
        <dc:title></dc:title>
      </cc:Work>
    </rdf:RDF>
  </metadata>
  <g
     inkscape:label="Layer 1"
     inkscape:groupmode="layer"
     id="layer1"
     transform="translate(0,-97)">
    <path
       style="fill:#000000;stroke-width:0.83106834"
       d="m 64.879797,257.00578 c -27.008272,-27.00827 -36.78522,-37.28948 -36.78522,-38.68245 0,-1.04348 0.917952,-2.81518 2.039895,-3.93713 2.033066,-2.03307 2.096903,-2.0399 19.067447,-2.0399 16.653677,0 17.055955,-0.0406 18.321282,-1.84705 1.135273,-1.62084 1.293724,-7.8258 1.293724,-50.6628 v -48.81574 l 1.818843,-1.69451 c 1.763934,-1.64336 2.767466,-1.69451 33.242732,-1.69451 30.3158,0 31.48251,0.0586 33.08603,1.66214 1.6238,1.62379 1.66242,2.77867 1.67439,50.07187 0.009,37.32281 0.25265,48.88556 1.06189,50.48739 l 1.04964,2.07768 17.71231,0.41553 c 17.37662,0.40765 17.74236,0.45272 19.29927,2.37751 0.87284,1.07909 1.58698,2.75729 1.58698,3.72936 0,1.22181 -11.35535,13.12274 -36.78522,38.55261 -28.67484,28.67484 -37.23869,36.78523 -38.84199,36.78523 -1.60331,0 -10.167162,-8.11039 -38.842003,-36.78523 z"
       id="path21"
       inkscape:connector-curvature="0" />
  </g>
</svg>
