<?xml version="1.0" ?><!DOCTYPE svg  PUBLIC '-//W3C//DTD SVG 1.1//EN'  'http://www.w3.org/Graphics/SVG/1.1/DTD/svg11.dtd'><svg enable-background="new 0 0 50 50" id="Layer_1" version="1.1" viewBox="0 0 50 50" xml:space="preserve" xmlns="http://www.w3.org/2000/svg" xmlns:xlink="http://www.w3.org/1999/xlink"><path d="M36,24c-1.9-0.6-4-1.5-4-3c0-1,1-2,2-2s2,1,2,1l2-1c0,0-1-3-4-3c-3,0-5,2.2-5,5  c0,2,2,4,5,5c2,0.7,3,1.6,3,3c0,2-2,2-3,2c-2,0-3-1-4-3c-1.3-3.1-3-7-3-7c-1.7-3.2-3-5-8-5c-5,0-9,4-9,9c0,5,4,9,9,9c5,0,7-3,7-3  l-1-3c0,0-2,3-6,3s-6-2.6-6-6c0-3.4,3-6,6-6c4,0,5,2,6,4l3,7c1,2,2,4,6,4s6-2.4,6-5.4C40,25,36,24,36,24z" fill="#DF2703" id="as_ligature"/><path d="M25,1C11.7,1,1,11.7,1,25s10.7,24,24,24s24-10.7,24-24S38.3,1,25,1z M25,44C14.5,44,6,35.5,6,25S14.5,6,25,6  s19,8.5,19,19S35.5,44,25,44z" fill="#DF2703"/></svg>