<?xml version="1.0" encoding="iso-8859-1"?>
<!-- Generator: Adobe Illustrator 18.1.1, SVG Export Plug-In . SVG Version: 6.00 Build 0)  -->
<svg version="1.1" id="Capa_1" xmlns="http://www.w3.org/2000/svg" xmlns:xlink="http://www.w3.org/1999/xlink" x="0px" y="0px"
	 viewBox="0 0 18.135 18.135" style="enable-background:new 0 0 18.135 18.135;" xml:space="preserve">
<g>
	<path style="fill:#010002;" d="M16.28,0.001H1.854C0.83,0.001,0,0.83,0,1.855V16.28c0,1.025,0.83,1.854,1.854,1.854H16.28
		c1.024,0,1.855-0.828,1.855-1.854V1.854C18.136,0.829,17.304,0,16.28,0.001z M12.1,1.945c1.334,0,2.414,1.08,2.414,2.414
		s-1.08,2.414-2.414,2.414c-1.333,0-2.413-1.08-2.413-2.414S10.767,1.945,12.1,1.945z M7.643,3.034c0.929,0,1.681,0.755,1.681,1.683
		S8.572,6.398,7.643,6.398S5.961,5.644,5.961,4.716S6.715,3.034,7.643,3.034z M4.44,3.302c0.657,0,1.191,0.532,1.191,1.19
		c0,0.656-0.534,1.189-1.191,1.189S3.25,5.148,3.25,4.492C3.25,3.834,3.783,3.302,4.44,3.302z M15.234,9.998
		c0,0.003,0,0.005,0,0.007c0,0,0,0.005,0,0.007v6.18H8.991v-3.231H5.476V10.33h-2.57V7.383C2.903,7.35,2.9,7.313,2.9,7.277
		c0-0.699,0.691-1.267,1.543-1.267c0.85,0,1.54,0.563,1.543,1.263v0.002v0.002v0.004v0.213c0.398-0.389,0.995-0.633,1.661-0.633
		c1.052,0,1.93,0.613,2.134,1.428c0.572-0.523,1.402-0.854,2.326-0.854C13.83,7.436,15.227,8.582,15.234,9.998z"/>
</g>
<g>
</g>
<g>
</g>
<g>
</g>
<g>
</g>
<g>
</g>
<g>
</g>
<g>
</g>
<g>
</g>
<g>
</g>
<g>
</g>
<g>
</g>
<g>
</g>
<g>
</g>
<g>
</g>
<g>
</g>
</svg>
