<?xml version="1.0" encoding="UTF-8" standalone="no"?>
<!-- Created with Inkscape (http://www.inkscape.org/) -->

<svg
   xmlns:dc="http://purl.org/dc/elements/1.1/"
   xmlns:cc="http://creativecommons.org/ns#"
   xmlns:rdf="http://www.w3.org/1999/02/22-rdf-syntax-ns#"
   xmlns:svg="http://www.w3.org/2000/svg"
   xmlns="http://www.w3.org/2000/svg"
   xmlns:sodipodi="http://sodipodi.sourceforge.net/DTD/sodipodi-0.dtd"
   xmlns:inkscape="http://www.inkscape.org/namespaces/inkscape"
   version="1.1"
   id="svg3924"
   width="613"
   height="527"
   viewBox="0 0 613 527"
   sodipodi:docname="play.svg"
   inkscape:version="0.92.4 (5da689c313, 2019-01-14)">
  <metadata
     id="metadata3930">
    <rdf:RDF>
      <cc:Work
         rdf:about="">
        <dc:format>image/svg+xml</dc:format>
        <dc:type
           rdf:resource="http://purl.org/dc/dcmitype/StillImage" />
        <dc:title></dc:title>
      </cc:Work>
    </rdf:RDF>
  </metadata>
  <defs
     id="defs3928" />
  <sodipodi:namedview
     pagecolor="#ffffff"
     bordercolor="#666666"
     borderopacity="1"
     objecttolerance="10"
     gridtolerance="10"
     guidetolerance="10"
     inkscape:pageopacity="0"
     inkscape:pageshadow="2"
     inkscape:window-width="1920"
     inkscape:window-height="1027"
     id="namedview3926"
     showgrid="false"
     inkscape:zoom="1.6280835"
     inkscape:cx="306.5"
     inkscape:cy="263.5"
     inkscape:window-x="-8"
     inkscape:window-y="-8"
     inkscape:window-maximized="1"
     inkscape:current-layer="svg3924" />
  <path
     style="fill:#000000"
     d="M 144.5,514.28545 C 132.17578,512.58108 115.29308,505.2251 105.53399,497.30753 93.017392,487.15277 83.196784,471.62847 78.761506,454.98589 L 76.5,446.5 v -188 C 76.5,46.256879 75.76292,65.667346 84.512374,47.5 95.753794,24.158344 117.13461,8.5314352 144.03808,3.9935776 157.0525,1.7984108 174.33987,4.2053977 192.5,10.741116 c 5.75768,2.072153 50.32379,27.63513 159,91.201874 83.05,48.5775 153.48273,90.00856 156.51717,92.06902 25.46361,17.29039 40.72011,49.04392 37.01433,77.03833 -2.93703,22.18696 -13.7529,41.42185 -30.0315,53.40783 -2.475,1.82235 -74.64286,44.31735 -160.37302,94.43332 -145.42802,85.01404 -156.25008,91.15911 -161.5,91.70431 -3.09484,0.32139 -11.70198,1.44138 -19.12698,2.48886 -12.61861,1.78016 -22.42441,2.17931 -29.5,1.20079 z M 324.96837,370.9225 c 169.86612,-99.22877 164.68179,-95.95577 170.65044,-107.73597 6.6944,-13.21257 1.24289,-30.66354 -11.74856,-37.60867 -2.95364,-1.57899 -73.90701,-42.91381 -157.67417,-91.85516 L 173.89216,44.738438 161.19608,45.198734 c -11.18784,0.405616 -13.43825,0.793627 -18.94356,3.266212 -6.34245,2.848571 -12.74249,8.682389 -15.54609,14.170695 C 123.05452,69.784596 123,72.619618 123,255.36772 c 0,196.77111 -0.39024,184.17107 6.0029,193.82294 3.47272,5.24286 11.61245,11.25407 18.09279,13.36156 2.7431,0.89209 7.28098,1.31173 12.03114,1.11256 l 7.62683,-0.31977 z"
     id="path3934"
     inkscape:connector-curvature="0" />
</svg>
