<?xml version="1.0" encoding="UTF-8" standalone="no"?>
<!-- Created with Inkscape (http://www.inkscape.org/) -->

<svg
   xmlns:dc="http://purl.org/dc/elements/1.1/"
   xmlns:cc="http://creativecommons.org/ns#"
   xmlns:rdf="http://www.w3.org/1999/02/22-rdf-syntax-ns#"
   xmlns:svg="http://www.w3.org/2000/svg"
   xmlns="http://www.w3.org/2000/svg"
   xmlns:sodipodi="http://sodipodi.sourceforge.net/DTD/sodipodi-0.dtd"
   xmlns:inkscape="http://www.inkscape.org/namespaces/inkscape"
   version="1.1"
   id="svg3713"
   width="256"
   height="256"
   viewBox="0 0 256 256"
   sodipodi:docname="sabnzbd.svg"
   inkscape:version="0.92.4 (5da689c313, 2019-01-14)">
  <metadata
     id="metadata3719">
    <rdf:RDF>
      <cc:Work
         rdf:about="">
        <dc:format>image/svg+xml</dc:format>
        <dc:type
           rdf:resource="http://purl.org/dc/dcmitype/StillImage" />
        <dc:title></dc:title>
      </cc:Work>
    </rdf:RDF>
  </metadata>
  <defs
     id="defs3717" />
  <sodipodi:namedview
     pagecolor="#ffffff"
     bordercolor="#666666"
     borderopacity="1"
     objecttolerance="10"
     gridtolerance="10"
     guidetolerance="10"
     inkscape:pageopacity="0"
     inkscape:pageshadow="2"
     inkscape:window-width="640"
     inkscape:window-height="480"
     id="namedview3715"
     showgrid="false"
     inkscape:zoom="0.66981795"
     inkscape:cx="79.411353"
     inkscape:cy="169.47455"
     inkscape:window-x="353"
     inkscape:window-y="388"
     inkscape:window-maximized="0"
     inkscape:current-layer="svg3713" />
  <path
     style="fill:#000000"
     d="M 109.07985,239.88899 94.5,224.77798 l -38.566555,0.15809 -38.566556,0.15809 -2.683444,-2.68344 C 12.132523,219.8598 12,219.23691 12,209.79789 c 0,-5.46115 0.451217,-10.77248 1.002704,-11.80294 0.670273,-1.25242 0.670273,-2.07903 0,-2.49328 C 12.379486,195.1165 12,186.18246 12,171.89553 v -22.98644 l 2.559765,-2.55976 C 17.527734,143.38136 17.819354,143.93921 7.8427614,133.5 1.0968078,126.44123 -0.35865261,123.32728 1.1137993,119.1034 3.0552106,113.53426 5.0992516,113 24.464817,113 H 42 V 59.636364 6.2727273 L 44.636364,3.6363636 47.272727,1 h 80.440563 80.44056 L 211.07692,3.9230769 214,6.8461538 V 59.923077 113 h 17.57692 17.57693 l 2.92307,2.92308 c 2.15164,2.15163 2.92308,3.87624 2.92308,6.5347 0,3.17568 -1.03208,4.68225 -8.55028,12.48119 l -8.55028,8.86956 2.55028,2.55028 L 243,148.90909 V 184.5 220.09091 l -2.50491,2.50491 -2.5049,2.5049 -37.88825,-0.15984 c -20.83854,-0.0879 -38.53063,0.22692 -39.31576,0.69964 -0.78513,0.47271 -7.01397,6.70948 -13.84186,13.85948 -6.8279,7.15 -13.3211,13.54655 -14.42934,14.21456 -1.10824,0.66802 -3.55405,1.23052 -5.43513,1.25 -3.11542,0.0323 -4.71921,-1.31094 -18,-15.07557 z M 137.44162,235.36687 146.38324,226 h -18.26788 -18.26787 l 8.82625,9.47903 c 4.85444,5.21346 9.05126,9.42855 9.32626,9.36686 0.275,-0.0617 4.52373,-4.32725 9.44162,-9.47902 z M 84,197 V 178 H 65.5 47 v -6 -6 H 65.5 84 V 159.5 153 H 52.5 21 v 19 19 H 40.049904 59.099808 L 58.799904,196.75 58.5,202.5 39.75,202.77207 21,203.04413 V 209.52207 216 H 52.5 84 Z m 75,-12.5 V 153 H 127.5 96 v 6.5 6.5 h 18.5 18.5 v 6 6 H 114.5 96 v 19 19 H 127.5 159 Z M 122,197 v -6 h 5.5 5.5 v 6 6 H 127.5 122 Z M 234,184.52207 V 153.04413 L 215.25,152.77207 196.5,152.5 196.21922,140.25 195.93844,128 H 183.46922 171 v 44 44 h 31.5 31.5 z m -37.33333,17.81126 C 196.3,201.96667 196,193.64167 196,183.83333 V 166 h 6 6 v 18.5 18.5 h -5.33333 c -2.93334,0 -5.63334,-0.3 -6,-0.66667 z M 127.43426,143 H 161 v -8.45295 C 161,119.12554 162.57997,118 184.22783,118 c 12.25381,0 15.77281,0.31215 17.54966,1.5567 L 204,121.11341 V 65.556704 10 H 128.00833 52.016652 L 51.758326,66.25 51.5,122.5 l -19.805906,0.27133 -19.805906,0.27132 9.230257,9.97868 9.230257,9.97867 28.575649,0.0153 c 15.716607,0.008 29.226402,0.42703 30.021767,0.93023 0.877338,0.55506 2.129755,0.54904 3.184259,-0.0153 C 93.103192,143.40959 108.64794,143 127.43426,143 Z M 234.90381,132.89631 244.30763,123 224.90381,122.998 205.5,122.996 l 0.31641,10.00218 0.31642,10.00218 9.68358,-0.10369 9.68359,-0.10368 9.40381,-9.89632 z"
     id="path3741"
     inkscape:connector-curvature="0" />
</svg>
