<?xml version="1.0" encoding="UTF-8" standalone="no"?>
<svg
   xmlns:dc="http://purl.org/dc/elements/1.1/"
   xmlns:cc="http://creativecommons.org/ns#"
   xmlns:rdf="http://www.w3.org/1999/02/22-rdf-syntax-ns#"
   xmlns:svg="http://www.w3.org/2000/svg"
   xmlns="http://www.w3.org/2000/svg"
   xmlns:sodipodi="http://sodipodi.sourceforge.net/DTD/sodipodi-0.dtd"
   xmlns:inkscape="http://www.inkscape.org/namespaces/inkscape"
   id="Layer_1"
   data-name="Layer 1"
   viewBox="0 0 512 512"
   width="512"
   height="512"
   version="1.1"
   sodipodi:docname="value.svg"
   inkscape:version="0.92.4 (f8dce91, 2019-08-02)">
  <metadata
     id="metadata21">
    <rdf:RDF>
      <cc:Work
         rdf:about="">
        <dc:format>image/svg+xml</dc:format>
        <dc:type
           rdf:resource="http://purl.org/dc/dcmitype/StillImage" />
      </cc:Work>
    </rdf:RDF>
  </metadata>
  <defs
     id="defs19" />
  <sodipodi:namedview
     pagecolor="#ffffff"
     bordercolor="#666666"
     borderopacity="1"
     objecttolerance="10"
     gridtolerance="10"
     guidetolerance="10"
     inkscape:pageopacity="0"
     inkscape:pageshadow="2"
     inkscape:window-width="1853"
     inkscape:window-height="1016"
     id="namedview17"
     showgrid="false"
     inkscape:zoom="0.32593203"
     inkscape:cx="629.24506"
     inkscape:cy="-613.2409"
     inkscape:window-x="67"
     inkscape:window-y="27"
     inkscape:window-maximized="1"
     inkscape:current-layer="Layer_1" />
  <title
     id="title2">value customers users viewer</title>
  <path
     d="m 315.98956,154.8275 v -39.36784 a 59.886998,90.682222 0 0 0 -119.77268,0 v 39.36784 a 59.886998,90.682222 0 0 0 119.77268,0 z m -103.99357,0 v -39.36784 a 44.107884,66.789137 0 0 1 88.21446,0 v 39.36784 a 44.107884,66.789137 0 0 1 -88.21446,0 z"
     id="path8"
     inkscape:connector-curvature="0"
     style="stroke-width:1.61806571" />
  <path
     d="m 159.57383,491.56071 h 193.06009 a 7.8895571,11.946542 0 0 0 7.88956,-11.94655 v -27.42129 h 132.16323 a 7.8895571,11.946542 0 0 0 7.88956,-11.94655 v -77.54103 a 59.136176,89.545311 0 0 0 -55.36891,-89.31233 c -4.20777,-0.46792 -6.37082,3.56603 -8.12493,6.80553 a 36.206493,54.824676 0 0 1 -57.12302,-2.11254 7.8895571,11.946542 0 0 0 -6.54176,-4.84433 58.487917,88.563703 0 0 0 -29.02174,12.82064 66.320932,100.42463 0 0 0 -46.2854,-34.76246 c -4.07627,-0.25088 -6.13808,3.49636 -8.13545,7.16794 a 42.482635,64.328149 0 0 1 -67.03099,-2.4789 7.8658885,11.910703 0 0 0 -6.54176,-4.84234 66.029019,99.982606 0 0 0 -45.8186,30.26457 c -0.99672,1.5431 -1.94215,3.14195 -2.86391,4.76468 a 58.661487,88.826526 0 0 0 -26.89945,-12.78677 c -4.1933,-0.46792 -6.37213,3.56603 -8.12493,6.80553 a 36.205178,54.822685 0 0 1 -57.121701,-2.11254 7.909281,11.976409 0 0 0 -6.541758,-4.84432 59.112507,89.50947 0 0 0 -57.608232,89.46764 v 77.54103 a 7.8895571,11.946542 0 0 0 7.889558,11.94655 H 151.68427 v 27.42129 a 7.8895571,11.946542 0 0 0 7.88956,11.94655 z M 370.04881,297.51302 a 51.993496,78.729706 0 0 0 77.84363,0.30861 43.37547,65.6801 0 0 1 36.90472,64.88366 v 65.59449 H 360.52348 v -76.63906 a 66.009295,99.95274 0 0 0 -7.29126,-45.74332 42.647001,64.577035 0 0 1 16.81659,-8.40438 z m -157.0469,-22.11106 a 58.270954,88.235172 0 0 0 88.01327,0.31659 50.677255,76.736624 0 0 1 43.73445,75.94217 v 116.0069 H 167.46339 v -116.0069 a 50.970484,77.180639 0 0 1 45.53852,-76.25876 z M 27.202844,428.29978 v -65.59449 a 43.627936,66.062389 0 0 1 38.46685,-65.18431 51.989552,78.723733 0 0 0 77.831796,0.30065 43.044109,65.178346 0 0 1 15.39778,8.22719 66.102654,100.09411 0 0 0 -7.215,45.6119 v 76.63906 z"
     id="path10"
     inkscape:connector-curvature="0"
     style="stroke-width:1.61806571" />
  <path
     d="m 461.59397,190.41624 v -34.4598 a 53.401785,80.862168 0 1 0 -106.80357,0 v 34.4598 a 53.401785,80.862168 0 1 0 106.80357,0 z m -91.02445,0 v -34.4598 a 37.622668,56.969079 0 1 1 75.24533,0 v 34.4598 a 37.622668,56.969079 0 1 1 -75.24533,0 z"
     id="path12"
     inkscape:connector-curvature="0"
     style="stroke-width:1.61806571" />
  <path
     d="m 157.20959,190.41624 v -34.4598 a 53.401782,80.862164 0 1 0 -106.803559,0 v 34.4598 a 53.401782,80.862164 0 1 0 106.803559,0 z m -91.024445,0 v -34.4598 a 37.622668,56.969085 0 1 1 75.245335,0 v 34.4598 a 37.622669,56.96908 0 1 1 -75.245335,0 z"
     id="path14"
     inkscape:connector-curvature="0"
     style="stroke-width:1.61806571" />
</svg>
