<?xml version="1.0" encoding="UTF-8" standalone="no"?>
<!-- Created with Inkscape (http://www.inkscape.org/) -->

<svg
   xmlns:dc="http://purl.org/dc/elements/1.1/"
   xmlns:cc="http://creativecommons.org/ns#"
   xmlns:rdf="http://www.w3.org/1999/02/22-rdf-syntax-ns#"
   xmlns:svg="http://www.w3.org/2000/svg"
   xmlns="http://www.w3.org/2000/svg"
   xmlns:sodipodi="http://sodipodi.sourceforge.net/DTD/sodipodi-0.dtd"
   xmlns:inkscape="http://www.inkscape.org/namespaces/inkscape"
   width="48"
   height="48"
   viewBox="0 0 12.7 12.7"
   version="1.1"
   id="svg14015"
   inkscape:version="0.92.2 (5c3e80d, 2017-08-06)"
   sodipodi:docname="albums.svg"
   inkscape:export-xdpi="96"
   inkscape:export-ydpi="96">
  <defs
     id="defs14009" />
  <sodipodi:namedview
     id="base"
     pagecolor="#ffffff"
     bordercolor="#666666"
     borderopacity="1.0"
     inkscape:pageopacity="0.0"
     inkscape:pageshadow="2"
     inkscape:zoom="2.8"
     inkscape:cx="74.481576"
     inkscape:cy="-7.4388091"
     inkscape:document-units="px"
     inkscape:current-layer="layer1"
     showgrid="false"
     units="px"
     inkscape:window-width="1920"
     inkscape:window-height="1017"
     inkscape:window-x="-8"
     inkscape:window-y="-8"
     inkscape:window-maximized="1" />
  <metadata
     id="metadata14012">
    <rdf:RDF>
      <cc:Work
         rdf:about="">
        <dc:format>image/svg+xml</dc:format>
        <dc:type
           rdf:resource="http://purl.org/dc/dcmitype/StillImage" />
        <dc:title />
      </cc:Work>
    </rdf:RDF>
  </metadata>
  <g
     inkscape:label="Layer 1"
     inkscape:groupmode="layer"
     id="layer1"
     transform="translate(0,-284.29999)">
    <g
       id="g6733"
       transform="matrix(0.02399486,0,0,0.02399486,0.39687523,284.69687)">
      <path
         id="path6651"
         d="M 496.2,248.1 C 496.2,111.1 385.1,0 248.1,0 111.1,0 0,111.1 0,248.1 c 0,137 111.1,248.1 248.1,248.1 137,0 248.1,-111.1 248.1,-248.1 z"
         style="fill:#ea4949"
         inkscape:connector-curvature="0" />
      <path
         id="path6653"
         d="m 248.1,109.4 c -76.6,0 -138.7,62.1 -138.7,138.7 0,76.6 62.1,138.7 138.7,138.7 76.6,0 138.7,-62.1 138.7,-138.7 0,-76.6 -62.1,-138.7 -138.7,-138.7 z m 1.5,152.1 c -8.4,0 -15.2,-6.8 -15.2,-15.2 0,-8.4 6.8,-15.3 15.2,-15.3 8.4,0 15.3,6.8 15.3,15.3 0,8.4 -6.9,15.2 -15.3,15.2 z"
         style="fill:#e3e2e2"
         inkscape:connector-curvature="0" />
      <path
         id="path6655"
         d="M 329.5,144.1 C 272,99.2 189.1,109.3 144.1,166.7 99.2,224.1 109.3,307.2 166.7,352.1 224.1,397 307.1,386.9 352.1,329.5 397,272 386.9,189.1 329.5,144.1 Z M 241.4,259 c -6.3,-4.9 -7.4,-14.1 -2.5,-20.4 4.9,-6.3 14.1,-7.4 20.4,-2.5 6.3,4.9 7.4,14.1 2.5,20.4 -5,6.4 -14.1,7.5 -20.4,2.5 z"
         style="fill:#cdcccb"
         inkscape:connector-curvature="0" />
      <path
         id="path6657"
         d="M 327.9,146.1 C 271.6,102 190.2,111.9 146.1,168.3 102,224.6 112,306 168.3,350.1 224.6,394.2 306,384.2 350.1,327.9 394.2,271.6 384.3,190.2 327.9,146.1 Z m -86.4,112.7 c -6.2,-4.8 -7.3,-13.8 -2.4,-20 4.8,-6.2 13.8,-7.3 20,-2.5 6.2,4.8 7.3,13.8 2.4,20 -4.9,6.3 -13.8,7.4 -20,2.5 z"
         style="fill:#cbcbc9"
         inkscape:connector-curvature="0" />
      <path
         id="path6659"
         d="m 260,258.1 c -5,5 -13,5.7 -18.8,1.2 -5.7,-4.5 -7,-12.4 -3.3,-18.5 l -91.8,-71.9 c -44,56.2 -34.1,137.5 22.1,181.4 56.2,44 137.4,34.1 181.4,-22.1 z"
         style="fill:#d2d2d2"
         inkscape:connector-curvature="0" />
      <g
         id="g6667">
        <path
           id="path6661"
           d="m 249.6,202.2 c -24.3,0 -44.1,19.7 -44.1,44.1 0,24.3 19.7,44.1 44.1,44.1 24.3,0 44.1,-19.7 44.1,-44.1 0,-24.4 -19.7,-44.1 -44.1,-44.1 z m 0,59.3 c -8.4,0 -15.2,-6.8 -15.2,-15.2 0,-8.4 6.8,-15.3 15.2,-15.3 8.4,0 15.3,6.8 15.3,15.3 0,8.4 -6.9,15.2 -15.3,15.2 z"
           style="fill:#dcdbdc"
           inkscape:connector-curvature="0" />
        <path
           id="path6663"
           d="m 192.6,232.9 -54.7,-11.5 c 6.9,-34.7 30.6,-63.3 62.4,-76.8 l 26.3,49.8 c -17.4,5.6 -30.6,20.3 -34,38.5 z"
           style="fill:#dcdbdc"
           inkscape:connector-curvature="0" />
        <path
           id="path6665"
           d="m 295.9,351.6 -26.3,-49.8 c 17.3,-5.6 30.5,-20.3 33.9,-38.6 l 54.7,11.5 c -6.8,34.7 -30.6,63.3 -62.3,76.9 z"
           style="fill:#dcdbdc"
           inkscape:connector-curvature="0" />
      </g>
      <path
         id="path6669"
         d="m 249.6,223 c -12.8,0 -23.2,10.4 -23.2,23.2 0,12.8 10.4,23.2 23.2,23.2 12.8,0 23.2,-10.4 23.2,-23.2 0.1,-12.8 -10.3,-23.2 -23.2,-23.2 z m 0,38.8 c -8.6,0 -15.5,-7 -15.5,-15.5 0,-8.6 7,-15.6 15.5,-15.6 8.6,0 15.5,7 15.5,15.6 0.1,8.5 -6.9,15.5 -15.5,15.5 z"
         style="fill:#a4a5a4"
         inkscape:connector-curvature="0" />
      <g
         id="g6671" />
      <g
         id="g6673" />
      <g
         id="g6675" />
      <g
         id="g6677" />
      <g
         id="g6679" />
      <g
         id="g6681" />
      <g
         id="g6683" />
      <g
         id="g6685" />
      <g
         id="g6687" />
      <g
         id="g6689" />
      <g
         id="g6691" />
      <g
         id="g6693" />
      <g
         id="g6695" />
      <g
         id="g6697" />
      <g
         id="g6699" />
    </g>
  </g>
</svg>
