<?xml version="1.0" encoding="UTF-8" standalone="no"?>
<!-- Created with Inkscape (http://www.inkscape.org/) -->

<svg
   xmlns:dc="http://purl.org/dc/elements/1.1/"
   xmlns:cc="http://creativecommons.org/ns#"
   xmlns:rdf="http://www.w3.org/1999/02/22-rdf-syntax-ns#"
   xmlns:svg="http://www.w3.org/2000/svg"
   xmlns="http://www.w3.org/2000/svg"
   xmlns:sodipodi="http://sodipodi.sourceforge.net/DTD/sodipodi-0.dtd"
   xmlns:inkscape="http://www.inkscape.org/namespaces/inkscape"
   width="210mm"
   height="297mm"
   viewBox="0 0 210 297"
   version="1.1"
   id="svg8"
   inkscape:version="0.92.2 (5c3e80d, 2017-08-06)"
   sodipodi:docname="all_icons.svg">
  <defs
     id="defs2" />
  <sodipodi:namedview
     id="base"
     pagecolor="#ffffff"
     bordercolor="#666666"
     borderopacity="1.0"
     inkscape:pageopacity="0.0"
     inkscape:pageshadow="2"
     inkscape:zoom="0.11313708"
     inkscape:cx="1943.1077"
     inkscape:cy="14.243483"
     inkscape:document-units="mm"
     inkscape:current-layer="layer1"
     showgrid="false"
     inkscape:window-width="1920"
     inkscape:window-height="1017"
     inkscape:window-x="-8"
     inkscape:window-y="-8"
     inkscape:window-maximized="1" />
  <metadata
     id="metadata5">
    <rdf:RDF>
      <cc:Work
         rdf:about="">
        <dc:format>image/svg+xml</dc:format>
        <dc:type
           rdf:resource="http://purl.org/dc/dcmitype/StillImage" />
        <dc:title></dc:title>
      </cc:Work>
    </rdf:RDF>
  </metadata>
  <g
     inkscape:label="Layer 1"
     inkscape:groupmode="layer"
     id="layer1">
    <g
       id="g1699"
       transform="matrix(0.26458333,0,0,0.26458333,-846.97569,-43.427976)">
      <path
         id="path1584"
         d="M 496.2,248.1 C 496.2,111.1 385.1,0 248.1,0 111.1,0 0,111.1 0,248.1 c 0,137 111.1,248.1 248.1,248.1 137,0 248.1,-111.1 248.1,-248.1 z"
         style="fill:#25b7d3"
         inkscape:connector-curvature="0" />
      <path
         id="path1586"
         d="m 139.3,143.5 c 0,-6.6 -2.9,-11.9 -6.5,-11.9 h -27.4 c -3.6,0 -6.5,5.3 -6.5,11.9 0,6.6 2.9,11.9 6.5,11.9 h 27.4 c 3.5,0 6.5,-5.3 6.5,-11.9"
         style="fill:#010101"
         inkscape:connector-curvature="0" />
      <g
         id="g1592">
        <path
           id="path1588"
           d="m 417.3,183.7 c 0,-11.5 -9.3,-20.9 -20.8,-20.9 H 99.8 c -11.5,0 -20.8,9.3 -20.8,20.9 v 155.1 c 0,11.5 9.3,20.8 20.8,20.8 h 296.6 c 11.5,0 20.8,-9.3 20.8,-20.8 V 183.7 Z"
           style="fill:#202121"
           inkscape:connector-curvature="0" />
        <path
           id="path1590"
           d="m 224.6,168.9 c 0,-14 -9.5,-25.3 -21.1,-25.3 H 100 c -11.7,0 -21.1,11.4 -21.1,25.3 v 60.2 c 0,14 9.4,25.3 21.1,25.3 h 103.4 c 11.6,0 21.1,-11.3 21.1,-25.3 v -60.2 z"
           style="fill:#202121"
           inkscape:connector-curvature="0" />
      </g>
      <path
         id="path1594"
         d="m 352,260.7 c 0,-57.4 -46.5,-103.9 -103.9,-103.9 -57.4,0 -103.9,46.5 -103.9,103.9 0,57.4 46.5,103.9 103.9,103.9 57.4,0 103.9,-46.5 103.9,-103.9"
         style="fill:#010101"
         inkscape:connector-curvature="0" />
      <path
         id="path1596"
         d="m 346.7,260.7 c 0,-54.5 -44.1,-98.6 -98.6,-98.6 -54.5,0 -98.6,44.1 -98.6,98.6 0,54.4 44.2,98.6 98.6,98.6 54.4,0 98.6,-44.1 98.6,-98.6"
         style="fill:#231f20"
         inkscape:connector-curvature="0" />
      <path
         id="path1598"
         d="m 341.4,260.7 c 0,-51.5 -41.8,-93.3 -93.3,-93.3 -51.5,0 -93.3,41.8 -93.3,93.3 0,51.5 41.8,93.3 93.3,93.3 51.5,0 93.3,-41.8 93.3,-93.3"
         style="fill:#979797"
         inkscape:connector-curvature="0" />
      <path
         id="path1600"
         d="m 337.2,260.7 c 0,-49.2 -39.9,-89.1 -89.1,-89.1 -49.2,0 -89.1,39.9 -89.1,89.1 0,49.2 39.9,89.1 89.1,89.1 49.2,0 89.1,-39.9 89.1,-89.1"
         style="fill:#231f20"
         inkscape:connector-curvature="0" />
      <path
         id="path1602"
         d="m 330.6,260.7 c 0,-45.2 -36.7,-81.9 -81.9,-81.9 -45.2,0 -81.9,36.7 -81.9,81.9 0,45.2 36.7,81.9 81.9,81.9 45.2,0 81.9,-36.7 81.9,-81.9"
         style="fill:#010101"
         inkscape:connector-curvature="0" />
      <path
         id="path1604"
         d="m 326.4,260.7 c 0,-42.9 -34.8,-77.7 -77.7,-77.7 -42.9,0 -77.7,34.8 -77.7,77.7 0,42.9 34.8,77.7 77.7,77.7 42.9,0 77.7,-34.8 77.7,-77.7"
         style="fill:#231f20"
         inkscape:connector-curvature="0" />
      <path
         id="path1606"
         d="m 322.3,260.7 c 0,-40.6 -32.9,-73.6 -73.6,-73.6 -40.6,0 -73.6,33 -73.6,73.6 0,40.6 32.9,73.6 73.6,73.6 40.6,0 73.6,-33 73.6,-73.6"
         style="fill:#595a5c"
         inkscape:connector-curvature="0" />
      <path
         id="path1608"
         d="m 319,260.7 c 0,-38.8 -31.5,-70.3 -70.3,-70.3 -38.8,0 -70.3,31.5 -70.3,70.3 0,38.8 31.5,70.3 70.3,70.3 38.8,0 70.3,-31.5 70.3,-70.3"
         style="fill:#231f20"
         inkscape:connector-curvature="0" />
      <path
         id="path1610"
         d="m 309.6,260.7 c 0,-33.6 -27.3,-60.9 -60.9,-60.9 -33.6,0 -60.9,27.3 -60.9,60.9 0,33.7 27.3,60.9 60.9,60.9 33.6,0 60.9,-27.2 60.9,-60.9"
         style="fill:#a5b6b9"
         inkscape:connector-curvature="0" />
      <path
         id="path1612"
         d="m 257.3,240.2 c 0,16.2 -13.1,29.2 -29.2,29.2 -16.2,0 -29.2,-13.1 -29.2,-29.2 0,-16.1 13.1,-29.2 29.2,-29.2 16.1,0 29.2,13.1 29.2,29.2"
         style="fill:#ffffff"
         inkscape:connector-curvature="0" />
      <g
         id="g1618">
        <path
           id="path1614"
           d="m 97.7,155.4 c -4.2,0 -7.6,3.4 -7.6,7.6 v 5.7 0.4 l 13.8,-13.8 h -6.2 z"
           style="fill:#66b9cc"
           inkscape:connector-curvature="0" />
        <path
           id="path1616"
           d="m 156.6,163 c 0,-4.2 -3.4,-7.6 -7.6,-7.6 H 139 L 95.4,199 c 0.7,0.2 1.5,0.4 2.3,0.4 h 36.1 l 22.8,-22.8 z"
           style="fill:#66b9cc"
           inkscape:connector-curvature="0" />
      </g>
      <g
         id="g1624">
        <path
           id="path1620"
           d="M 103.8,155.4 90,169.2 v 5.6 16.9 c 0,3.4 2.2,6.3 5.3,7.2 l 43.6,-43.6 h -35.1 z"
           style="fill:#d7e4f4"
           inkscape:connector-curvature="0" />
        <path
           id="path1622"
           d="m 156.6,191.8 v -15.1 l -22.8,22.8 h 15.1 c 4.3,-0.1 7.7,-3.5 7.7,-7.7"
           style="fill:#d7e4f4"
           inkscape:connector-curvature="0" />
      </g>
      <g
         id="g1626" />
      <g
         id="g1628" />
      <g
         id="g1630" />
      <g
         id="g1632" />
      <g
         id="g1634" />
      <g
         id="g1636" />
      <g
         id="g1638" />
      <g
         id="g1640" />
      <g
         id="g1642" />
      <g
         id="g1644" />
      <g
         id="g1646" />
      <g
         id="g1648" />
      <g
         id="g1650" />
      <g
         id="g1652" />
      <g
         id="g1654" />
    </g>
    <g
       id="g2209"
       transform="matrix(0.26458333,0,0,0.26458333,-722.21501,234.86642)">
      <path
         id="path2031"
         d="M 496.2,248.1 C 496.2,111.1 385.1,0 248.1,0 111.1,0 0,111.1 0,248.1 c 0,137 111.1,248.1 248.1,248.1 137,0 248.1,-111.1 248.1,-248.1 z"
         style="fill:#334d5c"
         inkscape:connector-curvature="0" />
      <g
         id="g2041">
        <rect
           id="rect2033"
           height="150.8"
           width="38.099998"
           style="fill:#f2f1df"
           y="172.7"
           x="288.70001" />
        <rect
           id="rect2035"
           height="150.8"
           width="38.099998"
           style="fill:#f2f1df"
           y="172.7"
           x="249" />
        <rect
           id="rect2037"
           height="150.8"
           width="38.099998"
           style="fill:#f2f1df"
           y="172.7"
           x="209.3" />
        <rect
           id="rect2039"
           height="150.8"
           width="38.099998"
           style="fill:#f2f1df"
           y="172.7"
           x="169.60001" />
      </g>
      <rect
         id="rect2043"
         height="100"
         width="20.1"
         style="fill:#3a3a38"
         y="172.8"
         x="238.2" />
      <rect
         id="rect2045"
         height="100"
         width="4.3000002"
         style="fill:#565656"
         y="172.8"
         x="238.2" />
      <polygon
         id="polygon2047"
         points="254.5,268.8 258.3,272.8 238.2,272.8 241.9,268.8 "
         style="fill:#282828" />
      <rect
         id="rect2049"
         height="96"
         width="12.4"
         style="fill:#444443"
         y="172.8"
         x="242" />
      <rect
         id="rect2051"
         height="100"
         width="20.1"
         style="fill:#3a3a38"
         y="172.8"
         x="198.3" />
      <rect
         id="rect2053"
         height="100"
         width="4.3000002"
         style="fill:#565656"
         y="172.8"
         x="198.3" />
      <polygon
         id="polygon2055"
         points="214.7,268.8 218.5,272.8 198.3,272.8 202.1,268.8 "
         style="fill:#282828" />
      <rect
         id="rect2057"
         height="96"
         width="12.4"
         style="fill:#444443"
         y="172.8"
         x="202.2" />
      <rect
         id="rect2059"
         height="100"
         width="20.1"
         style="fill:#3a3a38"
         y="172.8"
         x="278" />
      <rect
         id="rect2061"
         height="100"
         width="4.3000002"
         style="fill:#565656"
         y="172.8"
         x="278" />
      <polygon
         id="polygon2063"
         points="294.3,268.8 298.1,272.8 278,272.8 281.7,268.8 "
         style="fill:#282828" />
      <rect
         id="rect2065"
         height="96"
         width="12.4"
         style="fill:#444443"
         y="172.8"
         x="281.79999" />
      <g
         id="g2073">
        <rect
           id="rect2067"
           height="150.8"
           width="38.099998"
           style="fill:#f2f1df"
           y="172.7"
           x="129.89999" />
        <rect
           id="rect2069"
           height="150.8"
           width="38.099998"
           style="fill:#f2f1df"
           y="172.7"
           x="90.199997" />
        <rect
           id="rect2071"
           height="150.8"
           width="38.099998"
           style="fill:#f2f1df"
           y="172.7"
           x="50.5" />
      </g>
      <rect
         id="rect2075"
         height="100"
         width="20.1"
         style="fill:#3a3a38"
         y="172.8"
         x="79.400002" />
      <rect
         id="rect2077"
         height="100"
         width="4.3000002"
         style="fill:#565656"
         y="172.8"
         x="79.400002" />
      <polygon
         id="polygon2079"
         points="95.7,268.8 99.5,272.8 79.4,272.8 83.1,268.8 "
         style="fill:#282828" />
      <rect
         id="rect2081"
         height="96"
         width="12.4"
         style="fill:#444443"
         y="172.8"
         x="83.199997" />
      <rect
         id="rect2083"
         height="100"
         width="20.1"
         style="fill:#3a3a38"
         y="172.8"
         x="119.2" />
      <rect
         id="rect2085"
         height="100"
         width="4.3000002"
         style="fill:#565656"
         y="172.8"
         x="119.2" />
      <polygon
         id="polygon2087"
         points="135.5,268.8 139.3,272.8 119.2,272.8 123,268.8 "
         style="fill:#282828" />
      <rect
         id="rect2089"
         height="96"
         width="12.4"
         style="fill:#444443"
         y="172.8"
         x="123" />
      <g
         id="g2097">
        <rect
           id="rect2091"
           height="150.8"
           width="38.099998"
           style="fill:#f2f1df"
           y="172.7"
           x="407.60001" />
        <rect
           id="rect2093"
           height="150.8"
           width="38.099998"
           style="fill:#f2f1df"
           y="172.7"
           x="367.89999" />
        <rect
           id="rect2095"
           height="150.8"
           width="38.099998"
           style="fill:#f2f1df"
           y="172.7"
           x="328.20001" />
      </g>
      <rect
         id="rect2099"
         height="100"
         width="20.1"
         style="fill:#3a3a38"
         y="172.8"
         x="357.10001" />
      <rect
         id="rect2101"
         height="100"
         width="4.3000002"
         style="fill:#565656"
         y="172.8"
         x="357.10001" />
      <polygon
         id="polygon2103"
         points="373.4,268.8 377.2,272.8 357.1,272.8 360.8,268.8 "
         style="fill:#282828" />
      <rect
         id="rect2105"
         height="96"
         width="12.4"
         style="fill:#444443"
         y="172.8"
         x="360.89999" />
      <rect
         id="rect2107"
         height="100"
         width="20.1"
         style="fill:#3a3a38"
         y="172.8"
         x="396.89999" />
      <rect
         id="rect2109"
         height="100"
         width="4.3000002"
         style="fill:#565656"
         y="172.8"
         x="396.89999" />
      <polygon
         id="polygon2111"
         points="413.2,268.8 417,272.8 396.9,272.8 400.7,268.8 "
         style="fill:#282828" />
      <rect
         id="rect2113"
         height="96"
         width="12.4"
         style="fill:#444443"
         y="172.8"
         x="400.70001" />
      <g
         id="g2115" />
      <g
         id="g2117" />
      <g
         id="g2119" />
      <g
         id="g2121" />
      <g
         id="g2123" />
      <g
         id="g2125" />
      <g
         id="g2127" />
      <g
         id="g2129" />
      <g
         id="g2131" />
      <g
         id="g2133" />
      <g
         id="g2135" />
      <g
         id="g2137" />
      <g
         id="g2139" />
      <g
         id="g2141" />
      <g
         id="g2143" />
    </g>
    <g
       id="g3007"
       transform="matrix(0.26458333,0,0,0.26458333,39.356876,-63.211973)">
      <path
         id="path2727"
         d="M 496.2,248.1 C 496.2,111.1 385.1,0 248.1,0 111.1,0 0,111.1 0,248.1 c 0,137 111.1,248.1 248.1,248.1 137,0 248.1,-111.1 248.1,-248.1 z"
         style="fill:#32bea6"
         inkscape:connector-curvature="0" />
      <path
         id="path2729"
         d="m 397.2,109 c -0.9,-3.4 -2.6,-6.8 -5,-9.6 -2.3,-2.8 -5,-5 -7.5,-7 l -0.6,-0.5 c -1.1,-0.8 -2,-1.6 -3,-2.5 -1,-0.9 -2.1,-1.9 -3.1,-3.1 -1.9,-2.1 -3.7,-4.5 -5.4,-7.1 -0.8,-1.3 -1.6,-2.6 -2.3,-3.9 -0.4,-0.7 -0.7,-1.3 -1,-2 -0.4,-0.8 -0.7,-1.4 -0.9,-1.9 v 0 c 0,-0.1 -0.1,-0.1 -0.1,-0.2 -0.8,-1.6 -2.4,-2.6 -4.2,-2.4 -0.5,0 -1,0.2 -1.5,0.4 -1,0.5 -1.8,1.3 -2.2,2.4 -0.1,0.3 -0.2,0.7 -0.2,1 -0.1,0.3 -0.1,0.7 -0.1,1.1 l 5.5,67.7 c -5.6,-3.3 -13.8,-3.9 -21.6,-0.8 -11.9,4.6 -18.7,15.7 -15.2,24.7 3.5,9 16,12.5 27.9,7.9 10.1,-3.9 16.5,-12.5 16.1,-20.4 v 0 l -5.4,-67.2 c 1.7,2.2 3.5,4.2 5.3,6 1.3,1.3 2.6,2.4 3.9,3.4 1.1,0.9 2.2,1.7 3.3,2.4 l 0.7,0.5 c 2.4,1.7 4.8,3.5 6.9,5.7 2,2.1 3.4,4.5 4.2,7 0.8,2.5 1.1,5.3 0.9,8.5 -0.2,2.7 -0.6,5.7 -1.5,8.9 -0.8,2.8 -1.7,5.7 -3,8.8 -0.4,1.1 0.1,2.3 1.1,2.7 0.3,0.1 0.7,0.2 1,0.2 0.7,-0.1 1.4,-0.5 1.8,-1.2 1.5,-3.2 2.7,-6.2 3.7,-9.2 1.2,-3.5 1.9,-6.8 2.2,-9.9 0.3,-3.7 0.1,-7.2 -0.7,-10.4 z"
         style="fill:#a7dcbd"
         inkscape:connector-curvature="0" />
      <path
         id="path2731"
         d="m 332.4,256.7 c -11.5,-11.2 -10.8,-26.5 -1,-36.6 9.8,-10.1 25.1,-11.2 36.6,0 14.2,13.9 14.9,30.5 5.1,40.6 -9.8,10.1 -26.5,9.8 -40.7,-4 z"
         style="fill:#878787"
         inkscape:connector-curvature="0" />
      <g
         id="g2827">
        <circle
           id="circle2733"
           r="1.7"
           cy="223.10001"
           cx="334.5"
           style="fill:#707070" />
        <circle
           id="circle2735"
           r="1.7"
           cy="227.10001"
           cx="330.60001"
           style="fill:#707070" />
        <circle
           id="circle2737"
           r="1.7"
           cy="238.89999"
           cx="334.70001"
           style="fill:#707070" />
        <circle
           id="circle2739"
           r="1.7"
           cy="230.89999"
           cx="342.5"
           style="fill:#707070" />
        <circle
           id="circle2741"
           r="1.7"
           cy="242.89999"
           cx="330.79999"
           style="fill:#707070" />
        <circle
           id="circle2743"
           r="1.7"
           cy="234.89999"
           cx="338.60001"
           style="fill:#707070" />
        <circle
           id="circle2745"
           r="1.7"
           cy="235.10001"
           cx="330.79999"
           style="fill:#707070" />
        <circle
           id="circle2747"
           r="1.7"
           cy="227.10001"
           cx="338.60001"
           style="fill:#707070" />
        <circle
           id="circle2749"
           r="1.7"
           cy="231.10001"
           cx="334.70001"
           style="fill:#707070" />
        <circle
           id="circle2751"
           r="1.7"
           cy="219.10001"
           cx="338.39999"
           style="fill:#707070" />
        <circle
           id="circle2753"
           r="1.7"
           cy="222.89999"
           cx="350.29999"
           style="fill:#707070" />
        <circle
           id="circle2755"
           r="1.7"
           cy="226.89999"
           cx="346.39999"
           style="fill:#707070" />
        <circle
           id="circle2757"
           r="1.7"
           cy="218.89999"
           cx="354.20001"
           style="fill:#707070" />
        <circle
           id="circle2759"
           r="1.7"
           cy="219.10001"
           cx="346.39999"
           style="fill:#707070" />
        <circle
           id="circle2761"
           r="1.7"
           cy="223.10001"
           cx="342.5"
           style="fill:#707070" />
        <circle
           id="circle2763"
           r="1.7"
           cy="244.7"
           cx="336.70001"
           style="fill:#707070" />
        <circle
           id="circle2765"
           r="1.7"
           cy="236.7"
           cx="344.5"
           style="fill:#707070" />
        <circle
           id="circle2767"
           r="1.7"
           cy="248.7"
           cx="332.79999"
           style="fill:#707070" />
        <circle
           id="circle2769"
           r="1.7"
           cy="240.7"
           cx="340.60001"
           style="fill:#707070" />
        <circle
           id="circle2771"
           r="1.7"
           cy="228.7"
           cx="352.29999"
           style="fill:#707070" />
        <circle
           id="circle2773"
           r="1.7"
           cy="220.7"
           cx="360.10001"
           style="fill:#707070" />
        <circle
           id="circle2775"
           r="1.7"
           cy="232.7"
           cx="348.39999"
           style="fill:#707070" />
        <circle
           id="circle2777"
           r="1.7"
           cy="224.7"
           cx="356.20001"
           style="fill:#707070" />
        <circle
           id="circle2779"
           r="1.7"
           cy="259.29999"
           cx="339.70001"
           style="fill:#707070" />
        <circle
           id="circle2781"
           r="1.7"
           cy="251.3"
           cx="347.5"
           style="fill:#707070" />
        <circle
           id="circle2783"
           r="1.7"
           cy="243.3"
           cx="355.29999"
           style="fill:#707070" />
        <circle
           id="circle2785"
           r="1.7"
           cy="255.3"
           cx="343.5"
           style="fill:#707070" />
        <circle
           id="circle2787"
           r="1.7"
           cy="247.3"
           cx="351.29999"
           style="fill:#707070" />
        <circle
           id="circle2789"
           r="1.7"
           cy="235.3"
           cx="363"
           style="fill:#707070" />
        <circle
           id="circle2791"
           r="1.7"
           cy="227.3"
           cx="370.79999"
           style="fill:#707070" />
        <circle
           id="circle2793"
           r="1.7"
           cy="239.3"
           cx="359.10001"
           style="fill:#707070" />
        <circle
           id="circle2795"
           r="1.7"
           cy="231.3"
           cx="366.89999"
           style="fill:#707070" />
        <circle
           id="circle2797"
           r="1.7"
           cy="257.20001"
           cx="349.5"
           style="fill:#707070" />
        <circle
           id="circle2799"
           r="1.7"
           cy="249.10001"
           cx="357.29999"
           style="fill:#707070" />
        <circle
           id="circle2801"
           r="1.7"
           cy="261.20001"
           cx="345.60001"
           style="fill:#707070" />
        <circle
           id="circle2803"
           r="1.7"
           cy="253.2"
           cx="353.39999"
           style="fill:#707070" />
        <circle
           id="circle2805"
           r="1.7"
           cy="241.10001"
           cx="365.10001"
           style="fill:#707070" />
        <circle
           id="circle2807"
           r="1.7"
           cy="233.10001"
           cx="372.89999"
           style="fill:#707070" />
        <path
           id="path2809"
           d="m 362.4,244 c 0.7,0.6 0.7,1.7 0,2.4 -0.6,0.7 -1.7,0.7 -2.4,0 -0.7,-0.6 -0.7,-1.7 0,-2.4 0.6,-0.7 1.7,-0.7 2.4,0 z"
           style="fill:#707070"
           inkscape:connector-curvature="0" />
        <circle
           id="circle2811"
           r="1.7"
           cy="237.2"
           cx="369"
           style="fill:#707070" />
        <circle
           id="circle2813"
           r="1.7"
           cy="258.79999"
           cx="355.10001"
           style="fill:#707070" />
        <circle
           id="circle2815"
           r="1.7"
           cy="250.8"
           cx="362.89999"
           style="fill:#707070" />
        <circle
           id="circle2817"
           r="1.7"
           cy="262.79999"
           cx="351.20001"
           style="fill:#707070" />
        <circle
           id="circle2819"
           r="1.7"
           cy="254.8"
           cx="359"
           style="fill:#707070" />
        <circle
           id="circle2821"
           r="1.7"
           cy="242.8"
           cx="370.70001"
           style="fill:#707070" />
        <path
           id="path2823"
           d="m 368,245.6 c 0.7,0.6 0.7,1.7 0,2.4 -0.6,0.7 -1.7,0.7 -2.4,0 -0.7,-0.6 -0.7,-1.7 0,-2.4 0.6,-0.6 1.7,-0.7 2.4,0 z"
           style="fill:#707070"
           inkscape:connector-curvature="0" />
        <circle
           id="circle2825"
           r="1.7"
           cy="238.8"
           cx="374.60001"
           style="fill:#707070" />
      </g>
      <g
         id="g2833">
        <path
           id="path2829"
           d="m 379.1,238.6 c -3.4,4.4 -8,10 -13.6,15.8 -5.1,5.3 -10.1,9.6 -14.1,12.9 2.8,0.5 5.5,0.6 8.1,0.3 3.1,-2.7 6.4,-5.8 9.9,-9.4 3.9,-4 7.3,-7.9 10.2,-11.5 0.3,-2.6 0.1,-5.3 -0.5,-8.1 z"
           style="fill:#adadac"
           inkscape:connector-curvature="0" />
        <path
           id="path2831"
           d="m 369.7,221.8 c -0.5,-0.6 -1.1,-1.1 -1.7,-1.7 -0.7,-0.7 -1.5,-1.4 -2.3,-2 -3.3,4.7 -9.1,12.3 -16.8,20.2 -7.2,7.4 -14,12.9 -18.5,16.3 0.6,0.7 1.3,1.4 2,2.1 0.6,0.6 1.2,1.2 1.9,1.7 4.6,-3.5 11.3,-9 18.5,-16.4 7.6,-7.9 13.4,-15.4 16.9,-20.2 z"
           style="fill:#adadac"
           inkscape:connector-curvature="0" />
      </g>
      <path
         id="path2835"
         d="m 379.6,243.7 c 0,0 -2.8,6.1 -10,13.6 -7.3,7.5 -13.3,10.4 -13.3,10.4 l 85.6,74 v 0 c 1.1,1 5.1,-1.3 9,-5.3 3.8,-4 6.1,-8 5,-9.1 v 0 z"
         style="fill:#3a3a38"
         inkscape:connector-curvature="0" />
      <path
         id="path2837"
         d="m 369.6,257.3 c -7.3,7.5 -13.3,10.4 -13.3,10.4 l 85.6,74 v 0 c 1.1,1 5.1,-1.3 9,-5.3 z"
         style="fill:#545454"
         inkscape:connector-curvature="0" />
      <circle
         id="circle2839"
         r="4.5999999"
         cy="268.5"
         cx="381.20001"
         style="fill:#3a3a38" />
      <circle
         id="circle2841"
         r="3"
         cy="268.5"
         cx="381.20001"
         style="fill:#727270" />
      <path
         id="path2843"
         d="m 150.8,299.5 c 8.4,-7.9 13.6,-37.1 13.6,-37.1 -18.2,-25 -40.9,-46.3 -41.7,-93.7 -0.7,-47.4 52.9,-68.1 52.9,-68.1 46.1,-19.7 83.3,15.8 83.3,15.8 5.8,7.4 11.1,20.1 14.8,30.8 1.2,3.3 0.9,7.6 1.4,8.8 1.1,2.7 4.3,9.5 4.3,9.5 6.8,12.9 19.7,18.9 19.7,18.9 13.6,6.1 3.4,16.7 3.4,16.7 -1.4,2.4 -0.9,4.2 -0.7,8.1 0.1,3.8 -12.2,6.2 -12.3,9.3 -0.2,3.2 11.9,10.3 11.9,13.2 0,2.9 -2.2,6.3 -2.2,6.3 1.5,25.7 -25.7,25.7 -25.7,25.7 -26,-0.3 -38.7,13.7 -43,18.1 -15.3,15.9 -25.1,56 -25.1,56 0,0 -19.5,-5 -31.5,-13.6 -12.2,-8.2 -23.1,-24.7 -23.1,-24.7 z"
         style="fill:#dfa17c"
         inkscape:connector-curvature="0" />
      <path
         id="path2845"
         d="m 202.8,224.2 c 0,0 -1.7,18.5 12,27.9 9.3,6.4 30,7.3 30,7.3 0,0 -15.7,-3 -27.8,-10.9 -8.8,-5.7 -12.8,-14.3 -14.2,-24.3 z"
         style="fill:#c98d6f"
         inkscape:connector-curvature="0" />
      <path
         id="path2847"
         d="m 269.6,150.9 c 0,0 -16.2,-1.4 -23.4,0.7 -2.9,0.8 -8.3,8.4 -8.3,8.4 0,0 7.5,-1.7 10.3,-2.6 2.8,-0.9 21.9,-2.3 21.9,-2.3 0,0 2.5,-3.2 -0.5,-4.2 z"
         style="fill:#3a3a38"
         inkscape:connector-curvature="0" />
      <path
         id="path2849"
         d="m 271.7,164.1 c 0,0 -1,4.4 -4.8,7.2 -4,3.1 -11.1,4.5 -18.7,-1.4 0,0 10.5,-0.9 15.7,-2 5.1,-1.2 7.8,-3.8 7.8,-3.8 z"
         style="fill:#644b44"
         inkscape:connector-curvature="0" />
      <g
         id="g2859">
        <path
           id="path2851"
           d="m 274.7,138.8 c -7.4,1.1 -42.3,6.1 -57.3,14.6 -7.6,4.3 -15.8,19 -23.8,31 -1,1.4 2.7,11.5 1.8,13 -0.8,1.3 -7.3,-3.3 -7.3,-3.3 -8.6,14.7 -14.7,29.2 -14.9,39.6 -0.3,21.2 -9.7,31.2 -9.7,31.2 0,0 -86.4,-87.3 -20.8,-146.7 21.1,-19.1 89,-52.8 131.5,12.4 0.8,1.3 2.4,7.9 0.5,8.2 z"
           style="fill:#3a3a38"
           inkscape:connector-curvature="0" />
        <path
           id="path2853"
           d="m 123,116.5 c 0,0 14.6,11.9 36.1,9.8 0,0.1 -21,21.2 -36.1,-9.8 z"
           style="fill:#3a3a38"
           inkscape:connector-curvature="0" />
        <path
           id="path2855"
           d="m 118.4,129 c 0,0 16.7,4 34.1,-4.8 0,0 -6.4,25.5 -34.1,4.8 z"
           style="fill:#3a3a38"
           inkscape:connector-curvature="0" />
        <path
           id="path2857"
           d="m 145.6,102.6 c 0,0 -6.1,18.6 3.1,37.2 0,0 -24.6,-13.5 -3.1,-37.2 z"
           style="fill:#3a3a38"
           inkscape:connector-curvature="0" />
      </g>
      <ellipse
         id="ellipse2861"
         ry="14.1"
         rx="17.698999"
         cy="202.095"
         cx="175.98801"
         style="fill:#dfa17c"
         transform="matrix(-0.331,-0.9436,0.9436,-0.331,43.5393,435.0576)" />
      <path
         id="path2863"
         d="m 358.2,344.4 c 0,0 41.2,-1 47.2,24.7 0,0 -34.7,17.8 -47.2,-24.7 z"
         style="fill:#15252d"
         inkscape:connector-curvature="0" />
      <path
         id="path2865"
         d="m 432.7,300 c 0,0 9.8,-15.3 5,-17.6 -4.8,-2.3 -5.5,-1.1 -8.9,3.3 0,0 5.1,-8.1 0.7,-11.1 -2.6,-1.8 -5.4,-4.7 -12.1,5 0,0 7.8,-8.5 2.1,-12.5 -5,-3.6 -7.1,-2.4 -10.2,2.2 0,0 3.8,-5.2 -0.4,-8.1 -6.1,-4.2 -9.4,-0.1 -13.1,5.6 -8.6,13.3 -15.8,20.1 -14.6,28.9 0,0 -3.4,23.5 -15.7,57.3 0,0 -11.7,43.8 30.6,19.2 0,0 9.2,-18.4 14.3,-24.8 11.7,-14.5 19,-33.2 22.3,-47.4 z"
         style="fill:#dfa17c"
         inkscape:connector-curvature="0" />
      <g
         id="g2873">
        <polygon
           id="polygon2867"
           points="400.7,282.4 400.1,282.1 410,268.3 "
           style="fill:#c48769" />
        <polygon
           id="polygon2869"
           points="411,289.3 410.3,289 419.8,276.6 "
           style="fill:#c48769" />
        <polygon
           id="polygon2871"
           points="421.7,296.6 421,296.2 429.4,285 "
           style="fill:#c48769" />
      </g>
      <path
         id="path2875"
         d="m 188.6,489 c 17.7,4.4 36.2,6.8 55.1,7.2 l -36,-42 c 0,-0.1 -11.1,20.6 -19.1,34.8 z"
         style="fill:#22a85b"
         inkscape:connector-curvature="0" />
      <path
         id="path2877"
         d="M 358.2,344.4 279,444.1 218.9,344 v 0 c -16.8,-38.9 -80.6,-50.3 -80.6,-50.3 -19.8,-0.8 -67.4,62.9 -91.8,98.9 33.9,47.2 84,82 142.1,96.4 8,-14.2 19.1,-34.9 19.1,-34.9 l 36,42 c 1.5,0 2.9,0.1 4.4,0.1 25.3,0 49.6,-3.8 72.6,-10.8 l 84.7,-116.3 c -22.3,7.6 -47.2,-24.7 -47.2,-24.7 z"
         style="fill:#334d5c"
         inkscape:connector-curvature="0" />
      <g
         id="g2879" />
      <g
         id="g2881" />
      <g
         id="g2883" />
      <g
         id="g2885" />
      <g
         id="g2887" />
      <g
         id="g2889" />
      <g
         id="g2891" />
      <g
         id="g2893" />
      <g
         id="g2895" />
      <g
         id="g2897" />
      <g
         id="g2899" />
      <g
         id="g2901" />
      <g
         id="g2903" />
      <g
         id="g2905" />
      <g
         id="g2907" />
    </g>
    <g
       id="g3622"
       transform="matrix(0.26458333,0,0,0.26458333,39.356876,202.64141)">
      <path
         id="path3534"
         d="M 496.2,248.1 C 496.2,111.1 385.1,0 248.1,0 111.1,0 0,111.1 0,248.1 c 0,137 111.1,248.1 248.1,248.1 137,0 248.1,-111.1 248.1,-248.1 z"
         style="fill:#fabc3d"
         inkscape:connector-curvature="0" />
      <path
         id="path3536"
         d="m 199.5,131.8 c -4,12 60.2,209.3 143.6,190.4 83.4,-18.9 56.4,-224.5 47.6,-233.7 -19.9,19.1 -56.1,36.5 -90.5,44.3 -34.3,7.8 -74.5,7.6 -100.7,-1 z"
         style="fill:#3a3a38"
         inkscape:connector-curvature="0" />
      <g
         id="g3544">
        <path
           id="path3538"
           d="m 375.2,264.9 c 1.6,-6.3 -17.1,-34.6 -51.1,-26.9 -34,7.7 -38.7,41.4 -34.6,46.3 0,0 9.9,-12.6 40.6,-19.6 30.8,-7 45.1,0.2 45.1,0.2 z"
           style="fill:#ffffff"
           inkscape:connector-curvature="0" />
        <path
           id="path3540"
           d="m 290.2,178.9 c 2.8,6.9 -7.3,7.1 -18.1,11.5 -10.8,4.3 -18.1,11.5 -21,4.2 -2.9,-7.2 4.7,-13.8 15.5,-18.1 10.7,-4.3 20.8,-4.5 23.6,2.4 z"
           style="fill:#ffffff"
           inkscape:connector-curvature="0" />
        <path
           id="path3542"
           d="m 325.8,170.8 c 0.5,7.4 9.7,3.3 21.3,2.5 11.6,-0.7 21.3,2.5 20.8,-5.2 -0.5,-7.8 -10.1,-10.4 -21.8,-9.7 -11.6,0.8 -20.8,5 -20.3,12.4 z"
           style="fill:#ffffff"
           inkscape:connector-curvature="0" />
      </g>
      <path
         id="path3546"
         d="m 288.7,206.4 c -1.7,-3.8 -6.1,-5.5 -9.8,-3.8 -17.4,7.7 -42.8,12 -69.7,12 -9.8,0 -19.5,-0.6 -28.7,-1.8 -34.8,-4.4 -72,-18.4 -92.6,-34.6 -3.2,-2.6 -7.9,-2 -10.5,1.2 -1.2,1.5 -3.7,4.7 -5.3,25.9 -1,13.6 -1.2,30.2 -0.5,46.8 1,26.1 5.1,75.8 21,114.9 14.2,34.8 34.7,54.1 60.9,57.5 2.5,0.3 5.1,0.5 7.6,0.5 26.3,0 50.8,-17.2 73,-51.2 22.5,-34.6 37,-78.3 43.6,-101.3 0.7,-2.4 15.8,-55.2 11,-66.1 z"
         style="fill:#e5aa17"
         inkscape:connector-curvature="0" />
      <path
         id="path3548"
         d="m 85.3,186.5 c -7.9,9.9 -15.1,217.3 69.7,228.1 84.8,10.8 129.9,-191.7 124.7,-203.3 -25.2,11.1 -65.2,15.1 -100.2,10.6 -34.9,-4.5 -72.6,-18.4 -94.2,-35.4 z"
         style="fill:#3a3a38"
         inkscape:connector-curvature="0" />
      <g
         id="g3556">
        <path
           id="path3550"
           d="m 120.7,329.1 c -3.7,5.5 2.9,50.2 38.2,54.7 35.3,4.5 52.9,-37.1 50.7,-43.3 0,0 -15.2,19.6 -47.2,15.5 -31.9,-4.1 -41.7,-26.9 -41.7,-26.9 z"
           style="fill:#ffffff"
           inkscape:connector-curvature="0" />
        <path
           id="path3552"
           d="m 154.3,261.8 c 0.2,7.5 -9.3,4.2 -21,4.6 -11.6,0.4 -21,4.6 -21.2,-3.2 -0.2,-7.8 9.1,-11.3 20.7,-11.7 11.7,-0.4 21.2,2.8 21.5,10.3 z"
           style="fill:#ffffff"
           inkscape:connector-curvature="0" />
        <path
           id="path3554"
           d="m 190.5,266.4 c -2.1,7.2 8,6.4 19.1,9.7 11.2,3.3 19.1,9.7 21.3,2.2 2.2,-7.5 -6,-13.2 -17.1,-16.5 -11.1,-3.3 -21.2,-2.6 -23.3,4.6 z"
           style="fill:#ffffff"
           inkscape:connector-curvature="0" />
      </g>
      <g
         id="g3558" />
      <g
         id="g3560" />
      <g
         id="g3562" />
      <g
         id="g3564" />
      <g
         id="g3566" />
      <g
         id="g3568" />
      <g
         id="g3570" />
      <g
         id="g3572" />
      <g
         id="g3574" />
      <g
         id="g3576" />
      <g
         id="g3578" />
      <g
         id="g3580" />
      <g
         id="g3582" />
      <g
         id="g3584" />
      <g
         id="g3586" />
    </g>
    <g
       id="g5902"
       transform="matrix(0.26458333,0,0,0.26458333,39.356876,-196.13866)">
      <g
         id="g5715">
        <path
           id="path5709"
           d="M 496.2,248.1 C 496.2,111.1 385.1,0 248.1,0 111.1,0 0,111.1 0,248.1 c 0,137 111.1,248.1 248.1,248.1 137,0 248.1,-111.1 248.1,-248.1 z"
           style="fill:#364749"
           inkscape:connector-curvature="0" />
        <path
           id="path5711"
           d="m 319.2,414.1 50.3,50.3 c 6.3,-3.5 12.4,-7.3 18.3,-11.4 l -53.7,-53.7 z"
           style="fill:#364749"
           inkscape:connector-curvature="0" />
        <rect
           id="rect5713"
           height="21"
           width="21"
           style="fill:#364749"
           transform="matrix(0.7071,0.7071,-0.7071,0.7071,304.6771,-79.3634)"
           y="317.59601"
           x="237.63901" />
      </g>
      <rect
         id="rect5717"
         height="100.599"
         width="21"
         style="fill:#485e60"
         transform="matrix(-0.7071,0.7071,-0.7071,-0.7071,759.2929,427.6666)"
         y="320.789"
         x="280.57401" />
      <g
         id="g5723">
        <rect
           id="rect5719"
           height="50.299999"
           width="21"
           style="fill:#364749"
           transform="matrix(-0.7071,0.7071,-0.7071,-0.7071,487.3748,314.9481)"
           y="233.263"
           x="167.96001" />
        <rect
           id="rect5721"
           height="62.898998"
           width="21"
           style="fill:#364749"
           transform="matrix(-0.7071,0.7071,-0.7071,-0.7071,584.1177,355.0372)"
           y="267.04401"
           x="208.028" />
      </g>
      <path
         id="path5725"
         d="m 43.1,108.3 c -4,5.9 -7.8,12 -11.4,18.3 l 71.1,71.1 14.8,-14.8 z"
         style="fill:#3f5356"
         inkscape:connector-curvature="0" />
      <rect
         id="rect5727"
         height="21"
         width="71.299004"
         style="fill:#364749"
         transform="matrix(-0.7071,-0.7071,0.7071,-0.7071,78.8454,463.6447)"
         y="204.993"
         x="99.796997" />
      <path
         id="path5729"
         d="m 319.2,414.1 -71.1,71.1 10.7,10.7 c 40.1,-1.7 77.8,-12.9 110.8,-31.5 z"
         style="fill:#395154"
         inkscape:connector-curvature="0" />
      <rect
         id="rect5731"
         height="21"
         width="100.599"
         style="fill:#485e60"
         transform="matrix(-0.7071,0.7071,-0.7071,-0.7071,612.5194,488.5234)"
         y="360.61899"
         x="154.784" />
      <rect
         id="rect5733"
         height="100.599"
         width="100.599"
         style="fill:#3f5356"
         transform="matrix(0.7071,0.7071,-0.7071,0.7071,365.4908,-54.1404)"
         y="363.81699"
         x="197.799" />
      <rect
         id="rect5735"
         height="100.599"
         width="50.299999"
         style="fill:#395154"
         transform="matrix(-0.7071,-0.7071,0.7071,-0.7071,18.0064,610.4235)"
         y="251.183"
         x="110.276" />
      <rect
         id="rect5737"
         height="100.599"
         width="62.898998"
         style="fill:#364749"
         transform="matrix(0.7071,0.7071,-0.7071,0.7071,292.8673,-24.0793)"
         y="291.18301"
         x="144.05" />
      <path
         id="path5739"
         d="M 102.8,197.7 31.7,126.6 C 13.1,159.6 1.9,197.3 0.2,237.4 l 31.4,31.4 z"
         style="fill:#395154"
         inkscape:connector-curvature="0" />
      <rect
         id="rect5741"
         height="71.299004"
         width="100.599"
         style="fill:#485e60"
         transform="matrix(-0.7071,0.7071,-0.7071,-0.7071,340.5942,375.7878)"
         y="222.784"
         x="42.168999" />
      <g
         id="g5747">
        <path
           id="path5743"
           d="m 378.5,354.8 56.4,56.4 c 11.2,-12.8 21.1,-26.8 29.5,-41.7 l -50.3,-50.3 z"
           style="fill:#3f5356"
           inkscape:connector-curvature="0" />
        <rect
           id="rect5745"
           height="21"
           width="50.299999"
           style="fill:#3f5356"
           transform="matrix(0.7071,-0.7071,0.7071,0.7071,-89.6785,300.3883)"
           y="247.946"
           x="292.612" />
      </g>
      <rect
         id="rect5749"
         height="50.299999"
         width="100.599"
         style="fill:#364749"
         transform="matrix(0.7071,0.7071,-0.7071,0.7071,318.8622,-166.7982)"
         y="276.35199"
         x="310.47501" />
      <g
         id="g5757">
        <rect
           id="rect5751"
           height="50.299999"
           width="50.299999"
           style="fill:#3f5356"
           transform="matrix(-0.7071,-0.7071,0.7071,-0.7071,289.9266,497.6999)"
           y="163.65401"
           x="222.89101" />
        <rect
           id="rect5753"
           height="62.898998"
           width="50.299999"
           style="fill:#3f5356"
           transform="matrix(0.7071,-0.7071,0.7071,0.7071,-77.4363,270.7343)"
           y="197.39101"
           x="262.93701" />
        <path
           id="path5755"
           d="M 162.1,138.4 197.7,102.8 126.6,31.7 C 111.7,40.1 97.7,50 84.9,61.2 Z"
           style="fill:#3f5356"
           inkscape:connector-curvature="0" />
      </g>
      <g
         id="g5763">
        <rect
           id="rect5759"
           height="50.299999"
           width="71.299004"
           style="fill:#485e60"
           transform="matrix(-0.7071,-0.7071,0.7071,-0.7071,247.0389,394.0554)"
           y="120.715"
           x="169.481" />
        <path
           id="path5761"
           d="m 334.1,399.3 53.8,53.8 c 17.4,-11.9 33.3,-26 47.1,-41.8 l -56.4,-56.4 z"
           style="fill:#485e60"
           inkscape:connector-curvature="0" />
      </g>
      <g
         id="g5775">
        <rect
           id="rect5765"
           height="21"
           width="62.898998"
           style="fill:#364749"
           transform="matrix(-0.7071,0.7071,-0.7071,-0.7071,685.2123,313.1604)"
           y="287.992"
           x="246.299" />
        <rect
           id="rect5767"
           height="62.898998"
           width="100.599"
           style="fill:#364749"
           transform="matrix(0.7071,0.7071,-0.7071,0.7071,335.4296,-126.7556)"
           y="310.07199"
           x="270.423" />
        <rect
           id="rect5769"
           height="62.898998"
           width="50.299999"
           style="fill:#364749"
           transform="matrix(-0.7071,-0.7071,0.7071,-0.7071,193.3473,537.7354)"
           y="197.37399"
           x="182.89301" />
        <rect
           id="rect5771"
           height="62.898998"
           width="62.898998"
           style="fill:#364749"
           transform="matrix(0.7071,0.7071,-0.7071,0.7071,262.7366,-96.6681)"
           y="237.367"
           x="216.60699" />
        <path
           id="path5773"
           d="M 162.1,138.4 84.9,61.2 C 69.1,75.1 55,90.9 43.1,108.3 l 74.5,74.5 z"
           style="fill:#364749"
           inkscape:connector-curvature="0" />
      </g>
      <rect
         id="rect5777"
         height="71.299004"
         width="62.898998"
         style="fill:#3f5356"
         transform="matrix(0.7071,-0.7071,0.7071,0.7071,-83.0925,171.163)"
         y="150.233"
         x="133.616" />
      <path
         id="path5779"
         d="m 414.1,319.2 50.3,50.3 c 12.7,-22.6 22,-47.4 27.1,-73.7 l -27.1,-27.1 z"
         style="fill:#506768"
         inkscape:connector-curvature="0" />
      <g
         id="g5787">
        <rect
           id="rect5781"
           height="71.299004"
           width="21"
           style="fill:#485e60"
           transform="matrix(0.7071,0.7071,-0.7071,0.7071,257.9878,-191.9961)"
           y="179.771"
           x="350.254" />
        <rect
           id="rect5783"
           height="100.599"
           width="71.299004"
           style="fill:#485e60"
           transform="matrix(0.7071,-0.7071,0.7071,0.7071,-64.522,361.1626)"
           y="208.16701"
           x="368.05099" />
        <rect
           id="rect5785"
           height="50.299999"
           width="71.299004"
           style="fill:#485e60"
           transform="matrix(0.7071,-0.7071,0.7071,0.7071,-17.8297,248.537)"
           y="120.641"
           x="255.446" />
      </g>
      <rect
         id="rect5789"
         height="62.898998"
         width="71.299004"
         style="fill:#3f5356"
         transform="matrix(0.7071,-0.7071,0.7071,0.7071,-34.4708,288.5433)"
         y="154.43201"
         x="295.41699" />
      <g
         id="g5795">
        <path
           id="path5791"
           d="M 248.1,52.5 200.3,4.7 C 174,9.8 149.2,19.1 126.6,31.8 l 71.1,71.1 z"
           style="fill:#485e60"
           inkscape:connector-curvature="0" />
        <rect
           id="rect5793"
           height="71.299004"
           width="71.299004"
           style="fill:#485e60"
           transform="matrix(-0.7071,-0.7071,0.7071,-0.7071,350.837,351.09)"
           y="67.235001"
           x="212.48199" />
      </g>
      <polygon
         id="polygon5797"
         points="366.1,411.6 321,273 439,187.2 293.2,187.2 248.1,48.6 203,187.2 57.2,187.2 175.2,273 130.1,411.6 248.1,325.9 "
         style="fill:#e5b738" />
      <polygon
         id="polygon5799"
         points="352,392.3 312.3,270.1 416.2,194.6 287.8,194.6 248.1,72.5 208.4,194.6 80,194.6 183.9,270.1 144.2,392.3 248.1,316.8 "
         style="fill:#d68389" />
      <polygon
         id="polygon5801"
         points="80,194.6 183.9,270.1 416.2,194.6 287.8,194.6 248.1,72.5 208.4,194.6 "
         style="fill:#e08c96" />
      <g
         id="g5803" />
      <g
         id="g5805" />
      <g
         id="g5807" />
      <g
         id="g5809" />
      <g
         id="g5811" />
      <g
         id="g5813" />
      <g
         id="g5815" />
      <g
         id="g5817" />
      <g
         id="g5819" />
      <g
         id="g5821" />
      <g
         id="g5823" />
      <g
         id="g5825" />
      <g
         id="g5827" />
      <g
         id="g5829" />
      <g
         id="g5831" />
    </g>
    <g
       id="g6469"
       transform="matrix(0.26458333,0,0,0.26458333,39.356876,335.5681)">
      <path
         id="path6294"
         d="M 496.2,248.1 C 496.2,111.1 385.1,0 248.1,0 111.1,0 0,111.1 0,248.1 c 0,137 111.1,248.1 248.1,248.1 137,0 248.1,-111.1 248.1,-248.1 z"
         style="fill:#32bea6"
         inkscape:connector-curvature="0" />
      <path
         id="path6296"
         d="m 391,376.6 c 0,6.4 -5.2,11.6 -11.6,11.6 H 113 c -6.4,0 -11.6,-5.2 -11.6,-11.6 V 186.1 H 391 Z"
         style="fill:#3a3a38"
         inkscape:connector-curvature="0" />
      <g
         id="g6302">
        <path
           id="path6298"
           d="m 277.4,308.5 c 0,0 -6.3,40 21.8,50.9 6.8,2.7 18.6,3.5 29,-1.1 v -6.1 c 0,0 -13.6,5.3 -25.3,0.7 -12.3,-4.9 -21,-17.2 -18.2,-46.2 z"
           style="fill:#d1d0cf"
           inkscape:connector-curvature="0" />
        <circle
           id="circle6300"
           r="56.599998"
           cy="305.20001"
           cx="244.60001"
           style="fill:#d1d0cf" />
      </g>
      <circle
         id="circle6304"
         r="12.4"
         cy="305.20001"
         cx="244.60001"
         style="fill:#a5a4a4" />
      <circle
         id="circle6306"
         r="9.1999998"
         cy="305.20001"
         cx="244.60001"
         style="fill:#d3d3d3" />
      <g
         id="g6318">
        <circle
           id="circle6308"
           r="13.3"
           cy="271.70001"
           cx="244.60001"
           style="fill:#a09f9f" />
        <circle
           id="circle6310"
           r="13.3"
           cy="332.29999"
           cx="223.3"
           style="fill:#a09f9f" />
        <circle
           id="circle6312"
           r="13.3"
           cy="332.29999"
           cx="264.70001"
           style="fill:#a09f9f" />
        <circle
           id="circle6314"
           r="13.3"
           cy="295.79999"
           cx="212.39999"
           style="fill:#a09f9f" />
        <circle
           id="circle6316"
           r="13.3"
           cy="295.79999"
           cx="276.89999"
           style="fill:#a09f9f" />
      </g>
      <g
         id="g6330">
        <path
           id="path6320"
           d="m 244.6,285 c 7.4,0 13.3,-6 13.3,-13.3 0,-1.6 -0.3,-3.1 -0.8,-4.5 -3.9,-1.3 -8.2,-2 -12.5,-2 -4.4,0 -8.6,0.7 -12.5,2 -0.5,1.4 -0.8,2.9 -0.8,4.5 0,7.4 6,13.3 13.3,13.3 z"
           style="fill:#3a3a38"
           inkscape:connector-curvature="0" />
        <path
           id="path6322"
           d="m 236.6,332.3 c 0,-7.4 -6,-13.3 -13.3,-13.3 -5.5,0 -10.2,3.3 -12.2,8.1 4.8,7.3 11.8,13 20.2,15.9 3.2,-2.5 5.3,-6.4 5.3,-10.7 z"
           style="fill:#3a3a38"
           inkscape:connector-curvature="0" />
        <path
           id="path6324"
           d="m 264.7,318.9 c -7.4,0 -13.3,6 -13.3,13.3 0,4.6 2.3,8.6 5.8,11 8.3,-2.7 15.3,-8.1 20.2,-15 -1.7,-5.4 -6.7,-9.3 -12.7,-9.3 z"
           style="fill:#3a3a38"
           inkscape:connector-curvature="0" />
        <path
           id="path6326"
           d="m 225.7,295.8 c 0,-7.4 -6,-13.3 -13.3,-13.3 -0.2,0 -0.5,0 -0.7,0 -4.5,6.5 -7.1,14.3 -7.1,22.7 0,0.5 0,0.9 0,1.4 2.2,1.6 4.9,2.5 7.7,2.5 7.4,0 13.4,-6 13.4,-13.3 z"
           style="fill:#3a3a38"
           inkscape:connector-curvature="0" />
        <path
           id="path6328"
           d="m 263.6,295.8 c 0,7.4 6,13.3 13.3,13.3 2.9,0 5.6,-0.9 7.7,-2.5 0,-0.5 0,-0.9 0,-1.4 0,-8.4 -2.6,-16.3 -7.1,-22.7 -0.2,0 -0.5,0 -0.7,0 -7.3,0 -13.2,5.9 -13.2,13.3 z"
           style="fill:#3a3a38"
           inkscape:connector-curvature="0" />
      </g>
      <g
         id="g6340">
        <polygon
           id="polygon6332"
           points="182.6,186.1 210.7,186.1 181,225.2 152.9,225.2 "
           style="fill:#ffffff" />
        <polygon
           id="polygon6334"
           points="238.4,186.1 266.5,186.1 236.8,225.2 208.7,225.2 "
           style="fill:#ffffff" />
        <polygon
           id="polygon6336"
           points="293.3,186.1 321.4,186.1 291.7,225.2 263.6,225.2 "
           style="fill:#ffffff" />
        <polygon
           id="polygon6338"
           points="348.6,186.1 376.7,186.1 347,225.2 318.9,225.2 "
           style="fill:#ffffff" />
      </g>
      <polygon
         id="polygon6342"
         points="158,175.2 185.9,171.8 151.7,136.8 123.8,140.1 "
         style="fill:#3a3a38" />
      <g
         id="g6348">
        <polygon
           id="polygon6344"
           points="130.5,178.5 158.3,175.2 124.2,140.1 104.7,142.4 "
           style="fill:#ffffff" />
        <polygon
           id="polygon6346"
           points="185.4,171.9 213.3,168.5 179.2,133.5 151.3,136.8 "
           style="fill:#ffffff" />
      </g>
      <polygon
         id="polygon6350"
         points="212.9,168.6 240.8,165.2 206.7,130.2 178.8,133.5 "
         style="fill:#3a3a38" />
      <polygon
         id="polygon6352"
         points="240.8,165.2 268.7,161.9 234.5,126.8 206.7,130.2 "
         style="fill:#ffffff" />
      <polygon
         id="polygon6354"
         points="268.3,161.9 296.1,158.5 262,123.5 234.1,126.8 "
         style="fill:#3a3a38" />
      <polygon
         id="polygon6356"
         points="295.3,158.6 323.2,155.3 289.1,120.2 261.2,123.6 "
         style="fill:#ffffff" />
      <polygon
         id="polygon6358"
         points="322.8,155.3 350.7,152 316.5,116.9 288.7,120.3 "
         style="fill:#3a3a38" />
      <polygon
         id="polygon6360"
         points="350.3,152 378.2,148.7 344,113.6 316.1,117 "
         style="fill:#ffffff" />
      <g
         id="g6366">
        <polygon
           id="polygon6362"
           points="378.6,148.6 388.7,147.4 384.1,108.7 344.4,113.6 "
           style="fill:#3a3a38" />
        <polygon
           id="polygon6364"
           points="101.4,142.8 115.5,141.1 198.6,228.5 101.4,228.5 "
           style="fill:#3a3a38" />
      </g>
      <g
         id="g6374">
        <circle
           id="circle6368"
           r="5.6999998"
           cy="163.39999"
           cx="115"
           style="fill:#b5b4a0" />
        <circle
           id="circle6370"
           r="5.6999998"
           cy="208.10001"
           cx="115"
           style="fill:#b5b4a0" />
        <circle
           id="circle6372"
           r="5.6999998"
           cy="208.10001"
           cx="159.8"
           style="fill:#b5b4a0" />
      </g>
      <g
         id="g6376" />
      <g
         id="g6378" />
      <g
         id="g6380" />
      <g
         id="g6382" />
      <g
         id="g6384" />
      <g
         id="g6386" />
      <g
         id="g6388" />
      <g
         id="g6390" />
      <g
         id="g6392" />
      <g
         id="g6394" />
      <g
         id="g6396" />
      <g
         id="g6398" />
      <g
         id="g6400" />
      <g
         id="g6402" />
      <g
         id="g6404" />
    </g>
    <g
       id="g6733"
       transform="matrix(0.26458333,0,0,0.26458333,39.356876,69.714718)">
      <path
         id="path6651"
         d="M 496.2,248.1 C 496.2,111.1 385.1,0 248.1,0 111.1,0 0,111.1 0,248.1 c 0,137 111.1,248.1 248.1,248.1 137,0 248.1,-111.1 248.1,-248.1 z"
         style="fill:#ea4949"
         inkscape:connector-curvature="0" />
      <path
         id="path6653"
         d="m 248.1,109.4 c -76.6,0 -138.7,62.1 -138.7,138.7 0,76.6 62.1,138.7 138.7,138.7 76.6,0 138.7,-62.1 138.7,-138.7 0,-76.6 -62.1,-138.7 -138.7,-138.7 z m 1.5,152.1 c -8.4,0 -15.2,-6.8 -15.2,-15.2 0,-8.4 6.8,-15.3 15.2,-15.3 8.4,0 15.3,6.8 15.3,15.3 0,8.4 -6.9,15.2 -15.3,15.2 z"
         style="fill:#e3e2e2"
         inkscape:connector-curvature="0" />
      <path
         id="path6655"
         d="M 329.5,144.1 C 272,99.2 189.1,109.3 144.1,166.7 99.2,224.1 109.3,307.2 166.7,352.1 224.1,397 307.1,386.9 352.1,329.5 397,272 386.9,189.1 329.5,144.1 Z M 241.4,259 c -6.3,-4.9 -7.4,-14.1 -2.5,-20.4 4.9,-6.3 14.1,-7.4 20.4,-2.5 6.3,4.9 7.4,14.1 2.5,20.4 -5,6.4 -14.1,7.5 -20.4,2.5 z"
         style="fill:#cdcccb"
         inkscape:connector-curvature="0" />
      <path
         id="path6657"
         d="M 327.9,146.1 C 271.6,102 190.2,111.9 146.1,168.3 102,224.6 112,306 168.3,350.1 224.6,394.2 306,384.2 350.1,327.9 394.2,271.6 384.3,190.2 327.9,146.1 Z m -86.4,112.7 c -6.2,-4.8 -7.3,-13.8 -2.4,-20 4.8,-6.2 13.8,-7.3 20,-2.5 6.2,4.8 7.3,13.8 2.4,20 -4.9,6.3 -13.8,7.4 -20,2.5 z"
         style="fill:#cbcbc9"
         inkscape:connector-curvature="0" />
      <path
         id="path6659"
         d="m 260,258.1 c -5,5 -13,5.7 -18.8,1.2 -5.7,-4.5 -7,-12.4 -3.3,-18.5 l -91.8,-71.9 c -44,56.2 -34.1,137.5 22.1,181.4 56.2,44 137.4,34.1 181.4,-22.1 z"
         style="fill:#d2d2d2"
         inkscape:connector-curvature="0" />
      <g
         id="g6667">
        <path
           id="path6661"
           d="m 249.6,202.2 c -24.3,0 -44.1,19.7 -44.1,44.1 0,24.3 19.7,44.1 44.1,44.1 24.3,0 44.1,-19.7 44.1,-44.1 0,-24.4 -19.7,-44.1 -44.1,-44.1 z m 0,59.3 c -8.4,0 -15.2,-6.8 -15.2,-15.2 0,-8.4 6.8,-15.3 15.2,-15.3 8.4,0 15.3,6.8 15.3,15.3 0,8.4 -6.9,15.2 -15.3,15.2 z"
           style="fill:#dcdbdc"
           inkscape:connector-curvature="0" />
        <path
           id="path6663"
           d="m 192.6,232.9 -54.7,-11.5 c 6.9,-34.7 30.6,-63.3 62.4,-76.8 l 26.3,49.8 c -17.4,5.6 -30.6,20.3 -34,38.5 z"
           style="fill:#dcdbdc"
           inkscape:connector-curvature="0" />
        <path
           id="path6665"
           d="m 295.9,351.6 -26.3,-49.8 c 17.3,-5.6 30.5,-20.3 33.9,-38.6 l 54.7,11.5 c -6.8,34.7 -30.6,63.3 -62.3,76.9 z"
           style="fill:#dcdbdc"
           inkscape:connector-curvature="0" />
      </g>
      <path
         id="path6669"
         d="m 249.6,223 c -12.8,0 -23.2,10.4 -23.2,23.2 0,12.8 10.4,23.2 23.2,23.2 12.8,0 23.2,-10.4 23.2,-23.2 0.1,-12.8 -10.3,-23.2 -23.2,-23.2 z m 0,38.8 c -8.6,0 -15.5,-7 -15.5,-15.5 0,-8.6 7,-15.6 15.5,-15.6 8.6,0 15.5,7 15.5,15.6 0.1,8.5 -6.9,15.5 -15.5,15.5 z"
         style="fill:#a4a5a4"
         inkscape:connector-curvature="0" />
      <g
         id="g6671" />
      <g
         id="g6673" />
      <g
         id="g6675" />
      <g
         id="g6677" />
      <g
         id="g6679" />
      <g
         id="g6681" />
      <g
         id="g6683" />
      <g
         id="g6685" />
      <g
         id="g6687" />
      <g
         id="g6689" />
      <g
         id="g6691" />
      <g
         id="g6693" />
      <g
         id="g6695" />
      <g
         id="g6697" />
      <g
         id="g6699" />
    </g>
    <g
       id="g8802"
       transform="matrix(0.26458333,0,0,0.26458333,-422.15791,-3608.5417)">
      <path
         id="path8702"
         d="M 496.2,248.1 C 496.2,111.1 385.1,0 248.1,0 111.1,0 0,111.1 0,248.1 c 0,137 111.1,248.1 248.1,248.1 137,0 248.1,-111.1 248.1,-248.1 z"
         style="fill:#fabc3d"
         inkscape:connector-curvature="0" />
      <polygon
         id="polygon8704"
         points="137.3,234.6 137.3,167.2 144.2,167.2 155.2,146.1 162.4,141.4 201.6,144.5 245.4,152.4 262.3,166.1 260.7,237.7 243.9,253 200,258.3 160.5,258.8 153.7,256.1 142.1,234.6 " />
      <path
         id="path8706"
         d="m 155.2,146.1 7.2,-4.7 39.1,3.2 43.9,7.9 16.8,13.7 c 0,0 4.9,19.6 4.2,36.1 -0.9,23.2 -5.8,35.5 -5.8,35.5 l -16.8,15.3 -43.9,5.3 -39.5,0.5 -6.8,-2.6 z"
         style="fill:#363638"
         inkscape:connector-curvature="0" />
      <path
         id="path8708"
         d="m 155.2,146.1 7.2,-4.7 c 65.8,0 83,11.1 83,11.1 l -1.6,100.6 c 0,0 -11.4,8.2 -83.4,5.8 -6.8,-0.2 -6.8,-2.6 -6.8,-2.6 z"
         style="fill:#232228"
         inkscape:connector-curvature="0" />
      <path
         id="path8710"
         d="m 206.3,313.7 v 179 c 7.2,1.2 14.5,2.1 21.9,2.7 V 313.7 Z"
         style="fill:#202022"
         inkscape:connector-curvature="0" />
      <path
         id="path8712"
         d="m 210.2,313.7 v 179.6 c 1.5,0.2 3.1,0.4 4.6,0.7 V 313.7 Z"
         style="fill:#484849"
         inkscape:connector-curvature="0" />
      <path
         id="path8714"
         d="m 141,146.3 c 0,0 -44.8,-16.6 -76.3,16.6 v 35.6 0 35.9 C 96.3,267.5 141,251 141,251 v -52.2 0 z"
         style="fill:#1f1e23"
         inkscape:connector-curvature="0" />
      <path
         id="path8716"
         d="m 141,146.3 c 0,0 -13.2,-4.9 -30.3,-4 L 109.4,255 c 17.7,1.2 31.6,-4 31.6,-4 v -52.2 0 z"
         style="fill:#0d0d0f"
         inkscape:connector-curvature="0" />
      <path
         id="path8718"
         d="m 242.6,251.5 c -0.2,-0.3 -0.6,-0.4 -0.9,-0.4 0,0 -8.6,-4.6 -23.3,-2.8 -14.7,1.8 -22.5,4.4 -22.5,4.4 -0.3,0 -0.6,0.2 -0.9,0.4 -0.2,0.3 -0.3,0.6 -0.3,0.9 l 7.4,62.1 c 0.1,0.6 0.6,1 1.2,1 h 27.9 c 0.6,0 1.1,-0.4 1.2,-1 l 10.5,-63.7 c 0.1,-0.3 0,-0.7 -0.3,-0.9 z"
         style="fill:#18171c"
         inkscape:connector-curvature="0" />
      <path
         id="path8720"
         d="m 334.1,313.7 v 167.2 c 7.5,-2.8 14.8,-5.9 21.9,-9.3 V 313.7 Z"
         style="fill:#202022"
         inkscape:connector-curvature="0" />
      <path
         id="path8722"
         d="m 338.1,313.7 v 165.7 c 1.6,-0.6 3.1,-1.2 4.6,-1.9 V 313.7 Z"
         style="fill:#484849"
         inkscape:connector-curvature="0" />
      <circle
         id="circle8724"
         r="60.700001"
         cy="200.60001"
         cx="344.60001"
         style="fill:#363638" />
      <path
         id="path8726"
         d="m 321.4,249.7 c -2,2.1 8.6,66.4 8.6,66.4 0.1,0.6 0.6,1 1.2,1 h 27.9 c 0.6,0 1.1,-0.4 1.2,-1 0,0 11.1,-64.5 9.1,-66.6 -2,-2.1 -14.9,3.3 -24.4,3.3 -9.5,0 -21.7,-5.1 -23.6,-3.1 z"
         style="fill:#18171c"
         inkscape:connector-curvature="0" />
      <circle
         id="circle8728"
         r="43.099998"
         cy="200.60001"
         cx="344.60001"
         style="fill:#727272" />
      <circle
         id="circle8730"
         r="36.900002"
         cy="200.60001"
         cx="344.60001"
         style="fill:#363638" />
      <circle
         id="circle8732"
         r="13.4"
         cy="200.60001"
         cx="344.60001" />
      <g
         id="g8734" />
      <g
         id="g8736" />
      <g
         id="g8738" />
      <g
         id="g8740" />
      <g
         id="g8742" />
      <g
         id="g8744" />
      <g
         id="g8746" />
      <g
         id="g8748" />
      <g
         id="g8750" />
      <g
         id="g8752" />
      <g
         id="g8754" />
      <g
         id="g8756" />
      <g
         id="g8758" />
      <g
         id="g8760" />
      <g
         id="g8762" />
    </g>
    <g
       id="g9696"
       transform="matrix(0.26458333,0,0,0.26458333,-552.31103,162.36956)">
      <path
         id="path9620"
         d="M 496.2,248.1 C 496.2,111.1 385.1,0 248.1,0 111.1,0 0,111.1 0,248.1 c 0,137 111.1,248.1 248.1,248.1 137,0 248.1,-111.1 248.1,-248.1 z"
         style="fill:#25b7d3"
         inkscape:connector-curvature="0" />
      <g
         id="g9632">
        <path
           id="path9622"
           d="M 247.2,137.8 187.7,78.3 c -4.1,-4.1 -10.7,-4.1 -14.7,0 l -94.4,94.4 c -4.1,4.1 -4.1,10.7 0,14.7 l 59.5,59.5 c 4.1,4.1 10.7,4.1 14.7,0 l 94.4,-94.4 c 4.1,-4 4.1,-10.6 0,-14.7 z"
           style="fill:#ffffff"
           inkscape:connector-curvature="0" />
        <path
           id="path9624"
           d="m 66.8,161 94.4,-94.4 c 4.1,-4.1 4.1,-10.7 0,-14.7 L 136,26.7 c -22.9,11.6 -44.3,26.9 -63.4,46 -19,19 -34.3,40.3 -45.8,63 L 52.1,161 c 4.1,4 10.6,4 14.7,0 z"
           style="fill:#ffffff"
           inkscape:connector-curvature="0" />
        <path
           id="path9626"
           d="m 332.4,223 -59.5,-59.5 c -4.1,-4.1 -10.7,-4.1 -14.7,0 l -94.4,94.4 c -4.1,4.1 -4.1,10.7 0,14.7 l 59.5,59.5 c 4.1,4.1 10.7,4.1 14.7,0 l 94.4,-94.4 c 4,-4.1 4,-10.7 0,-14.7 z"
           style="fill:#ffffff"
           inkscape:connector-curvature="0" />
        <path
           id="path9628"
           d="m 417.8,308.4 -59.5,-59.5 c -4.1,-4.1 -10.7,-4.1 -14.7,0 l -94.4,94.4 c -4.1,4.1 -4.1,10.7 0,14.7 l 59.5,59.5 c 4.1,4.1 10.7,4.1 14.7,0 l 94.4,-94.4 c 4,-4.1 4,-10.7 0,-14.7 z"
           style="fill:#ffffff"
           inkscape:connector-curvature="0" />
        <path
           id="path9630"
           d="m 428.8,334.1 -94.4,94.4 c -4.1,4.1 -4.1,10.7 0,14.7 l 26,26 c 22.7,-11.5 44,-26.8 63,-45.8 19.1,-19.1 34.4,-40.6 46,-63.4 l -25.9,-25.9 c -4,-4 -10.6,-4 -14.7,0 z"
           style="fill:#ffffff"
           inkscape:connector-curvature="0" />
      </g>
      <path
         id="path9634"
         d="m 334.4,443.3 c -4.1,-4.1 -4.1,-10.7 0,-14.7 l 94.4,-94.4 c 4.1,-4.1 10.7,-4.1 14.7,0 l 25.9,25.9 c 0.4,-0.8 0.8,-1.6 1.2,-2.4 0.4,-0.8 0.8,-1.6 1.1,-2.4 5.4,-11.2 9.8,-22.7 13.4,-34.4 l -310,-310 c -11.7,3.6 -23.2,8 -34.4,13.4 -0.8,0.4 -1.6,0.8 -2.4,1.1 -0.8,0.4 -1.6,0.8 -2.4,1.2 l 25.2,25.2 c 4.1,4.1 4.1,10.7 0,14.7 L 66.7,160.9 C 62.6,165 56,165 52,160.9 L 26.7,135.6 c -0.3,0.6 -0.6,1.1 -0.8,1.7 -0.7,1.3 -1.3,2.6 -1.9,4 -5.2,11 -9.6,22.2 -13.1,33.7 l 310.2,310.2 c 11.5,-3.5 22.7,-7.9 33.7,-13.1 1.3,-0.6 2.7,-1.3 4,-1.9 0.6,-0.3 1.1,-0.6 1.7,-0.8 z M 471.3,320.2 c 1,-1 2.7,-1 3.8,0 l 2.1,2.1 c 1,1 1,2.7 0,3.8 l -13.4,13.4 c -1,1 -2.7,1 -3.8,0 l -2.1,-2.1 c -1,-1 -1,-2.7 0,-3.8 z m -17.8,-17.8 c 1,-1 2.7,-1 3.8,0 l 2.1,2.1 c 1,1 1,2.7 0,3.8 L 446,321.7 c -1,1 -2.7,1 -3.8,0 l -2.1,-2.1 c -1,-1 -1,-2.7 0,-3.8 z m -17.8,-17.7 c 1,-1 2.7,-1 3.8,0 l 2.1,2.1 c 1,1 1,2.7 0,3.8 L 428.2,304 c -1,1 -2.7,1 -3.8,0 l -2.1,-2.1 c -1,-1 -1,-2.7 0,-3.8 z M 418,266.9 c 1,-1 2.7,-1 3.8,0 l 2.1,2.1 c 1,1 1,2.7 0,3.8 l -13.4,13.4 c -1,1 -2.7,1 -3.8,0 l -2.1,-2.1 c -1,-1 -1,-2.7 0,-3.8 z m -17.8,-17.8 c 1,-1 2.7,-1 3.8,0 l 2.1,2.1 c 1,1 1,2.7 0,3.8 l -13.4,13.4 c -1,1 -2.7,1 -3.8,0 l -2.1,-2.1 c -1,-1 -1,-2.7 0,-3.8 z m -17.8,-17.8 c 1,-1 2.7,-1 3.8,0 l 2.1,2.1 c 1,1 1,2.7 0,3.8 l -13.4,13.4 c -1,1 -2.7,1 -3.8,0 l -2.1,-2.1 c -1,-1 -1,-2.7 0,-3.8 z m -17.7,-17.7 c 1,-1 2.7,-1 3.8,0 l 2.1,2.1 c 1,1 1,2.7 0,3.8 l -13.4,13.4 c -1,1 -2.7,1 -3.8,0 l -2.1,-2.1 c -1,-1 -1,-2.7 0,-3.8 z m -17.8,-17.8 c 1,-1 2.7,-1 3.8,0 l 2.1,2.1 c 1,1 1,2.7 0,3.8 l -13.4,13.4 c -1,1 -2.7,1 -3.8,0 l -2.1,-2.1 c -1,-1 -1,-2.7 0,-3.8 z M 329.1,178 c 1,-1 2.7,-1 3.8,0 l 2.1,2.1 c 1,1 1,2.7 0,3.8 l -13.4,13.4 c -1,1 -2.7,1 -3.8,0 l -2.1,-2.1 c -1,-1 -1,-2.7 0,-3.8 z m -17.8,-17.7 c 1,-1 2.7,-1 3.8,0 l 2.1,2.1 c 1,1 1,2.7 0,3.8 l -13.4,13.4 c -1,1 -2.7,1 -3.8,0 l -2.1,-2.1 c -1,-1 -1,-2.7 0,-3.8 z m -17.7,-17.8 c 1,-1 2.7,-1 3.8,0 l 2.1,2.1 c 1,1 1,2.7 0,3.8 l -13.4,13.4 c -1,1 -2.7,1 -3.8,0 l -2.1,-2.1 c -1,-1 -1,-2.7 0,-3.8 z m -17.8,-17.8 c 1,-1 2.7,-1 3.8,0 l 2.1,2.1 c 1,1 1,2.7 0,3.8 L 268.3,144 c -1,1 -2.7,1 -3.8,0 l -2.1,-2.1 c -1,-1 -1,-2.7 0,-3.8 z M 258,106.9 c 1,-1 2.7,-1 3.8,0 l 2.1,2.1 c 1,1 1,2.7 0,3.8 l -13.4,13.4 c -1,1 -2.7,1 -3.8,0 l -2.1,-2.1 c -1,-1 -1,-2.7 0,-3.8 z M 240.3,89.2 c 1,-1 2.7,-1 3.8,0 l 2.1,2.1 c 1,1 1,2.7 0,3.8 l -13.4,13.4 c -1,1 -2.7,1 -3.8,0 l -2.1,-2.1 c -1,-1 -1,-2.7 0,-3.8 z M 222.5,71.4 c 1,-1 2.7,-1 3.8,0 l 2.1,2.1 c 1,1 1,2.7 0,3.8 L 215,90.7 c -1,1 -2.7,1 -3.8,0 l -2.1,-2.1 c -1,-1 -1,-2.7 0,-3.8 z M 204.7,53.6 c 1,-1 2.7,-1 3.8,0 l 2.1,2.1 c 1,1 1,2.7 0,3.8 l -13.4,13.4 c -1,1 -2.7,1 -3.8,0 l -2.1,-2.1 c -1,-1 -1,-2.7 0,-3.8 z M 186.9,35.9 c 1,-1 2.7,-1 3.8,0 l 2.1,2.1 c 1,1 1,2.7 0,3.8 l -13.3,13.3 c -1,1 -2.7,1 -3.8,0 L 173.6,53 c -1,-1 -1,-2.7 0,-3.8 z M 169.2,18.1 c 1,-1 2.7,-1 3.8,0 l 2.1,2.1 c 1,1 1,2.7 0,3.8 l -13.4,13.4 c -1,1 -2.7,1 -3.8,0 l -2.1,-2.1 c -1,-1 -1,-2.7 0,-3.8 z M 23.8,175.2 c -1,1 -2.7,1 -3.8,0 l -2.1,-2.1 c -1,-1 -1,-2.7 0,-3.8 l 13.4,-13.4 c 1,-1 2.7,-1 3.8,0 l 2.1,2.1 c 1,1 1,2.7 0,3.8 z M 41.6,193 c -1,1 -2.7,1 -3.8,0 l -2.1,-2.1 c -1,-1 -1,-2.7 0,-3.8 l 13.4,-13.4 c 1,-1 2.7,-1 3.8,0 l 2.1,2.1 c 1,1 1,2.7 0,3.8 z m 17.8,17.8 c -1,1 -2.7,1 -3.8,0 l -2.1,-2.1 c -1,-1 -1,-2.7 0,-3.8 l 13.4,-13.4 c 1,-1 2.7,-1 3.8,0 l 2.1,2.1 c 1,1 1,2.7 0,3.8 z m 17.7,17.8 c -1,1 -2.7,1 -3.8,0 l -2.1,-2.1 c -1,-1 -1,-2.7 0,-3.8 l 13.4,-13.4 c 1,-1 2.7,-1 3.8,0 l 2.1,2.1 c 1,1 1,2.7 0,3.8 z m 17.8,17.7 c -1,1 -2.7,1 -3.8,0 L 89,244.2 c -1,-1 -1,-2.7 0,-3.8 L 102.4,227 c 1,-1 2.7,-1 3.8,0 l 2.1,2.1 c 1,1 1,2.7 0,3.8 z m 17.8,17.8 c -1,1 -2.7,1 -3.8,0 l -2.1,-2.1 c -1,-1 -1,-2.7 0,-3.8 l 13.4,-13.4 c 1,-1 2.7,-1 3.8,0 l 2.1,2.1 c 1,1 1,2.7 0,3.8 z M 152.8,247 c -4.1,4.1 -10.7,4.1 -14.7,0 L 78.6,187.5 c -4.1,-4.1 -4.1,-10.7 0,-14.7 L 173,78.4 c 4.1,-4.1 10.7,-4.1 14.7,0 l 59.5,59.5 c 4.1,4.1 4.1,10.7 0,14.7 z m -22.3,34.9 c -1,1 -2.7,1 -3.8,0 l -2.1,-2.1 c -1,-1 -1,-2.7 0,-3.8 L 138,262.6 c 1,-1 2.7,-1 3.8,0 l 2.1,2.1 c 1,1 1,2.7 0,3.8 z m 17.7,17.7 c -1,1 -2.7,1 -3.8,0 l -2.1,-2.1 c -1,-1 -1,-2.7 0,-3.8 l 13.4,-13.4 c 1,-1 2.7,-1 3.8,0 l 2.1,2.1 c 1,1 1,2.7 0,3.8 z m 17.8,17.8 c -1,1 -2.7,1 -3.8,0 l -2.1,-2.1 c -1,-1 -1,-2.7 0,-3.8 l 13.4,-13.4 c 1,-1 2.7,-1 3.8,0 l 2.1,2.1 c 1,1 1,2.7 0,3.8 z m 17.8,17.8 c -1,1 -2.7,1 -3.8,0 l -2.1,-2.1 c -1,-1 -1,-2.7 0,-3.8 l 13.4,-13.4 c 1,-1 2.7,-1 3.8,0 l 2.1,2.1 c 1,1 1,2.7 0,3.8 z m 17.7,17.8 c -1,1 -2.7,1 -3.8,0 l -2.1,-2.1 c -1,-1 -1,-2.7 0,-3.8 L 209,333.7 c 1,-1 2.7,-1 3.8,0 l 2.1,2.1 c 1,1 1,2.7 0,3.8 z m 36.4,-20.9 c -4.1,4.1 -10.7,4.1 -14.7,0 l -59.5,-59.5 c -4.1,-4.1 -4.1,-10.7 0,-14.7 l 94.4,-94.4 c 4.1,-4.1 10.7,-4.1 14.7,0 l 59.5,59.5 c 4.1,4.1 4.1,10.7 0,14.7 z m -18.6,38.6 c -1,1 -2.7,1 -3.8,0 l -2.1,-2.1 c -1,-1 -1,-2.7 0,-3.8 l 13.4,-13.4 c 1,-1 2.7,-1 3.8,0 l 2.1,2.1 c 1,1 1,2.7 0,3.8 z m 17.8,17.8 c -1,1 -2.7,1 -3.8,0 l -2.1,-2.1 c -1,-1 -1,-2.7 0,-3.8 l 13.4,-13.4 c 1,-1 2.7,-1 3.8,0 l 2.1,2.1 c 1,1 1,2.7 0,3.8 z m 17.8,17.8 c -1,1 -2.7,1 -3.8,0 l -2.1,-2.1 c -1,-1 -1,-2.7 0,-3.8 L 262.4,387 c 1,-1 2.7,-1 3.8,0 l 2.1,2.1 c 1,1 1,2.7 0,3.8 z m 17.7,17.7 c -1,1 -2.7,1 -3.8,0 l -2.1,-2.1 c -1,-1 -1,-2.7 0,-3.8 l 13.4,-13.4 c 1,-1 2.7,-1 3.8,0 l 2.1,2.1 c 1,1 1,2.7 0,3.8 z m 17.8,17.8 c -1,1 -2.7,1 -3.8,0 l -2.1,-2.1 c -1,-1 -1,-2.7 0,-3.8 l 13.4,-13.4 c 1,-1 2.7,-1 3.8,0 l 2.1,2.1 c 1,1 1,2.7 0,3.8 z m 32.9,-24.3 c -4.1,4.1 -10.7,4.1 -14.7,0 L 249.1,358 c -4.1,-4.1 -4.1,-10.7 0,-14.7 l 94.4,-94.4 c 4.1,-4.1 10.7,-4.1 14.7,0 l 59.5,59.5 c 4.1,4.1 4.1,10.7 0,14.7 z m -15.1,42.1 c -1,1 -2.7,1 -3.8,0 l -2.1,-2.1 c -1,-1 -1,-2.7 0,-3.8 l 13.4,-13.4 c 1,-1 2.7,-1 3.8,0 l 2.1,2.1 c 1,1 1,2.7 0,3.8 z m 17.7,17.8 c -1,1 -2.7,1 -3.8,0 l -2.1,-2.1 c -1,-1 -1,-2.7 0,-3.8 l 13.4,-13.4 c 1,-1 2.7,-1 3.8,0 l 2.1,2.1 c 1,1 1,2.7 0,3.8 z"
         style="fill:#3a3a38"
         inkscape:connector-curvature="0" />
      <g
         id="g9636" />
      <g
         id="g9638" />
      <g
         id="g9640" />
      <g
         id="g9642" />
      <g
         id="g9644" />
      <g
         id="g9646" />
      <g
         id="g9648" />
      <g
         id="g9650" />
      <g
         id="g9652" />
      <g
         id="g9654" />
      <g
         id="g9656" />
      <g
         id="g9658" />
      <g
         id="g9660" />
      <g
         id="g9662" />
      <g
         id="g9664" />
    </g>
    <g
       id="g11208"
       transform="matrix(0.26458333,0,0,0.26458333,-1048.096,59.470792)">
      <path
         id="path11099"
         d="M 496.2,248.1 C 496.2,111.1 385.1,0 248.1,0 111.1,0 0,111.1 0,248.1 c 0,137 111.1,248.1 248.1,248.1 137,0 248.1,-111.1 248.1,-248.1 z"
         style="fill:#25b7d3"
         inkscape:connector-curvature="0" />
      <path
         id="path11101"
         d="m 350.5,386.7 c 0,16.3 -13.2,29.4 -29.4,29.4 h -146 c -16.3,0 -29.4,-13.2 -29.4,-29.4 V 109.5 c 0,-16.3 13.2,-29.4 29.4,-29.4 h 146 c 16.3,0 29.4,13.2 29.4,29.4 z"
         style="fill:#cececc"
         inkscape:connector-curvature="0" />
      <path
         id="path11103"
         d="m 175.1,416.1 h 146 c 16.3,0 29.4,-13.2 29.4,-29.4 V 109.5 c 0,-7.6 -2.9,-14.6 -7.7,-19.8 L 145.7,239.1 v 147.6 c 0,16.2 13.2,29.4 29.4,29.4 z"
         style="fill:#c2c2ba"
         inkscape:connector-curvature="0" />
      <rect
         id="rect11105"
         height="127.5"
         width="170"
         style="fill:#3a3a38"
         y="98.099998"
         x="163.10001" />
      <polygon
         id="polygon11107"
         points="333.1,98.1 163.1,225.6 163.1,98.1 "
         style="fill:#4f4f4e" />
      <circle
         id="circle11109"
         r="61.299999"
         cy="320.39999"
         cx="248.10001"
         style="fill:#e8e6e3" />
      <circle
         id="circle11111"
         r="22.1"
         cy="320.39999"
         cx="248.10001"
         style="fill:#c2c2ba" />
      <g
         id="g11135">
        <path
           id="path11113"
           d="m 195.4,320.2 8.2,-5.1 c 0.2,-0.1 0.5,-0.1 0.8,0 0.2,0.1 0.4,0.4 0.4,0.6 v 10.1 c 0,0.3 -0.1,0.5 -0.4,0.6 -0.1,0.1 -0.2,0.1 -0.4,0.1 -0.1,0 -0.3,0 -0.4,-0.1 l -8.2,-5 c -0.2,-0.1 -0.4,-0.4 -0.4,-0.6 0,-0.2 0.2,-0.4 0.4,-0.6 z"
           style="fill:#a8a8a5"
           inkscape:connector-curvature="0" />
        <path
           id="path11115"
           d="m 206.1,320.2 8.2,-5.1 c 0.2,-0.1 0.5,-0.1 0.8,0 0.2,0.1 0.4,0.4 0.4,0.6 v 10.1 c 0,0.3 -0.1,0.5 -0.4,0.6 -0.1,0.1 -0.2,0.1 -0.4,0.1 -0.1,0 -0.3,0 -0.4,-0.1 l -8.2,-5 c -0.2,-0.1 -0.4,-0.4 -0.4,-0.6 0.1,-0.2 0.2,-0.4 0.4,-0.6 z"
           style="fill:#a8a8a5"
           inkscape:connector-curvature="0" />
        <path
           id="path11117"
           d="m 300.1,321.5 -8.2,5.1 c -0.2,0.1 -0.5,0.1 -0.8,0 -0.2,-0.1 -0.4,-0.4 -0.4,-0.6 v -10.1 c 0,-0.3 0.1,-0.5 0.4,-0.6 0.1,-0.1 0.2,-0.1 0.4,-0.1 0.1,0 0.3,0 0.4,0.1 l 8.2,5 c 0.2,0.1 0.4,0.4 0.4,0.6 0,0.2 -0.2,0.4 -0.4,0.6 z"
           style="fill:#a8a8a5"
           inkscape:connector-curvature="0" />
        <path
           id="path11119"
           d="m 289.4,321.5 -8.2,5.1 c -0.2,0.1 -0.5,0.1 -0.8,0 -0.2,-0.1 -0.4,-0.4 -0.4,-0.6 v -10.1 c 0,-0.3 0.1,-0.5 0.4,-0.6 0.1,-0.1 0.2,-0.1 0.4,-0.1 0.1,0 0.3,0 0.4,0.1 l 8.2,5 c 0.2,0.1 0.4,0.4 0.4,0.6 -0.1,0.2 -0.2,0.4 -0.4,0.6 z"
           style="fill:#a8a8a5"
           inkscape:connector-curvature="0" />
        <path
           id="path11121"
           d="m 248,361.9 -7.5,-4.6 c -0.2,-0.1 -0.5,-0.1 -0.7,0 -0.2,0.1 -0.3,0.3 -0.3,0.6 v 9.2 c 0,0.2 0.1,0.5 0.3,0.6 0.1,0.1 0.2,0.1 0.3,0.1 0.1,0 0.2,0 0.4,-0.1 l 7.5,-4.6 c 0.2,-0.1 0.3,-0.3 0.3,-0.6 0,-0.3 -0.1,-0.5 -0.3,-0.6 z"
           style="fill:#a8a8a5"
           inkscape:connector-curvature="0" />
        <path
           id="path11123"
           d="M 254.6,357 H 252 c -0.2,0 -0.4,0.2 -0.4,0.4 v 10 c 0,0.2 0.2,0.4 0.4,0.4 h 2.6 c 0.2,0 0.4,-0.2 0.4,-0.4 v -10 c 0,-0.2 -0.2,-0.4 -0.4,-0.4 z"
           style="fill:#a8a8a5"
           inkscape:connector-curvature="0" />
        <path
           id="path11125"
           d="m 259.3,357 h -2.6 c -0.2,0 -0.4,0.2 -0.4,0.4 v 10 c 0,0.2 0.2,0.4 0.4,0.4 h 2.6 c 0.2,0 0.4,-0.2 0.4,-0.4 v -10 c 0,-0.2 -0.2,-0.4 -0.4,-0.4 z"
           style="fill:#a8a8a5"
           inkscape:connector-curvature="0" />
        <path
           id="path11127"
           d="m 235.3,281.9 -1.3,-5.1 v 5.6 c 0,0.3 -0.1,0.5 -0.2,0.7 -0.1,0.2 -0.3,0.2 -0.5,0.2 -0.2,0 -0.4,-0.1 -0.5,-0.2 -0.1,-0.2 -0.2,-0.4 -0.2,-0.7 V 276 c 0,-0.4 0.1,-0.6 0.3,-0.7 0.2,-0.1 0.4,-0.2 0.7,-0.2 h 0.5 c 0.3,0 0.5,0 0.7,0.1 0.1,0.1 0.2,0.2 0.3,0.3 0.1,0.1 0.1,0.4 0.2,0.7 l 1.2,4.4 1.2,-4.4 c 0.1,-0.3 0.2,-0.6 0.2,-0.7 0.1,-0.1 0.2,-0.2 0.3,-0.3 0.1,-0.1 0.4,-0.1 0.7,-0.1 h 0.5 c 0.3,0 0.6,0.1 0.7,0.2 0.2,0.1 0.3,0.4 0.3,0.7 v 6.4 c 0,0.3 -0.1,0.5 -0.2,0.7 -0.1,0.2 -0.3,0.2 -0.6,0.2 -0.2,0 -0.4,-0.1 -0.5,-0.2 -0.1,-0.2 -0.2,-0.4 -0.2,-0.7 v -5.6 l -1.3,5.1 c -0.1,0.3 -0.2,0.6 -0.2,0.7 0,0.1 -0.2,0.3 -0.3,0.4 -0.1,0.1 -0.3,0.2 -0.6,0.2 -0.2,0 -0.4,0 -0.5,-0.1 -0.1,-0.1 -0.2,-0.2 -0.3,-0.3 -0.1,-0.1 -0.1,-0.3 -0.2,-0.4 -0.1,-0.2 -0.1,-0.3 -0.2,-0.5 z"
           style="fill:#a8a8a5"
           inkscape:connector-curvature="0" />
        <path
           id="path11129"
           d="m 247.3,276.3 h -3.7 v 2 h 3.4 c 0.2,0 0.4,0.1 0.6,0.2 0.2,0.1 0.2,0.3 0.2,0.4 0,0.2 -0.1,0.3 -0.2,0.4 -0.1,0.1 -0.3,0.2 -0.6,0.2 h -3.4 v 2.3 h 3.8 c 0.3,0 0.5,0.1 0.6,0.2 0.1,0.1 0.2,0.3 0.2,0.5 0,0.2 -0.1,0.3 -0.2,0.5 -0.1,0.1 -0.3,0.2 -0.6,0.2 H 243 c -0.4,0 -0.6,-0.1 -0.8,-0.2 -0.2,-0.2 -0.2,-0.4 -0.2,-0.8 v -6.1 c 0,-0.2 0,-0.4 0.1,-0.6 0.1,-0.1 0.2,-0.3 0.3,-0.3 0.1,-0.1 0.3,-0.1 0.6,-0.1 h 4.3 c 0.3,0 0.5,0.1 0.6,0.2 0.1,0.1 0.2,0.3 0.2,0.5 0,0.2 -0.1,0.3 -0.2,0.5 -0.2,0 -0.4,0 -0.6,0 z"
           style="fill:#a8a8a5"
           inkscape:connector-curvature="0" />
        <path
           id="path11131"
           d="m 251.6,275.9 3.1,4.7 v -4.8 c 0,-0.3 0.1,-0.5 0.2,-0.7 0.1,-0.2 0.3,-0.2 0.5,-0.2 0.2,0 0.4,0.1 0.6,0.2 0.1,0.2 0.2,0.4 0.2,0.7 v 6.3 c 0,0.7 -0.3,1.1 -0.9,1.1 -0.1,0 -0.3,0 -0.4,-0.1 -0.1,0 -0.2,-0.1 -0.3,-0.2 -0.1,-0.1 -0.2,-0.2 -0.3,-0.3 -0.1,-0.1 -0.2,-0.2 -0.3,-0.4 l -3.1,-4.7 v 4.7 c 0,0.3 -0.1,0.5 -0.2,0.7 -0.1,0.2 -0.3,0.2 -0.5,0.2 -0.2,0 -0.4,-0.1 -0.6,-0.2 -0.1,-0.2 -0.2,-0.4 -0.2,-0.7 v -6.1 c 0,-0.3 0,-0.5 0.1,-0.6 0.1,-0.2 0.2,-0.3 0.3,-0.4 0.2,-0.1 0.3,-0.2 0.5,-0.2 0.1,0 0.3,0 0.4,0.1 0.1,0 0.2,0.1 0.3,0.2 0.1,0.1 0.2,0.2 0.2,0.3 0,0.1 0.3,0.3 0.4,0.4 z"
           style="fill:#a8a8a5"
           inkscape:connector-curvature="0" />
        <path
           id="path11133"
           d="m 258,279.8 v -3.9 c 0,-0.3 0.1,-0.6 0.2,-0.7 0.1,-0.2 0.3,-0.2 0.6,-0.2 0.3,0 0.5,0.1 0.6,0.2 0.1,0.2 0.2,0.4 0.2,0.7 v 4 c 0,0.5 0,0.8 0.2,1.1 0.1,0.3 0.3,0.5 0.5,0.7 0.3,0.2 0.6,0.3 1.1,0.3 0.6,0 1.1,-0.2 1.4,-0.5 0.3,-0.3 0.4,-0.9 0.4,-1.5 v -4 c 0,-0.3 0.1,-0.6 0.2,-0.7 0.1,-0.2 0.3,-0.2 0.6,-0.2 0.3,0 0.4,0.1 0.6,0.2 0.2,0.2 0.2,0.4 0.2,0.7 v 3.9 c 0,0.6 -0.1,1.2 -0.2,1.6 -0.1,0.4 -0.4,0.8 -0.7,1.1 -0.3,0.3 -0.6,0.5 -1,0.6 -0.4,0.1 -0.8,0.2 -1.4,0.2 -0.6,0 -1.2,-0.1 -1.6,-0.2 -0.4,-0.1 -0.8,-0.3 -1.1,-0.6 -0.3,-0.3 -0.5,-0.6 -0.6,-1.1 -0.1,-0.6 -0.2,-1.1 -0.2,-1.7 z"
           style="fill:#a8a8a5"
           inkscape:connector-curvature="0" />
      </g>
      <g
         id="g11137" />
      <g
         id="g11139" />
      <g
         id="g11141" />
      <g
         id="g11143" />
      <g
         id="g11145" />
      <g
         id="g11147" />
      <g
         id="g11149" />
      <g
         id="g11151" />
      <g
         id="g11153" />
      <g
         id="g11155" />
      <g
         id="g11157" />
      <g
         id="g11159" />
      <g
         id="g11161" />
      <g
         id="g11163" />
      <g
         id="g11165" />
    </g>
    <g
       id="g11292"
       transform="matrix(0.26458333,0,0,0.26458333,-641.17302,-27.353268)">
      <path
         id="path11210"
         d="M 496.2,248.1 C 496.2,111.1 385.1,0 248.1,0 111.1,0 0,111.1 0,248.1 c 0,137 111.1,248.1 248.1,248.1 137,0 248.1,-111.1 248.1,-248.1 z"
         style="fill:#32bea6"
         inkscape:connector-curvature="0" />
      <path
         id="path11212"
         d="m 238.3,405.2 v 90.7 c 3.2,0.1 6.5,0.2 9.8,0.2 3.3,0 6.5,-0.1 9.7,-0.2 v -90.7 z"
         style="fill:#3a3a38"
         inkscape:connector-curvature="0" />
      <path
         id="path11214"
         d="M 265.2,215.4 V 92.6 c 0,-0.5 -0.1,-0.9 -0.4,-1.3 l -6.4,-10.2 6.1,-8.1 c 0.7,-1 0.7,-2.4 -0.2,-3.2 L 249.6,54.6 c -0.5,-0.5 -1.1,-0.8 -1.8,-0.8 v 0 c -0.7,0 -1.3,0.3 -1.8,0.8 l -14.6,15.2 c -0.8,0.9 -0.9,2.3 -0.2,3.2 l 6.2,8.2 -6.1,10.1 c -0.2,0.4 -0.4,0.8 -0.4,1.3 v 122.8 z"
         style="fill:#cbcbc9"
         inkscape:connector-curvature="0" />
      <path
         id="path11216"
         d="m 247.9,53.7 v 0 c -0.7,0 -1.3,0.3 -1.8,0.8 l -14.6,15.2 c -0.8,0.9 -0.9,2.3 -0.2,3.2 l 6.2,8.2 -6.1,10.1 c -0.2,0.4 -0.4,0.8 -0.4,1.3 v 122.8 h 16.9 z"
         style="fill:#dddddb"
         inkscape:connector-curvature="0" />
      <path
         id="path11218"
         d="m 288.3,214 c -0.9,-1 -2.3,-1.6 -3.7,-1.6 h -73.1 c -1.4,0 -2.7,0.6 -3.7,1.6 -0.9,1 -1.4,2.4 -1.3,3.8 l 17.8,207 c 0.2,2.6 2.4,4.6 5,4.6 h 37.4 c 2.6,0 4.8,-2 5,-4.6 l 17.8,-207 c 0.3,-1.4 -0.2,-2.8 -1.2,-3.8 z"
         style="fill:#3a3a38"
         inkscape:connector-curvature="0" />
      <path
         id="path11220"
         d="m 211.5,212.4 c -1.4,0 -2.7,0.6 -3.7,1.6 -0.9,1 -1.4,2.4 -1.3,3.8 l 17.8,207 c 0.2,2.6 2.4,4.6 5,4.6 h 18.5 v -217 z"
         style="fill:#5b5b5b"
         inkscape:connector-curvature="0" />
      <path
         id="path11222"
         d="m 265,71.4 c 0,-0.6 -0.3,-1.2 -0.7,-1.7 L 249.6,54.5 c -0.5,-0.5 -1.1,-0.8 -1.8,-0.8 v 0 c -0.7,0 -1.3,0.3 -1.8,0.8 l -14.6,15.2 c -0.4,0.5 -0.7,1.1 -0.7,1.7 z"
         style="fill:#eaeaea"
         inkscape:connector-curvature="0" />
      <g
         id="g11228">
        <rect
           id="rect11224"
           height="6.6999998"
           width="34.200001"
           style="fill:#3a3a38"
           y="129.10001"
           x="231" />
        <rect
           id="rect11226"
           height="9.1999998"
           width="34.200001"
           style="fill:#3a3a38"
           y="97.900002"
           x="231" />
      </g>
      <g
         id="g11230" />
      <g
         id="g11232" />
      <g
         id="g11234" />
      <g
         id="g11236" />
      <g
         id="g11238" />
      <g
         id="g11240" />
      <g
         id="g11242" />
      <g
         id="g11244" />
      <g
         id="g11246" />
      <g
         id="g11248" />
      <g
         id="g11250" />
      <g
         id="g11252" />
      <g
         id="g11254" />
      <g
         id="g11256" />
      <g
         id="g11258" />
    </g>
    <g
       id="g12501"
       transform="matrix(0.26458333,0,0,0.26458333,-855.14167,211.66246)">
      <path
         id="path12380"
         d="M 496.2,248.1 C 496.2,111.1 385.1,0 248.1,0 111.1,0 0,111.1 0,248.1 c 0,137 111.1,248.1 248.1,248.1 137,0 248.1,-111.1 248.1,-248.1 z"
         style="fill:#32bea6"
         inkscape:connector-curvature="0" />
      <path
         id="path12382"
         d="m 147.4,120.4 v 0 c 0,0 -0.1,0 -0.1,0.1 0,0 -0.1,0 -0.1,0.1 v 0 c -24,14.3 -37.2,52.9 -2,95.9 15.9,19.5 46.9,35 51.1,36.7 3.8,1.6 10.9,4.5 17.5,12 5.2,6 19.4,21.8 34.5,47.4 15,25.5 24.2,45 34.2,65.1 4.2,8.5 12,21.5 24.6,14.3 v 0 c 0,0 0.1,0 0.1,-0.1 0,0 0.1,0 0.1,-0.1 v 0 c 12.5,-7.5 4.9,-20.6 -0.5,-28.4 -12.7,-18.5 -25.3,-36 -40.4,-61.5 -15,-25.5 -22,-45.7 -24.7,-53.1 -3.4,-9.4 -2.5,-17 -2,-21.1 0.5,-4.5 2,-39.1 -7.4,-62.5 -20.6,-51.7 -60.8,-58.8 -84.9,-44.8 z"
         style="fill:#334d5c"
         inkscape:connector-curvature="0" />
      <path
         id="path12384"
         d="m 241.6,248.7 c -3.4,-9.4 -2.5,-17 -2,-21.1 0.3,-2.5 0.8,-14 -0.2,-27.7 -9.9,7.5 -20.6,15.1 -30.9,21.2 -11,6.5 -24.1,12.8 -36.6,18.2 11.6,7.7 22.1,12.9 24.4,13.8 3.8,1.6 10.9,4.5 17.5,12 1,1.1 2.2,2.5 3.7,4.3 L 243.7,254 c -1,-2.1 -1.6,-3.9 -2.1,-5.3 z"
         style="fill:#387a9b"
         inkscape:connector-curvature="0" />
      <path
         id="path12386"
         d="m 217.4,269.5 c 6.7,7.8 18.5,22.2 30.8,43.1 15,25.5 24.2,45 34.2,65.1 4.2,8.5 12,21.5 24.6,14.3 v 0 c 0,0 0.1,0 0.1,-0.1 0,0 0.1,0 0.1,-0.1 v 0 c 12.5,-7.5 4.9,-20.6 -0.5,-28.4 C 294,344.9 281.4,327.4 266.3,301.9 254,281 247.1,263.8 243.5,254.1 Z"
         style="fill:#a03317"
         inkscape:connector-curvature="0" />
      <path
         id="path12388"
         d="m 193.8,119.4 c -16.5,-7.9 -33.7,-6.4 -46.5,1.1 v 0 c 0,0 -0.1,0 -0.1,0.1 0,0 -0.1,0 -0.1,0.1 v 0 c -12.6,7.5 -22.3,21.8 -23.4,39.9 11.5,-5.5 24.4,-12.1 37.3,-19.7 12.1,-7.3 23.2,-14.7 32.8,-21.5 z"
         style="fill:#e5aa17"
         inkscape:connector-curvature="0" />
      <path
         id="path12390"
         d="m 209.8,130.4 c -1.3,-1.2 -2.7,-2.4 -4,-3.5 -10.8,7.8 -23.7,16.5 -38.1,25 -15.3,9 -30.3,16.6 -43.2,22.6 0.3,1.7 0.7,3.5 1.1,5.2 13.2,-6.1 28.9,-13.9 44.7,-23.2 15.1,-8.8 28.5,-18 39.5,-26.1 z"
         style="fill:#387a9b"
         inkscape:connector-curvature="0" />
      <path
         id="path12392"
         d="m 237.5,184.9 c -1.2,-6.8 -2.9,-13.7 -5.3,-19.7 -3.9,-9.9 -8.6,-18.1 -13.7,-24.9 -11.4,8.4 -25.5,18.1 -41.5,27.5 -16.8,9.9 -33.3,18.1 -47.1,24.4 3.5,7.8 8.4,16 15.2,24.3 4.1,5 9.1,9.7 14.4,14 14.1,-6 29.7,-13.1 42.2,-20.5 11.9,-7.1 24.6,-16.4 35.8,-25.1 z"
         style="fill:#334d5c"
         inkscape:connector-curvature="0" />
      <g
         id="g12402">
        <path
           id="path12394"
           d="m 205.7,126.9 c -3.9,-3.1 -7.9,-5.6 -11.9,-7.5 -9.6,6.8 -20.7,14.2 -32.8,21.3 -12.9,7.6 -25.8,14.2 -37.3,19.7 -0.3,4.5 -0.1,9.2 0.8,14.1 12.9,-6 27.9,-13.6 43.2,-22.6 14.4,-8.5 27.3,-17.2 38,-25 z"
           style="fill:#ffffff"
           inkscape:connector-curvature="0" />
        <path
           id="path12396"
           d="m 218.5,140.2 c -2.8,-3.7 -5.7,-6.9 -8.7,-9.8 -11,8.1 -24.4,17.2 -39.4,26.1 -15.8,9.3 -31.5,17.1 -44.7,23.2 1,4 2.4,8.2 4.3,12.4 13.7,-6.3 30.2,-14.5 47.1,-24.4 15.9,-9.4 30,-19.1 41.4,-27.5 z"
           style="fill:#ffffff"
           inkscape:connector-curvature="0" />
        <path
           id="path12398"
           d="m 239.3,200 c -0.4,-4.9 -1,-10 -1.8,-15.1 -11.1,8.8 -23.8,18 -35.7,25 -12.5,7.4 -28.1,14.6 -42.2,20.5 4,3.2 8.2,6.2 12.3,8.9 12.5,-5.5 25.5,-11.7 36.6,-18.2 10.2,-6 20.9,-13.6 30.8,-21.1 z"
           style="fill:#ffffff"
           inkscape:connector-curvature="0" />
        <path
           id="path12400"
           d="m 214.2,265.8 c 2,2.3 5,5.7 8.7,10.2 4.7,-2.4 9.3,-4.9 13.5,-7.4 3.4,-2 6.9,-4.2 10.3,-6.5 -2.2,-5.4 -3.7,-9.7 -4.7,-12.5 -4.1,2.8 -8.2,5.4 -12.2,7.7 -4.9,2.9 -10.2,5.7 -15.6,8.5 z"
           style="fill:#ffffff"
           inkscape:connector-curvature="0" />
      </g>
      <path
         id="path12404"
         d="m 348.8,120.4 v 0 c 0,0 0.1,0 0.1,0.1 0,0 0.1,0 0.1,0.1 v 0 c 24,14.3 37.2,52.9 2,95.9 -15.9,19.5 -46.9,35 -51.1,36.7 -3.8,1.6 -10.9,4.5 -17.5,12 -5.2,6 -19.4,21.8 -34.5,47.4 -15,25.5 -24.2,45 -34.2,65.1 -4.2,8.5 -12,21.5 -24.6,14.3 v 0 c 0,0 -0.1,0 -0.1,-0.1 0,0 -0.1,0 -0.1,-0.1 v 0 c -12.5,-7.5 -4.9,-20.6 0.5,-28.4 12.7,-18.5 25.3,-36 40.4,-61.5 15,-25.5 22,-45.7 24.7,-53.1 3.4,-9.4 2.5,-17 2,-21.1 -0.5,-4.5 -2,-39.1 7.4,-62.5 20.6,-51.7 60.8,-58.8 84.9,-44.8 z"
         style="fill:#334d5c"
         inkscape:connector-curvature="0" />
      <path
         id="path12406"
         d="m 254.6,248.7 c 3.4,-9.4 2.5,-17 2,-21.1 -0.3,-2.5 -0.8,-14 0.2,-27.7 9.9,7.5 20.6,15.1 30.9,21.2 11,6.5 24.1,12.8 36.6,18.2 -11.6,7.7 -22.1,12.9 -24.4,13.8 -3.8,1.6 -10.9,4.5 -17.5,12 -1,1.1 -2.2,2.5 -3.7,4.3 l -26,-15.3 c 0.8,-2.2 1.4,-4 1.9,-5.4 z"
         style="fill:#387a9b"
         inkscape:connector-curvature="0" />
      <path
         id="path12408"
         d="m 278.8,269.5 c -6.7,7.8 -18.5,22.2 -30.8,43.1 -15,25.5 -24.2,45 -34.2,65.1 -4.2,8.5 -12,21.5 -24.6,14.3 v 0 c 0,0 -0.1,0 -0.1,-0.1 0,0 -0.1,0 -0.1,-0.1 v 0 c -12.5,-7.5 -4.9,-20.6 0.5,-28.4 12.7,-18.5 25.3,-36 40.4,-61.5 12.3,-20.9 19.2,-38.1 22.8,-47.8 z"
         style="fill:#b54215"
         inkscape:connector-curvature="0" />
      <path
         id="path12410"
         d="m 302.4,119.4 c 16.5,-7.9 33.7,-6.4 46.5,1.1 v 0 c 0,0 0.1,0 0.1,0.1 0,0 0.1,0 0.1,0.1 v 0 c 12.6,7.5 22.3,21.8 23.4,39.9 -11.5,-5.5 -24.4,-12.1 -37.3,-19.7 -12.1,-7.3 -23.2,-14.7 -32.8,-21.5 z"
         style="fill:#e5aa17"
         inkscape:connector-curvature="0" />
      <path
         id="path12412"
         d="m 286.4,130.4 c 1.3,-1.2 2.7,-2.4 4,-3.5 10.8,7.8 23.7,16.5 38.1,25 15.3,9 30.3,16.6 43.2,22.6 -0.3,1.7 -0.7,3.5 -1.1,5.2 -13.2,-6.1 -28.9,-13.9 -44.7,-23.2 -15.1,-8.8 -28.5,-18 -39.5,-26.1 z"
         style="fill:#387a9b"
         inkscape:connector-curvature="0" />
      <path
         id="path12414"
         d="m 258.7,184.9 c 1.2,-6.8 2.9,-13.7 5.3,-19.7 3.9,-9.9 8.6,-18.1 13.7,-24.9 11.4,8.4 25.5,18.1 41.5,27.5 16.8,9.9 33.3,18.1 47.1,24.4 -3.5,7.8 -8.4,16 -15.2,24.3 -4.1,5 -9.1,9.7 -14.4,14 -14.1,-6 -29.7,-13.1 -42.2,-20.5 -11.9,-7.1 -24.6,-16.4 -35.8,-25.1 z"
         style="fill:#334d5c"
         inkscape:connector-curvature="0" />
      <g
         id="g12424">
        <path
           id="path12416"
           d="m 290.5,126.9 c 3.9,-3.1 7.9,-5.6 11.9,-7.5 9.6,6.8 20.7,14.2 32.8,21.3 12.9,7.6 25.8,14.2 37.3,19.7 0.3,4.5 0.1,9.2 -0.8,14.1 -12.9,-6 -27.9,-13.6 -43.2,-22.6 -14.4,-8.5 -27.3,-17.2 -38,-25 z"
           style="fill:#ffffff"
           inkscape:connector-curvature="0" />
        <path
           id="path12418"
           d="m 277.7,140.2 c 2.8,-3.7 5.7,-6.9 8.7,-9.8 11,8.1 24.4,17.2 39.4,26.1 15.8,9.3 31.5,17.1 44.7,23.2 -1,4 -2.4,8.2 -4.3,12.4 -13.7,-6.3 -30.2,-14.5 -47.1,-24.4 -15.9,-9.4 -30,-19.1 -41.4,-27.5 z"
           style="fill:#ffffff"
           inkscape:connector-curvature="0" />
        <path
           id="path12420"
           d="m 256.9,200 c 0.4,-4.9 1,-10 1.8,-15.1 11.1,8.8 23.8,18 35.7,25 12.5,7.4 28.1,14.6 42.2,20.5 -4,3.2 -8.2,6.2 -12.3,8.9 -12.5,-5.5 -25.5,-11.7 -36.6,-18.2 -10.2,-6 -20.9,-13.6 -30.8,-21.1 z"
           style="fill:#ffffff"
           inkscape:connector-curvature="0" />
        <path
           id="path12422"
           d="m 282,265.8 c -2,2.3 -5,5.7 -8.7,10.2 -4.7,-2.4 -9.3,-4.9 -13.5,-7.4 -3.4,-2 -6.9,-4.2 -10.3,-6.5 2.2,-5.4 3.7,-9.7 4.7,-12.5 4.1,2.8 8.2,5.4 12.2,7.7 4.9,2.9 10.2,5.7 15.6,8.5 z"
           style="fill:#ffffff"
           inkscape:connector-curvature="0" />
      </g>
      <g
         id="g12426" />
      <g
         id="g12428" />
      <g
         id="g12430" />
      <g
         id="g12432" />
      <g
         id="g12434" />
      <g
         id="g12436" />
      <g
         id="g12438" />
      <g
         id="g12440" />
      <g
         id="g12442" />
      <g
         id="g12444" />
      <g
         id="g12446" />
      <g
         id="g12448" />
      <g
         id="g12450" />
      <g
         id="g12452" />
      <g
         id="g12454" />
    </g>
    <g
       id="g13605"
       transform="matrix(0.26458333,0,0,0.26458333,39.356876,-329.06536)">
      <path
         id="path13547"
         d="M 496.2,248.1 C 496.2,111.1 385.1,0 248.1,0 111.1,0 0,111.1 0,248.1 c 0,137 111.1,248.1 248.1,248.1 137,0 248.1,-111.1 248.1,-248.1 z"
         style="fill:#ea4949"
         inkscape:connector-curvature="0" />
      <path
         id="path13549"
         d="m 359.6,314.2 c 0,0 -25,-185.4 -25.5,-185.3 l -155.7,9.7 c -0.9,0.1 18,166.4 18,166.4 -11.7,-6.1 -28.3,-6.3 -43.9,0.8 -23.5,10.7 -36,33.8 -27.9,51.6 8.1,17.8 33.7,23.6 57.2,12.9 19.9,-9.1 32,-27 30.2,-43.1 v 0 l -17.4,-153.1 131.2,-8.2 18,126.3 c -11.7,-6.1 -28.3,-6.3 -43.9,0.8 -23.5,10.7 -36,33.8 -27.9,51.6 8.1,17.8 33.7,23.6 57.2,12.9 20.1,-9.2 32.1,-27.2 30.4,-43.3 z"
         style="fill:#3a3a38"
         inkscape:connector-curvature="0" />
      <g
         id="g13551" />
      <g
         id="g13553" />
      <g
         id="g13555" />
      <g
         id="g13557" />
      <g
         id="g13559" />
      <g
         id="g13561" />
      <g
         id="g13563" />
      <g
         id="g13565" />
      <g
         id="g13567" />
      <g
         id="g13569" />
      <g
         id="g13571" />
      <g
         id="g13573" />
      <g
         id="g13575" />
      <g
         id="g13577" />
      <g
         id="g13579" />
    </g>
    <g
       id="g13665"
       transform="matrix(0.26458333,0,0,0.26458333,-760.44718,-293.20665)">
      <path
         id="path13607"
         d="M 496.2,248.1 C 496.2,111.1 385.1,0 248.1,0 111.1,0 0,111.1 0,248.1 c 0,137 111.1,248.1 248.1,248.1 137,0 248.1,-111.1 248.1,-248.1 z"
         style="fill:#32bea6"
         inkscape:connector-curvature="0" />
      <path
         id="path13609"
         d="m 344.8,209.8 c -2.3,-9 -6.9,-17.7 -13.2,-25.3 -6,-7.3 -13,-13.1 -19.6,-18.4 l -1.6,-1.3 c -2.8,-2.2 -5.4,-4.3 -7.8,-6.5 -2.6,-2.3 -5.4,-5 -8.2,-8.1 -5,-5.5 -9.8,-11.8 -14.2,-18.6 -2.1,-3.3 -4.1,-6.7 -6,-10.2 -0.9,-1.7 -1.8,-3.5 -2.7,-5.2 -1,-2 -1.7,-3.7 -2.3,-5 v -0.1 c -0.1,-0.2 -0.2,-0.4 -0.2,-0.5 -2,-4.2 -6.4,-6.7 -11,-6.3 -1.4,0.1 -2.7,0.5 -3.9,1.1 -2.7,1.3 -4.7,3.5 -5.7,6.4 -0.3,0.8 -0.5,1.7 -0.6,2.6 -0.2,0.9 -0.4,1.8 -0.3,2.8 L 261.9,295 c -14.7,-8.7 -36.1,-10.1 -56.8,-2.1 -31.2,12.2 -49,41.1 -39.8,64.7 9.2,23.6 41.9,32.9 73.1,20.7 26.4,-10.3 43.3,-32.7 42.2,-53.7 v 0 L 266.4,148.1 c 4.5,5.7 9.1,11 14,15.8 3.5,3.4 6.9,6.4 10.2,9 2.9,2.3 5.9,4.4 8.7,6.4 l 1.8,1.3 c 6.2,4.4 12.7,9.2 18,15 5.2,5.5 8.9,11.7 11,18.5 2.1,6.5 2.9,14 2.5,22.2 -0.4,7.2 -1.7,14.8 -4,23.4 -2,7.3 -4.5,14.9 -7.9,23.2 -1.1,2.8 0.2,6 3,7.2 0.9,0.4 1.8,0.5 2.7,0.4 1.9,-0.2 3.7,-1.3 4.6,-3.2 4,-8.5 7.1,-16.3 9.7,-24 3,-9.3 5,-17.8 5.9,-25.9 0.9,-9.9 0.4,-19.2 -1.8,-27.6 z"
         style="fill:#3a3a38"
         inkscape:connector-curvature="0" />
      <g
         id="g13611" />
      <g
         id="g13613" />
      <g
         id="g13615" />
      <g
         id="g13617" />
      <g
         id="g13619" />
      <g
         id="g13621" />
      <g
         id="g13623" />
      <g
         id="g13625" />
      <g
         id="g13627" />
      <g
         id="g13629" />
      <g
         id="g13631" />
      <g
         id="g13633" />
      <g
         id="g13635" />
      <g
         id="g13637" />
      <g
         id="g13639" />
    </g>
    <g
       id="g13752"
       transform="matrix(0.26458333,0,0,0.26458333,-702.52989,-160.27996)">
      <path
         id="path13667"
         d="M 496.2,248.1 C 496.2,111.1 385.1,0 248.1,0 111.1,0 0,111.1 0,248.1 c 0,137 111.1,248.1 248.1,248.1 137,0 248.1,-111.1 248.1,-248.1 z"
         style="fill:#fabc3d"
         inkscape:connector-curvature="0" />
      <g
         id="g13679">
        <path
           id="path13669"
           d="m 0.1,241.4 h 496 c -0.1,-2.7 -0.2,-5.4 -0.4,-8.1 H 0.5 c -0.2,2.7 -0.3,5.4 -0.4,8.1 z"
           style="fill:#ffffff"
           inkscape:connector-curvature="0" />
        <path
           id="path13671"
           d="m 9.7,179.4 h 476.9 c -0.8,-2.7 -1.6,-5.4 -2.5,-8.1 h -472 c -0.8,2.7 -1.7,5.4 -2.4,8.1 z"
           style="fill:#ffffff"
           inkscape:connector-curvature="0" />
        <path
           id="path13673"
           d="M 453.8,109.4 H 42.4 c -1.8,2.7 -3.5,5.4 -5.2,8.1 H 459 c -1.7,-2.8 -3.4,-5.5 -5.2,-8.1 z"
           style="fill:#ffffff"
           inkscape:connector-curvature="0" />
        <path
           id="path13675"
           d="m 6.2,303.4 h 483.7 c 0.6,-2.7 1.2,-5.4 1.7,-8.1 H 4.5 c 0.6,2.8 1.1,5.5 1.7,8.1 z"
           style="fill:#ffffff"
           inkscape:connector-curvature="0" />
        <path
           id="path13677"
           d="m 29.5,365.4 h 437.2 c 1.4,-2.7 2.8,-5.4 4.2,-8.1 H 25.3 c 1.4,2.8 2.8,5.5 4.2,8.1 z"
           style="fill:#ffffff"
           inkscape:connector-curvature="0" />
      </g>
      <g
         id="g13687">
        <path
           id="path13681"
           d="m 148.2,150 c 0,-3 -2.4,-5.4 -5.4,-5.4 -3,0 -5.4,2.4 -5.4,5.4 v 136.9 c -7.7,-5.1 -19,-8.3 -31.5,-8.3 -23.3,0 -42.2,11.1 -42.2,24.9 0,13.8 18.9,24.9 42.2,24.9 22.5,0 40.9,-10.4 42.1,-23.4 0.1,-0.4 0.2,-0.9 0.2,-1.3 z"
           style="fill:#3a3a38"
           inkscape:connector-curvature="0" />
        <path
           id="path13683"
           d="m 290.3,82.6 c 0,-3 -2.4,-5.4 -5.4,-5.4 -3,0 -5.4,2.4 -5.4,5.4 v 136.9 c -7.7,-5.1 -19,-8.3 -31.5,-8.3 -23.3,0 -42.2,11.1 -42.2,24.9 0,13.8 18.9,24.9 42.2,24.9 22.5,0 40.9,-10.4 42.1,-23.4 0.1,-0.4 0.2,-0.9 0.2,-1.3 z"
           style="fill:#3a3a38"
           inkscape:connector-curvature="0" />
        <path
           id="path13685"
           d="m 406.2,205.5 c 0,-3 -2.4,-5.4 -5.4,-5.4 -3,0 -5.4,2.4 -5.4,5.4 v 136.9 c -7.7,-5.1 -19,-8.3 -31.5,-8.3 -23.3,0 -42.2,11.1 -42.2,24.9 0,13.8 18.9,24.9 42.2,24.9 22.5,0 40.9,-10.4 42.1,-23.4 0.1,-0.4 0.2,-0.9 0.2,-1.3 z"
           style="fill:#3a3a38"
           inkscape:connector-curvature="0" />
      </g>
      <g
         id="g13689" />
      <g
         id="g13691" />
      <g
         id="g13693" />
      <g
         id="g13695" />
      <g
         id="g13697" />
      <g
         id="g13699" />
      <g
         id="g13701" />
      <g
         id="g13703" />
      <g
         id="g13705" />
      <g
         id="g13707" />
      <g
         id="g13709" />
      <g
         id="g13711" />
      <g
         id="g13713" />
      <g
         id="g13715" />
      <g
         id="g13717" />
    </g>
    <g
       id="g14007"
       transform="matrix(1.1790092,0,0,1.1843228,38.859942,604.88435)">
      <g
         id="g13949">
        <circle
           id="circle13943"
           r="56.098"
           cy="56.098"
           cx="56.098"
           style="fill:#ff6a22" />
        <g
           id="g13947">
          <path
             id="path13945"
             d="m 16.707,68.833 c -0.027,0.182 -0.157,0.312 -0.326,0.312 -0.169,0 -0.299,-0.13 -0.325,-0.316 l -0.593,-4.438 0.593,-4.512 c 0.025,-0.188 0.155,-0.318 0.325,-0.318 0.168,0 0.298,0.13 0.326,0.318 l 0.706,4.517 z m 3.021,2.696 c -0.028,0.193 -0.168,0.328 -0.341,0.328 -0.168,0 -0.315,-0.135 -0.338,-0.328 l -0.798,-7.139 0.798,-7.299 c 0.024,-0.188 0.17,-0.328 0.338,-0.328 0.173,0 0.313,0.137 0.341,0.328 l 0.908,7.299 z m 3.26,1.209 c -0.023,0.232 -0.197,0.397 -0.406,0.397 -0.216,0 -0.387,-0.165 -0.408,-0.397 l -0.757,-8.342 0.757,-8.659 c 0.019,-0.235 0.192,-0.403 0.408,-0.403 0.209,0 0.382,0.168 0.406,0.403 l 0.859,8.659 z m 3.292,0.265 c -0.024,0.266 -0.232,0.467 -0.479,0.467 -0.253,0 -0.46,-0.201 -0.481,-0.467 l -0.715,-8.607 0.715,-8.897 c 0.021,-0.268 0.228,-0.469 0.481,-0.469 0.247,0 0.455,0.201 0.479,0.469 l 0.811,8.897 z m 3.31,0.069 c -0.017,0.309 -0.258,0.538 -0.543,0.538 -0.294,0 -0.527,-0.229 -0.547,-0.538 L 27.824,64.395 28.5,56.141 c 0.021,-0.307 0.253,-0.536 0.547,-0.536 0.29,0 0.526,0.229 0.543,0.532 l 0.766,8.258 z m 3.342,0.005 v -0.005 c -0.02,0.342 -0.291,0.612 -0.617,0.612 -0.327,0 -0.598,-0.271 -0.617,-0.607 L 31.067,64.4 31.698,50.971 c 0.019,-0.342 0.29,-0.612 0.617,-0.612 0.327,0 0.598,0.271 0.617,0.607 L 33.647,64.4 Z m 3.317,-0.005 v -0.005 c -0.02,0.378 -0.319,0.679 -0.689,0.679 -0.363,0 -0.663,-0.301 -0.681,-0.679 l -0.596,-8.621 0.596,-16.501 c 0.018,-0.378 0.318,-0.677 0.681,-0.677 0.37,0 0.669,0.299 0.689,0.677 l 0.671,16.501 z m 3.441,-0.133 v -0.005 c -0.015,0.421 -0.346,0.748 -0.753,0.748 -0.407,0 -0.738,-0.327 -0.753,-0.743 l -0.553,-8.533 c 0,0 0.553,-17.876 0.553,-17.881 0.016,-0.416 0.346,-0.749 0.753,-0.749 0.407,0 0.739,0.333 0.753,0.749 l 0.625,17.881 z m 3.421,-0.057 c -0.016,0.458 -0.375,0.817 -0.822,0.817 -0.448,0 -0.807,-0.359 -0.823,-0.813 L 40.95,64.404 41.466,45.926 c 0.016,-0.46 0.375,-0.818 0.823,-0.818 0.447,0 0.807,0.358 0.822,0.818 l 0.573,18.478 z m 3.443,-0.075 v -0.005 c -0.016,0.495 -0.403,0.888 -0.894,0.888 -0.484,0 -0.879,-0.393 -0.888,-0.883 L 44.298,64.406 44.767,46.4 c 0.014,-0.502 0.408,-0.89 0.893,-0.89 0.491,0 0.878,0.388 0.894,0.89 l 0.532,18.006 z m 3.471,-0.05 V 72.75 c -0.008,0.539 -0.434,0.954 -0.96,0.954 -0.53,0 -0.95,-0.415 -0.966,-0.947 L 47.671,64.405 48.1,47.058 c 0.016,-0.538 0.436,-0.959 0.966,-0.959 0.526,0 0.952,0.421 0.96,0.959 l 0.485,17.352 z m 3.541,-0.881 -0.043,0.818 c -0.005,0.285 -0.125,0.543 -0.308,0.729 -0.188,0.183 -0.446,0.3 -0.719,0.3 -0.318,0 -0.598,-0.146 -0.79,-0.376 -0.142,-0.167 -0.23,-0.383 -0.24,-0.61 -0.003,-0.01 -0.003,-0.023 -0.003,-0.037 0,0 -0.395,-8.286 -0.395,-8.3 l 0.39,-20.443 0.005,-0.196 c 0.003,-0.358 0.193,-0.677 0.477,-0.86 0.159,-0.106 0.347,-0.168 0.557,-0.168 0.206,0 0.401,0.064 0.564,0.177 0.277,0.185 0.458,0.496 0.463,0.852 l 0.434,20.648 z m 3.441,0.711 v -0.01 c -0.007,0.604 -0.502,1.096 -1.1,1.096 -0.6,0 -1.094,-0.492 -1.1,-1.091 l -0.227,-4.03 -0.223,-4.138 0.45,-22.406 v -0.113 c 10e-4,-0.34 0.161,-0.644 0.408,-0.849 0.189,-0.155 0.432,-0.249 0.692,-0.249 0.207,0 0.399,0.057 0.563,0.153 0.313,0.196 0.532,0.543 0.542,0.94 l 0.487,22.523 z m 29.733,1.108 c 0,0 -27.683,0 -27.712,0 -0.598,-0.061 -1.071,-0.537 -1.081,-1.15 V 40.821 c 0.01,-0.584 0.211,-0.885 0.963,-1.174 1.941,-0.752 4.139,-1.196 6.398,-1.196 9.215,0 16.766,7.069 17.567,16.074 1.186,-0.495 2.496,-0.777 3.865,-0.777 5.518,0 9.992,4.476 9.992,9.998 0,5.521 -4.474,9.949 -9.992,9.949 z"
             style="fill:#f1f2f2"
             inkscape:connector-curvature="0" />
        </g>
      </g>
      <g
         id="g13951" />
      <g
         id="g13953" />
      <g
         id="g13955" />
      <g
         id="g13957" />
      <g
         id="g13959" />
      <g
         id="g13961" />
      <g
         id="g13963" />
      <g
         id="g13965" />
      <g
         id="g13967" />
      <g
         id="g13969" />
      <g
         id="g13971" />
      <g
         id="g13973" />
      <g
         id="g13975" />
      <g
         id="g13977" />
      <g
         id="g13979" />
    </g>
    <g
       id="g16247"
       transform="matrix(0.26458333,0,0,0.26458333,44.98,739.40107)">
      <circle
         id="circle16165"
         r="254.644"
         cy="254.644"
         cx="254.644"
         style="fill:#6eb1e1" />
      <polygon
         id="polygon16167"
         points="64.085,202.766 241.759,258.374 131.221,407.566 143.767,417.06 254.644,267.528 365.521,417.06 378.066,407.566 267.528,258.374 445.203,202.766 440.117,187.507 262.442,243.454 262.442,63.068 246.845,63.068 246.845,243.454 69.171,187.507 "
         style="fill:#646b79" />
      <path
         id="path16169"
         d="m 335.004,235.317 c 0,-32.551 -26.448,-58.999 -58.999,-58.999 -22.379,0 -41.706,12.207 -51.539,30.517 -62.728,-13.224 -53.234,47.131 -53.574,47.131 -18.31,0 -33.568,14.919 -33.568,33.568 0,18.31 14.919,33.568 33.568,33.568 H 328.9 c 23.735,0 42.723,-18.988 42.723,-42.723 0.001,-35.603 -36.619,-43.062 -36.619,-43.062 z"
         style="fill:#fcfcfd"
         inkscape:connector-curvature="0" />
      <path
         id="path16171"
         d="M 377.727,420.111 H 131.56 L 55.269,193.271 254.644,53.234 454.019,193.271 Z M 143.089,404.175 H 366.538 L 435.37,199.375 254.644,72.901 74.257,199.714 Z"
         style="fill:#dededf"
         inkscape:connector-curvature="0" />
      <g
         id="g16183">
        <circle
           id="circle16173"
           r="37.637001"
           cy="63.068001"
           cx="254.644"
           style="fill:#fcfcfd" />
        <circle
           id="circle16175"
           r="37.637001"
           cy="412.31299"
           cx="137.664"
           style="fill:#fcfcfd" />
        <circle
           id="circle16177"
           r="37.637001"
           cy="412.31299"
           cx="371.62399"
           style="fill:#fcfcfd" />
        <circle
           id="circle16179"
           r="37.637001"
           cy="194.967"
           cx="66.796997"
           style="fill:#fcfcfd" />
        <circle
           id="circle16181"
           r="37.637001"
           cy="194.967"
           cx="442.48999"
           style="fill:#fcfcfd" />
      </g>
      <g
         id="g16185" />
      <g
         id="g16187" />
      <g
         id="g16189" />
      <g
         id="g16191" />
      <g
         id="g16193" />
      <g
         id="g16195" />
      <g
         id="g16197" />
      <g
         id="g16199" />
      <g
         id="g16201" />
      <g
         id="g16203" />
      <g
         id="g16205" />
      <g
         id="g16207" />
      <g
         id="g16209" />
      <g
         id="g16211" />
      <g
         id="g16213" />
    </g>
    <g
       id="g16322"
       transform="matrix(0.26458333,0,0,0.26458333,37.625443,468.49479)">
      <circle
         id="circle16249"
         r="254.644"
         cy="254.644"
         cx="254.644"
         style="fill:#4f5565" />
      <path
         id="path16251"
         d="M 410.956,428.927 H 101.722 c -12.207,0 -22.04,-11.189 -22.04,-25.43 V 135.29 c 0,-13.902 9.833,-25.43 22.04,-25.43 h 80.699 c 6.781,0 13.224,3.73 17.293,9.833 l 7.799,11.528 c 4.069,6.103 10.511,9.833 17.293,9.833 h 186.49 c 12.207,0 22.04,11.189 22.04,25.43 v 237.351 c -0.679,13.564 -10.512,25.092 -22.38,25.092 z"
         style="fill:#f8b517"
         inkscape:connector-curvature="0" />
      <rect
         id="rect16253"
         height="364.84201"
         width="289.90701"
         style="fill:#fcfcfd"
         y="64.084999"
         x="111.216" />
      <rect
         id="rect16255"
         height="25.091"
         width="289.90701"
         style="fill:#6eb1e1"
         y="64.084999"
         x="111.216" />
      <path
         id="path16257"
         d="m 136.985,220.397 h 308.556 c 13.563,0 24.074,11.528 21.701,24.074 l -31.195,167.502 c -1.695,9.833 -10.85,16.954 -21.701,16.954 H 105.791 c -13.563,0 -24.074,-11.528 -21.701,-24.074 l 31.195,-167.502 c 1.695,-9.833 10.85,-16.954 21.7,-16.954 z"
         style="fill:#fbd303"
         inkscape:connector-curvature="0" />
      <rect
         id="rect16259"
         height="19.666"
         width="138.681"
         style="fill:#f1f3f7"
         y="111.216"
         x="144.784" />
      <rect
         id="rect16261"
         height="48.487"
         width="226.50101"
         style="fill:#71d456"
         y="155.634"
         x="144.784" />
      <g
         id="g16263" />
      <g
         id="g16265" />
      <g
         id="g16267" />
      <g
         id="g16269" />
      <g
         id="g16271" />
      <g
         id="g16273" />
      <g
         id="g16275" />
      <g
         id="g16277" />
      <g
         id="g16279" />
      <g
         id="g16281" />
      <g
         id="g16283" />
      <g
         id="g16285" />
      <g
         id="g16287" />
      <g
         id="g16289" />
      <g
         id="g16291" />
    </g>
  </g>
</svg>
