<?xml version="1.0" encoding="UTF-8" standalone="no"?>
<!-- Created with Inkscape (http://www.inkscape.org/) -->

<svg
   xmlns:dc="http://purl.org/dc/elements/1.1/"
   xmlns:cc="http://creativecommons.org/ns#"
   xmlns:rdf="http://www.w3.org/1999/02/22-rdf-syntax-ns#"
   xmlns:svg="http://www.w3.org/2000/svg"
   xmlns="http://www.w3.org/2000/svg"
   xmlns:sodipodi="http://sodipodi.sourceforge.net/DTD/sodipodi-0.dtd"
   xmlns:inkscape="http://www.inkscape.org/namespaces/inkscape"
   width="48"
   height="48"
   viewBox="0 0 12.7 12.7"
   version="1.1"
   id="svg14015"
   inkscape:version="0.92.2 (5c3e80d, 2017-08-06)"
   sodipodi:docname="all_music.svg"
   inkscape:export-xdpi="96"
   inkscape:export-ydpi="96">
  <defs
     id="defs14009" />
  <sodipodi:namedview
     id="base"
     pagecolor="#ffffff"
     bordercolor="#666666"
     borderopacity="1.0"
     inkscape:pageopacity="0.0"
     inkscape:pageshadow="2"
     inkscape:zoom="3.959798"
     inkscape:cx="92.216813"
     inkscape:cy="15.316214"
     inkscape:document-units="px"
     inkscape:current-layer="layer1"
     showgrid="false"
     units="px"
     inkscape:window-width="1920"
     inkscape:window-height="1017"
     inkscape:window-x="-8"
     inkscape:window-y="-8"
     inkscape:window-maximized="1" />
  <metadata
     id="metadata14012">
    <rdf:RDF>
      <cc:Work
         rdf:about="">
        <dc:format>image/svg+xml</dc:format>
        <dc:type
           rdf:resource="http://purl.org/dc/dcmitype/StillImage" />
        <dc:title />
      </cc:Work>
    </rdf:RDF>
  </metadata>
  <g
     inkscape:label="Layer 1"
     inkscape:groupmode="layer"
     id="layer1"
     transform="translate(0,-284.29999)">
    <g
       id="g13605"
       transform="matrix(0.02399486,0,0,0.02399486,0.39687523,284.69687)">
      <path
         id="path13547"
         d="M 496.2,248.1 C 496.2,111.1 385.1,0 248.1,0 111.1,0 0,111.1 0,248.1 c 0,137 111.1,248.1 248.1,248.1 137,0 248.1,-111.1 248.1,-248.1 z"
         style="fill:#ea4949"
         inkscape:connector-curvature="0" />
      <path
         id="path13549"
         d="m 359.6,314.2 c 0,0 -25,-185.4 -25.5,-185.3 l -155.7,9.7 c -0.9,0.1 18,166.4 18,166.4 -11.7,-6.1 -28.3,-6.3 -43.9,0.8 -23.5,10.7 -36,33.8 -27.9,51.6 8.1,17.8 33.7,23.6 57.2,12.9 19.9,-9.1 32,-27 30.2,-43.1 v 0 l -17.4,-153.1 131.2,-8.2 18,126.3 c -11.7,-6.1 -28.3,-6.3 -43.9,0.8 -23.5,10.7 -36,33.8 -27.9,51.6 8.1,17.8 33.7,23.6 57.2,12.9 20.1,-9.2 32.1,-27.2 30.4,-43.3 z"
         style="fill:#3a3a38"
         inkscape:connector-curvature="0" />
      <g
         id="g13551" />
      <g
         id="g13553" />
      <g
         id="g13555" />
      <g
         id="g13557" />
      <g
         id="g13559" />
      <g
         id="g13561" />
      <g
         id="g13563" />
      <g
         id="g13565" />
      <g
         id="g13567" />
      <g
         id="g13569" />
      <g
         id="g13571" />
      <g
         id="g13573" />
      <g
         id="g13575" />
      <g
         id="g13577" />
      <g
         id="g13579" />
    </g>
  </g>
</svg>
