<?xml version="1.0" encoding="UTF-8" standalone="no"?>
<!-- Created with Inkscape (http://www.inkscape.org/) -->

<svg
   xmlns:dc="http://purl.org/dc/elements/1.1/"
   xmlns:cc="http://creativecommons.org/ns#"
   xmlns:rdf="http://www.w3.org/1999/02/22-rdf-syntax-ns#"
   xmlns:svg="http://www.w3.org/2000/svg"
   xmlns="http://www.w3.org/2000/svg"
   xmlns:sodipodi="http://sodipodi.sourceforge.net/DTD/sodipodi-0.dtd"
   xmlns:inkscape="http://www.inkscape.org/namespaces/inkscape"
   width="48"
   height="48"
   viewBox="0 0 12.7 12.7"
   version="1.1"
   id="svg14015"
   inkscape:version="0.92.2 (5c3e80d, 2017-08-06)"
   sodipodi:docname="artists.svg"
   inkscape:export-xdpi="96"
   inkscape:export-ydpi="96">
  <defs
     id="defs14009" />
  <sodipodi:namedview
     id="base"
     pagecolor="#ffffff"
     bordercolor="#666666"
     borderopacity="1.0"
     inkscape:pageopacity="0.0"
     inkscape:pageshadow="2"
     inkscape:zoom="2.8"
     inkscape:cx="74.481576"
     inkscape:cy="-7.4388091"
     inkscape:document-units="px"
     inkscape:current-layer="layer1"
     showgrid="false"
     units="px"
     inkscape:window-width="1920"
     inkscape:window-height="1017"
     inkscape:window-x="-8"
     inkscape:window-y="-8"
     inkscape:window-maximized="1" />
  <metadata
     id="metadata14012">
    <rdf:RDF>
      <cc:Work
         rdf:about="">
        <dc:format>image/svg+xml</dc:format>
        <dc:type
           rdf:resource="http://purl.org/dc/dcmitype/StillImage" />
        <dc:title />
      </cc:Work>
    </rdf:RDF>
  </metadata>
  <g
     inkscape:label="Layer 1"
     inkscape:groupmode="layer"
     id="layer1"
     transform="translate(0,-284.29999)">
    <g
       id="g3007"
       transform="matrix(0.02399486,0,0,0.02399486,0.39687523,284.69687)">
      <path
         id="path2727"
         d="M 496.2,248.1 C 496.2,111.1 385.1,0 248.1,0 111.1,0 0,111.1 0,248.1 c 0,137 111.1,248.1 248.1,248.1 137,0 248.1,-111.1 248.1,-248.1 z"
         style="fill:#32bea6"
         inkscape:connector-curvature="0" />
      <path
         id="path2729"
         d="m 397.2,109 c -0.9,-3.4 -2.6,-6.8 -5,-9.6 -2.3,-2.8 -5,-5 -7.5,-7 l -0.6,-0.5 c -1.1,-0.8 -2,-1.6 -3,-2.5 -1,-0.9 -2.1,-1.9 -3.1,-3.1 -1.9,-2.1 -3.7,-4.5 -5.4,-7.1 -0.8,-1.3 -1.6,-2.6 -2.3,-3.9 -0.4,-0.7 -0.7,-1.3 -1,-2 -0.4,-0.8 -0.7,-1.4 -0.9,-1.9 v 0 c 0,-0.1 -0.1,-0.1 -0.1,-0.2 -0.8,-1.6 -2.4,-2.6 -4.2,-2.4 -0.5,0 -1,0.2 -1.5,0.4 -1,0.5 -1.8,1.3 -2.2,2.4 -0.1,0.3 -0.2,0.7 -0.2,1 -0.1,0.3 -0.1,0.7 -0.1,1.1 l 5.5,67.7 c -5.6,-3.3 -13.8,-3.9 -21.6,-0.8 -11.9,4.6 -18.7,15.7 -15.2,24.7 3.5,9 16,12.5 27.9,7.9 10.1,-3.9 16.5,-12.5 16.1,-20.4 v 0 l -5.4,-67.2 c 1.7,2.2 3.5,4.2 5.3,6 1.3,1.3 2.6,2.4 3.9,3.4 1.1,0.9 2.2,1.7 3.3,2.4 l 0.7,0.5 c 2.4,1.7 4.8,3.5 6.9,5.7 2,2.1 3.4,4.5 4.2,7 0.8,2.5 1.1,5.3 0.9,8.5 -0.2,2.7 -0.6,5.7 -1.5,8.9 -0.8,2.8 -1.7,5.7 -3,8.8 -0.4,1.1 0.1,2.3 1.1,2.7 0.3,0.1 0.7,0.2 1,0.2 0.7,-0.1 1.4,-0.5 1.8,-1.2 1.5,-3.2 2.7,-6.2 3.7,-9.2 1.2,-3.5 1.9,-6.8 2.2,-9.9 0.3,-3.7 0.1,-7.2 -0.7,-10.4 z"
         style="fill:#a7dcbd"
         inkscape:connector-curvature="0" />
      <path
         id="path2731"
         d="m 332.4,256.7 c -11.5,-11.2 -10.8,-26.5 -1,-36.6 9.8,-10.1 25.1,-11.2 36.6,0 14.2,13.9 14.9,30.5 5.1,40.6 -9.8,10.1 -26.5,9.8 -40.7,-4 z"
         style="fill:#878787"
         inkscape:connector-curvature="0" />
      <g
         id="g2827">
        <circle
           id="circle2733"
           r="1.7"
           cy="223.10001"
           cx="334.5"
           style="fill:#707070" />
        <circle
           id="circle2735"
           r="1.7"
           cy="227.10001"
           cx="330.60001"
           style="fill:#707070" />
        <circle
           id="circle2737"
           r="1.7"
           cy="238.89999"
           cx="334.70001"
           style="fill:#707070" />
        <circle
           id="circle2739"
           r="1.7"
           cy="230.89999"
           cx="342.5"
           style="fill:#707070" />
        <circle
           id="circle2741"
           r="1.7"
           cy="242.89999"
           cx="330.79999"
           style="fill:#707070" />
        <circle
           id="circle2743"
           r="1.7"
           cy="234.89999"
           cx="338.60001"
           style="fill:#707070" />
        <circle
           id="circle2745"
           r="1.7"
           cy="235.10001"
           cx="330.79999"
           style="fill:#707070" />
        <circle
           id="circle2747"
           r="1.7"
           cy="227.10001"
           cx="338.60001"
           style="fill:#707070" />
        <circle
           id="circle2749"
           r="1.7"
           cy="231.10001"
           cx="334.70001"
           style="fill:#707070" />
        <circle
           id="circle2751"
           r="1.7"
           cy="219.10001"
           cx="338.39999"
           style="fill:#707070" />
        <circle
           id="circle2753"
           r="1.7"
           cy="222.89999"
           cx="350.29999"
           style="fill:#707070" />
        <circle
           id="circle2755"
           r="1.7"
           cy="226.89999"
           cx="346.39999"
           style="fill:#707070" />
        <circle
           id="circle2757"
           r="1.7"
           cy="218.89999"
           cx="354.20001"
           style="fill:#707070" />
        <circle
           id="circle2759"
           r="1.7"
           cy="219.10001"
           cx="346.39999"
           style="fill:#707070" />
        <circle
           id="circle2761"
           r="1.7"
           cy="223.10001"
           cx="342.5"
           style="fill:#707070" />
        <circle
           id="circle2763"
           r="1.7"
           cy="244.7"
           cx="336.70001"
           style="fill:#707070" />
        <circle
           id="circle2765"
           r="1.7"
           cy="236.7"
           cx="344.5"
           style="fill:#707070" />
        <circle
           id="circle2767"
           r="1.7"
           cy="248.7"
           cx="332.79999"
           style="fill:#707070" />
        <circle
           id="circle2769"
           r="1.7"
           cy="240.7"
           cx="340.60001"
           style="fill:#707070" />
        <circle
           id="circle2771"
           r="1.7"
           cy="228.7"
           cx="352.29999"
           style="fill:#707070" />
        <circle
           id="circle2773"
           r="1.7"
           cy="220.7"
           cx="360.10001"
           style="fill:#707070" />
        <circle
           id="circle2775"
           r="1.7"
           cy="232.7"
           cx="348.39999"
           style="fill:#707070" />
        <circle
           id="circle2777"
           r="1.7"
           cy="224.7"
           cx="356.20001"
           style="fill:#707070" />
        <circle
           id="circle2779"
           r="1.7"
           cy="259.29999"
           cx="339.70001"
           style="fill:#707070" />
        <circle
           id="circle2781"
           r="1.7"
           cy="251.3"
           cx="347.5"
           style="fill:#707070" />
        <circle
           id="circle2783"
           r="1.7"
           cy="243.3"
           cx="355.29999"
           style="fill:#707070" />
        <circle
           id="circle2785"
           r="1.7"
           cy="255.3"
           cx="343.5"
           style="fill:#707070" />
        <circle
           id="circle2787"
           r="1.7"
           cy="247.3"
           cx="351.29999"
           style="fill:#707070" />
        <circle
           id="circle2789"
           r="1.7"
           cy="235.3"
           cx="363"
           style="fill:#707070" />
        <circle
           id="circle2791"
           r="1.7"
           cy="227.3"
           cx="370.79999"
           style="fill:#707070" />
        <circle
           id="circle2793"
           r="1.7"
           cy="239.3"
           cx="359.10001"
           style="fill:#707070" />
        <circle
           id="circle2795"
           r="1.7"
           cy="231.3"
           cx="366.89999"
           style="fill:#707070" />
        <circle
           id="circle2797"
           r="1.7"
           cy="257.20001"
           cx="349.5"
           style="fill:#707070" />
        <circle
           id="circle2799"
           r="1.7"
           cy="249.10001"
           cx="357.29999"
           style="fill:#707070" />
        <circle
           id="circle2801"
           r="1.7"
           cy="261.20001"
           cx="345.60001"
           style="fill:#707070" />
        <circle
           id="circle2803"
           r="1.7"
           cy="253.2"
           cx="353.39999"
           style="fill:#707070" />
        <circle
           id="circle2805"
           r="1.7"
           cy="241.10001"
           cx="365.10001"
           style="fill:#707070" />
        <circle
           id="circle2807"
           r="1.7"
           cy="233.10001"
           cx="372.89999"
           style="fill:#707070" />
        <path
           id="path2809"
           d="m 362.4,244 c 0.7,0.6 0.7,1.7 0,2.4 -0.6,0.7 -1.7,0.7 -2.4,0 -0.7,-0.6 -0.7,-1.7 0,-2.4 0.6,-0.7 1.7,-0.7 2.4,0 z"
           style="fill:#707070"
           inkscape:connector-curvature="0" />
        <circle
           id="circle2811"
           r="1.7"
           cy="237.2"
           cx="369"
           style="fill:#707070" />
        <circle
           id="circle2813"
           r="1.7"
           cy="258.79999"
           cx="355.10001"
           style="fill:#707070" />
        <circle
           id="circle2815"
           r="1.7"
           cy="250.8"
           cx="362.89999"
           style="fill:#707070" />
        <circle
           id="circle2817"
           r="1.7"
           cy="262.79999"
           cx="351.20001"
           style="fill:#707070" />
        <circle
           id="circle2819"
           r="1.7"
           cy="254.8"
           cx="359"
           style="fill:#707070" />
        <circle
           id="circle2821"
           r="1.7"
           cy="242.8"
           cx="370.70001"
           style="fill:#707070" />
        <path
           id="path2823"
           d="m 368,245.6 c 0.7,0.6 0.7,1.7 0,2.4 -0.6,0.7 -1.7,0.7 -2.4,0 -0.7,-0.6 -0.7,-1.7 0,-2.4 0.6,-0.6 1.7,-0.7 2.4,0 z"
           style="fill:#707070"
           inkscape:connector-curvature="0" />
        <circle
           id="circle2825"
           r="1.7"
           cy="238.8"
           cx="374.60001"
           style="fill:#707070" />
      </g>
      <g
         id="g2833">
        <path
           id="path2829"
           d="m 379.1,238.6 c -3.4,4.4 -8,10 -13.6,15.8 -5.1,5.3 -10.1,9.6 -14.1,12.9 2.8,0.5 5.5,0.6 8.1,0.3 3.1,-2.7 6.4,-5.8 9.9,-9.4 3.9,-4 7.3,-7.9 10.2,-11.5 0.3,-2.6 0.1,-5.3 -0.5,-8.1 z"
           style="fill:#adadac"
           inkscape:connector-curvature="0" />
        <path
           id="path2831"
           d="m 369.7,221.8 c -0.5,-0.6 -1.1,-1.1 -1.7,-1.7 -0.7,-0.7 -1.5,-1.4 -2.3,-2 -3.3,4.7 -9.1,12.3 -16.8,20.2 -7.2,7.4 -14,12.9 -18.5,16.3 0.6,0.7 1.3,1.4 2,2.1 0.6,0.6 1.2,1.2 1.9,1.7 4.6,-3.5 11.3,-9 18.5,-16.4 7.6,-7.9 13.4,-15.4 16.9,-20.2 z"
           style="fill:#adadac"
           inkscape:connector-curvature="0" />
      </g>
      <path
         id="path2835"
         d="m 379.6,243.7 c 0,0 -2.8,6.1 -10,13.6 -7.3,7.5 -13.3,10.4 -13.3,10.4 l 85.6,74 v 0 c 1.1,1 5.1,-1.3 9,-5.3 3.8,-4 6.1,-8 5,-9.1 v 0 z"
         style="fill:#3a3a38"
         inkscape:connector-curvature="0" />
      <path
         id="path2837"
         d="m 369.6,257.3 c -7.3,7.5 -13.3,10.4 -13.3,10.4 l 85.6,74 v 0 c 1.1,1 5.1,-1.3 9,-5.3 z"
         style="fill:#545454"
         inkscape:connector-curvature="0" />
      <circle
         id="circle2839"
         r="4.5999999"
         cy="268.5"
         cx="381.20001"
         style="fill:#3a3a38" />
      <circle
         id="circle2841"
         r="3"
         cy="268.5"
         cx="381.20001"
         style="fill:#727270" />
      <path
         id="path2843"
         d="m 150.8,299.5 c 8.4,-7.9 13.6,-37.1 13.6,-37.1 -18.2,-25 -40.9,-46.3 -41.7,-93.7 -0.7,-47.4 52.9,-68.1 52.9,-68.1 46.1,-19.7 83.3,15.8 83.3,15.8 5.8,7.4 11.1,20.1 14.8,30.8 1.2,3.3 0.9,7.6 1.4,8.8 1.1,2.7 4.3,9.5 4.3,9.5 6.8,12.9 19.7,18.9 19.7,18.9 13.6,6.1 3.4,16.7 3.4,16.7 -1.4,2.4 -0.9,4.2 -0.7,8.1 0.1,3.8 -12.2,6.2 -12.3,9.3 -0.2,3.2 11.9,10.3 11.9,13.2 0,2.9 -2.2,6.3 -2.2,6.3 1.5,25.7 -25.7,25.7 -25.7,25.7 -26,-0.3 -38.7,13.7 -43,18.1 -15.3,15.9 -25.1,56 -25.1,56 0,0 -19.5,-5 -31.5,-13.6 -12.2,-8.2 -23.1,-24.7 -23.1,-24.7 z"
         style="fill:#dfa17c"
         inkscape:connector-curvature="0" />
      <path
         id="path2845"
         d="m 202.8,224.2 c 0,0 -1.7,18.5 12,27.9 9.3,6.4 30,7.3 30,7.3 0,0 -15.7,-3 -27.8,-10.9 -8.8,-5.7 -12.8,-14.3 -14.2,-24.3 z"
         style="fill:#c98d6f"
         inkscape:connector-curvature="0" />
      <path
         id="path2847"
         d="m 269.6,150.9 c 0,0 -16.2,-1.4 -23.4,0.7 -2.9,0.8 -8.3,8.4 -8.3,8.4 0,0 7.5,-1.7 10.3,-2.6 2.8,-0.9 21.9,-2.3 21.9,-2.3 0,0 2.5,-3.2 -0.5,-4.2 z"
         style="fill:#3a3a38"
         inkscape:connector-curvature="0" />
      <path
         id="path2849"
         d="m 271.7,164.1 c 0,0 -1,4.4 -4.8,7.2 -4,3.1 -11.1,4.5 -18.7,-1.4 0,0 10.5,-0.9 15.7,-2 5.1,-1.2 7.8,-3.8 7.8,-3.8 z"
         style="fill:#644b44"
         inkscape:connector-curvature="0" />
      <g
         id="g2859">
        <path
           id="path2851"
           d="m 274.7,138.8 c -7.4,1.1 -42.3,6.1 -57.3,14.6 -7.6,4.3 -15.8,19 -23.8,31 -1,1.4 2.7,11.5 1.8,13 -0.8,1.3 -7.3,-3.3 -7.3,-3.3 -8.6,14.7 -14.7,29.2 -14.9,39.6 -0.3,21.2 -9.7,31.2 -9.7,31.2 0,0 -86.4,-87.3 -20.8,-146.7 21.1,-19.1 89,-52.8 131.5,12.4 0.8,1.3 2.4,7.9 0.5,8.2 z"
           style="fill:#3a3a38"
           inkscape:connector-curvature="0" />
        <path
           id="path2853"
           d="m 123,116.5 c 0,0 14.6,11.9 36.1,9.8 0,0.1 -21,21.2 -36.1,-9.8 z"
           style="fill:#3a3a38"
           inkscape:connector-curvature="0" />
        <path
           id="path2855"
           d="m 118.4,129 c 0,0 16.7,4 34.1,-4.8 0,0 -6.4,25.5 -34.1,4.8 z"
           style="fill:#3a3a38"
           inkscape:connector-curvature="0" />
        <path
           id="path2857"
           d="m 145.6,102.6 c 0,0 -6.1,18.6 3.1,37.2 0,0 -24.6,-13.5 -3.1,-37.2 z"
           style="fill:#3a3a38"
           inkscape:connector-curvature="0" />
      </g>
      <ellipse
         id="ellipse2861"
         ry="14.1"
         rx="17.698999"
         cy="202.095"
         cx="175.98801"
         style="fill:#dfa17c"
         transform="matrix(-0.331,-0.9436,0.9436,-0.331,43.5393,435.0576)" />
      <path
         id="path2863"
         d="m 358.2,344.4 c 0,0 41.2,-1 47.2,24.7 0,0 -34.7,17.8 -47.2,-24.7 z"
         style="fill:#15252d"
         inkscape:connector-curvature="0" />
      <path
         id="path2865"
         d="m 432.7,300 c 0,0 9.8,-15.3 5,-17.6 -4.8,-2.3 -5.5,-1.1 -8.9,3.3 0,0 5.1,-8.1 0.7,-11.1 -2.6,-1.8 -5.4,-4.7 -12.1,5 0,0 7.8,-8.5 2.1,-12.5 -5,-3.6 -7.1,-2.4 -10.2,2.2 0,0 3.8,-5.2 -0.4,-8.1 -6.1,-4.2 -9.4,-0.1 -13.1,5.6 -8.6,13.3 -15.8,20.1 -14.6,28.9 0,0 -3.4,23.5 -15.7,57.3 0,0 -11.7,43.8 30.6,19.2 0,0 9.2,-18.4 14.3,-24.8 11.7,-14.5 19,-33.2 22.3,-47.4 z"
         style="fill:#dfa17c"
         inkscape:connector-curvature="0" />
      <g
         id="g2873">
        <polygon
           id="polygon2867"
           points="410,268.3 400.7,282.4 400.1,282.1 "
           style="fill:#c48769" />
        <polygon
           id="polygon2869"
           points="419.8,276.6 411,289.3 410.3,289 "
           style="fill:#c48769" />
        <polygon
           id="polygon2871"
           points="429.4,285 421.7,296.6 421,296.2 "
           style="fill:#c48769" />
      </g>
      <path
         id="path2875"
         d="m 188.6,489 c 17.7,4.4 36.2,6.8 55.1,7.2 l -36,-42 c 0,-0.1 -11.1,20.6 -19.1,34.8 z"
         style="fill:#22a85b"
         inkscape:connector-curvature="0" />
      <path
         id="path2877"
         d="M 358.2,344.4 279,444.1 218.9,344 v 0 c -16.8,-38.9 -80.6,-50.3 -80.6,-50.3 -19.8,-0.8 -67.4,62.9 -91.8,98.9 33.9,47.2 84,82 142.1,96.4 8,-14.2 19.1,-34.9 19.1,-34.9 l 36,42 c 1.5,0 2.9,0.1 4.4,0.1 25.3,0 49.6,-3.8 72.6,-10.8 l 84.7,-116.3 c -22.3,7.6 -47.2,-24.7 -47.2,-24.7 z"
         style="fill:#334d5c"
         inkscape:connector-curvature="0" />
      <g
         id="g2879" />
      <g
         id="g2881" />
      <g
         id="g2883" />
      <g
         id="g2885" />
      <g
         id="g2887" />
      <g
         id="g2889" />
      <g
         id="g2891" />
      <g
         id="g2893" />
      <g
         id="g2895" />
      <g
         id="g2897" />
      <g
         id="g2899" />
      <g
         id="g2901" />
      <g
         id="g2903" />
      <g
         id="g2905" />
      <g
         id="g2907" />
    </g>
  </g>
</svg>
