<?xml version="1.0" encoding="UTF-8" standalone="no"?>
<!-- Created with Inkscape (http://www.inkscape.org/) -->

<svg
   xmlns:dc="http://purl.org/dc/elements/1.1/"
   xmlns:cc="http://creativecommons.org/ns#"
   xmlns:rdf="http://www.w3.org/1999/02/22-rdf-syntax-ns#"
   xmlns:svg="http://www.w3.org/2000/svg"
   xmlns="http://www.w3.org/2000/svg"
   xmlns:sodipodi="http://sodipodi.sourceforge.net/DTD/sodipodi-0.dtd"
   xmlns:inkscape="http://www.inkscape.org/namespaces/inkscape"
   width="48"
   height="48"
   viewBox="0 0 12.7 12.7"
   version="1.1"
   id="svg14015"
   inkscape:version="0.92.4 (5da689c313, 2019-01-14)"
   sodipodi:docname="charts.svg"
   inkscape:export-xdpi="96"
   inkscape:export-ydpi="96"
   inkscape:export-filename="D:\Source\Github\Alloy\android\Resources\drawable-hdpi\charts.png">
  <defs
     id="defs14009" />
  <sodipodi:namedview
     id="base"
     pagecolor="#ffffff"
     bordercolor="#666666"
     borderopacity="1.0"
     inkscape:pageopacity="0.0"
     inkscape:pageshadow="2"
     inkscape:zoom="2.8"
     inkscape:cx="44.007864"
     inkscape:cy="-7.2438863"
     inkscape:document-units="px"
     inkscape:current-layer="g16322"
     showgrid="false"
     units="px"
     inkscape:window-width="2560"
     inkscape:window-height="1027"
     inkscape:window-x="-8"
     inkscape:window-y="-8"
     inkscape:window-maximized="1" />
  <metadata
     id="metadata14012">
    <rdf:RDF>
      <cc:Work
         rdf:about="">
        <dc:format>image/svg+xml</dc:format>
        <dc:type
           rdf:resource="http://purl.org/dc/dcmitype/StillImage" />
        <dc:title></dc:title>
      </cc:Work>
    </rdf:RDF>
  </metadata>
  <g
     inkscape:label="Layer 1"
     inkscape:groupmode="layer"
     id="layer1"
     transform="translate(0,-284.29999)">
    <g
       id="g16322"
       transform="matrix(0.02337823,0,0,0.02337823,0.39687407,284.69686)">
      <g
         id="g16263" />
      <g
         id="g16265" />
      <g
         id="g16267" />
      <g
         id="g16269" />
      <g
         id="g16271" />
      <g
         id="g16273" />
      <g
         id="g16275" />
      <g
         id="g16277" />
      <g
         id="g16279" />
      <g
         id="g16281" />
      <g
         id="g16283" />
      <g
         id="g16285" />
      <g
         id="g16287" />
      <g
         id="g16289" />
      <g
         id="g16291" />
      <g
         id="g13752"
         transform="matrix(1.0700378,0,0,1.0700378,-10.832381,-10.832207)">
        <path
           id="path13667"
           d="M 496.2,248.1 C 496.2,111.1 385.1,0 248.1,0 111.1,0 0,111.1 0,248.1 c 0,137 111.1,248.1 248.1,248.1 137,0 248.1,-111.1 248.1,-248.1 z"
           style="fill:#fabc3d"
           inkscape:connector-curvature="0" />
        <g
           id="g13679">
          <path
             id="path13669"
             d="m 0.1,241.4 h 496 c -0.1,-2.7 -0.2,-5.4 -0.4,-8.1 H 0.5 c -0.2,2.7 -0.3,5.4 -0.4,8.1 z"
             style="fill:#ffffff"
             inkscape:connector-curvature="0" />
          <path
             id="path13671"
             d="m 9.7,179.4 h 476.9 c -0.8,-2.7 -1.6,-5.4 -2.5,-8.1 h -472 c -0.8,2.7 -1.7,5.4 -2.4,8.1 z"
             style="fill:#ffffff"
             inkscape:connector-curvature="0" />
          <path
             id="path13673"
             d="M 453.8,109.4 H 42.4 c -1.8,2.7 -3.5,5.4 -5.2,8.1 H 459 c -1.7,-2.8 -3.4,-5.5 -5.2,-8.1 z"
             style="fill:#ffffff"
             inkscape:connector-curvature="0" />
          <path
             id="path13675"
             d="m 6.2,303.4 h 483.7 c 0.6,-2.7 1.2,-5.4 1.7,-8.1 H 4.5 c 0.6,2.8 1.1,5.5 1.7,8.1 z"
             style="fill:#ffffff"
             inkscape:connector-curvature="0" />
          <path
             id="path13677"
             d="m 29.5,365.4 h 437.2 c 1.4,-2.7 2.8,-5.4 4.2,-8.1 H 25.3 c 1.4,2.8 2.8,5.5 4.2,8.1 z"
             style="fill:#ffffff"
             inkscape:connector-curvature="0" />
        </g>
        <g
           id="g13687">
          <path
             id="path13681"
             d="m 148.2,150 c 0,-3 -2.4,-5.4 -5.4,-5.4 -3,0 -5.4,2.4 -5.4,5.4 v 136.9 c -7.7,-5.1 -19,-8.3 -31.5,-8.3 -23.3,0 -42.2,11.1 -42.2,24.9 0,13.8 18.9,24.9 42.2,24.9 22.5,0 40.9,-10.4 42.1,-23.4 0.1,-0.4 0.2,-0.9 0.2,-1.3 z"
             style="fill:#3a3a38"
             inkscape:connector-curvature="0" />
          <path
             id="path13683"
             d="m 290.3,82.6 c 0,-3 -2.4,-5.4 -5.4,-5.4 -3,0 -5.4,2.4 -5.4,5.4 v 136.9 c -7.7,-5.1 -19,-8.3 -31.5,-8.3 -23.3,0 -42.2,11.1 -42.2,24.9 0,13.8 18.9,24.9 42.2,24.9 22.5,0 40.9,-10.4 42.1,-23.4 0.1,-0.4 0.2,-0.9 0.2,-1.3 z"
             style="fill:#3a3a38"
             inkscape:connector-curvature="0" />
          <path
             id="path13685"
             d="m 406.2,205.5 c 0,-3 -2.4,-5.4 -5.4,-5.4 -3,0 -5.4,2.4 -5.4,5.4 v 136.9 c -7.7,-5.1 -19,-8.3 -31.5,-8.3 -23.3,0 -42.2,11.1 -42.2,24.9 0,13.8 18.9,24.9 42.2,24.9 22.5,0 40.9,-10.4 42.1,-23.4 0.1,-0.4 0.2,-0.9 0.2,-1.3 z"
             style="fill:#3a3a38"
             inkscape:connector-curvature="0" />
        </g>
        <g
           id="g13689" />
        <g
           id="g13691" />
        <g
           id="g13693" />
        <g
           id="g13695" />
        <g
           id="g13697" />
        <g
           id="g13699" />
        <g
           id="g13701" />
        <g
           id="g13703" />
        <g
           id="g13705" />
        <g
           id="g13707" />
        <g
           id="g13709" />
        <g
           id="g13711" />
        <g
           id="g13713" />
        <g
           id="g13715" />
        <g
           id="g13717" />
      </g>
    </g>
  </g>
</svg>
