<?xml version="1.0" encoding="UTF-8" standalone="no"?>
<!-- Created with Inkscape (http://www.inkscape.org/) -->

<svg
   xmlns:dc="http://purl.org/dc/elements/1.1/"
   xmlns:cc="http://creativecommons.org/ns#"
   xmlns:rdf="http://www.w3.org/1999/02/22-rdf-syntax-ns#"
   xmlns:svg="http://www.w3.org/2000/svg"
   xmlns="http://www.w3.org/2000/svg"
   xmlns:sodipodi="http://sodipodi.sourceforge.net/DTD/sodipodi-0.dtd"
   xmlns:inkscape="http://www.inkscape.org/namespaces/inkscape"
   width="48"
   height="48"
   viewBox="0 0 12.7 12.7"
   version="1.1"
   id="svg14015"
   inkscape:version="0.92.2 (5c3e80d, 2017-08-06)"
   sodipodi:docname="cloudy.svg"
   inkscape:export-xdpi="96"
   inkscape:export-ydpi="96">
  <defs
     id="defs14009" />
  <sodipodi:namedview
     id="base"
     pagecolor="#ffffff"
     bordercolor="#666666"
     borderopacity="1.0"
     inkscape:pageopacity="0.0"
     inkscape:pageshadow="2"
     inkscape:zoom="2.8"
     inkscape:cx="16.445862"
     inkscape:cy="-7.4388091"
     inkscape:document-units="px"
     inkscape:current-layer="layer1"
     showgrid="false"
     units="px"
     inkscape:window-width="1920"
     inkscape:window-height="1017"
     inkscape:window-x="-8"
     inkscape:window-y="-8"
     inkscape:window-maximized="1" />
  <metadata
     id="metadata14012">
    <rdf:RDF>
      <cc:Work
         rdf:about="">
        <dc:format>image/svg+xml</dc:format>
        <dc:type
           rdf:resource="http://purl.org/dc/dcmitype/StillImage" />
        <dc:title></dc:title>
      </cc:Work>
    </rdf:RDF>
  </metadata>
  <g
     inkscape:label="Layer 1"
     inkscape:groupmode="layer"
     id="layer1"
     transform="translate(0,-284.29999)">
    <g
       id="g16247"
       transform="matrix(0.02337823,0,0,0.02337823,0.39687407,284.69686)">
      <circle
         id="circle16165"
         r="254.644"
         cy="254.644"
         cx="254.644"
         style="fill:#6eb1e1" />
      <polygon
         id="polygon16167"
         points="445.203,202.766 440.117,187.507 262.442,243.454 262.442,63.068 246.845,63.068 246.845,243.454 69.171,187.507 64.085,202.766 241.759,258.374 131.221,407.566 143.767,417.06 254.644,267.528 365.521,417.06 378.066,407.566 267.528,258.374 "
         style="fill:#646b79" />
      <path
         id="path16169"
         d="m 335.004,235.317 c 0,-32.551 -26.448,-58.999 -58.999,-58.999 -22.379,0 -41.706,12.207 -51.539,30.517 -62.728,-13.224 -53.234,47.131 -53.574,47.131 -18.31,0 -33.568,14.919 -33.568,33.568 0,18.31 14.919,33.568 33.568,33.568 H 328.9 c 23.735,0 42.723,-18.988 42.723,-42.723 0.001,-35.603 -36.619,-43.062 -36.619,-43.062 z"
         style="fill:#fcfcfd"
         inkscape:connector-curvature="0" />
      <path
         id="path16171"
         d="M 377.727,420.111 H 131.56 L 55.269,193.271 254.644,53.234 454.019,193.271 Z M 143.089,404.175 H 366.538 L 435.37,199.375 254.644,72.901 74.257,199.714 Z"
         style="fill:#dededf"
         inkscape:connector-curvature="0" />
      <g
         id="g16183">
        <circle
           id="circle16173"
           r="37.637001"
           cy="63.068001"
           cx="254.644"
           style="fill:#fcfcfd" />
        <circle
           id="circle16175"
           r="37.637001"
           cy="412.31299"
           cx="137.664"
           style="fill:#fcfcfd" />
        <circle
           id="circle16177"
           r="37.637001"
           cy="412.31299"
           cx="371.62399"
           style="fill:#fcfcfd" />
        <circle
           id="circle16179"
           r="37.637001"
           cy="194.967"
           cx="66.796997"
           style="fill:#fcfcfd" />
        <circle
           id="circle16181"
           r="37.637001"
           cy="194.967"
           cx="442.48999"
           style="fill:#fcfcfd" />
      </g>
      <g
         id="g16185" />
      <g
         id="g16187" />
      <g
         id="g16189" />
      <g
         id="g16191" />
      <g
         id="g16193" />
      <g
         id="g16195" />
      <g
         id="g16197" />
      <g
         id="g16199" />
      <g
         id="g16201" />
      <g
         id="g16203" />
      <g
         id="g16205" />
      <g
         id="g16207" />
      <g
         id="g16209" />
      <g
         id="g16211" />
      <g
         id="g16213" />
    </g>
  </g>
</svg>
