<?xml version="1.0" encoding="UTF-8" standalone="no"?>
<!-- Created with Inkscape (http://www.inkscape.org/) -->

<svg
   xmlns:dc="http://purl.org/dc/elements/1.1/"
   xmlns:cc="http://creativecommons.org/ns#"
   xmlns:rdf="http://www.w3.org/1999/02/22-rdf-syntax-ns#"
   xmlns:svg="http://www.w3.org/2000/svg"
   xmlns="http://www.w3.org/2000/svg"
   xmlns:sodipodi="http://sodipodi.sourceforge.net/DTD/sodipodi-0.dtd"
   xmlns:inkscape="http://www.inkscape.org/namespaces/inkscape"
   width="48"
   height="48"
   viewBox="0 0 12.7 12.7"
   version="1.1"
   id="svg14015"
   inkscape:version="0.92.2 (5c3e80d, 2017-08-06)"
   sodipodi:docname="favorites.svg"
   inkscape:export-xdpi="96"
   inkscape:export-ydpi="96">
  <defs
     id="defs14009" />
  <sodipodi:namedview
     id="base"
     pagecolor="#ffffff"
     bordercolor="#666666"
     borderopacity="1.0"
     inkscape:pageopacity="0.0"
     inkscape:pageshadow="2"
     inkscape:zoom="0.98994949"
     inkscape:cx="92.055461"
     inkscape:cy="-160.15165"
     inkscape:document-units="px"
     inkscape:current-layer="layer1"
     showgrid="false"
     units="px"
     inkscape:window-width="1920"
     inkscape:window-height="1017"
     inkscape:window-x="-8"
     inkscape:window-y="-8"
     inkscape:window-maximized="1" />
  <metadata
     id="metadata14012">
    <rdf:RDF>
      <cc:Work
         rdf:about="">
        <dc:format>image/svg+xml</dc:format>
        <dc:type
           rdf:resource="http://purl.org/dc/dcmitype/StillImage" />
        <dc:title />
      </cc:Work>
    </rdf:RDF>
  </metadata>
  <g
     inkscape:label="Layer 1"
     inkscape:groupmode="layer"
     id="layer1"
     transform="translate(0,-284.29999)">
    <g
       id="g5902"
       transform="matrix(0.02399486,0,0,0.02399486,0.39687523,284.69687)">
      <g
         id="g5715">
        <path
           id="path5709"
           d="M 496.2,248.1 C 496.2,111.1 385.1,0 248.1,0 111.1,0 0,111.1 0,248.1 c 0,137 111.1,248.1 248.1,248.1 137,0 248.1,-111.1 248.1,-248.1 z"
           style="fill:#364749"
           inkscape:connector-curvature="0" />
        <path
           id="path5711"
           d="m 319.2,414.1 50.3,50.3 c 6.3,-3.5 12.4,-7.3 18.3,-11.4 l -53.7,-53.7 z"
           style="fill:#364749"
           inkscape:connector-curvature="0" />
        <rect
           id="rect5713"
           height="21"
           width="21"
           style="fill:#364749"
           transform="matrix(0.7071,0.7071,-0.7071,0.7071,304.6771,-79.3634)"
           y="317.59601"
           x="237.63901" />
      </g>
      <rect
         id="rect5717"
         height="100.599"
         width="21"
         style="fill:#485e60"
         transform="matrix(-0.7071,0.7071,-0.7071,-0.7071,759.2929,427.6666)"
         y="320.789"
         x="280.57401" />
      <g
         id="g5723">
        <rect
           id="rect5719"
           height="50.299999"
           width="21"
           style="fill:#364749"
           transform="matrix(-0.7071,0.7071,-0.7071,-0.7071,487.3748,314.9481)"
           y="233.263"
           x="167.96001" />
        <rect
           id="rect5721"
           height="62.898998"
           width="21"
           style="fill:#364749"
           transform="matrix(-0.7071,0.7071,-0.7071,-0.7071,584.1177,355.0372)"
           y="267.04401"
           x="208.028" />
      </g>
      <path
         id="path5725"
         d="m 43.1,108.3 c -4,5.9 -7.8,12 -11.4,18.3 l 71.1,71.1 14.8,-14.8 z"
         style="fill:#3f5356"
         inkscape:connector-curvature="0" />
      <rect
         id="rect5727"
         height="21"
         width="71.299004"
         style="fill:#364749"
         transform="matrix(-0.7071,-0.7071,0.7071,-0.7071,78.8454,463.6447)"
         y="204.993"
         x="99.796997" />
      <path
         id="path5729"
         d="m 319.2,414.1 -71.1,71.1 10.7,10.7 c 40.1,-1.7 77.8,-12.9 110.8,-31.5 z"
         style="fill:#395154"
         inkscape:connector-curvature="0" />
      <rect
         id="rect5731"
         height="21"
         width="100.599"
         style="fill:#485e60"
         transform="matrix(-0.7071,0.7071,-0.7071,-0.7071,612.5194,488.5234)"
         y="360.61899"
         x="154.784" />
      <rect
         id="rect5733"
         height="100.599"
         width="100.599"
         style="fill:#3f5356"
         transform="matrix(0.7071,0.7071,-0.7071,0.7071,365.4908,-54.1404)"
         y="363.81699"
         x="197.799" />
      <rect
         id="rect5735"
         height="100.599"
         width="50.299999"
         style="fill:#395154"
         transform="matrix(-0.7071,-0.7071,0.7071,-0.7071,18.0064,610.4235)"
         y="251.183"
         x="110.276" />
      <rect
         id="rect5737"
         height="100.599"
         width="62.898998"
         style="fill:#364749"
         transform="matrix(0.7071,0.7071,-0.7071,0.7071,292.8673,-24.0793)"
         y="291.18301"
         x="144.05" />
      <path
         id="path5739"
         d="M 102.8,197.7 31.7,126.6 C 13.1,159.6 1.9,197.3 0.2,237.4 l 31.4,31.4 z"
         style="fill:#395154"
         inkscape:connector-curvature="0" />
      <rect
         id="rect5741"
         height="71.299004"
         width="100.599"
         style="fill:#485e60"
         transform="matrix(-0.7071,0.7071,-0.7071,-0.7071,340.5942,375.7878)"
         y="222.784"
         x="42.168999" />
      <g
         id="g5747">
        <path
           id="path5743"
           d="m 378.5,354.8 56.4,56.4 c 11.2,-12.8 21.1,-26.8 29.5,-41.7 l -50.3,-50.3 z"
           style="fill:#3f5356"
           inkscape:connector-curvature="0" />
        <rect
           id="rect5745"
           height="21"
           width="50.299999"
           style="fill:#3f5356"
           transform="matrix(0.7071,-0.7071,0.7071,0.7071,-89.6785,300.3883)"
           y="247.946"
           x="292.612" />
      </g>
      <rect
         id="rect5749"
         height="50.299999"
         width="100.599"
         style="fill:#364749"
         transform="matrix(0.7071,0.7071,-0.7071,0.7071,318.8622,-166.7982)"
         y="276.35199"
         x="310.47501" />
      <g
         id="g5757">
        <rect
           id="rect5751"
           height="50.299999"
           width="50.299999"
           style="fill:#3f5356"
           transform="matrix(-0.7071,-0.7071,0.7071,-0.7071,289.9266,497.6999)"
           y="163.65401"
           x="222.89101" />
        <rect
           id="rect5753"
           height="62.898998"
           width="50.299999"
           style="fill:#3f5356"
           transform="matrix(0.7071,-0.7071,0.7071,0.7071,-77.4363,270.7343)"
           y="197.39101"
           x="262.93701" />
        <path
           id="path5755"
           d="M 162.1,138.4 197.7,102.8 126.6,31.7 C 111.7,40.1 97.7,50 84.9,61.2 Z"
           style="fill:#3f5356"
           inkscape:connector-curvature="0" />
      </g>
      <g
         id="g5763">
        <rect
           id="rect5759"
           height="50.299999"
           width="71.299004"
           style="fill:#485e60"
           transform="matrix(-0.7071,-0.7071,0.7071,-0.7071,247.0389,394.0554)"
           y="120.715"
           x="169.481" />
        <path
           id="path5761"
           d="m 334.1,399.3 53.8,53.8 c 17.4,-11.9 33.3,-26 47.1,-41.8 l -56.4,-56.4 z"
           style="fill:#485e60"
           inkscape:connector-curvature="0" />
      </g>
      <g
         id="g5775">
        <rect
           id="rect5765"
           height="21"
           width="62.898998"
           style="fill:#364749"
           transform="matrix(-0.7071,0.7071,-0.7071,-0.7071,685.2123,313.1604)"
           y="287.992"
           x="246.299" />
        <rect
           id="rect5767"
           height="62.898998"
           width="100.599"
           style="fill:#364749"
           transform="matrix(0.7071,0.7071,-0.7071,0.7071,335.4296,-126.7556)"
           y="310.07199"
           x="270.423" />
        <rect
           id="rect5769"
           height="62.898998"
           width="50.299999"
           style="fill:#364749"
           transform="matrix(-0.7071,-0.7071,0.7071,-0.7071,193.3473,537.7354)"
           y="197.37399"
           x="182.89301" />
        <rect
           id="rect5771"
           height="62.898998"
           width="62.898998"
           style="fill:#364749"
           transform="matrix(0.7071,0.7071,-0.7071,0.7071,262.7366,-96.6681)"
           y="237.367"
           x="216.60699" />
        <path
           id="path5773"
           d="M 162.1,138.4 84.9,61.2 C 69.1,75.1 55,90.9 43.1,108.3 l 74.5,74.5 z"
           style="fill:#364749"
           inkscape:connector-curvature="0" />
      </g>
      <rect
         id="rect5777"
         height="71.299004"
         width="62.898998"
         style="fill:#3f5356"
         transform="matrix(0.7071,-0.7071,0.7071,0.7071,-83.0925,171.163)"
         y="150.233"
         x="133.616" />
      <path
         id="path5779"
         d="m 414.1,319.2 50.3,50.3 c 12.7,-22.6 22,-47.4 27.1,-73.7 l -27.1,-27.1 z"
         style="fill:#506768"
         inkscape:connector-curvature="0" />
      <g
         id="g5787">
        <rect
           id="rect5781"
           height="71.299004"
           width="21"
           style="fill:#485e60"
           transform="matrix(0.7071,0.7071,-0.7071,0.7071,257.9878,-191.9961)"
           y="179.771"
           x="350.254" />
        <rect
           id="rect5783"
           height="100.599"
           width="71.299004"
           style="fill:#485e60"
           transform="matrix(0.7071,-0.7071,0.7071,0.7071,-64.522,361.1626)"
           y="208.16701"
           x="368.05099" />
        <rect
           id="rect5785"
           height="50.299999"
           width="71.299004"
           style="fill:#485e60"
           transform="matrix(0.7071,-0.7071,0.7071,0.7071,-17.8297,248.537)"
           y="120.641"
           x="255.446" />
      </g>
      <rect
         id="rect5789"
         height="62.898998"
         width="71.299004"
         style="fill:#3f5356"
         transform="matrix(0.7071,-0.7071,0.7071,0.7071,-34.4708,288.5433)"
         y="154.43201"
         x="295.41699" />
      <g
         id="g5795">
        <path
           id="path5791"
           d="M 248.1,52.5 200.3,4.7 C 174,9.8 149.2,19.1 126.6,31.8 l 71.1,71.1 z"
           style="fill:#485e60"
           inkscape:connector-curvature="0" />
        <rect
           id="rect5793"
           height="71.299004"
           width="71.299004"
           style="fill:#485e60"
           transform="matrix(-0.7071,-0.7071,0.7071,-0.7071,350.837,351.09)"
           y="67.235001"
           x="212.48199" />
      </g>
      <polygon
         id="polygon5797"
         points="130.1,411.6 248.1,325.9 366.1,411.6 321,273 439,187.2 293.2,187.2 248.1,48.6 203,187.2 57.2,187.2 175.2,273 "
         style="fill:#e5b738" />
      <polygon
         id="polygon5799"
         points="144.2,392.3 248.1,316.8 352,392.3 312.3,270.1 416.2,194.6 287.8,194.6 248.1,72.5 208.4,194.6 80,194.6 183.9,270.1 "
         style="fill:#d68389" />
      <polygon
         id="polygon5801"
         points="416.2,194.6 287.8,194.6 248.1,72.5 208.4,194.6 80,194.6 183.9,270.1 "
         style="fill:#e08c96" />
      <g
         id="g5803" />
      <g
         id="g5805" />
      <g
         id="g5807" />
      <g
         id="g5809" />
      <g
         id="g5811" />
      <g
         id="g5813" />
      <g
         id="g5815" />
      <g
         id="g5817" />
      <g
         id="g5819" />
      <g
         id="g5821" />
      <g
         id="g5823" />
      <g
         id="g5825" />
      <g
         id="g5827" />
      <g
         id="g5829" />
      <g
         id="g5831" />
    </g>
  </g>
</svg>
