<?xml version="1.0" encoding="UTF-8" standalone="no"?>
<!-- Created with Inkscape (http://www.inkscape.org/) -->

<svg
   xmlns:dc="http://purl.org/dc/elements/1.1/"
   xmlns:cc="http://creativecommons.org/ns#"
   xmlns:rdf="http://www.w3.org/1999/02/22-rdf-syntax-ns#"
   xmlns:svg="http://www.w3.org/2000/svg"
   xmlns="http://www.w3.org/2000/svg"
   xmlns:sodipodi="http://sodipodi.sourceforge.net/DTD/sodipodi-0.dtd"
   xmlns:inkscape="http://www.inkscape.org/namespaces/inkscape"
   width="48"
   height="48"
   viewBox="0 0 12.7 12.7"
   version="1.1"
   id="svg14015"
   inkscape:version="0.92.2 (5c3e80d, 2017-08-06)"
   sodipodi:docname="folder.svg"
   inkscape:export-xdpi="96"
   inkscape:export-ydpi="96">
  <defs
     id="defs14009" />
  <sodipodi:namedview
     id="base"
     pagecolor="#ffffff"
     bordercolor="#666666"
     borderopacity="1.0"
     inkscape:pageopacity="0.0"
     inkscape:pageshadow="2"
     inkscape:zoom="2.8"
     inkscape:cx="16.445862"
     inkscape:cy="-7.4388091"
     inkscape:document-units="px"
     inkscape:current-layer="layer1"
     showgrid="false"
     units="px"
     inkscape:window-width="1920"
     inkscape:window-height="1017"
     inkscape:window-x="-8"
     inkscape:window-y="-8"
     inkscape:window-maximized="1" />
  <metadata
     id="metadata14012">
    <rdf:RDF>
      <cc:Work
         rdf:about="">
        <dc:format>image/svg+xml</dc:format>
        <dc:type
           rdf:resource="http://purl.org/dc/dcmitype/StillImage" />
        <dc:title></dc:title>
      </cc:Work>
    </rdf:RDF>
  </metadata>
  <g
     inkscape:label="Layer 1"
     inkscape:groupmode="layer"
     id="layer1"
     transform="translate(0,-284.29999)">
    <g
       id="g16322"
       transform="matrix(0.02337823,0,0,0.02337823,0.39687407,284.69686)">
      <circle
         id="circle16249"
         r="254.644"
         cy="254.644"
         cx="254.644"
         style="fill:#4f5565" />
      <path
         id="path16251"
         d="M 410.956,428.927 H 101.722 c -12.207,0 -22.04,-11.189 -22.04,-25.43 V 135.29 c 0,-13.902 9.833,-25.43 22.04,-25.43 h 80.699 c 6.781,0 13.224,3.73 17.293,9.833 l 7.799,11.528 c 4.069,6.103 10.511,9.833 17.293,9.833 h 186.49 c 12.207,0 22.04,11.189 22.04,25.43 v 237.351 c -0.679,13.564 -10.512,25.092 -22.38,25.092 z"
         style="fill:#f8b517"
         inkscape:connector-curvature="0" />
      <rect
         id="rect16253"
         height="364.84201"
         width="289.90701"
         style="fill:#fcfcfd"
         y="64.084999"
         x="111.216" />
      <rect
         id="rect16255"
         height="25.091"
         width="289.90701"
         style="fill:#6eb1e1"
         y="64.084999"
         x="111.216" />
      <path
         id="path16257"
         d="m 136.985,220.397 h 308.556 c 13.563,0 24.074,11.528 21.701,24.074 l -31.195,167.502 c -1.695,9.833 -10.85,16.954 -21.701,16.954 H 105.791 c -13.563,0 -24.074,-11.528 -21.701,-24.074 l 31.195,-167.502 c 1.695,-9.833 10.85,-16.954 21.7,-16.954 z"
         style="fill:#fbd303"
         inkscape:connector-curvature="0" />
      <rect
         id="rect16259"
         height="19.666"
         width="138.681"
         style="fill:#f1f3f7"
         y="111.216"
         x="144.784" />
      <rect
         id="rect16261"
         height="48.487"
         width="226.50101"
         style="fill:#71d456"
         y="155.634"
         x="144.784" />
      <g
         id="g16263" />
      <g
         id="g16265" />
      <g
         id="g16267" />
      <g
         id="g16269" />
      <g
         id="g16271" />
      <g
         id="g16273" />
      <g
         id="g16275" />
      <g
         id="g16277" />
      <g
         id="g16279" />
      <g
         id="g16281" />
      <g
         id="g16283" />
      <g
         id="g16285" />
      <g
         id="g16287" />
      <g
         id="g16289" />
      <g
         id="g16291" />
    </g>
  </g>
</svg>
