<?xml version="1.0" encoding="UTF-8" standalone="no"?>
<!-- Created with Inkscape (http://www.inkscape.org/) -->

<svg
   xmlns:dc="http://purl.org/dc/elements/1.1/"
   xmlns:cc="http://creativecommons.org/ns#"
   xmlns:rdf="http://www.w3.org/1999/02/22-rdf-syntax-ns#"
   xmlns:svg="http://www.w3.org/2000/svg"
   xmlns="http://www.w3.org/2000/svg"
   xmlns:sodipodi="http://sodipodi.sourceforge.net/DTD/sodipodi-0.dtd"
   xmlns:inkscape="http://www.inkscape.org/namespaces/inkscape"
   width="48"
   height="48"
   viewBox="0 0 12.7 12.7"
   version="1.1"
   id="svg14015"
   inkscape:version="0.92.4 (5da689c313, 2019-01-14)"
   sodipodi:docname="fresh.svg"
   inkscape:export-xdpi="96"
   inkscape:export-ydpi="96"
   inkscape:export-filename="D:\Source\Github\Alloy\android\Resources\drawable-hdpi\fresh.png">
  <defs
     id="defs14009" />
  <sodipodi:namedview
     id="base"
     pagecolor="#ffffff"
     bordercolor="#666666"
     borderopacity="1.0"
     inkscape:pageopacity="0.0"
     inkscape:pageshadow="2"
     inkscape:zoom="5.6"
     inkscape:cx="32.210809"
     inkscape:cy="28.682968"
     inkscape:document-units="px"
     inkscape:current-layer="g16322"
     showgrid="false"
     units="px"
     inkscape:window-width="2560"
     inkscape:window-height="1027"
     inkscape:window-x="-8"
     inkscape:window-y="-8"
     inkscape:window-maximized="1" />
  <metadata
     id="metadata14012">
    <rdf:RDF>
      <cc:Work
         rdf:about="">
        <dc:format>image/svg+xml</dc:format>
        <dc:type
           rdf:resource="http://purl.org/dc/dcmitype/StillImage" />
        <dc:title></dc:title>
      </cc:Work>
    </rdf:RDF>
  </metadata>
  <g
     inkscape:label="Layer 1"
     inkscape:groupmode="layer"
     id="layer1"
     transform="translate(0,-284.29999)">
    <g
       id="g16322"
       transform="matrix(0.02337823,0,0,0.02337823,0.39687407,284.69686)">
      <g
         id="g16263" />
      <g
         id="g16265" />
      <g
         id="g16267" />
      <g
         id="g16269" />
      <g
         id="g16271" />
      <g
         id="g16273" />
      <g
         id="g16275" />
      <g
         id="g16277" />
      <g
         id="g16279" />
      <g
         id="g16281" />
      <g
         id="g16283" />
      <g
         id="g16285" />
      <g
         id="g16287" />
      <g
         id="g16289" />
      <g
         id="g16291" />
      <g
         id="g11292"
         transform="matrix(1.0659649,0,0,1.0659649,-9.8218947,-9.8217206)">
        <path
           id="path11210"
           d="M 496.2,248.1 C 496.2,111.1 385.1,0 248.1,0 111.1,0 0,111.1 0,248.1 c 0,137 111.1,248.1 248.1,248.1 137,0 248.1,-111.1 248.1,-248.1 z"
           style="fill:#32bea6"
           inkscape:connector-curvature="0" />
        <path
           id="path11212"
           d="m 238.3,405.2 v 90.7 c 3.2,0.1 6.5,0.2 9.8,0.2 3.3,0 6.5,-0.1 9.7,-0.2 v -90.7 z"
           style="fill:#3a3a38"
           inkscape:connector-curvature="0" />
        <path
           id="path11214"
           d="M 265.2,215.4 V 92.6 c 0,-0.5 -0.1,-0.9 -0.4,-1.3 l -6.4,-10.2 6.1,-8.1 c 0.7,-1 0.7,-2.4 -0.2,-3.2 L 249.6,54.6 c -0.5,-0.5 -1.1,-0.8 -1.8,-0.8 v 0 c -0.7,0 -1.3,0.3 -1.8,0.8 l -14.6,15.2 c -0.8,0.9 -0.9,2.3 -0.2,3.2 l 6.2,8.2 -6.1,10.1 c -0.2,0.4 -0.4,0.8 -0.4,1.3 v 122.8 z"
           style="fill:#cbcbc9"
           inkscape:connector-curvature="0" />
        <path
           id="path11216"
           d="m 247.9,53.7 v 0 c -0.7,0 -1.3,0.3 -1.8,0.8 l -14.6,15.2 c -0.8,0.9 -0.9,2.3 -0.2,3.2 l 6.2,8.2 -6.1,10.1 c -0.2,0.4 -0.4,0.8 -0.4,1.3 v 122.8 h 16.9 z"
           style="fill:#dddddb"
           inkscape:connector-curvature="0" />
        <path
           id="path11218"
           d="m 288.3,214 c -0.9,-1 -2.3,-1.6 -3.7,-1.6 h -73.1 c -1.4,0 -2.7,0.6 -3.7,1.6 -0.9,1 -1.4,2.4 -1.3,3.8 l 17.8,207 c 0.2,2.6 2.4,4.6 5,4.6 h 37.4 c 2.6,0 4.8,-2 5,-4.6 l 17.8,-207 c 0.3,-1.4 -0.2,-2.8 -1.2,-3.8 z"
           style="fill:#3a3a38"
           inkscape:connector-curvature="0" />
        <path
           id="path11220"
           d="m 211.5,212.4 c -1.4,0 -2.7,0.6 -3.7,1.6 -0.9,1 -1.4,2.4 -1.3,3.8 l 17.8,207 c 0.2,2.6 2.4,4.6 5,4.6 h 18.5 v -217 z"
           style="fill:#5b5b5b"
           inkscape:connector-curvature="0" />
        <path
           id="path11222"
           d="m 265,71.4 c 0,-0.6 -0.3,-1.2 -0.7,-1.7 L 249.6,54.5 c -0.5,-0.5 -1.1,-0.8 -1.8,-0.8 v 0 c -0.7,0 -1.3,0.3 -1.8,0.8 l -14.6,15.2 c -0.4,0.5 -0.7,1.1 -0.7,1.7 z"
           style="fill:#eaeaea"
           inkscape:connector-curvature="0" />
        <g
           id="g11228">
          <rect
             id="rect11224"
             height="6.6999998"
             width="34.200001"
             style="fill:#3a3a38"
             y="129.10001"
             x="231" />
          <rect
             id="rect11226"
             height="9.1999998"
             width="34.200001"
             style="fill:#3a3a38"
             y="97.900002"
             x="231" />
        </g>
        <g
           id="g11230" />
        <g
           id="g11232" />
        <g
           id="g11234" />
        <g
           id="g11236" />
        <g
           id="g11238" />
        <g
           id="g11240" />
        <g
           id="g11242" />
        <g
           id="g11244" />
        <g
           id="g11246" />
        <g
           id="g11248" />
        <g
           id="g11250" />
        <g
           id="g11252" />
        <g
           id="g11254" />
        <g
           id="g11256" />
        <g
           id="g11258" />
      </g>
    </g>
  </g>
</svg>
