<?xml version="1.0" encoding="UTF-8" standalone="no"?>
<!-- Created with Inkscape (http://www.inkscape.org/) -->

<svg
   xmlns:dc="http://purl.org/dc/elements/1.1/"
   xmlns:cc="http://creativecommons.org/ns#"
   xmlns:rdf="http://www.w3.org/1999/02/22-rdf-syntax-ns#"
   xmlns:svg="http://www.w3.org/2000/svg"
   xmlns="http://www.w3.org/2000/svg"
   xmlns:sodipodi="http://sodipodi.sourceforge.net/DTD/sodipodi-0.dtd"
   xmlns:inkscape="http://www.inkscape.org/namespaces/inkscape"
   width="200"
   height="200"
   viewBox="0 0 52.916665 52.91667"
   version="1.1"
   id="svg8"
   inkscape:version="0.92.2 (5c3e80d, 2017-08-06)"
   sodipodi:docname="logo.svg"
   inkscape:export-filename="C:\Users\Lordkoi\Desktop\TuneScape\TuneScape\Resources\drawable-nodpi\logo.png"
   inkscape:export-xdpi="96"
   inkscape:export-ydpi="96">
  <defs
     id="defs2">
    <pattern
       y="0"
       x="0"
       height="6"
       width="6"
       patternUnits="userSpaceOnUse"
       id="EMFhbasepattern" />
  </defs>
  <sodipodi:namedview
     id="base"
     pagecolor="#ffffff"
     bordercolor="#666666"
     borderopacity="1.0"
     inkscape:pageopacity="0.0"
     inkscape:pageshadow="2"
     inkscape:zoom="2"
     inkscape:cx="153.51255"
     inkscape:cy="99.241367"
     inkscape:document-units="px"
     inkscape:current-layer="layer1"
     showgrid="false"
     units="px"
     inkscape:window-width="1920"
     inkscape:window-height="1017"
     inkscape:window-x="-8"
     inkscape:window-y="-8"
     inkscape:window-maximized="1" />
  <metadata
     id="metadata5">
    <rdf:RDF>
      <cc:Work
         rdf:about="">
        <dc:format>image/svg+xml</dc:format>
        <dc:type
           rdf:resource="http://purl.org/dc/dcmitype/StillImage" />
        <dc:title></dc:title>
      </cc:Work>
    </rdf:RDF>
  </metadata>
  <g
     inkscape:label="Layer 1"
     inkscape:groupmode="layer"
     id="layer1"
     transform="translate(0,-244.08332)">
    <g
       id="g1043"
       transform="matrix(0.95554965,0,0,0.95554483,-95.946138,86.482837)">
      <g
         style="fill:#ffffff;stroke:none"
         id="g1033">
        <path
           style="fill:#ffffff;stroke:none;stroke-width:0.26458332px;stroke-linecap:butt;stroke-linejoin:miter;stroke-opacity:1"
           d="m 100.40937,164.93274 v 55.37824 l 55.37824,-1e-5 1e-5,-55.37823 z"
           id="path1031"
           inkscape:connector-curvature="0" />
      </g>
      <path
         id="path1035"
         transform="matrix(0.26458333,0,0,0.26458333,0,-20.500017)"
         d="m 380.91797,773.66211 c -0.46559,0.032 -0.94305,0.20503 -1.41797,0.51953 v 5.60938 c 1.47797,-1.48709 3.16965,-1.94965 3.70117,-1.15235 0.47996,0.71996 1.60037,3.91979 -1.59961,9.75977 -0.44966,0.80095 -1.19302,1.64769 -2.10156,2.55078 v 6.24219 c 2.67279,-3.31346 4.88849,-6.89495 5.78125,-11.27344 1.37498,-6.76495 -1.25751,-12.46963 -4.36328,-12.25586 z M 379.5,800.89648 v 8.29102 c 0.17235,-0.058 0.34665,-0.11031 0.52539,-0.15039 l 2.66797,12.58984 c -0.99123,0.31697 -2.08226,0.45713 -3.19336,0.42774 v 1.36914 c 1.16625,0.0397 2.34245,-0.0593 3.5,-0.35352 l 1.16211,5.48828 c 0.56001,2.64 0.15948,6.40008 -2.40039,8.08008 -0.75517,-0.69423 -1.51614,-1.21926 -2.26172,-1.61719 v 3.47266 c 4.57222,-0.51256 7.323,-4.43704 5.86133,-10.57617 l -1.14063,-5.25781 c 5.15935,-2.12018 7.74441,-10.08951 4.41992,-14.3418 -2.5917,-3.27977 -5.63396,-4.17256 -8.32812,-3.67383 z m 1.73633,8.00196 c 3.79789,-0.0343 7.9706,3.4769 5.40429,9.41992 -0.52612,1.23525 -1.5178,2.17122 -2.7539,2.80469 z"
         style="fill:#000000;fill-opacity:0.12707184;fill-rule:nonzero;stroke:none;stroke-width:0.07999941px;stroke-linecap:butt;stroke-linejoin:miter;stroke-miterlimit:4;stroke-dasharray:none;stroke-opacity:1"
         inkscape:connector-curvature="0" />
      <path
         id="path1037"
         transform="matrix(0.26458333,0,0,0.26458333,0,-20.500017)"
         d="m 588.80273,774.18359 c -0.96434,0.63957 -1.9235,1.88551 -2.77734,3.89453 -1.35999,3.27995 -1.92053,6.48071 -0.56055,12.72071 l 0.57618,2.7207 c -4.31575,3.89957 -9.7471,8.8783 -10.33594,15.99805 -0.60098,7.67914 6.046,13.66539 13.09765,13.90625 v -1.36914 c -2.25582,-0.0601 -4.59781,-0.84573 -6.37695,-2.45703 -3.59996,-3.19994 -5.12118,-9.44001 -1.20117,-13.91993 1.96234,-2.22597 4.05121,-4.36663 5.99609,-6.58984 l 1.24219,5.86523 c -6.02947,2.07505 -9.49108,11.02315 -0.0371,14.2461 -1.51994,-1.20004 -2.56071,-2.08129 -2.7207,-3.28125 -0.66928,-3.84839 0.92787,-6.00068 3.09765,-6.73047 v -8.30078 l -0.63476,-2.92774 c 0.21335,-0.25483 0.42672,-0.50966 0.63476,-0.76757 v -6.24219 c -0.53783,0.5346 -1.15309,1.10695 -1.79101,1.6875 l -0.3457,-1.59766 c -0.96,-4.3999 -0.23977,-6.80019 0.24023,-8.24023 0.4558,-1.26012 1.15111,-2.2531 1.89648,-3.00391 z m -3.95898,59.85547 c -3.82267,0.19144 -5.05938,3.96669 2.62109,4.51953 0.46283,0.0138 0.90571,-0.0161 1.33789,-0.0644 v -3.47266 c -1.43773,-0.76734 -2.81477,-1.03972 -3.95898,-0.98242 z"
         style="fill:#000000;fill-opacity:0.12707184;fill-rule:nonzero;stroke:none;stroke-width:0.07999941px;stroke-linecap:butt;stroke-linejoin:miter;stroke-miterlimit:4;stroke-dasharray:none;stroke-opacity:1"
         inkscape:connector-curvature="0" />
      <path
         id="path1039"
         transform="matrix(0.26458333,0,0,0.26458333,0,-20.500017)"
         d="m 485.57031,878.3125 c -1.41171,0.0972 -2.92226,1.41799 -4.19726,4.41797 -1.35999,3.27995 -1.91858,6.4807 -0.5586,12.7207 l 0.57617,2.71875 c -3.45431,3.1212 -7.60868,6.92685 -9.44531,11.98242 h 4.78907 c 1.91649,-2.16219 3.94301,-4.25017 5.83593,-6.41406 l 1.24219,5.86719 c -0.43812,0.15074 -0.86643,0.32829 -1.27344,0.54687 h 7.51367 c -1.70683,-0.93678 -3.45985,-1.15652 -5.08789,-0.85546 l -1.44922,-6.6875 c 2.95429,-3.52877 5.4557,-7.31965 6.41797,-12.03907 1.37499,-6.76495 -1.25752,-12.47157 -4.36328,-12.25781 z m 1.26172,4.59375 c 0.45625,-0.04 0.82149,0.0848 1.02149,0.38477 0.47996,0.71996 1.60036,3.91979 -1.59961,9.75976 -0.71583,1.27505 -2.17908,2.67515 -3.89453,4.23633 l -0.34571,-1.59766 c -0.96,-4.3999 -0.23976,-6.79824 0.24024,-8.23828 1.01999,-2.81993 3.20939,-4.42493 4.57812,-4.54492 z"
         style="fill:#000000;fill-opacity:0.12707184;fill-rule:nonzero;stroke:none;stroke-width:0.07999941px;stroke-linecap:butt;stroke-linejoin:miter;stroke-miterlimit:4;stroke-dasharray:none;stroke-opacity:1"
         inkscape:connector-curvature="0" />
      <path
         id="path1041"
         transform="matrix(0.26458333,0,0,0.26458333,0,-20.500017)"
         d="m 471.94531,700.84766 c -0.45849,1.26164 -0.77494,2.59722 -0.89258,4.01953 -0.70041,8.9497 8.44058,15.62447 16.59766,13.55078 l 1.16211,5.48828 c 0.56001,2.64 0.16144,6.40008 -2.39844,8.08008 -7.07648,-6.50544 -14.77121,1.11579 -3.59961,1.91992 5.35998,0.15987 8.79917,-3.9207 7.19922,-10.64063 l -1.14062,-5.25585 c 5.15895,-2.12055 7.74428,-10.09163 4.41992,-14.34375 -1.02518,-1.29736 -2.12289,-2.20512 -3.24024,-2.81836 h -7.50976 c -5.19724,2.78795 -7.53899,10.70962 1.23047,13.69922 -1.51994,-1.20004 -2.56072,-2.07934 -2.72071,-3.2793 -0.72246,-4.15421 1.19583,-6.33613 3.625,-6.88086 l 2.66602,12.58789 c -3.00423,0.96064 -6.91435,0.37806 -9.57031,-2.02734 -3.59996,-3.19994 -5.11923,-9.44001 -1.19922,-13.91993 0.0532,-0.0604 0.10867,-0.1194 0.16211,-0.17968 z m 13.94336,3.40039 c 3.79789,-0.0343 7.9706,3.47494 5.4043,9.41797 -0.52603,1.23502 -1.51812,2.17121 -2.75391,2.80468 z"
         style="fill:#000000;fill-opacity:0.12707184;fill-rule:nonzero;stroke:none;stroke-width:0.07999941px;stroke-linecap:butt;stroke-linejoin:miter;stroke-miterlimit:4;stroke-dasharray:none;stroke-opacity:1"
         inkscape:connector-curvature="0" />
    </g>
    <text
       xml:space="preserve"
       style="font-style:normal;font-weight:normal;font-size:10.58333397px;line-height:1.25;font-family:sans-serif;letter-spacing:0px;word-spacing:0px;fill:#000000;fill-opacity:1;stroke:none;stroke-width:0.26458335"
       x="10.847917"
       y="271.73227"
       id="text6633"><tspan
         sodipodi:role="line"
         id="tspan6631"
         x="10.847917"
         y="281.38776"
         style="stroke-width:0.26458335"></tspan></text>
  </g>
</svg>
