<?xml version="1.0" encoding="UTF-8" standalone="no"?>
<!-- Created with Inkscape (http://www.inkscape.org/) -->

<svg
   xmlns:dc="http://purl.org/dc/elements/1.1/"
   xmlns:cc="http://creativecommons.org/ns#"
   xmlns:rdf="http://www.w3.org/1999/02/22-rdf-syntax-ns#"
   xmlns:svg="http://www.w3.org/2000/svg"
   xmlns="http://www.w3.org/2000/svg"
   xmlns:xlink="http://www.w3.org/1999/xlink"
   xmlns:sodipodi="http://sodipodi.sourceforge.net/DTD/sodipodi-0.dtd"
   xmlns:inkscape="http://www.inkscape.org/namespaces/inkscape"
   width="100mm"
   height="100mm"
   viewBox="0 0 100 100"
   version="1.1"
   id="svg6659"
   inkscape:version="0.92.2 (5c3e80d, 2017-08-06)"
   sodipodi:docname="move_icon.svg"
   inkscape:export-filename="C:\Users\Lordkoi\Desktop\TuneScape\TuneScape\Resources\drawable-nodpi\grab.png"
   inkscape:export-xdpi="5"
   inkscape:export-ydpi="5">
  <defs
     id="defs6653">
    <linearGradient
       inkscape:collect="always"
       id="linearGradient7233">
      <stop
         style="stop-color:#000000;stop-opacity:1;"
         offset="0"
         id="stop7229" />
      <stop
         id="stop7241"
         offset="0.16015673"
         style="stop-color:#ce3cdc;stop-opacity:0.8392157" />
      <stop
         id="stop7239"
         offset="0.41806012"
         style="stop-color:#799fcc;stop-opacity:0.58039218" />
      <stop
         id="stop7237"
         offset="0.68053436"
         style="stop-color:#8edc6b;stop-opacity:0.31764707" />
      <stop
         style="stop-color:#03be00;stop-opacity:0"
         offset="1"
         id="stop7231" />
    </linearGradient>
    <linearGradient
       inkscape:collect="always"
       xlink:href="#linearGradient7233"
       id="linearGradient7235"
       x1="14.363095"
       y1="284.90475"
       x2="99.005997"
       y2="199.59021"
       gradientUnits="userSpaceOnUse" />
  </defs>
  <sodipodi:namedview
     id="base"
     pagecolor="#ffffff"
     bordercolor="#666666"
     borderopacity="1.0"
     inkscape:pageopacity="0.0"
     inkscape:pageshadow="2"
     inkscape:zoom="0.35"
     inkscape:cx="-64.285714"
     inkscape:cy="560"
     inkscape:document-units="mm"
     inkscape:current-layer="layer1"
     showgrid="false"
     inkscape:window-width="1920"
     inkscape:window-height="1017"
     inkscape:window-x="-8"
     inkscape:window-y="-8"
     inkscape:window-maximized="1" />
  <metadata
     id="metadata6656">
    <rdf:RDF>
      <cc:Work
         rdf:about="">
        <dc:format>image/svg+xml</dc:format>
        <dc:type
           rdf:resource="http://purl.org/dc/dcmitype/StillImage" />
        <dc:title></dc:title>
      </cc:Work>
    </rdf:RDF>
  </metadata>
  <g
     inkscape:label="Layer 1"
     inkscape:groupmode="layer"
     id="layer1"
     transform="translate(0,-197)">
    <path
       style="fill:url(#linearGradient7235);stroke-width:0.45862508;fill-opacity:1"
       d="M 37.489538,285.67781 C 30.743719,279.3929 24.459983,273.47903 23.525675,272.53589 l -1.698743,-1.71482 2.434649,-1.87512 2.43465,-1.87511 3.939582,3.55028 c 2.166764,1.95266 6.632671,6.05836 9.92424,9.12378 l 5.984658,5.57349 0.01053,-13.61217 0.01053,-13.61218 H 24.243256 c -21.6683776,0 -22.3512674,-0.0251 -23.30372234,-0.85746 -1.23683045,-1.08085 -1.25376973,-2.61197 -0.0433546,-3.91826 L 1.8340405,252.30618 H 50 98.165951 l 0.937861,1.01214 c 1.210428,1.30629 1.193488,2.83741 -0.04335,3.91826 -0.952455,0.83233 -1.635345,0.85746 -23.303723,0.85746 H 53.434221 l 0.01525,13.61218 0.01517,13.61217 5.98277,-5.57349 c 3.290516,-3.06542 7.760983,-7.17857 9.934367,-9.14033 l 3.951597,-3.56684 2.315556,1.78117 c 1.27355,0.97965 2.315556,1.92131 2.315556,2.09259 0,0.35381 -27.30085,25.92582 -27.851748,26.08802 -0.196962,0.058 -5.87738,-5.03679 -12.623191,-11.3217 z M 2.538267,241.50439 C 0.14454118,241.0919 -0.81300021,238.189 0.93948721,236.65754 1.8919422,235.8252 2.5748319,235.80008 24.24321,235.80008 h 22.322513 l -0.01053,-13.61218 -0.01053,-13.61218 -5.984659,5.57349 c -3.291568,3.06542 -7.757476,7.16675 -9.92424,9.11407 l -3.939597,3.54057 -2.330366,-1.75183 c -1.281711,-0.96351 -2.330374,-1.89335 -2.330374,-2.06632 0,-0.48919 27.438021,-25.9857 27.96447,-25.9857 0.526441,0 27.964462,25.49651 27.964462,25.9857 0,0.17297 -1.048663,1.10296 -2.330366,2.06664 l -2.330374,1.75216 -3.691407,-3.32654 c -2.030267,-1.82959 -6.494928,-5.93107 -9.921454,-9.11439 l -6.230069,-5.78785 -0.01332,13.61218 -0.01332,13.61218 h 22.322514 c 21.668377,0 22.351267,0.0251 23.303722,0.85746 1.236795,1.08081 1.253775,2.61193 0.04351,3.91825 l -0.937761,1.01214 -47.264152,0.053 c -25.995287,0.0292 -47.7589517,-0.0323 -48.3637025,-0.13651 z"
       id="path7215"
       inkscape:connector-curvature="0" />
  </g>
</svg>
