<?xml version="1.0" encoding="UTF-8" standalone="no"?>
<!-- Generator: Adobe Illustrator 19.0.0, SVG Export Plug-In . SVG Version: 6.00 Build 0)  -->

<svg
   xmlns:dc="http://purl.org/dc/elements/1.1/"
   xmlns:cc="http://creativecommons.org/ns#"
   xmlns:rdf="http://www.w3.org/1999/02/22-rdf-syntax-ns#"
   xmlns:svg="http://www.w3.org/2000/svg"
   xmlns="http://www.w3.org/2000/svg"
   xmlns:sodipodi="http://sodipodi.sourceforge.net/DTD/sodipodi-0.dtd"
   xmlns:inkscape="http://www.inkscape.org/namespaces/inkscape"
   version="1.1"
   id="Capa_1"
   x="0px"
   y="0px"
   viewBox="0 0 49.94 49.94"
   style="enable-background:new 0 0 49.94 49.94;"
   xml:space="preserve"
   sodipodi:docname="star.svg"
   inkscape:version="0.92.4 (5da689c313, 2019-01-14)"
   inkscape:export-filename="D:\Source\Github\Alloy\android\Resources\drawable\star.png"
   inkscape:export-xdpi="92.269997"
   inkscape:export-ydpi="92.269997"><metadata
   id="metadata39"><rdf:RDF><cc:Work
       rdf:about=""><dc:format>image/svg+xml</dc:format><dc:type
         rdf:resource="http://purl.org/dc/dcmitype/StillImage" /></cc:Work></rdf:RDF></metadata><defs
   id="defs37" /><sodipodi:namedview
   pagecolor="#ffffff"
   bordercolor="#666666"
   borderopacity="1"
   objecttolerance="10"
   gridtolerance="10"
   guidetolerance="10"
   inkscape:pageopacity="0"
   inkscape:pageshadow="2"
   inkscape:window-width="2560"
   inkscape:window-height="1027"
   id="namedview35"
   showgrid="false"
   inkscape:zoom="4.7256709"
   inkscape:cx="-38.30144"
   inkscape:cy="24.969999"
   inkscape:window-x="-8"
   inkscape:window-y="-8"
   inkscape:window-maximized="1"
   inkscape:current-layer="Capa_1" />
<path
   d="m 47.925172,22.817337 c 0.944673,-0.920648 1.278144,-2.271829 0.870675,-3.527869 -0.408429,-1.256041 -1.472268,-2.152663 -2.779242,-2.342943 L 34.396069,15.25803 c -0.49492,-0.07208 -0.92257,-0.382482 -1.143602,-0.831274 L 28.057245,3.8979267 C 27.473912,2.714923 26.289947,1.9797501 24.97048,1.9797501 c -1.318506,0 -2.502471,0.7351729 -3.085804,1.9181766 L 16.688493,14.427717 c -0.221032,0.448792 -0.649642,0.759198 -1.144563,0.831274 L 3.9233934,16.947486 c -1.3060129,0.189319 -2.3708123,1.086902 -2.7792417,2.342943 -0.40746837,1.25604 -0.073998,2.607221 0.8706753,3.527869 l 8.407879,8.195495 c 0.358457,0.349808 0.52279,0.853378 0.438221,1.345415 L 8.8774015,43.931694 c -0.1758649,1.018671 0.091296,2.009472 0.750549,2.790774 1.0244375,1.2176 2.8128775,1.58855 4.2428605,0.83704 l 10.392366,-5.464305 c 0.434376,-0.227759 0.981191,-0.225837 1.414607,0 l 10.393326,5.464305 c 0.505491,0.266199 1.044618,0.400741 1.601043,0.400741 1.015788,0 1.97872,-0.451675 2.640856,-1.237781 0.660214,-0.781302 0.926414,-1.774025 0.750549,-2.790774 L 39.079072,32.359208 c -0.08457,-0.492998 0.07976,-0.995607 0.438221,-1.345415 z"
   id="path2"
   style="fill:#000000;fill-opacity:0.78431373;stroke:#ffffff;stroke-width:0.96101028;stroke-opacity:0.78431373"
   inkscape:connector-curvature="0"
   inkscape:export-filename="D:\Source\Github\Alloy\android\Resources\drawable\star.png"
   inkscape:export-xdpi="5"
   inkscape:export-ydpi="5" />
<g
   id="g4"
   transform="matrix(0.96101029,0,0,0.96101029,0.97405287,0.97357231)">
</g>
<g
   id="g6"
   transform="matrix(0.96101029,0,0,0.96101029,0.97405287,0.97357231)">
</g>
<g
   id="g8"
   transform="matrix(0.96101029,0,0,0.96101029,0.97405287,0.97357231)">
</g>
<g
   id="g10"
   transform="matrix(0.96101029,0,0,0.96101029,0.97405287,0.97357231)">
</g>
<g
   id="g12"
   transform="matrix(0.96101029,0,0,0.96101029,0.97405287,0.97357231)">
</g>
<g
   id="g14"
   transform="matrix(0.96101029,0,0,0.96101029,0.97405287,0.97357231)">
</g>
<g
   id="g16"
   transform="matrix(0.96101029,0,0,0.96101029,0.97405287,0.97357231)">
</g>
<g
   id="g18"
   transform="matrix(0.96101029,0,0,0.96101029,0.97405287,0.97357231)">
</g>
<g
   id="g20"
   transform="matrix(0.96101029,0,0,0.96101029,0.97405287,0.97357231)">
</g>
<g
   id="g22"
   transform="matrix(0.96101029,0,0,0.96101029,0.97405287,0.97357231)">
</g>
<g
   id="g24"
   transform="matrix(0.96101029,0,0,0.96101029,0.97405287,0.97357231)">
</g>
<g
   id="g26"
   transform="matrix(0.96101029,0,0,0.96101029,0.97405287,0.97357231)">
</g>
<g
   id="g28"
   transform="matrix(0.96101029,0,0,0.96101029,0.97405287,0.97357231)">
</g>
<g
   id="g30"
   transform="matrix(0.96101029,0,0,0.96101029,0.97405287,0.97357231)">
</g>
<g
   id="g32"
   transform="matrix(0.96101029,0,0,0.96101029,0.97405287,0.97357231)">
</g>
</svg>