<?xml version="1.0" encoding="UTF-8" standalone="no"?>
<!-- Generator: Adobe Illustrator 19.0.0, SVG Export Plug-In . SVG Version: 6.00 Build 0)  -->

<svg
   xmlns:dc="http://purl.org/dc/elements/1.1/"
   xmlns:cc="http://creativecommons.org/ns#"
   xmlns:rdf="http://www.w3.org/1999/02/22-rdf-syntax-ns#"
   xmlns:svg="http://www.w3.org/2000/svg"
   xmlns="http://www.w3.org/2000/svg"
   xmlns:sodipodi="http://sodipodi.sourceforge.net/DTD/sodipodi-0.dtd"
   xmlns:inkscape="http://www.inkscape.org/namespaces/inkscape"
   version="1.1"
   id="Capa_1"
   x="0px"
   y="0px"
   viewBox="0 0 49.94 49.94"
   style="enable-background:new 0 0 49.94 49.94;"
   xml:space="preserve"
   sodipodi:docname="star-o.svg"
   inkscape:export-filename="D:\Source\Github\Alloy\android\Resources\drawable\star_o.png"
   inkscape:export-xdpi="92.269997"
   inkscape:export-ydpi="92.269997"
   inkscape:version="0.92.4 (5da689c313, 2019-01-14)"><metadata
   id="metadata39"><rdf:RDF><cc:Work
       rdf:about=""><dc:format>image/svg+xml</dc:format><dc:type
         rdf:resource="http://purl.org/dc/dcmitype/StillImage" /></cc:Work></rdf:RDF></metadata><defs
   id="defs37" /><sodipodi:namedview
   pagecolor="#ffffff"
   bordercolor="#666666"
   borderopacity="1"
   objecttolerance="10"
   gridtolerance="10"
   guidetolerance="10"
   inkscape:pageopacity="0"
   inkscape:pageshadow="2"
   inkscape:window-width="2560"
   inkscape:window-height="1027"
   id="namedview35"
   showgrid="false"
   inkscape:zoom="22.627417"
   inkscape:cx="11.175722"
   inkscape:cy="28.951013"
   inkscape:window-x="-8"
   inkscape:window-y="-8"
   inkscape:window-maximized="1"
   inkscape:current-layer="Capa_1" />
<path
   d="m 47.962925,22.815195 c 0.946246,-0.922181 1.280272,-2.275612 0.872125,-3.533745 -0.409109,-1.258132 -1.47472,-2.156249 -2.78387,-2.346846 L 34.411288,15.243297 c -0.495745,-0.0722 -0.924107,-0.383119 -1.145507,-0.832658 L 28.061906,3.8633096 C 27.477601,2.6783355 26.291664,1.9419381 24.969999,1.9419381 c -1.320702,0 -2.506639,0.7363974 -3.090944,1.9213715 L 16.674218,14.410639 c -0.221401,0.449539 -0.650725,0.760462 -1.14647,0.832658 l -11.6398913,1.69227 c -1.3081883,0.189634 -2.3737987,1.087751 -2.7829083,2.345883 -0.40814709,1.258133 -0.074121,2.611564 0.8721255,3.533745 l 8.4218831,8.209146 c 0.359054,0.350391 0.523661,0.854799 0.438951,1.347656 L 8.8501163,43.964721 c -0.2233258,1.302412 0.3012972,2.593274 1.3707577,3.371063 1.068498,0.778752 2.459471,0.879827 3.630969,0.262793 l 10.409675,-5.473406 c 0.443763,-0.232952 0.973199,-0.232952 1.416963,0 l 10.410638,5.473406 c 0.508258,0.267606 1.058872,0.399484 1.606597,0.399484 0.71137,0 1.419851,-0.222364 2.024371,-0.662277 1.069461,-0.777789 1.594084,-2.068651 1.370758,-3.371063 L 39.102091,32.372959 c -0.08471,-0.493819 0.0799,-0.997265 0.438951,-1.347655 z"
   id="path2"
   style="fill:#000000;fill-opacity:0.78431373;stroke:#ffffff;stroke-width:1.385;stroke-opacity:0.78431373;stroke-miterlimit:4;stroke-dasharray:none"
   inkscape:connector-curvature="0"
   sodipodi:nodetypes="ccccccsccccccccccccccsccccc" />
<g
   id="g4"
   transform="matrix(0.96261097,0,0,0.96261097,0.93360361,0.93408441)">
</g>
<g
   id="g6"
   transform="matrix(0.96261097,0,0,0.96261097,0.93360361,0.93408441)">
</g>
<g
   id="g8"
   transform="matrix(0.96261097,0,0,0.96261097,0.93360361,0.93408441)">
</g>
<g
   id="g10"
   transform="matrix(0.96261097,0,0,0.96261097,0.93360361,0.93408441)">
</g>
<g
   id="g12"
   transform="matrix(0.96261097,0,0,0.96261097,0.93360361,0.93408441)">
</g>
<g
   id="g14"
   transform="matrix(0.96261097,0,0,0.96261097,0.93360361,0.93408441)">
</g>
<g
   id="g16"
   transform="matrix(0.96261097,0,0,0.96261097,0.93360361,0.93408441)">
</g>
<g
   id="g18"
   transform="matrix(0.96261097,0,0,0.96261097,0.93360361,0.93408441)">
</g>
<g
   id="g20"
   transform="matrix(0.96261097,0,0,0.96261097,0.93360361,0.93408441)">
</g>
<g
   id="g22"
   transform="matrix(0.96261097,0,0,0.96261097,0.93360361,0.93408441)">
</g>
<g
   id="g24"
   transform="matrix(0.96261097,0,0,0.96261097,0.93360361,0.93408441)">
</g>
<g
   id="g26"
   transform="matrix(0.96261097,0,0,0.96261097,0.93360361,0.93408441)">
</g>
<g
   id="g28"
   transform="matrix(0.96261097,0,0,0.96261097,0.93360361,0.93408441)">
</g>
<g
   id="g30"
   transform="matrix(0.96261097,0,0,0.96261097,0.93360361,0.93408441)">
</g>
<g
   id="g32"
   transform="matrix(0.96261097,0,0,0.96261097,0.93360361,0.93408441)">
</g>
</svg>