<?xml version="1.0" encoding="UTF-8" standalone="no"?>
<svg
   xmlns:dc="http://purl.org/dc/elements/1.1/"
   xmlns:cc="http://creativecommons.org/ns#"
   xmlns:rdf="http://www.w3.org/1999/02/22-rdf-syntax-ns#"
   xmlns:svg="http://www.w3.org/2000/svg"
   xmlns="http://www.w3.org/2000/svg"
   xmlns:sodipodi="http://sodipodi.sourceforge.net/DTD/sodipodi-0.dtd"
   xmlns:inkscape="http://www.inkscape.org/namespaces/inkscape"
   version="1"
   viewBox="0 0 48 48"
   enable-background="new 0 0 48 48"
   id="svg4"
   sodipodi:docname="stations.svg"
   inkscape:version="0.92.2 (5c3e80d, 2017-08-06)"
   inkscape:export-xdpi="96"
   inkscape:export-ydpi="96">
  <metadata
     id="metadata10">
    <rdf:RDF>
      <cc:Work
         rdf:about="">
        <dc:format>image/svg+xml</dc:format>
        <dc:type
           rdf:resource="http://purl.org/dc/dcmitype/StillImage" />
        <dc:title />
      </cc:Work>
    </rdf:RDF>
  </metadata>
  <defs
     id="defs8" />
  <sodipodi:namedview
     pagecolor="#ffffff"
     bordercolor="#666666"
     borderopacity="1"
     objecttolerance="10"
     gridtolerance="10"
     guidetolerance="10"
     inkscape:pageopacity="0"
     inkscape:pageshadow="2"
     inkscape:window-width="1920"
     inkscape:window-height="1017"
     id="namedview6"
     showgrid="false"
     inkscape:zoom="9.8333333"
     inkscape:cx="3.7193062"
     inkscape:cy="20.167605"
     inkscape:window-x="-8"
     inkscape:window-y="-8"
     inkscape:window-maximized="1"
     inkscape:current-layer="svg4" />
  <path
     inkscape:connector-curvature="0"
     d="m 15.045115,19.715234 c 0.692622,-0.702924 0.692622,-1.842058 0,-2.544983 -0.895718,-0.910273 -1.337532,-2.087173 -1.34024,-3.281572 0.0027,-1.197115 0.444478,-2.372634 1.34024,-3.284246 0.692622,-0.704259 0.692622,-1.843481 0,-2.546362 -0.34631,-0.352797 -0.797553,-0.529155 -1.252986,-0.529155 -0.45268,0 -0.908073,0.173686 -1.254381,0.526484 -1.582974,1.607808 -2.384672,3.725975 -2.381923,5.833279 -0.0027,2.103338 0.798993,4.221462 2.381923,5.826555 0.692621,0.702924 1.814748,0.702924 2.507367,0 z M 8.1597193,4.2998513 C 7.8052434,3.9416642 7.3443544,3.7625937 6.8808034,3.7625937 c -0.460846,0 -0.924441,0.1790705 -1.276165,0.5372576 -2.608283,2.6446477 -3.919889,6.1214577 -3.917185,9.5888277 -0.0027,3.46336 1.308902,6.946896 3.914481,9.588871 0.706282,0.716371 1.848792,0.716371 2.5550779,0 0.703533,-0.715036 0.703533,-1.875771 0,-2.589384 -1.9074599,-1.939009 -2.8563879,-4.459807 -2.8563879,-6.999399 0,-2.539595 0.948928,-5.063025 2.8563879,-6.999404 0.703533,-0.717794 0.703533,-1.8785268 0.0027,-2.5895116 z M 24.045215,18.383535 c 2.503314,0 4.537569,-2.007726 4.537569,-4.481364 0,-2.473637 -2.034255,-4.481316 -4.537569,-4.481316 -2.504615,0 -4.537568,2.007679 -4.537568,4.481316 4.4e-5,2.473638 2.032953,4.481364 4.537568,4.481364 z M 42.399934,4.3267918 c -0.706281,-0.7163704 -1.84875,-0.7163704 -2.552369,0 -0.70628,0.7150381 -0.70628,1.8757722 0,2.5894282 1.906064,1.936338 2.855032,4.459808 2.855032,6.999401 0,2.536921 -0.951763,5.06035 -2.857826,6.996728 -0.703486,0.716374 -0.703486,1.878443 0.0024,2.589428 0.351763,0.358184 0.812569,0.537258 1.276162,0.537258 0.460844,0 0.924394,-0.179074 1.276119,-0.537258 2.606975,-2.641976 3.918539,-6.125511 3.91308,-9.588871 0.0057,-3.460644 -1.305974,-6.944178 -3.912904,-9.5861142 z M 24.056131,21.962638 v 0 c -1.156217,0.0027 -2.31514,-0.278736 -3.364943,-0.83755 l -8.779234,23.112318 h 4.15577 l 2.39279,-2.757763 H 29.62988 l 2.356036,2.757763 h 4.158517 L 27.366597,21.130477 c -1.036226,0.550752 -2.170616,0.83216 -3.310466,0.832161 z m -0.02726,1.321009 2.80872,9.922788 h -5.584658 z m -5.568293,15.438275 2.792398,-2.757767 h 5.584615 l 2.792401,2.757767 z M 32.956731,8.089068 c -0.692615,0.702924 -0.692615,1.842057 0,2.544982 0.894414,0.910273 1.33614,2.091223 1.33889,3.281571 -0.0024,1.197117 -0.444476,2.375352 -1.33889,3.284288 -0.692615,0.704218 -0.692615,1.843439 0,2.546319 0.343567,0.352799 0.796247,0.526482 1.254347,0.526482 0.449977,0 0.905319,-0.173683 1.25163,-0.526482 1.58437,-1.605091 2.386067,-3.725975 2.380608,-5.830607 0.0057,-2.103339 -0.793575,-4.221461 -2.380608,-5.826553 -0.689871,-0.702924 -1.813355,-0.702924 -2.505977,0 z"
     id="path2-7"
     style="display:inline;fill:#010000;fill-opacity:0.78431374;stroke:#ffffff;stroke-width:1;stroke-miterlimit:4;stroke-dasharray:none;stroke-opacity:0.78431374" />
</svg>
