<?xml version="1.0" encoding="UTF-8" standalone="no"?>
<!-- Created with Inkscape (http://www.inkscape.org/) -->

<svg
   xmlns:dc="http://purl.org/dc/elements/1.1/"
   xmlns:cc="http://creativecommons.org/ns#"
   xmlns:rdf="http://www.w3.org/1999/02/22-rdf-syntax-ns#"
   xmlns:svg="http://www.w3.org/2000/svg"
   xmlns="http://www.w3.org/2000/svg"
   xmlns:sodipodi="http://sodipodi.sourceforge.net/DTD/sodipodi-0.dtd"
   xmlns:inkscape="http://www.inkscape.org/namespaces/inkscape"
   width="48"
   height="48"
   viewBox="0 0 12.7 12.7"
   version="1.1"
   id="svg14015"
   inkscape:version="0.92.2 (5c3e80d, 2017-08-06)"
   sodipodi:docname="videos.svg"
   inkscape:export-xdpi="96"
   inkscape:export-ydpi="96">
  <defs
     id="defs14009" />
  <sodipodi:namedview
     id="base"
     pagecolor="#ffffff"
     bordercolor="#666666"
     borderopacity="1.0"
     inkscape:pageopacity="0.0"
     inkscape:pageshadow="2"
     inkscape:zoom="2.8"
     inkscape:cx="74.481576"
     inkscape:cy="-7.4388091"
     inkscape:document-units="px"
     inkscape:current-layer="layer1"
     showgrid="false"
     units="px"
     inkscape:window-width="1920"
     inkscape:window-height="1017"
     inkscape:window-x="-8"
     inkscape:window-y="-8"
     inkscape:window-maximized="1" />
  <metadata
     id="metadata14012">
    <rdf:RDF>
      <cc:Work
         rdf:about="">
        <dc:format>image/svg+xml</dc:format>
        <dc:type
           rdf:resource="http://purl.org/dc/dcmitype/StillImage" />
        <dc:title />
      </cc:Work>
    </rdf:RDF>
  </metadata>
  <g
     inkscape:label="Layer 1"
     inkscape:groupmode="layer"
     id="layer1"
     transform="translate(0,-284.29999)">
    <g
       id="g6469"
       transform="matrix(0.02399486,0,0,0.02399486,0.39687523,284.69687)">
      <path
         id="path6294"
         d="M 496.2,248.1 C 496.2,111.1 385.1,0 248.1,0 111.1,0 0,111.1 0,248.1 c 0,137 111.1,248.1 248.1,248.1 137,0 248.1,-111.1 248.1,-248.1 z"
         style="fill:#32bea6"
         inkscape:connector-curvature="0" />
      <path
         id="path6296"
         d="m 391,376.6 c 0,6.4 -5.2,11.6 -11.6,11.6 H 113 c -6.4,0 -11.6,-5.2 -11.6,-11.6 V 186.1 H 391 Z"
         style="fill:#3a3a38"
         inkscape:connector-curvature="0" />
      <g
         id="g6302">
        <path
           id="path6298"
           d="m 277.4,308.5 c 0,0 -6.3,40 21.8,50.9 6.8,2.7 18.6,3.5 29,-1.1 v -6.1 c 0,0 -13.6,5.3 -25.3,0.7 -12.3,-4.9 -21,-17.2 -18.2,-46.2 z"
           style="fill:#d1d0cf"
           inkscape:connector-curvature="0" />
        <circle
           id="circle6300"
           r="56.599998"
           cy="305.20001"
           cx="244.60001"
           style="fill:#d1d0cf" />
      </g>
      <circle
         id="circle6304"
         r="12.4"
         cy="305.20001"
         cx="244.60001"
         style="fill:#a5a4a4" />
      <circle
         id="circle6306"
         r="9.1999998"
         cy="305.20001"
         cx="244.60001"
         style="fill:#d3d3d3" />
      <g
         id="g6318">
        <circle
           id="circle6308"
           r="13.3"
           cy="271.70001"
           cx="244.60001"
           style="fill:#a09f9f" />
        <circle
           id="circle6310"
           r="13.3"
           cy="332.29999"
           cx="223.3"
           style="fill:#a09f9f" />
        <circle
           id="circle6312"
           r="13.3"
           cy="332.29999"
           cx="264.70001"
           style="fill:#a09f9f" />
        <circle
           id="circle6314"
           r="13.3"
           cy="295.79999"
           cx="212.39999"
           style="fill:#a09f9f" />
        <circle
           id="circle6316"
           r="13.3"
           cy="295.79999"
           cx="276.89999"
           style="fill:#a09f9f" />
      </g>
      <g
         id="g6330">
        <path
           id="path6320"
           d="m 244.6,285 c 7.4,0 13.3,-6 13.3,-13.3 0,-1.6 -0.3,-3.1 -0.8,-4.5 -3.9,-1.3 -8.2,-2 -12.5,-2 -4.4,0 -8.6,0.7 -12.5,2 -0.5,1.4 -0.8,2.9 -0.8,4.5 0,7.4 6,13.3 13.3,13.3 z"
           style="fill:#3a3a38"
           inkscape:connector-curvature="0" />
        <path
           id="path6322"
           d="m 236.6,332.3 c 0,-7.4 -6,-13.3 -13.3,-13.3 -5.5,0 -10.2,3.3 -12.2,8.1 4.8,7.3 11.8,13 20.2,15.9 3.2,-2.5 5.3,-6.4 5.3,-10.7 z"
           style="fill:#3a3a38"
           inkscape:connector-curvature="0" />
        <path
           id="path6324"
           d="m 264.7,318.9 c -7.4,0 -13.3,6 -13.3,13.3 0,4.6 2.3,8.6 5.8,11 8.3,-2.7 15.3,-8.1 20.2,-15 -1.7,-5.4 -6.7,-9.3 -12.7,-9.3 z"
           style="fill:#3a3a38"
           inkscape:connector-curvature="0" />
        <path
           id="path6326"
           d="m 225.7,295.8 c 0,-7.4 -6,-13.3 -13.3,-13.3 -0.2,0 -0.5,0 -0.7,0 -4.5,6.5 -7.1,14.3 -7.1,22.7 0,0.5 0,0.9 0,1.4 2.2,1.6 4.9,2.5 7.7,2.5 7.4,0 13.4,-6 13.4,-13.3 z"
           style="fill:#3a3a38"
           inkscape:connector-curvature="0" />
        <path
           id="path6328"
           d="m 263.6,295.8 c 0,7.4 6,13.3 13.3,13.3 2.9,0 5.6,-0.9 7.7,-2.5 0,-0.5 0,-0.9 0,-1.4 0,-8.4 -2.6,-16.3 -7.1,-22.7 -0.2,0 -0.5,0 -0.7,0 -7.3,0 -13.2,5.9 -13.2,13.3 z"
           style="fill:#3a3a38"
           inkscape:connector-curvature="0" />
      </g>
      <g
         id="g6340">
        <polygon
           id="polygon6332"
           points="181,225.2 152.9,225.2 182.6,186.1 210.7,186.1 "
           style="fill:#ffffff" />
        <polygon
           id="polygon6334"
           points="236.8,225.2 208.7,225.2 238.4,186.1 266.5,186.1 "
           style="fill:#ffffff" />
        <polygon
           id="polygon6336"
           points="291.7,225.2 263.6,225.2 293.3,186.1 321.4,186.1 "
           style="fill:#ffffff" />
        <polygon
           id="polygon6338"
           points="347,225.2 318.9,225.2 348.6,186.1 376.7,186.1 "
           style="fill:#ffffff" />
      </g>
      <polygon
         id="polygon6342"
         points="151.7,136.8 123.8,140.1 158,175.2 185.9,171.8 "
         style="fill:#3a3a38" />
      <g
         id="g6348">
        <polygon
           id="polygon6344"
           points="124.2,140.1 104.7,142.4 130.5,178.5 158.3,175.2 "
           style="fill:#ffffff" />
        <polygon
           id="polygon6346"
           points="179.2,133.5 151.3,136.8 185.4,171.9 213.3,168.5 "
           style="fill:#ffffff" />
      </g>
      <polygon
         id="polygon6350"
         points="206.7,130.2 178.8,133.5 212.9,168.6 240.8,165.2 "
         style="fill:#3a3a38" />
      <polygon
         id="polygon6352"
         points="234.5,126.8 206.7,130.2 240.8,165.2 268.7,161.9 "
         style="fill:#ffffff" />
      <polygon
         id="polygon6354"
         points="262,123.5 234.1,126.8 268.3,161.9 296.1,158.5 "
         style="fill:#3a3a38" />
      <polygon
         id="polygon6356"
         points="289.1,120.2 261.2,123.6 295.3,158.6 323.2,155.3 "
         style="fill:#ffffff" />
      <polygon
         id="polygon6358"
         points="316.5,116.9 288.7,120.3 322.8,155.3 350.7,152 "
         style="fill:#3a3a38" />
      <polygon
         id="polygon6360"
         points="344,113.6 316.1,117 350.3,152 378.2,148.7 "
         style="fill:#ffffff" />
      <g
         id="g6366">
        <polygon
           id="polygon6362"
           points="384.1,108.7 344.4,113.6 378.6,148.6 388.7,147.4 "
           style="fill:#3a3a38" />
        <polygon
           id="polygon6364"
           points="198.6,228.5 101.4,228.5 101.4,142.8 115.5,141.1 "
           style="fill:#3a3a38" />
      </g>
      <g
         id="g6374">
        <circle
           id="circle6368"
           r="5.6999998"
           cy="163.39999"
           cx="115"
           style="fill:#b5b4a0" />
        <circle
           id="circle6370"
           r="5.6999998"
           cy="208.10001"
           cx="115"
           style="fill:#b5b4a0" />
        <circle
           id="circle6372"
           r="5.6999998"
           cy="208.10001"
           cx="159.8"
           style="fill:#b5b4a0" />
      </g>
      <g
         id="g6376" />
      <g
         id="g6378" />
      <g
         id="g6380" />
      <g
         id="g6382" />
      <g
         id="g6384" />
      <g
         id="g6386" />
      <g
         id="g6388" />
      <g
         id="g6390" />
      <g
         id="g6392" />
      <g
         id="g6394" />
      <g
         id="g6396" />
      <g
         id="g6398" />
      <g
         id="g6400" />
      <g
         id="g6402" />
      <g
         id="g6404" />
    </g>
  </g>
</svg>
